<svg width="32" height="32" viewBox="0 0 32 32" fill="none" xmlns="http://www.w3.org/2000/svg">
<path d="M19.2669 16.0331C19.2669 16.6665 19.0668 17.2998 18.7335 17.8331C18.3668 18.3665 17.8669 18.7665 17.2669 19.0331C16.6669 19.2665 16.0335 19.3331 15.4002 19.2331C14.7668 19.0998 14.2002 18.7998 13.7335 18.3331C13.2668 17.8665 12.9668 17.2998 12.8335 16.6665C12.7002 16.0331 12.7669 15.3998 13.0335 14.7998C13.2669 14.1998 13.7002 13.6998 14.2335 13.3331C14.7668 12.9665 15.4002 12.7998 16.0335 12.7998C16.9002 12.7998 17.7335 13.1331 18.3335 13.7331C18.9335 14.3664 19.2669 15.1998 19.2669 16.0331Z" stroke="white" stroke-opacity="0.5" stroke-linejoin="round"/>
<path d="M10.7667 9.56665C10.2 10.0333 9.66665 10.5667 9.23332 11.1667L7.29997 10.5333L6 13.6667L7.79997 14.5667C7.66663 15.4667 7.66663 16.3667 7.79997 17.2333L6 18.1333L7.29997 21.2667L9.23332 20.6333C9.76665 21.3667 10.4 22 11.1333 22.5333L10.5 24.4334L13.6333 25.7333L14.5334 23.9334C15.7334 24.3667 18.7 24.4334 19.9 24.4334H26.4V23.1333L30.9334 26.3667L26.4 30.2667V28.9667H15.3667" stroke="white" stroke-opacity="0.5" stroke-linejoin="round"/>
<path d="M21.2668 22.5332C21.8334 22.0666 22.3667 21.5333 22.8 20.9333L24.7001 21.5666L26.0001 18.4333L24.2001 17.5332C24.3334 16.6332 24.3334 15.7332 24.2001 14.8666L26.0001 13.9666L24.7001 10.8333L22.8 11.4666C22.2667 10.7333 21.6334 10.0999 20.9001 9.56657L21.5334 7.66658L18.4001 6.36658L17.5001 8.16658C16.3001 7.73325 13.3334 7.66658 12.1334 7.66658H5.63338V8.96659L1.1001 5.73324L5.63338 1.83325V3.13326H11.1334H16.6334" stroke="white" stroke-opacity="0.5" stroke-linejoin="round"/>
<path d="M14.7999 29.1333C5.73328 28.3666 1.93329 20.1666 3.23329 14.3333" stroke="white" stroke-opacity="0.5" stroke-dasharray="3 3"/>
<path d="M17.2002 3.06665C26.2669 3.83332 30.0668 12.0333 28.7668 17.8667" stroke="white" stroke-opacity="0.5" stroke-dasharray="3 3"/>
</svg>
