<svg width="32" height="32" viewBox="0 0 32 32" fill="none" xmlns="http://www.w3.org/2000/svg">
<path d="M20.9999 6.86658H20.2" stroke="white" stroke-opacity="0.5" stroke-linejoin="round"/>
<path d="M18.8334 6.86658H14.0334" stroke="white" stroke-opacity="0.5" stroke-linejoin="round"/>
<path d="M13.3667 6.86658H12.5667" stroke="white" stroke-opacity="0.5" stroke-linejoin="round"/>
<path d="M6.46655 4.39994H20.9999V2.23328L24.2999 5.53328L20.9999 8.83328V6.86661" stroke="white" stroke-opacity="0.5" stroke-linejoin="round"/>
<path d="M27.6667 16.1999V14.2333L30.9666 17.5333L27.6667 20.8333V18.8666H23.0667" stroke="white" stroke-opacity="0.5" stroke-linejoin="round"/>
<path d="M23.9666 16.2H24.7666" stroke="white" stroke-opacity="0.5" stroke-linejoin="round"/>
<path d="M26.8333 16.2H27.6332" stroke="white" stroke-opacity="0.5" stroke-linejoin="round"/>
<path d="M23.0001 25.5666V23.4332L26.3 26.7332L23.0001 30.0332V28.0666H4.66675" stroke="white" stroke-opacity="0.5" stroke-linejoin="round"/>
<path d="M19.4666 25.5667H20.2666" stroke="white" stroke-opacity="0.5" stroke-linejoin="round"/>
<path d="M22.2334 25.5667H23.0334" stroke="white" stroke-opacity="0.5" stroke-linejoin="round"/>
<path d="M1.06665 24H1.8667" stroke="white" stroke-opacity="0.5" stroke-linejoin="round"/>
<path d="M3.3667 24H5.6333" stroke="white" stroke-opacity="0.5" stroke-linejoin="round"/>
<path d="M6.3999 24H7.19995" stroke="white" stroke-opacity="0.5" stroke-linejoin="round"/>
<path d="M15.3999 16.8666C15.3999 17.9666 14.5333 18.8332 13.4333 18.8332C12.3333 18.8332 11.4666 17.9666 11.4666 16.8666C11.4666 15.7666 12.3333 14.8999 13.4333 14.8999C14.5333 14.8999 15.3999 15.7999 15.3999 16.8666Z" stroke="white" stroke-opacity="0.5" stroke-miterlimit="10"/>
<path d="M21.2333 15.1333L20.4 13L18.3667 13.6C18 13.0333 17.5333 12.5666 17 12.1666L17.7 10.1666L15.6 9.23331L14.5667 11.1C13.9333 10.9666 13.2667 10.9666 12.6 11.0333L11.6667 9.09998L9.53337 9.93331L10.1333 11.9666C9.56663 12.3333 9.10003 12.8 8.70003 13.3333L6.70003 12.6333L5.76668 14.7333L7.6333 15.7666C7.49997 16.4 7.49998 17.0666 7.56665 17.7333L5.6333 18.6666L6.46663 20.8L8.5 20.2C8.86667 20.7666 9.33337 21.2333 9.8667 21.6333L9.16667 23.6333L11.2667 24.5666L12.3 22.7C12.9333 22.8333 13.6 22.8666 14.2667 22.7666L15.2 24.7L17.3333 23.8666L16.7333 21.8333C17.3 21.4666 17.7667 21 18.1667 20.4666L20.1667 21.1666L21.1 19.0666L19.2333 18.0333C19.3667 17.4 19.3666 16.7333 19.3 16.0666L21.2333 15.1333Z" stroke="white" stroke-opacity="0.5" stroke-linejoin="round"/>
<path d="M7.23332 10.2999H6.43335" stroke="white" stroke-opacity="0.5" stroke-linejoin="round"/>
<path d="M5.03328 10.2999H2.96655" stroke="white" stroke-opacity="0.5" stroke-linejoin="round"/>
<path d="M2.2666 10.2999H1.46655" stroke="white" stroke-opacity="0.5" stroke-linejoin="round"/>
</svg>
