<svg width="32" height="32" viewBox="0 0 32 32" fill="none" xmlns="http://www.w3.org/2000/svg">
<path d="M20.5332 16.0998C20.5332 15.6664 20.4665 15.1998 20.3332 14.7998L21.4332 14.1664L20.3998 12.3664L19.2998 12.9998C18.6998 12.3664 17.9332 11.8997 17.0332 11.6997V10.4331H14.9332V11.6997C14.0665 11.8997 13.2665 12.3664 12.6665 12.9998L11.5665 12.3664L10.5332 14.1664L11.6331 14.7998C11.4998 15.1998 11.4332 15.6331 11.4332 16.0998C11.4332 16.5664 11.4998 16.9997 11.6331 17.3997L10.5332 18.0331L11.5665 19.8331L12.6665 19.1997C13.2665 19.8331 14.0332 20.2998 14.9332 20.4998V21.7664H17.0332V20.4998C17.8999 20.2998 18.6998 19.8331 19.2998 19.1997L20.3998 19.8331L21.4332 18.0331L20.3332 17.3997C20.4665 16.9997 20.5332 16.5664 20.5332 16.0998Z" stroke="white" stroke-opacity="0.5"/>
<path d="M15.9666 18.1331C17.1 18.1331 18.0334 17.2331 18.0334 16.0998C18.0334 14.9664 17.1 14.0664 15.9666 14.0664C14.8333 14.0664 13.9333 14.9664 13.9333 16.0998C13.9333 17.2331 14.8333 18.1331 15.9666 18.1331Z" stroke="white" stroke-opacity="0.5"/>
<path d="M25.5332 16.0998C25.5332 16.0664 25.5332 16.0664 25.5332 16.0331H24.0665L27.0665 11.5664L30.0665 16.0331H28.5999C28.5999 16.0664 28.5999 16.0664 28.5999 16.0998C28.5999 16.6664 28.5665 17.2331 28.4998 17.7998C27.6665 23.9664 22.3665 28.6997 15.9332 28.6997C11.4665 28.6997 7.53314 26.3998 5.2998 22.9664" stroke="white" stroke-opacity="0.5"/>
<path d="M26.5999 9.2332C24.3333 5.79986 20.4332 3.5332 15.9666 3.5332C9.59989 3.5332 4.29993 8.19989 3.43327 14.2666C3.33327 14.8332 3.29989 15.4332 3.29989 16.0332H1.8999L4.8999 20.4999L6.59994 17.9666L7.8999 16.0332H6.3999" stroke="white" stroke-opacity="0.5"/>
<path d="M15.9666 25.5998C16.1666 25.5998 16.3333 25.5997 16.5333 25.5664" stroke="white" stroke-opacity="0.5"/>
<path d="M17.5999 25.4666C21.7665 24.7666 24.9998 21.4 25.4665 17.2" stroke="white" stroke-opacity="0.5" stroke-dasharray="4 4"/>
<path d="M25.5332 16.6665C25.5332 16.4665 25.5665 16.2999 25.5665 16.0999" stroke="white" stroke-opacity="0.5"/>
<path d="M6.3999 16.0332C6.3999 15.8332 6.39993 15.6666 6.43327 15.4666" stroke="white" stroke-opacity="0.5"/>
<path d="M6.56665 14.3998C7.29998 10.3332 10.6667 7.13317 14.8667 6.6665" stroke="white" stroke-opacity="0.5" stroke-dasharray="4 4"/>
<path d="M15.3999 6.63318C15.5999 6.63318 15.7666 6.59985 15.9666 6.59985" stroke="white" stroke-opacity="0.5"/>
</svg>
