<svg width="32" height="32" viewBox="0 0 32 32" fill="none" xmlns="http://www.w3.org/2000/svg">
<path d="M30.9 7.66663H14.9333V19.6333H30.9V7.66663Z" stroke="white" stroke-opacity="0.5" stroke-linejoin="round"/>
<path d="M14.8999 17.6667L20.2332 12.3334L24.8999 17" stroke="white" stroke-opacity="0.5" stroke-linejoin="round"/>
<path d="M22.8999 15L24.8999 13L30.8999 19" stroke="white" stroke-opacity="0.5" stroke-linejoin="round"/>
<path d="M26.2334 11H27.5667" stroke="white" stroke-opacity="0.5" stroke-linejoin="round"/>
<path d="M18.2334 21V21.6333" stroke="white" stroke-opacity="0.5" stroke-linejoin="round"/>
<path d="M18.2334 22.9667V27.6667" stroke="white" stroke-opacity="0.5" stroke-linejoin="round" stroke-dasharray="4.01 4.01"/>
<path d="M18.2334 28.3334V28.9667H17.6001" stroke="white" stroke-opacity="0.5" stroke-linejoin="round"/>
<path d="M16.3666 28.9667H2.19995" stroke="white" stroke-opacity="0.5" stroke-linejoin="round" stroke-dasharray="3.69 3.69"/>
<path d="M1.56669 28.9667H0.93335V28.3334" stroke="white" stroke-opacity="0.5" stroke-linejoin="round"/>
<path d="M0.93335 27.0667V17.6001" stroke="white" stroke-opacity="0.5" stroke-linejoin="round" stroke-dasharray="3.78 3.78"/>
<path d="M0.93335 16.9667V16.3334H1.56669" stroke="white" stroke-opacity="0.5" stroke-linejoin="round"/>
<path d="M2.83325 16.3334H12.2999" stroke="white" stroke-opacity="0.5" stroke-linejoin="round" stroke-dasharray="3.78 3.78"/>
<path d="M12.9333 16.3334H13.5667" stroke="white" stroke-opacity="0.5" stroke-linejoin="round"/>
<path d="M18.9 6.33333V1H4.93335V14.9667" stroke="white" stroke-opacity="0.5" stroke-linejoin="round"/>
<path d="M6.93327 25L4.2666 23L6.93327 21" stroke="white" stroke-opacity="0.5" stroke-linejoin="round"/>
<path d="M12.2334 25L14.9001 23L12.2334 21" stroke="white" stroke-opacity="0.5" stroke-linejoin="round"/>
<path d="M10.9001 19.6666L8.2334 26.3333" stroke="white" stroke-opacity="0.5" stroke-linejoin="round"/>
<path d="M8.2666 5.03333H15.5999" stroke="white" stroke-opacity="0.5" stroke-linejoin="round"/>
<path d="M8.2666 7.66663H12.9333" stroke="white" stroke-opacity="0.5" stroke-linejoin="round"/>
<path d="M8.2666 10.3334H12.9333" stroke="white" stroke-opacity="0.5" stroke-linejoin="round"/>
<path d="M8.2666 13H12.9333" stroke="white" stroke-opacity="0.5" stroke-linejoin="round"/>
</svg>
