<svg width="32" height="32" viewBox="0 0 32 32" fill="none" xmlns="http://www.w3.org/2000/svg">
<path d="M12.7685 16.3333H11.0352V20.0666C11.0352 20.7 10.3019 21 10.0352 20.5333L7.00187 16.3333H5.83521C4.83521 16.3333 4.10181 15.5667 4.10181 14.4667V3.86666C4.10181 2.76666 4.83521 2 5.83521 2H26.6685C27.6685 2 28.4019 2.76666 28.4019 3.86666V14.4667C28.4019 15.5667 27.6685 16.3333 26.6685 16.3333H22.0352" stroke="white" stroke-opacity="0.5" stroke-miterlimit="8"/>
<path d="M12.002 8.8667H14.1019" stroke="white" stroke-opacity="0.5" stroke-miterlimit="8"/>
<path d="M15.1685 8.8667H16.7684" stroke="white" stroke-opacity="0.5" stroke-miterlimit="8"/>
<path d="M17.8352 8.8667H19.9351" stroke="white" stroke-opacity="0.5" stroke-miterlimit="8"/>
<path d="M17.5685 20.5C19.1685 20.5 20.4684 19.1 20.4684 17.4333V16.2C20.4684 14.5 19.1685 13.1333 17.5685 13.1333C15.9685 13.1333 14.6685 14.5333 14.6685 16.2V17.4333C14.6685 19.1 15.9685 20.5 17.5685 20.5Z" stroke="white" stroke-opacity="0.5" stroke-miterlimit="8"/>
<path d="M24.1685 30V25.7333C24.1685 23.3 19.8019 22.0667 17.5686 22.0667C15.3353 22.0667 10.9685 23.3 10.9685 25.7333V30" stroke="white" stroke-opacity="0.5" stroke-miterlimit="8"/>
<path d="M21.002 30V27.3667" stroke="white" stroke-opacity="0.5" stroke-miterlimit="8"/>
<path d="M14.1353 27.3667V30" stroke="white" stroke-opacity="0.5" stroke-miterlimit="8"/>
<path d="M9.36865 30H25.7686" stroke="white" stroke-opacity="0.5" stroke-miterlimit="8"/>
<path d="M8.30192 30H7.23535" stroke="white" stroke-opacity="0.5" stroke-miterlimit="8"/>
<path d="M5.66854 30H4.60181" stroke="white" stroke-opacity="0.5" stroke-miterlimit="8"/>
<path d="M27.8685 30H26.8018" stroke="white" stroke-opacity="0.5" stroke-miterlimit="8"/>
</svg>
