<svg width="144" height="144" viewBox="0 0 144 144" fill="none" xmlns="http://www.w3.org/2000/svg">
<path d="M30.2683 18.6332V12.8166C30.2683 11.2171 31.5634 9.90833 33.1464 9.90833H125.244C126.827 9.90833 128.122 11.2171 128.122 12.8166V70.9822" stroke="white" stroke-width="2" stroke-linejoin="round"/>
<path d="M15.8781 129.148V27.358C15.8781 25.7584 17.1732 24.4497 18.7561 24.4497H110.854C112.437 24.4497 113.732 25.7584 113.732 27.358V94.2484" stroke="white" stroke-width="2" stroke-linejoin="round"/>
<path d="M15.8781 47.7158L105.098 47.7158" stroke="white" stroke-width="2" stroke-linejoin="round"/>
<path d="M24.5122 36.0828H30.2683" stroke="white" stroke-width="2" stroke-linejoin="round"/>
<path d="M36.0244 36.0828H41.7805" stroke="white" stroke-width="2" stroke-linejoin="round"/>
<path d="M47.5366 36.0828H53.2927" stroke="white" stroke-width="2" stroke-linejoin="round"/>
<path d="M113.732 100.065V105.881" stroke="white" stroke-width="2" stroke-linejoin="round"/>
<path d="M128.122 88.4318V94.2483" stroke="white" stroke-width="2" stroke-linejoin="round"/>
<path d="M128.122 76.7987V82.6153" stroke="white" stroke-width="2" stroke-linejoin="round"/>
<path d="M99.3414 90.0022L94.6502 78.5436L85.8722 82.208C84.1166 79.7069 81.958 77.5839 79.5692 75.8389L83.1956 66.9686L71.8561 62.2281L68.2297 71.0984C65.3229 70.604 62.3297 70.5749 59.3366 71.0984L55.7102 62.2281L44.3707 66.9686L47.997 75.8389C45.5219 77.6129 43.421 79.7941 41.6941 82.208L32.9161 78.5436L28.2249 90.0022L37.0029 93.6666C36.5136 96.604 36.4849 99.6286 37.0029 102.653L28.2249 106.318L32.9161 117.776L41.6941 114.112C43.4497 116.613 45.6083 118.736 47.997 120.481L44.3707 129.351L55.7102 134.092L59.3366 125.221C62.2434 125.716 65.2366 125.745 68.2297 125.221L71.8561 134.092L83.1956 129.351L79.5692 120.481C82.0444 118.707 84.1453 116.526 85.8722 114.112L94.6502 117.776L99.3414 106.318L90.5634 102.653C91.0527 99.7158 91.0814 96.6912 90.5634 93.6666L99.3414 90.0022Z" stroke="white" stroke-width="2" stroke-linejoin="round"/>
<path d="M74.8205 93.5794C77.3531 99.7159 74.4463 106.783 68.3736 109.313C62.3009 111.872 55.3073 108.935 52.8034 102.799C50.2707 96.6622 53.1775 89.595 59.2502 87.0648C65.3229 84.5346 72.3166 87.4429 74.8205 93.5794V93.5794Z" stroke="white" stroke-width="2" stroke-linejoin="round"/>
</svg>
