<svg width="96" height="96" viewBox="0 0 96 96" fill="none" xmlns="http://www.w3.org/2000/svg">
<path d="M67 80.9167C79.1503 80.9167 89 71.5575 89 60.0123C89 48.4671 79.1503 39.1079 67 39.1079C54.8497 39.1079 45 48.4671 45 60.0123C45 71.5575 54.8497 80.9167 67 80.9167Z" stroke="white" stroke-width="2" stroke-miterlimit="10"/>
<path d="M56.92 78.9364L43.18 92.6793C41.42 94.4397 38.56 94.4397 36.8 92.6793C35.04 90.919 35.04 88.0584 36.8 86.298L50 73.0952" stroke="white" stroke-width="2" stroke-miterlimit="10"/>
<path d="M15 69.0144V47.0098H31" stroke="white" stroke-width="2" stroke-linecap="round" stroke-linejoin="round" stroke-dasharray="4 4"/>
<path d="M31 69.0143V29.0059H47" stroke="white" stroke-width="2" stroke-linecap="round" stroke-linejoin="round" stroke-dasharray="4 4"/>
<path d="M47 39.0081V17.0034H63" stroke="white" stroke-width="2" stroke-linecap="round" stroke-linejoin="round" stroke-dasharray="4 4"/>
<path d="M63 33.0068V3.00049H79V35.0072" stroke="white" stroke-width="2" stroke-linecap="round" stroke-linejoin="round" stroke-dasharray="4 4"/>
<path d="M7 69.0144H39" stroke="white" stroke-width="2" stroke-linecap="round" stroke-linejoin="round" stroke-dasharray="4 4"/>
</svg>
