<svg width="144" height="144" viewBox="0 0 144 144" fill="none" xmlns="http://www.w3.org/2000/svg">
<path d="M68.951 17.119H56.7552V4.92322H87.2447V17.119H75.0489" stroke="white" stroke-width="2" stroke-miterlimit="10"/>
<path d="M78.0979 23.2169V29.6807C105.538 32.7296 126.881 55.9626 126.881 84.1958C126.881 114.502 102.306 139.077 72 139.077C41.6935 139.077 17.119 114.502 17.119 84.1958C17.119 55.9626 38.4616 32.6991 65.9021 29.6807V23.2169" stroke="white" stroke-width="2" stroke-miterlimit="10"/>
<path d="M120.783 35.4127L111.636 26.2659" stroke="white" stroke-width="2" stroke-miterlimit="10"/>
<path d="M105.538 41.5106L114.685 32.3638" stroke="white" stroke-width="2" stroke-miterlimit="10"/>
<path d="M23.2169 35.4127L32.3637 26.2659" stroke="white" stroke-width="2" stroke-miterlimit="10"/>
<path d="M38.4616 41.5106L29.3148 32.3638" stroke="white" stroke-width="2" stroke-miterlimit="10"/>
<path d="M72 41.5106V84.1958H114.685C114.685 60.6275 95.5683 41.5106 72 41.5106Z" stroke="white" stroke-width="2" stroke-miterlimit="10" stroke-dasharray="4 4"/>
<path d="M29.3148 84.1958C29.3148 107.764 47.6085 126.881 72 126.881" stroke="white" stroke-width="2" stroke-miterlimit="10"/>
</svg>
