<svg width="97" height="96" viewBox="0 0 97 96" fill="none" xmlns="http://www.w3.org/2000/svg">
<path d="M18.0071 46.67V51.97L26.5972 53.2C27.1472 55.53 28.0671 57.7701 29.3171 59.8101L24.1172 66.74L29.7371 72.36L36.687 67.15C38.727 68.41 40.9571 69.33 43.2871 69.88L44.5171 78.47H52.4771L53.707 69.88C56.037 69.33 58.2771 68.41 60.3171 67.16L67.2471 72.36L72.8672 66.74L67.657 59.79C68.917 57.75 69.837 55.5199 70.387 53.1899L78.9771 51.96V46.66" stroke="white" stroke-width="1.5" stroke-linecap="round" stroke-linejoin="round"/>
<path d="M61.147 51.98C59.457 57.36 54.4271 61.26 48.4971 61.26C42.5671 61.26 37.4671 57.31 35.8171 51.87" stroke="white" stroke-width="1.5" stroke-linecap="round" stroke-linejoin="round"/>
<path d="M23.3472 59.9301H18.0471V64.6899C17.1371 65.0599 16.2771 65.55 15.4971 66.16L11.377 63.78L7.39697 70.67L11.5271 73.05C11.4571 73.54 11.417 74.02 11.407 74.51C11.417 75 11.4471 75.49 11.5271 75.97L7.39697 78.35L11.377 85.24L15.4971 82.86C16.2671 83.47 17.1271 83.96 18.0371 84.33V89.09H25.9871V84.33C26.8971 83.96 27.7571 83.47 28.5371 82.86L32.657 85.24L36.637 78.35L32.5171 75.97" stroke="white" stroke-width="1.5" stroke-linecap="round" stroke-linejoin="round"/>
<path d="M26.6072 77.17C25.6872 78.75 23.9771 79.8199 22.0171 79.8199C19.0871 79.8199 16.717 77.45 16.717 74.52C16.717 72.56 17.7772 70.8501 19.3672 69.9301" stroke="white" stroke-width="1.5" stroke-linecap="round" stroke-linejoin="round"/>
<path d="M73.657 59.9301H78.957V64.6899C79.867 65.0599 80.7271 65.55 81.4971 66.16L85.6172 63.78L89.5972 70.67L85.467 73.05C85.537 73.54 85.5772 74.02 85.5872 74.51C85.5772 75 85.547 75.49 85.467 75.97L89.5972 78.35L85.6172 85.24L81.4871 82.86C80.7171 83.47 79.857 83.96 78.957 84.33V89.09H70.9971V84.33C70.0871 83.96 69.227 83.47 68.447 82.86L64.3271 85.24L60.3472 78.35L64.467 75.97" stroke="white" stroke-width="1.5" stroke-linecap="round" stroke-linejoin="round"/>
<path d="M70.387 77.17C71.307 78.75 73.0171 79.8199 74.9771 79.8199C77.9071 79.8199 80.2771 77.45 80.2771 74.52C80.2771 72.56 79.217 70.8501 77.627 69.9301" stroke="white" stroke-width="1.5" stroke-linecap="round" stroke-linejoin="round"/>
<path d="M37.897 37.4V28.12C37.897 25.18 40.257 22.8199 43.197 22.8199" stroke="white" stroke-width="1.5" stroke-linecap="round" stroke-linejoin="round"/>
<path d="M53.7971 22.8101C56.7371 22.8101 59.0972 25.17 59.0972 28.11V37.39" stroke="white" stroke-width="1.5" stroke-linecap="round" stroke-linejoin="round"/>
<path d="M48.4971 26.79V25.46" stroke="white" stroke-width="1.5" stroke-linecap="round" stroke-linejoin="round"/>
<path d="M48.4971 37.4V32.1" stroke="white" stroke-width="1.5" stroke-linecap="round" stroke-linejoin="round"/>
<path d="M48.4971 6.91003C51.4371 6.91003 53.7971 9.26996 53.7971 12.21V14.86C53.7971 17.8 51.4371 20.16 48.4971 20.16C45.5571 20.16 43.197 17.8 43.197 14.86V12.21C43.197 9.26996 45.5571 6.91003 48.4971 6.91003Z" stroke="white" stroke-width="1.5" stroke-linecap="round" stroke-linejoin="round"/>
<path d="M7.40698 46.67V32.09C7.40698 29.15 9.77703 26.79 12.707 26.79" stroke="white" stroke-width="1.5" stroke-linecap="round" stroke-linejoin="round"/>
<path d="M23.3171 26.79C26.2571 26.79 28.6172 29.15 28.6172 32.09V41.37" stroke="white" stroke-width="1.5" stroke-linecap="round" stroke-linejoin="round"/>
<path d="M18.0071 30.77V29.4399" stroke="white" stroke-width="1.5" stroke-linecap="round" stroke-linejoin="round"/>
<path d="M18.0071 41.37V36.0699" stroke="white" stroke-width="1.5" stroke-linecap="round" stroke-linejoin="round"/>
<path d="M18.0071 10.88C20.9471 10.88 23.3071 13.2401 23.3071 16.1801V18.83C23.3071 21.77 20.9471 24.13 18.0071 24.13C15.0671 24.13 12.707 21.77 12.707 18.83V16.1801C12.707 13.2501 15.0671 10.88 18.0071 10.88Z" stroke="white" stroke-width="1.5" stroke-linecap="round" stroke-linejoin="round"/>
<path d="M68.387 41.37V32.09C68.387 29.15 70.747 26.79 73.687 26.79" stroke="white" stroke-width="1.5" stroke-linecap="round" stroke-linejoin="round"/>
<path d="M84.2971 26.79C87.2371 26.79 89.5972 29.15 89.5972 32.09V46.67" stroke="white" stroke-width="1.5" stroke-linecap="round" stroke-linejoin="round"/>
<path d="M78.9871 30.77V29.4399" stroke="white" stroke-width="1.5" stroke-linecap="round" stroke-linejoin="round"/>
<path d="M78.9871 41.37V36.0699" stroke="white" stroke-width="1.5" stroke-linecap="round" stroke-linejoin="round"/>
<path d="M78.9871 10.88C81.9271 10.88 84.2871 13.2501 84.2871 16.1801V18.83C84.2871 21.77 81.9271 24.13 78.9871 24.13C76.0471 24.13 73.687 21.77 73.687 18.83V16.1801C73.687 13.2501 76.0471 10.88 78.9871 10.88Z" stroke="white" stroke-width="1.5" stroke-linecap="round" stroke-linejoin="round"/>
<path d="M24.637 46.67H72.3572" stroke="white" stroke-width="1.5" stroke-linecap="round" stroke-linejoin="round"/>
<path d="M37.897 46.67V42.6899" stroke="white" stroke-width="1.5" stroke-linecap="round" stroke-linejoin="round"/>
<path d="M7.40698 51.98V54.63" stroke="white" stroke-width="1.5" stroke-linecap="round" stroke-linejoin="round"/>
<path d="M89.5872 51.98V54.63" stroke="white" stroke-width="1.5" stroke-linecap="round" stroke-linejoin="round"/>
<path d="M59.1072 46.67V42.6899" stroke="white" stroke-width="1.5" stroke-linecap="round" stroke-linejoin="round"/>
</svg>
