<svg width="97" height="96" viewBox="0 0 97 96" fill="none" xmlns="http://www.w3.org/2000/svg">
<path d="M32.1411 21.96C32.1811 21.93 32.2112 21.91 32.2512 21.89C32.7012 21.58 33.1613 21.28 33.6213 20.99" stroke="white" stroke-width="1.5"/>
<path d="M36.7212 19.24C41.9012 16.63 47.7512 15.16 53.9512 15.16C75.1812 15.16 92.4011 32.41 92.4011 53.67C92.4011 74.93 75.1912 92.18 53.9512 92.18C32.7112 92.18 15.5012 74.93 15.5012 53.67C15.5012 46.92 17.2313 40.59 20.2812 35.07" stroke="white" stroke-width="1.5" stroke-dasharray="3.94 3.94"/>
<path d="M21.1611 33.55C21.4711 33.04 21.7913 32.55 22.1213 32.06" stroke="white" stroke-width="1.5"/>
<path d="M38.4211 31.24C38.6011 31.11 38.8012 30.98 38.9912 30.86C43.2812 28.02 48.4312 26.38 53.9512 26.38C68.9912 26.38 81.2012 38.59 81.2012 53.67C81.2012 68.75 69.0012 80.96 53.9512 80.96C38.8912 80.96 26.6912 68.75 26.6912 53.67C26.6912 48.13 28.3412 42.98 31.1812 38.68" stroke="white" stroke-width="1.5"/>
<path d="M47.0513 38.8C49.1413 37.82 51.4812 37.27 53.9512 37.27C62.9912 37.27 70.3213 44.61 70.3213 53.66C70.3213 62.72 62.9812 70.05 53.9512 70.05C44.9012 70.05 37.5713 62.71 37.5713 53.66C37.5713 51.19 38.1113 48.85 39.1113 46.75" stroke="white" stroke-width="1.5"/>
<path d="M53.9412 59.35C57.0712 59.35 59.6113 56.81 59.6113 53.67C59.6113 50.53 57.0712 47.99 53.9412 47.99C50.8112 47.99 48.2712 50.53 48.2712 53.67C48.2812 56.81 50.8212 59.35 53.9412 59.35Z" stroke="white" stroke-width="1.5"/>
<path d="M26.7212 26.41L26.7913 14.66L16.2512 4.10999V15.93L53.9512 53.68" stroke="white" stroke-width="1.5"/>
<path d="M25.5413 25.2L26.7913 26.46L25.0212 26.49" stroke="white" stroke-width="1.5"/>
<path d="M22.2212 26.54L18.0312 26.62" stroke="white" stroke-width="1.5"/>
<path d="M16.6311 26.64L14.8613 26.67L13.6013 25.41" stroke="white" stroke-width="1.5"/>
<path d="M10.9312 22.74L6.92114 18.72" stroke="white" stroke-width="1.5"/>
<path d="M5.5813 17.38L4.32129 16.12L6.09131 16.1" stroke="white" stroke-width="1.5"/>
<path d="M8.91113 16.06L13.1311 16" stroke="white" stroke-width="1.5"/>
<path d="M14.5413 15.99L16.3113 15.97L17.5713 17.23" stroke="white" stroke-width="1.5"/>
<path d="M20.2312 19.88L24.2112 23.87" stroke="white" stroke-width="1.5"/>
</svg>
