<svg width="97" height="96" viewBox="0 0 97 96" fill="none" xmlns="http://www.w3.org/2000/svg">
<path d="M48.499 87.0601C52.499 87.0601 55.759 83.8 55.759 79.8C55.759 75.8 52.499 72.55 48.499 72.55C44.499 72.55 41.249 75.81 41.249 79.8C41.249 83.81 44.499 87.0601 48.499 87.0601Z" stroke="white" stroke-width="1.5" stroke-miterlimit="10"/>
<path d="M48.499 50.85C52.499 50.85 55.759 47.59 55.759 43.6C55.759 39.6 52.499 36.34 48.499 36.34C44.499 36.34 41.249 39.6 41.249 43.6C41.249 47.59 44.499 50.85 48.499 50.85Z" stroke="white" stroke-width="1.5" stroke-miterlimit="10"/>
<path d="M34.0491 23.73C38.0491 23.73 41.2991 20.47 41.2991 16.48C41.2391 12.48 38.0391 9.22998 34.0491 9.22998C30.0591 9.22998 26.7991 12.49 26.7991 16.48C26.7991 20.47 30.0591 23.73 34.0491 23.73Z" stroke="white" stroke-width="1.5" stroke-miterlimit="10" stroke-dasharray="5.5 5.5"/>
<path d="M48.499 68.92V50.84" stroke="white" stroke-width="1.5" stroke-miterlimit="10"/>
<path d="M43.0891 32.77L37.679 23.73" stroke="white" stroke-width="1.5" stroke-miterlimit="10" stroke-dasharray="5.5 5.5"/>
<path d="M68.4189 63.51C72.4189 63.51 75.6689 60.25 75.6689 56.25C75.6689 52.25 72.4089 49 68.4189 49C64.4289 49 61.1589 52.26 61.1589 56.25C61.1589 60.26 64.4289 63.51 68.4189 63.51Z" stroke="white" stroke-width="1.5" stroke-miterlimit="10"/>
<path d="M62.949 23.73C66.949 23.73 70.209 20.47 70.209 16.48C70.209 12.48 66.949 9.22998 62.949 9.22998C58.949 9.22998 55.759 12.49 55.759 16.48C55.759 20.47 58.949 23.73 62.949 23.73Z" stroke="white" stroke-width="1.5" stroke-miterlimit="10" stroke-dasharray="5.5 5.5"/>
<path d="M75.6191 45.4399L79.249 40.03" stroke="white" stroke-width="1.5" stroke-miterlimit="10" stroke-dasharray="5.5 5.5"/>
<path d="M57.5391 70.77L63.929 61.73" stroke="white" stroke-width="1.5" stroke-miterlimit="10"/>
<path d="M82.8691 40.03C86.8691 40.03 90.1289 36.77 90.1289 32.78C90.1289 28.78 86.8691 25.52 82.8691 25.52C78.8691 25.52 75.6191 28.78 75.6191 32.78C75.6191 36.77 78.8691 40.03 82.8691 40.03Z" stroke="white" stroke-width="1.5" stroke-miterlimit="10" stroke-dasharray="5.5 5.5"/>
<path d="M28.5791 63.51C32.5791 63.51 35.8391 60.25 35.8391 56.25C35.8391 52.25 32.5791 49 28.5791 49C24.5791 49 21.3291 52.26 21.3291 56.25C21.3791 60.26 24.5791 63.51 28.5791 63.51Z" stroke="white" stroke-width="1.5" stroke-miterlimit="10"/>
<path d="M21.3889 45.4399L17.759 40.03" stroke="white" stroke-width="1.5" stroke-miterlimit="10" stroke-dasharray="5.5 5.5"/>
<path d="M39.459 70.77L33.0691 61.73" stroke="white" stroke-width="1.5" stroke-miterlimit="10"/>
<path d="M14.1289 40.03C18.1289 40.03 21.3789 36.77 21.3789 32.78C21.3789 28.78 18.1189 25.52 14.1289 25.52C10.1389 25.52 6.86914 28.78 6.86914 32.78C6.86914 36.77 10.1289 40.03 14.1289 40.03Z" stroke="white" stroke-width="1.5" stroke-miterlimit="10" stroke-dasharray="5.5 5.5"/>
<path d="M53.9089 32.77L59.3191 23.73" stroke="white" stroke-width="1.5" stroke-miterlimit="10" stroke-dasharray="5.5 5.5"/>
</svg>
