<svg width="83" height="86" viewBox="0 0 83 86" fill="none" xmlns="http://www.w3.org/2000/svg">
<path d="M17.7632 34.2V30.59L21.3632 26.98H26.8333V23.37C26.8333 20.36 24.3732 17.89 21.3632 17.89H13.0732" stroke="white" stroke-width="1.5" stroke-linecap="round" stroke-linejoin="round" stroke-dasharray="3.91 3.91"/>
<path d="M61.6132 8.42004L57.7132 12.34H46.8432L43.2432 15.95H41.4432C38.4432 15.95 35.9731 18.4201 35.9731 21.4301V23.24H44.9832L52.2532 30.53H55.8531L57.6532 28.72H59.4532L63.0532 32.33H73.9232" stroke="white" stroke-width="1.5" stroke-linecap="round" stroke-linejoin="round" stroke-dasharray="3.91 3.91"/>
<path d="M8.69312 34.2C8.69312 16.07 23.2931 1.37 41.3731 1.37C59.4531 1.37 74.0531 16.07 74.0531 34.14" stroke="white" stroke-width="1.5" stroke-linecap="round" stroke-linejoin="round" stroke-dasharray="3.91 3.91"/>
<path d="M81.313 41.49H68.633C66.833 41.49 65.093 40.95 63.583 39.98L62.683 39.38C61.183 38.36 59.443 37.87 57.633 37.87H43.933C42.613 37.87 41.353 38.35 40.393 39.2L35.163 44.5C35.163 44.5 32.463 47.21 29.813 50.1C32.573 52.87 35.523 53.05 38.103 52.15C40.683 51.25 44.053 48.84 44.053 48.84H48.683L55.473 55.17" stroke="white" stroke-width="1.5" stroke-linecap="round" stroke-linejoin="round"/>
<path d="M67.563 67.34C69.243 65.65 71.343 65.11 74.053 65.11" stroke="white" stroke-width="1.5" stroke-linecap="round" stroke-linejoin="round"/>
<path d="M55.423 55.11C55.423 55.11 64.853 65.05 67.553 67.4C70.253 69.75 66.5331 76.01 62.1431 72.58C59.5031 70.35 51.1531 62.28 51.1531 62.28" stroke="white" stroke-width="1.5" stroke-linecap="round" stroke-linejoin="round"/>
<path d="M63.4131 73.24C62.6331 75.17 59.3931 79.63 55.2431 76.49C52.6031 74.26 47.1931 69.08 47.1931 69.08" stroke="white" stroke-width="1.5" stroke-linecap="round" stroke-linejoin="round"/>
<path d="M56.8031 77.4C54.9431 81.2 51.6331 82.7 48.6931 80.35C46.5931 78.72 43.4631 75.47 43.4631 75.47" stroke="white" stroke-width="1.5" stroke-linecap="round" stroke-linejoin="round"/>
<path d="M49.6631 81.01C48.5231 83.84 45.3332 85.65 42.6932 84.02C41.1932 83.06 38.4932 81.0699 38.4932 81.0699" stroke="white" stroke-width="1.5" stroke-linecap="round" stroke-linejoin="round"/>
<path d="M1.4231 41.49H17.4031C18.8431 41.49 20.2231 41.07 21.4231 40.29L23.2231 39.09C24.4231 38.31 25.8031 37.89 27.2431 37.89H36.0131C36.7931 37.89 37.5731 38.13 38.2331 38.67L39.7931 39.75" stroke="white" stroke-width="1.5" stroke-linecap="round" stroke-linejoin="round"/>
<path d="M21.903 69.9301C23.223 68.6601 22.983 66.8601 21.723 65.5301C20.463 64.2001 18.363 64.2 17.093 65.47L15.233 67.2801C13.913 68.5501 13.913 70.65 15.173 71.98C16.433 73.31 18.533 73.3701 19.863 72.0401" stroke="white" stroke-width="1.5" stroke-linecap="round" stroke-linejoin="round"/>
<path d="M29.4731 67.22C28.2131 65.89 26.1132 65.83 24.7832 67.1L19.3731 72.4001C18.0531 73.6701 18.0531 75.77 19.3131 77.1C20.5731 78.43 22.6731 78.4901 24.0031 77.1601L29.4131 71.9201C30.6731 70.5901 30.7331 68.48 29.4731 67.22Z" stroke="white" stroke-width="1.5" stroke-linecap="round" stroke-linejoin="round"/>
<path d="M24.913 76.25C23.593 77.52 23.533 79.62 24.793 80.95C26.053 82.28 28.153 82.34 29.483 81.07L34.413 76.25C35.733 74.98 35.793 72.8801 34.533 71.5501C33.273 70.2201 31.173 70.1601 29.903 71.4301" stroke="white" stroke-width="1.5" stroke-linecap="round" stroke-linejoin="round"/>
<path d="M31.8131 78.7199C30.4931 79.9899 30.4931 82.09 31.7531 83.42C33.0131 84.75 35.1131 84.75 36.4431 83.48L37.7031 82.27C39.0231 81.01 39.0231 78.8999 37.7631 77.5699C36.5031 76.2399 34.4031 76.24 33.1331 77.51" stroke="white" stroke-width="1.5" stroke-linecap="round" stroke-linejoin="round"/>
<path d="M63.1731 56.74C58.8531 57.64 57.7631 56.5 55.4231 55.05" stroke="white" stroke-width="1.5" stroke-linecap="round" stroke-linejoin="round"/>
<path d="M15.063 67.4C13.923 66.32 11.6431 65.23 8.63306 65.23" stroke="white" stroke-width="1.5" stroke-linecap="round" stroke-linejoin="round"/>
</svg>
