<?xml version="1.0" encoding="UTF-8" standalone="no"?>
<!-- Generator: Adobe Illustrator 26.0.1, SVG Export Plug-In . SVG Version: 6.00 Build 0)  -->

<svg
   version="1.1"
   id="Layer_1"
   x="0px"
   y="0px"
   viewBox="0 0 283.6 117.1"
   style="enable-background:new 0 0 283.6 117.1;"
   xml:space="preserve"
   xmlns="http://www.w3.org/2000/svg"
   xmlns:svg="http://www.w3.org/2000/svg"><defs
   id="defs198" />
<style
   type="text/css"
   id="style191">
	.st0{fill-rule:evenodd;clip-rule:evenodd;fill:#FFFFFF;}
</style>

<g
   id="g7073"><path
     style="fill:#ffffff;fill-opacity:1;stroke:#000101;stroke-width:0;stroke-dasharray:none"
     d="m 13.851557,72.821925 v -6.600214 h -3.191838 c -4.7208112,0 -4.5530284,0.17611 -4.5530284,-4.779009 v -4.256668 h 3.8222503 c 4.4105591,0 4.3366991,0.07823 4.3470121,-4.604229 0.01261,-5.759325 1.787174,-10.364983 5.57115,-14.459818 3.956795,-4.281845 8.103633,-6.497577 13.122931,-7.011819 l 2.82531,-0.289461 v 3.879167 c 0,4.292701 -0.109351,4.497223 -2.796757,5.230631 -2.844896,0.776392 -6.098882,2.911566 -7.437302,4.880147 -1.74955,2.573284 -2.257499,4.289702 -2.548164,8.610517 l -0.253265,3.764865 h 6.517743 6.517745 v 4.517838 4.517839 H 29.34129 22.887234 v 14.152886 c 0,12.50866 -0.07907,14.183228 -0.680596,14.414055 -0.374329,0.143653 -2.279989,0.26117 -4.234804,0.26117 H 14.417626 C 14.151864,87.643671 13.86095,80.227006 13.851557,72.821925 Z"
     id="path752" /><path
     style="fill:#ffffff;fill-opacity:1;stroke:#000101;stroke-width:0;stroke-dasharray:none"
     d="m 42.758582,81.173604 c 0.191281,-16.346486 0.314552,-17.891639 1.577272,-19.770722 0.911353,-1.356204 5.065392,-4.216848 6.123432,-4.216848 0.912092,0 1.040925,2.50956 1.040925,20.276489 v 17.587299 c -2.968001,0 -5.936002,0 -8.904003,0 z"
     id="path2551" /><path
     style="fill:#00ffff;fill-opacity:1;stroke:#000101;stroke-width:0;stroke-dasharray:none"
     d="m 43.181651,54.747835 c -0.509768,-0.509768 -0.315146,-6.397071 0.229477,-6.941695 0.319698,-0.319696 1.893858,-0.516325 4.133604,-0.516325 3.12171,0 3.581497,0.09324 3.356108,0.680597 -0.143637,0.374328 -0.26117,0.927934 -0.26117,1.230234 0,0.3023 -0.796656,1.454687 -1.770348,2.560859 -2.304354,2.617883 -4.76444,3.909561 -5.687671,2.98633 z"
     id="path2553" /><path
     style="fill:#ffffff;fill-opacity:1;stroke:#000101;stroke-width:0;stroke-dasharray:none"
     d="m 58.472335,79.217448 c 0.212105,-6.79628 -1.066522,-13.383102 2.09427,-19.45854 7.378812,-14.183011 24.064985,-17.151597 35.071984,-6.239551 6.083311,5.655946 6.025361,10.949703 6.263261,19.127184 0.16226,5.577317 0.31194,12.899686 0.33264,16.27193 l 0.0376,6.131351 H 97.787956 93.303801 L 93.155089,79.882794 C 92.98876,62.918203 93.022251,63.122295 89.87407,59.893026 87.432909,57.388993 84.98572,56.237461 81.586872,55.993462 75.8606,55.582381 71.287682,58.138686 68.842744,63.117552 66.299463,68.259933 67.555931,74.678562 67.506775,80.313065 L 67.378208,95.049822 H 62.82141 58.264614 Z"
     id="path2555" /><path
     style="fill:#ffffff;fill-opacity:1;stroke:#000101;stroke-width:0;stroke-dasharray:none"
     d="m 123.25067,94.007644 c -1.59579,-0.563215 -3.75314,-1.523157 -4.79411,-2.133204 -13.35347,-9.567385 -10.16067,-21.573535 -10.16067,-37.010246 v -24.35492 h 4.30271 4.3027 v 10.326487 10.326488 h 6.23892 6.23893 v 4.517838 4.517838 h -6.42165 -6.42164 l 0.19976,6.561623 c 0.3102,10.189998 0.4048,10.719717 2.45669,13.757026 1.9207,2.843084 4.60453,4.615668 8.35818,5.520302 l 1.82866,0.44071 v 4.286116 4.28612 l -1.61352,-0.0091 c -0.88743,-0.005 -2.91916,-0.469891 -4.51496,-1.033106 z"
     id="path2557" /><g
     id="g7058"
     transform="matrix(0.60129371,0,0,0.60129371,205.92743,55.281236)"><path
       style="fill:#00ffff;fill-opacity:1;stroke:#000101;stroke-width:0.00387243"
       d="m 49.454063,-12.212846 c 0.60388,-5.357643 5.91091,-12.475583 11.23595,-15.070009 3.91017,-1.905075 7.61419,-2.376885 18.66015,-2.376885 6.95421,0 8.29399,0.100665 8.29399,0.623194 0,1.412616 -2.22143,7.498525 -3.53621,9.687952 -1.6099,2.680872 -5.21166,5.761198 -8.83294,7.55419 l -2.47518,1.225525 -11.7869,0.189572 -11.7869,0.189574 z"
       id="path2559" /><path
       style="fill:#00ffff;fill-opacity:1;stroke:#000101;stroke-width:0.00387243"
       d="m 49.350103,-39.035288 c 0,-1.754437 1.41842,-6.051151 2.7074,-8.201284 1.88447,-3.143471 6.12502,-7.013043 9.5134,-8.681137 2.59821,-1.279092 3.27345,-1.410148 8.95573,-1.738168 3.38009,-0.195122 13.38469,-0.365329 22.23244,-0.378237 l 16.086797,-0.02347 -0.28484,2.474055 c -0.88258,7.665626 -8.12779,15.453741 -15.704787,16.881621 -1.36447,0.257133 -10.78744,0.436759 -22.9119,0.436759 -19.50161,0 -20.59424,-0.04086 -20.59424,-0.770141 z"
       id="path2561" /><path
       style="fill:#00ffff;fill-opacity:1;stroke:#000101;stroke-width:0.00387243"
       d="m 49.556463,-68.260396 c 0.90023,-6.003206 5.41027,-12.199942 11.1958,-15.38285 l 2.58162,-1.420282 31.73244,-0.27345 31.732427,-0.27345 -0.005,1.191016 c -0.003,0.655058 -0.27496,2.081564 -0.60533,3.170012 -1.76633,5.819405 -5.53888,10.232131 -11.28816,13.203642 l -3.50787,1.813039 H 80.322573 49.252383 Z"
       id="path2563" /></g><path
     style="fill:#ffffff;fill-opacity:1;stroke:#000101;stroke-width:0;stroke-dasharray:none"
     d="m 151.46723,94.467198 c -6.22262,-1.59169 -11.29883,-5.866635 -14.40165,-12.128372 -6.40974,-12.547618 2.49955,-26.511289 13.82707,-30.07769 2.77142,-0.824777 8.05086,-0.92034 11.02882,-0.199631 3.26855,0.791039 7.70971,3.306316 10.24716,5.80356 4.20559,4.138927 7.10221,11.978945 6.46378,17.494876 l -0.28578,2.46904 -16.62551,0.112583 c -19.16729,0.129796 -18.52252,-0.04344 -14.51558,3.899986 3.08395,3.03508 4.88348,3.88057 8.71025,4.092451 3.394,0.187919 6.57892,-0.613051 8.52518,-2.143984 0.94574,-0.74392 1.94961,-0.916196 6.47839,-1.111781 3.25925,-0.140751 5.35925,-0.07133 5.35925,0.177181 0,1.586687 -4.48816,6.578523 -8.01056,8.909537 -4.03177,2.668099 -11.95328,3.942199 -16.80082,2.702246 z M 168.964,68.437618 c 0,-0.540378 -2.28536,-3.548173 -3.70945,-4.882028 -3.31008,-3.100368 -9.36234,-4.013259 -13.81418,-2.083659 -2.32777,1.008944 -5.12171,3.653047 -6.33091,5.991385 l -0.69296,1.340017 h 12.27375 c 6.75058,0 12.27375,-0.164572 12.27375,-0.365715 z"
     id="path2565" /><path
     style="fill:#ffffff;fill-opacity:1;stroke:#000101;stroke-width:0;stroke-dasharray:none"
     d="m 200.63984,94.571294 c -5.72628,-1.344333 -11.86377,-6.310428 -14.40924,-11.659109 -4.39471,-9.234478 -1.74104,-21.092792 5.99454,-26.787405 1.38705,-1.021086 4.02995,-2.479509 5.87309,-3.240938 2.94008,-1.214582 3.80029,-1.850843 7.01203,-5.186484 3.92787,-4.079396 7.00962,-5.927294 10.55059,-6.326413 l 1.82521,-0.205728 0.30574,3.453674 c 0.16813,1.899522 0.18113,3.846164 0.0288,4.325873 -0.17844,0.562249 -1.18701,1.225134 -2.83809,1.865353 -1.4087,0.546236 -2.56126,1.099067 -2.56126,1.228517 0,0.129449 1.18593,0.779717 2.63541,1.445044 3.27878,1.504986 8.39499,6.420078 10.00465,9.611344 2.26141,4.483368 3.03434,10.478065 1.95495,15.162294 -1.7609,7.641944 -8.48707,14.275115 -16.35615,16.129985 -3.02746,0.713625 -7.42073,0.794293 -10.02034,0.183993 z m 10.83497,-9.872928 c 8.78987,-4.392352 9.56416,-16.221613 1.4488,-22.134425 -6.13809,-4.472193 -15.64298,-1.992017 -18.68033,4.874385 -2.09021,4.725312 -1.29935,10.833538 1.86868,14.432618 2.75875,3.13411 4.91401,4.048457 9.67901,4.106221 2.58571,0.03137 3.4521,-0.163585 5.68384,-1.278799 z"
     id="path2567" /><path
     style="fill:#ffffff;fill-opacity:1;stroke:#000101;stroke-width:0;stroke-dasharray:none"
     d="m 199.55822,116.33487 c -4.96795,-1.3834 -8.97541,-4.46679 -12.11129,-9.31861 -1.91141,-2.95732 -3.42346,-7.312397 -3.42346,-9.860409 v -1.675758 l 3.3346,0.0058 c 4.75697,0.0084 5.08604,0.152495 5.72354,2.506549 0.7903,2.918308 1.83277,4.806338 3.65727,6.623718 2.56862,2.55856 5.01594,3.53782 8.79811,3.5204 4.13426,-0.019 6.99135,-1.2201 9.64114,-4.05294 2.08487,-2.22889 2.99938,-4.02528 3.47134,-6.818777 l 0.30154,-1.784825 h 4.51784 4.51783 l -0.3047,1.828649 c -1.36816,8.211003 -5.96993,14.500663 -13.10931,17.917743 -3.02664,1.44862 -3.52094,1.55106 -7.96,1.64968 -3.18921,0.0709 -5.49018,-0.10577 -7.05445,-0.5413 z"
     id="path2569" /><path
     style="fill:#ffffff;fill-opacity:1;stroke:#000101;stroke-width:0;stroke-dasharray:none"
     d="m 248.34654,94.36976 c -8.81319,-2.370164 -16.32415,-10.393676 -17.12897,-19.627312 -0.76232,-8.746082 4.34226,-17.36612 12.62599,-21.321413 5.58278,-2.650274 13.11341,-2.608695 18.56265,0.271875 6.00953,3.176747 10.41906,8.573256 11.64391,14.250123 2.97341,14.850349 -10.0919,29.031766 -25.70358,26.426727 z m 8.89028,-9.012049 c 4.66821,-1.386312 7.48726,-4.874404 8.33376,-10.311549 0.79203,-5.087395 -1.22126,-9.745386 -5.4056,-12.506555 -6.69463,-4.417653 -15.59673,-1.731672 -19.06955,5.753743 -0.90717,1.955345 -1.0367,2.766031 -0.89366,5.593514 0.26619,5.262191 2.46497,8.593568 7.24367,10.97489 2.72454,1.357696 6.28269,1.537924 9.79138,0.495957 z"
     id="path2573" /></g></svg>
