<svg width="96" height="96" viewBox="0 0 96 96" fill="none" xmlns="http://www.w3.org/2000/svg">
<path d="M66.8893 18.2129C75.9106 23.2171 82.3447 31.7959 83.8936 41.8214" stroke="white" stroke-width="2" stroke-miterlimit="10" stroke-dasharray="4 4"/>
<path d="M29.4255 18.2129C20.4042 23.2171 13.9702 31.7959 12.4213 41.8214" stroke="white" stroke-width="2" stroke-miterlimit="10" stroke-dasharray="4 4"/>
<path d="M64.1319 82.332C59.3319 84.8682 53.9021 86.298 48.1489 86.298C42.3957 86.298 36.966 84.8682 32.166 82.332" stroke="white" stroke-width="2" stroke-miterlimit="10" stroke-dasharray="4 4"/>
<path d="M22.617 60.7656C27.9787 60.7656 34.5319 64.3571 34.5319 66.8252V72.6805C30.4639 75.4209 26.8894 76.0848 22.617 76.0848C18.3447 76.0848 14.7702 75.4209 10.7021 72.6805V66.8252C10.7021 64.3741 17.2553 60.7656 22.617 60.7656Z" stroke="white" stroke-width="2" stroke-miterlimit="10"/>
<path d="M22.617 43.7451C26.1404 43.7451 29.4256 46.4855 29.4256 49.8728V54.6387C29.4256 58.026 26.1404 60.7664 22.617 60.7664C19.0936 60.7664 15.8085 58.026 15.8085 54.6387V49.8728C15.8085 46.4855 19.0936 43.7451 22.617 43.7451Z" stroke="white" stroke-width="2" stroke-miterlimit="10"/>
<path d="M48.149 26.7236C53.5107 26.7236 60.0639 30.3151 60.0639 32.7832V38.6385C56.6596 41.379 52.4213 42.0428 48.149 42.0428C43.8766 42.0428 39.6383 41.379 36.2341 38.6385V32.7832C36.2341 30.3321 42.7873 26.7236 48.149 26.7236Z" stroke="white" stroke-width="2" stroke-miterlimit="10"/>
<path d="M48.149 9.70215C51.6724 9.70215 54.9575 12.4426 54.9575 15.8298V20.5958C54.9575 23.983 51.6724 26.7234 48.149 26.7234C44.6256 26.7234 41.3405 23.983 41.3405 20.5958V15.8298C41.3405 12.4426 44.6256 9.70215 48.149 9.70215Z" stroke="white" stroke-width="2" stroke-miterlimit="10"/>
<path d="M73.6809 60.7656C79.0426 60.7656 85.5958 64.3571 85.5958 66.8252V72.6805C81.5277 75.4209 77.9532 76.0848 73.6809 76.0848C69.4085 76.0848 65.8341 75.4209 61.766 72.6805V66.8252C61.766 64.3741 68.3192 60.7656 73.6809 60.7656Z" stroke="white" stroke-width="2" stroke-miterlimit="10"/>
<path d="M73.6808 43.7451C77.2042 43.7451 80.4893 46.4855 80.4893 49.8728V54.6387C80.4893 58.026 77.2042 60.7664 73.6808 60.7664C70.1574 60.7664 66.8723 58.026 66.8723 54.6387V49.8728C66.8723 46.4855 70.1574 43.7451 73.6808 43.7451Z" stroke="white" stroke-width="2" stroke-miterlimit="10"/>
</svg>
