<svg width="96" height="96" viewBox="0 0 96 96" fill="none" xmlns="http://www.w3.org/2000/svg">
<path d="M45.0981 75.9513V68.374C45.0981 68.374 50.7812 64.1117 50.7812 58.9023V53.7236" stroke="white" stroke-width="2" stroke-miterlimit="10"/>
<path d="M25.5793 53.2189C25.5793 53.2189 37.8191 41.5522 41.3095 38.0642C44.7974 34.5763 49.5451 42.336 45.3847 47.5359C43.3411 49.5794 41.3095 51.3246 41.3095 51.3246V55.1133C41.3095 62.5415 34.5585 64.585 33.4456 64.585" stroke="white" stroke-width="2" stroke-miterlimit="10"/>
<path d="M50.7811 75.9512H12.8943V91.1059H50.7811V75.9512Z" stroke="white" stroke-width="2" stroke-miterlimit="10"/>
<path d="M20.4717 83.5283H22.366" stroke="white" stroke-width="2" stroke-miterlimit="10" stroke-linecap="round"/>
<path d="M31.0516 33.501L22.3661 40.3372C19.6879 42.7927 18.5774 44.1945 18.5774 47.9145V75.9507" stroke="white" stroke-width="2" stroke-miterlimit="10"/>
<path d="M38.224 41.1001L24.2059 26.2461L44.3877 24.0889L53.5966 4.89453L62.8031 24.0889L82.9849 26.2461L68.4932 41.6021L71.7586 60.7964L53.5966 52.4258L40.824 58.3125" stroke="white" stroke-width="2" stroke-linecap="round" stroke-linejoin="round" stroke-dasharray="4 4"/>
</svg>
