<svg width="96" height="96" viewBox="0 0 96 96" fill="none" xmlns="http://www.w3.org/2000/svg">
<path d="M64.848 54.8097C69.1163 44.5456 64.2558 32.7648 53.9917 28.4965C43.7276 24.2281 31.9468 29.0887 27.6785 39.3527C23.4102 49.6168 28.2707 61.3977 38.5348 65.666C48.7989 69.9343 60.5797 65.0738 64.848 54.8097Z" stroke="white" stroke-width="2" stroke-miterlimit="10" stroke-dasharray="4 4"/>
<path d="M51.7447 12.3194C51.7447 15.3569 49.2927 17.8088 46.2553 17.8088C43.2178 17.8088 40.7659 15.3569 40.7659 12.3194C40.7659 9.28199 43.2178 6.83008 46.2553 6.83008C49.2927 6.83008 51.7447 9.28199 51.7447 12.3194Z" stroke="white" stroke-width="2" stroke-miterlimit="10"/>
<path d="M46.2553 89.1701C49.287 89.1701 51.7447 86.7125 51.7447 83.6808C51.7447 80.6491 49.287 78.1914 46.2553 78.1914C43.2236 78.1914 40.7659 80.6491 40.7659 83.6808C40.7659 86.7125 43.2236 89.1701 46.2553 89.1701Z" stroke="white" stroke-width="2" stroke-miterlimit="10"/>
<path d="M79.1915 21.4679C79.1915 24.5053 76.7396 26.9572 73.7021 26.9572C70.6647 26.9572 68.2128 24.5053 68.2128 21.4679C68.2128 18.4304 70.6647 15.9785 73.7021 15.9785C76.7396 15.9785 79.1915 18.4304 79.1915 21.4679Z" stroke="white" stroke-width="2" stroke-miterlimit="10"/>
<path d="M84.6809 47.0851C84.6809 50.1225 82.229 52.5744 79.1915 52.5744C76.1541 52.5744 73.7021 50.1225 73.7021 47.0851C73.7021 44.0476 76.1541 41.5957 79.1915 41.5957C82.229 41.5957 84.6809 44.0476 84.6809 47.0851Z" stroke="white" stroke-width="2" stroke-miterlimit="10"/>
<path d="M79.1915 72.7023C79.1915 75.7397 76.7396 78.1916 73.7021 78.1916C70.6647 78.1916 68.2128 75.7397 68.2128 72.7023C68.2128 69.6648 70.6647 67.2129 73.7021 67.2129C76.7396 67.2129 79.1915 69.6648 79.1915 72.7023Z" stroke="white" stroke-width="2" stroke-miterlimit="10"/>
<path d="M46.2553 17.8086V26.9575" stroke="white" stroke-width="2" stroke-miterlimit="10"/>
<path d="M46.2553 67.2129V78.1916" stroke="white" stroke-width="2" stroke-miterlimit="10"/>
<path d="M70.0426 25.1279L60.8936 34.2769" stroke="white" stroke-width="2" stroke-miterlimit="10"/>
<path d="M70.0426 69.0425L60.8936 59.8936" stroke="white" stroke-width="2" stroke-miterlimit="10"/>
<path d="M66.383 47.085H73.7021" stroke="white" stroke-width="2" stroke-miterlimit="10"/>
<path d="M13.3192 21.4679C13.3192 24.5053 15.7711 26.9572 18.8085 26.9572C21.846 26.9572 24.2979 24.5053 24.2979 21.4679C24.2979 18.4304 21.846 15.9785 18.8085 15.9785C15.7711 15.9785 13.3192 18.4304 13.3192 21.4679Z" stroke="white" stroke-width="2" stroke-miterlimit="10"/>
<path d="M7.82977 47.0851C7.82977 50.1225 10.2817 52.5744 13.3191 52.5744C16.3566 52.5744 18.8085 50.1225 18.8085 47.0851C18.8085 44.0476 16.3566 41.5957 13.3191 41.5957C10.2817 41.5957 7.82977 44.0476 7.82977 47.0851Z" stroke="white" stroke-width="2" stroke-miterlimit="10"/>
<path d="M13.3192 72.7023C13.3192 75.7397 15.7711 78.1916 18.8085 78.1916C21.846 78.1916 24.2979 75.7397 24.2979 72.7023C24.2979 69.6648 21.846 67.2129 18.8085 67.2129C15.7711 67.2129 13.3192 69.6648 13.3192 72.7023Z" stroke="white" stroke-width="2" stroke-miterlimit="10"/>
<path d="M22.4681 25.1279L31.617 34.2769" stroke="white" stroke-width="2" stroke-miterlimit="10"/>
<path d="M22.4681 69.0425L31.617 59.8936" stroke="white" stroke-width="2" stroke-miterlimit="10"/>
<path d="M26.1277 47.085H18.8085" stroke="white" stroke-width="2" stroke-miterlimit="10"/>
<path d="M57.2341 63.5536V57.2592C57.2341 54.6243 51.1958 50.7451 46.2553 50.7451C41.3149 50.7451 35.2766 54.606 35.2766 57.2592V63.5536" stroke="white" stroke-width="2" stroke-miterlimit="10"/>
<path d="M46.2553 34.2764C42.4676 34.2764 38.9362 37.2223 38.9362 40.8636V44.1572C38.9362 47.7985 42.4676 50.7445 46.2553 50.7445C50.043 50.7445 53.5745 47.7985 53.5745 44.1572V40.8636C53.5745 37.2223 50.043 34.2764 46.2553 34.2764Z" stroke="white" stroke-width="2" stroke-miterlimit="10"/>
</svg>
