<svg width="96" height="96" viewBox="0 0 96 96" fill="none" xmlns="http://www.w3.org/2000/svg">
<path d="M73 81.7773C81.2843 81.7773 88 75.0616 88 66.7773C88 58.4931 81.2843 51.7773 73 51.7773C64.7157 51.7773 58 58.4931 58 66.7773C58 75.0616 64.7157 81.7773 73 81.7773Z" stroke="white" stroke-width="2" stroke-linejoin="round"/>
<path d="M78 59.5557V66.2223" stroke="white" stroke-width="2" stroke-linejoin="round"/>
<path d="M69.1111 59.5557V66.2223" stroke="white" stroke-width="2" stroke-linejoin="round"/>
<path d="M65.7778 69.5557C67.0591 72.8196 70.0583 75.1112 73.5566 75.1112C77.055 75.1112 80.052 72.8219 81.3333 69.5603" stroke="white" stroke-width="2" stroke-linejoin="round"/>
<path d="M56.8889 55.384C54.2992 53.1362 50.9341 51.7773 47.2553 51.7773C39.0745 51.7773 32.4445 58.492 32.4445 66.7773C32.4445 75.0626 39.0745 81.7773 47.2553 81.7773C50.7925 81.7773 54.04 80.5222 56.5883 78.4266" stroke="white" stroke-width="2" stroke-linejoin="round" stroke-dasharray="4 4"/>
<path d="M51.3333 59.5557V66.2223" stroke="white" stroke-width="2" stroke-linejoin="round"/>
<path d="M42.4445 59.5557V66.2223" stroke="white" stroke-width="2" stroke-linejoin="round"/>
<path d="M16.8889 72.8885C18.3616 72.2037 20.4297 71.7773 22.7176 71.7773C24.2422 71.7773 25.6693 71.9662 26.8889 72.2954" stroke="white" stroke-width="2" stroke-linejoin="round"/>
<path d="M30.2115 54.0494C27.9818 52.609 25.3464 51.7773 22.5229 51.7773C14.5011 51.7773 8 58.492 8 66.7773C8 75.0626 14.5011 81.7773 22.5229 81.7773C25.3506 81.7773 27.9904 80.9435 30.2222 79.4987" stroke="white" stroke-width="2" stroke-linejoin="round" stroke-dasharray="4 4"/>
<path d="M26.8889 59.5557V66.2223" stroke="white" stroke-width="2" stroke-linejoin="round"/>
<path d="M18 59.5557V66.2223" stroke="white" stroke-width="2" stroke-linejoin="round"/>
<path d="M53.5555 72.8887H41.3333" stroke="white" stroke-width="2" stroke-linejoin="round"/>
<path d="M22.4445 47.3334V39.5557H33.5556V47.3334" stroke="white" stroke-width="2" stroke-linejoin="round"/>
<path d="M42.4445 47.3331V32.8887H54.6667V47.3331" stroke="white" stroke-width="2" stroke-linejoin="round"/>
<path d="M63.5555 47.3333V14H75.7778V47.3333" stroke="white" stroke-width="2" stroke-linejoin="round"/>
</svg>
