<svg width="32" height="32" viewBox="0 0 32 32" fill="none" xmlns="http://www.w3.org/2000/svg">
<g opacity="0.5" clip-path="url(#clip0_150_7276)">
<path fill-rule="evenodd" clip-rule="evenodd" d="M1.00098 10.902C1.00098 10.4688 1.35213 10.1177 1.78529 10.1177H30.2167C30.6498 10.1177 31.001 10.4688 31.001 10.902V24.4314C31.001 24.8646 30.6498 25.2157 30.2167 25.2157H1.78529C1.35213 25.2157 1.00098 24.8646 1.00098 24.4314V10.902ZM2.5696 11.6863V23.6471H29.4323V11.6863H2.5696Z" fill="white"/>
<path fill-rule="evenodd" clip-rule="evenodd" d="M3.35388 6.78431C3.35388 6.35115 3.70504 6 4.1382 6H27.6676C28.1007 6 28.4519 6.35115 28.4519 6.78431V10.7059C28.4519 11.139 28.1007 11.4902 27.6676 11.4902C27.2345 11.4902 26.8833 11.139 26.8833 10.7059V7.56863H4.92251V10.7059C4.92251 11.139 4.57135 11.4902 4.1382 11.4902C3.70504 11.4902 3.35388 11.139 3.35388 10.7059V6.78431Z" fill="white"/>
<path fill-rule="evenodd" clip-rule="evenodd" d="M15.9029 20.1177C17.3107 20.1177 18.4519 18.9764 18.4519 17.5686C18.4519 16.1609 17.3107 15.0196 15.9029 15.0196C14.4951 15.0196 13.3539 16.1609 13.3539 17.5686C13.3539 18.9764 14.4951 20.1177 15.9029 20.1177ZM15.9029 21.6863C18.177 21.6863 20.0206 19.8428 20.0206 17.5686C20.0206 15.2945 18.177 13.451 15.9029 13.451C13.6288 13.451 11.7853 15.2945 11.7853 17.5686C11.7853 19.8428 13.6288 21.6863 15.9029 21.6863Z" fill="white"/>
<path fill-rule="evenodd" clip-rule="evenodd" d="M1.10132 11.098C1.10132 10.6649 1.45247 10.3137 1.88563 10.3137H6.29967C6.73284 10.3137 7.08398 10.6649 7.08398 11.098C7.08398 11.7701 6.94853 12.4351 6.6858 13.0549C6.4231 13.6747 6.03855 14.2367 5.55502 14.7092C5.07151 15.1817 4.49849 15.5556 3.8691 15.8104C3.23975 16.0652 2.56582 16.1961 1.88563 16.1961C1.67762 16.1961 1.47813 16.1134 1.33104 15.9663C1.18395 15.8193 1.10132 15.6198 1.10132 15.4118L1.10132 11.098ZM2.66995 11.8823V14.5441C2.87832 14.4992 3.08267 14.4365 3.28053 14.3564C3.72222 14.1776 4.12239 13.916 4.45865 13.5874C4.79488 13.2588 5.06061 12.8697 5.24155 12.4428C5.31871 12.2607 5.37984 12.0733 5.42459 11.8823H2.66995Z" fill="white"/>
<path fill-rule="evenodd" clip-rule="evenodd" d="M30.2167 10.218C30.6498 10.218 31.001 10.5691 31.001 11.0023V15.4163C31.001 15.8495 30.6498 16.2006 30.2167 16.2006C29.5447 16.2006 28.8796 16.0652 28.2598 15.8024C27.64 15.5397 27.0781 15.1552 26.6055 14.6717C26.133 14.1882 25.759 13.6151 25.5043 12.9857C25.2496 12.3564 25.1187 11.6825 25.1187 11.0023C25.1187 10.7943 25.2012 10.5948 25.3485 10.4477C25.4955 10.3006 25.6949 10.218 25.903 10.218H30.2167ZM29.4324 11.7866H26.7706C26.8155 11.995 26.8783 12.1993 26.9583 12.3972C27.1371 12.8389 27.3987 13.239 27.7273 13.5753C28.0559 13.9115 28.4451 14.1773 28.872 14.3582C29.0539 14.4353 29.2414 14.4965 29.4324 14.5412V11.7866Z" fill="white"/>
<path fill-rule="evenodd" clip-rule="evenodd" d="M30.9006 24.2399C30.9006 24.6731 30.5495 25.0242 30.1163 25.0242H25.7024C25.2693 25.0242 24.9181 24.6731 24.9181 24.2399C24.9181 23.5679 25.0536 22.9029 25.3161 22.283C25.5789 21.6632 25.9634 21.1012 26.4469 20.6287C26.9304 20.1562 27.5036 19.7823 28.133 19.5275C28.7622 19.2728 29.4361 19.1418 30.1163 19.1418C30.3244 19.1418 30.524 19.2245 30.671 19.3716C30.8181 19.5187 30.9006 19.7182 30.9006 19.9262V24.2399ZM29.332 23.4556V20.7939C29.1238 20.8387 28.9193 20.9015 28.7214 20.9815C28.2799 21.1603 27.8797 21.4219 27.5434 21.7506C27.2071 22.0791 26.9414 22.4682 26.7604 22.8952C26.6834 23.0772 26.6222 23.2647 26.5775 23.4556H29.332Z" fill="white"/>
<path fill-rule="evenodd" clip-rule="evenodd" d="M1.78529 25.1199C1.35213 25.1199 1.00098 24.7688 1.00098 24.3356V19.9216C1.00098 19.4884 1.35213 19.1373 1.78529 19.1373C2.45731 19.1373 3.12231 19.2727 3.74215 19.5354C4.36196 19.7982 4.92394 20.1827 5.39649 20.6662C5.869 21.1497 6.24288 21.7228 6.49766 22.3522C6.75243 22.9815 6.88333 23.6554 6.88333 24.3356C6.88333 24.5436 6.8007 24.7431 6.6536 24.8902C6.50653 25.0373 6.30704 25.1199 6.09902 25.1199H1.78529ZM2.5696 23.5513H5.23131C5.18647 23.3429 5.12374 23.1386 5.04364 22.9407C4.86484 22.4991 4.60325 22.0989 4.27462 21.7626C3.94604 21.4264 3.55694 21.1607 3.13002 20.9797C2.94799 20.9026 2.76052 20.8414 2.5696 20.7967V23.5513Z" fill="white"/>
</g>
<defs>
<clipPath id="clip0_150_7276">
<rect width="30" height="19.2157" fill="white" transform="translate(1.00098 6)"/>
</clipPath>
</defs>
</svg>
