<svg width="32" height="32" viewBox="0 0 32 32" fill="none" xmlns="http://www.w3.org/2000/svg">
<g opacity="0.5" clip-path="url(#clip0_150_7266)">
<path fill-rule="evenodd" clip-rule="evenodd" d="M16.6031 1.13601C16.3259 0.954662 15.9677 0.954662 15.6905 1.13601L3.51205 9.10476C3.20366 9.30656 3.06444 9.68695 3.16972 10.0401C3.275 10.3933 3.59978 10.6354 3.96833 10.6354H28.3253C28.6938 10.6354 29.0186 10.3933 29.1239 10.0401C29.2292 9.68695 29.09 9.30656 28.7816 9.10476L16.6031 1.13601ZM16.1468 2.82921L25.5297 8.96875H6.76387L16.1468 2.82921ZM11.0426 12.4583H4.37598V24.9583H3.33431C2.87407 24.9583 2.50098 25.3314 2.50098 25.7917V30.1667C2.50098 30.6269 2.87407 31 3.33431 31H28.9593C29.4195 31 29.7926 30.6269 29.7926 30.1667V25.7917C29.7926 25.3314 29.4195 24.9583 28.9593 24.9583H27.7093V12.4583H21.0426V24.9583H19.376V12.4583H12.7093V24.9583H11.0426V12.4583ZM6.04264 24.75V14.125H9.37598V24.75H6.04264ZM14.376 14.125V24.75H17.7093V14.125H14.376ZM22.7093 14.125V24.75H26.0426V14.125H22.7093ZM4.16764 26.625V29.3333H28.126V26.625H4.16764Z" fill="white"/>
</g>
<defs>
<clipPath id="clip0_150_7266">
<rect width="27.7083" height="30" fill="white" transform="translate(2.00098 1)"/>
</clipPath>
</defs>
</svg>
