<svg width="97" height="96" viewBox="0 0 97 96" fill="none" xmlns="http://www.w3.org/2000/svg">
<path d="M24.2619 39.2V35.59L27.8619 31.98H33.3319V28.37C33.3319 25.36 30.8719 22.89 27.8619 22.89H19.5719" stroke="white" stroke-width="1.5" stroke-linecap="round" stroke-linejoin="round" stroke-dasharray="3.91 3.91"/>
<path d="M68.1119 13.42L64.212 17.34H53.342L49.7419 20.95H47.942C44.942 20.95 42.4719 23.4201 42.4719 26.4301V28.24H51.4819L58.752 35.53H62.3519L64.152 33.72H65.952L69.5519 37.33H80.4219" stroke="white" stroke-width="1.5" stroke-linecap="round" stroke-linejoin="round" stroke-dasharray="3.91 3.91"/>
<path d="M15.1919 39.2C15.1919 21.07 29.7919 6.37 47.8719 6.37C65.9519 6.37 80.5519 21.07 80.5519 39.14" stroke="white" stroke-width="1.5" stroke-linecap="round" stroke-linejoin="round" stroke-dasharray="3.91 3.91"/>
<path d="M87.8119 46.49H75.1319C73.3319 46.49 71.5919 45.95 70.0819 44.98L69.1819 44.38C67.6819 43.36 65.9419 42.87 64.1319 42.87H50.4319C49.1119 42.87 47.8519 43.35 46.8919 44.2L41.6619 49.5C41.6619 49.5 38.9619 52.21 36.3119 55.1C39.0719 57.87 42.0219 58.05 44.6019 57.15C47.1819 56.25 50.5519 53.84 50.5519 53.84H55.1819L61.9719 60.17" stroke="white" stroke-width="1.5" stroke-linecap="round" stroke-linejoin="round"/>
<path d="M74.0619 72.34C75.7419 70.65 77.8419 70.11 80.5519 70.11" stroke="white" stroke-width="1.5" stroke-linecap="round" stroke-linejoin="round"/>
<path d="M61.9218 60.11C61.9218 60.11 71.3518 70.05 74.0518 72.4C76.7518 74.75 73.0318 81.01 68.6418 77.58C66.0018 75.35 57.6519 67.28 57.6519 67.28" stroke="white" stroke-width="1.5" stroke-linecap="round" stroke-linejoin="round"/>
<path d="M69.9119 78.24C69.1319 80.17 65.8919 84.63 61.7419 81.49C59.1019 79.26 53.6919 74.08 53.6919 74.08" stroke="white" stroke-width="1.5" stroke-linecap="round" stroke-linejoin="round"/>
<path d="M63.3019 82.4C61.4419 86.2 58.1319 87.7 55.1919 85.35C53.0919 83.72 49.9619 80.47 49.9619 80.47" stroke="white" stroke-width="1.5" stroke-linecap="round" stroke-linejoin="round"/>
<path d="M56.1619 86.01C55.0219 88.84 51.832 90.65 49.192 89.02C47.692 88.06 44.9919 86.0699 44.9919 86.0699" stroke="white" stroke-width="1.5" stroke-linecap="round" stroke-linejoin="round"/>
<path d="M7.92188 46.49H23.9019C25.3419 46.49 26.7219 46.07 27.9219 45.29L29.7219 44.09C30.9219 43.31 32.3019 42.89 33.7419 42.89H42.5119C43.2919 42.89 44.0719 43.13 44.7319 43.67L46.2919 44.75" stroke="white" stroke-width="1.5" stroke-linecap="round" stroke-linejoin="round"/>
<path d="M28.4019 74.9301C29.7219 73.6601 29.4819 71.8601 28.2219 70.5301C26.9619 69.2001 24.8619 69.2 23.5919 70.47L21.7319 72.2801C20.4119 73.5501 20.4119 75.65 21.6719 76.98C22.9319 78.31 25.0319 78.3701 26.3619 77.0401" stroke="white" stroke-width="1.5" stroke-linecap="round" stroke-linejoin="round"/>
<path d="M35.9719 72.22C34.7119 70.89 32.6119 70.83 31.2819 72.1L25.8719 77.4001C24.5519 78.6701 24.5519 80.77 25.8119 82.1C27.0719 83.43 29.1719 83.4901 30.5019 82.1601L35.9119 76.9201C37.1719 75.5901 37.2319 73.48 35.9719 72.22Z" stroke="white" stroke-width="1.5" stroke-linecap="round" stroke-linejoin="round"/>
<path d="M31.4119 81.25C30.0919 82.52 30.0319 84.62 31.2919 85.95C32.5519 87.28 34.6519 87.34 35.9819 86.07L40.9119 81.25C42.2319 79.98 42.2919 77.8801 41.0319 76.5501C39.7719 75.2201 37.6719 75.1601 36.4019 76.4301" stroke="white" stroke-width="1.5" stroke-linecap="round" stroke-linejoin="round"/>
<path d="M38.3118 83.7199C36.9918 84.9899 36.9918 87.09 38.2518 88.42C39.5118 89.75 41.6118 89.75 42.9418 88.48L44.2019 87.27C45.5219 86.01 45.5219 83.8999 44.2619 82.5699C43.0019 81.2399 40.9018 81.24 39.6318 82.51" stroke="white" stroke-width="1.5" stroke-linecap="round" stroke-linejoin="round"/>
<path d="M69.6719 61.74C65.3519 62.64 64.2619 61.5 61.9219 60.05" stroke="white" stroke-width="1.5" stroke-linecap="round" stroke-linejoin="round"/>
<path d="M21.5618 72.4C20.4218 71.32 18.1418 70.23 15.1318 70.23" stroke="white" stroke-width="1.5" stroke-linecap="round" stroke-linejoin="round"/>
</svg>
