<svg width="97" height="96" viewBox="0 0 97 96" fill="none" xmlns="http://www.w3.org/2000/svg">
<path d="M36.904 65.57H90.534V11.94V6.39001H5.474V32.28" stroke="white" stroke-width="1.5" stroke-linecap="round" stroke-linejoin="round"/>
<path d="M22.114 32.28C26.344 32.28 29.514 28.73 29.514 24.36V21.72C29.514 17.34 26.354 13.8 22.114 13.8C17.874 13.8 14.714 17.35 14.714 21.72V24.36C14.714 28.74 17.874 32.28 22.114 32.28Z" stroke="white" stroke-width="1.5" stroke-linecap="round" stroke-linejoin="round"/>
<path d="M31.364 89.61V45.23H42.464C48.044 45.23 49.864 41.94 49.864 37.83H14.714C8.08399 37.83 5.46399 40.63 5.46399 48.93V61.87C5.46399 65.84 7.04399 69.27 11.014 69.27" stroke="white" stroke-width="1.5" stroke-linecap="round" stroke-linejoin="round"/>
<path d="M22.114 63.72V89.61" stroke="white" stroke-width="1.5" stroke-linecap="round" stroke-linejoin="round"/>
<path d="M12.864 48.92V89.61" stroke="white" stroke-width="1.5" stroke-linecap="round" stroke-linejoin="round"/>
<path d="M48.004 48L60.944 54.47L79.444 45.23V24.88L60.944 15.64L42.454 24.88V34.13" stroke="white" stroke-width="1.5" stroke-linecap="round" stroke-linejoin="round"/>
<path d="M47.994 27.66L60.944 34.13" stroke="white" stroke-width="1.5" stroke-linecap="round" stroke-linejoin="round"/>
<path d="M73.904 27.66L60.944 34.13" stroke="white" stroke-width="1.5" stroke-linecap="round" stroke-linejoin="round"/>
<path d="M60.944 34.13V48.92" stroke="white" stroke-width="1.5" stroke-linecap="round" stroke-linejoin="round"/>
</svg>
