<svg width="97" height="96" viewBox="0 0 97 96" fill="none" xmlns="http://www.w3.org/2000/svg">
<path d="M60.768 61.56V63.65C60.768 65.96 62.638 67.84 64.958 67.84H69.148C71.458 67.84 73.338 65.97 73.338 63.65V62.48C73.338 60.68 72.188 59.08 70.468 58.51L63.6281 56.23C61.9181 55.66 60.7581 54.06 60.7581 52.26V51.09C60.7581 48.78 62.6281 46.9 64.9481 46.9H69.1381C71.4481 46.9 73.328 48.77 73.328 51.09V53.18" stroke="white" stroke-width="1.5" stroke-miterlimit="10"/>
<path d="M67.0381 46.9V40.63" stroke="white" stroke-width="1.5" stroke-miterlimit="10"/>
<path d="M67.0381 67.83V74.1" stroke="white" stroke-width="1.5" stroke-miterlimit="10"/>
<path d="M20.988 49V51.46" stroke="white" stroke-width="1.5" stroke-miterlimit="10"/>
<path d="M20.9881 56.23V59.46C20.9881 61.01 20.8581 62.31 20.6681 63.37" stroke="white" stroke-width="1.5" stroke-miterlimit="10"/>
<path d="M20.058 65.69C19.498 67.24 18.8881 67.84 18.8881 67.84" stroke="white" stroke-width="1.5" stroke-miterlimit="10"/>
<path d="M14.708 82.48C31.458 78.29 33.5381 65.73 33.5381 57.36V48.99H41.9081L27.2581 28.06L12.608 48.99H20.998" stroke="white" stroke-width="1.5" stroke-miterlimit="10"/>
<path d="M50.2981 30.15V32.61" stroke="white" stroke-width="1.5" stroke-miterlimit="10"/>
<path d="M50.2981 37.82V55.28C50.2981 70.77 41.7781 83.41 29.8181 90.03" stroke="white" stroke-width="1.5" stroke-miterlimit="10"/>
<path d="M27.5081 91.22C26.7681 91.57 26.008 91.9 25.248 92.2" stroke="white" stroke-width="1.5" stroke-miterlimit="10"/>
<path d="M62.8481 36.17V30.15H73.3181L56.5681 2.94L39.8181 30.15H50.2781" stroke="white" stroke-width="1.5" stroke-miterlimit="10"/>
<path d="M48.208 90.85C53.708 86.27 57.188 81.26 59.378 76.2" stroke="white" stroke-width="1.5" stroke-miterlimit="10"/>
<path d="M72.108 84.93C84.108 73.83 85.538 60.96 84.998 50.72" stroke="white" stroke-width="1.5" stroke-miterlimit="10"/>
</svg>
