<svg width="96" height="96" viewBox="0 0 96 96" fill="none" xmlns="http://www.w3.org/2000/svg">
<path d="M11.04 61.07V70.07C11.04 72.05 12.6299 73.67 14.5699 73.67H85.24C87.18 73.67 88.77 72.05 88.77 70.07V17.88C88.77 15.9 87.18 14.28 85.24 14.28H14.5699C12.6299 14.28 11.04 15.9 11.04 17.88V26.88" stroke="white" stroke-width="1.5" stroke-linejoin="round"/>
<path d="M18.1 61.07V68.27" stroke="white" stroke-width="1.5" stroke-linejoin="round"/>
<path d="M18.1 35.88V52.08" stroke="white" stroke-width="1.5" stroke-linejoin="round"/>
<path d="M79.95 19.68V68.27" stroke="white" stroke-width="1.5" stroke-linejoin="round"/>
<path d="M18.1 19.68V25.08" stroke="white" stroke-width="1.5" stroke-linejoin="round"/>
<path d="M19.87 79.07L21.8199 80.87H35.78L37.55 79.07" stroke="white" stroke-width="1.5" stroke-linejoin="round"/>
<path d="M62.28 79.07L64.23 80.87H78.1899L79.96 79.07" stroke="white" stroke-width="1.5" stroke-linejoin="round"/>
<path d="M21.64 35.88H9.27002C8.30002 35.88 7.5 35.07 7.5 34.08V28.68C7.5 27.69 8.29002 26.88 9.27002 26.88H21.64V35.88Z" stroke="white" stroke-width="1.5" stroke-linejoin="round"/>
<path d="M21.64 61.07H9.27002C8.30002 61.07 7.5 60.26 7.5 59.27V53.87C7.5 52.88 8.29002 52.07 9.27002 52.07H21.64V61.07Z" stroke="white" stroke-width="1.5" stroke-linejoin="round"/>
<path d="M11.04 35.88V52.08" stroke="white" stroke-width="1.5" stroke-linejoin="round"/>
<path d="M48.14 39.78C48.69 39.58 49.29 39.47 49.91 39.47C52.84 39.47 55.21 41.88 55.21 44.87C55.21 47.86 52.84 50.27 49.91 50.27C46.98 50.27 44.61 47.86 44.61 44.87C44.61 44.24 44.71 43.63 44.91 43.07" stroke="white" stroke-width="1.5" stroke-linejoin="round"/>
<path d="M49.91 57.47C56.74 57.47 62.28 51.83 62.28 44.87C62.28 37.91 56.74 32.27 49.91 32.27C43.08 32.27 37.54 37.91 37.54 44.87C37.54 51.83 43.08 57.47 49.91 57.47Z" stroke="white" stroke-width="1.5" stroke-linejoin="round"/>
<path d="M49.91 25.08V32.28" stroke="white" stroke-width="1.5" stroke-linejoin="round"/>
<path d="M69.35 44.87H62.28" stroke="white" stroke-width="1.5" stroke-linejoin="round"/>
<path d="M49.91 64.67V57.47" stroke="white" stroke-width="1.5" stroke-linejoin="round"/>
<path d="M30.47 44.87H37.54" stroke="white" stroke-width="1.5" stroke-linejoin="round"/>
<path d="M63.65 30.87L58.65 35.96" stroke="white" stroke-width="1.5" stroke-linejoin="round"/>
<path d="M63.65 58.88L58.65 53.79" stroke="white" stroke-width="1.5" stroke-linejoin="round"/>
<path d="M36.16 58.88L41.16 53.79" stroke="white" stroke-width="1.5" stroke-linejoin="round"/>
<path d="M36.16 30.87L41.16 35.96" stroke="white" stroke-width="1.5" stroke-linejoin="round"/>
</svg>
