<svg width="96" height="96" viewBox="0 0 96 96" fill="none" xmlns="http://www.w3.org/2000/svg">
<path d="M79.0814 25.3901C72.0914 15.8001 60.7714 9.57007 48.0014 9.57007C26.7714 9.57007 9.57144 26.7701 9.57144 48.0001V49.9201H5.73145L15.3414 63.3701L23.0314 49.9201H19.1914V48.0001C19.1914 32.0801 32.0914 19.1801 48.0114 19.1801" stroke="white" stroke-width="2" stroke-linecap="round" stroke-linejoin="round"/>
<path d="M16.9209 70.6099C23.9109 80.1999 35.2309 86.4299 48.0009 86.4299C69.2309 86.4299 86.4309 69.2199 86.4309 47.9999V46.0799H90.2709L80.6609 32.6299L72.9709 46.0799H76.8109V47.9999C76.8109 63.9199 63.9109 76.8199 47.9909 76.8199" stroke="white" stroke-width="2" stroke-linecap="round" stroke-linejoin="round"/>
<path d="M61.5011 47.96C61.5011 46.89 61.3611 45.86 61.1311 44.87L64.9111 42.69L61.0711 36.03L57.3011 38.21C55.7811 36.77 53.9211 35.68 51.8611 35.07V30.72H44.1711V35.09C42.1211 35.71 40.2911 36.8 38.7811 38.24L34.9611 36.03L31.1211 42.69L34.9711 44.91C34.7411 45.89 34.6111 46.91 34.6111 47.96C34.6111 49.01 34.7511 50.08 34.9911 51.09L31.1211 53.33L34.9611 59.99L38.8411 57.75C40.3411 59.16 42.1511 60.24 44.1711 60.85V65.31H51.8611V60.87C53.9011 60.27 55.7311 59.2 57.2411 57.78L61.0711 59.99L64.9111 53.33L61.1111 51.14C61.3611 50.12 61.5011 49.06 61.5011 47.97V47.96Z" stroke="white" stroke-width="2" stroke-linecap="round" stroke-linejoin="round"/>
<path d="M48.0012 53.76C51.1824 53.76 53.7612 51.1811 53.7612 48C53.7612 44.8188 51.1824 42.24 48.0012 42.24C44.82 42.24 42.2412 44.8188 42.2412 48C42.2412 51.1811 44.82 53.76 48.0012 53.76Z" stroke="white" stroke-width="2" stroke-linecap="round" stroke-linejoin="round"/>
</svg>
