<?xml version="1.0" encoding="UTF-8" standalone="no"?>
<svg
   id="Layer_1"
   viewBox="0 0 48 48"
   version="1.1"
   xml:space="preserve"
   xmlns="http://www.w3.org/2000/svg"
   xmlns:svg="http://www.w3.org/2000/svg"><defs
     id="defs197"><style
       id="style195">.cls-1{fill:#5f249f;fill-rule:evenodd;}</style></defs><style
     type="text/css"
     id="style191">
	.st0{fill-rule:evenodd;clip-rule:evenodd;fill:#FFFFFF;}
</style><g
     id="g7058"
     transform="matrix(0.55295767,0,0,0.55295767,-24.286739,50.568288)"><path
       style="fill:#00ffff;fill-opacity:1;stroke:#000101;stroke-width:0.00387243"
       d="m 49.454063,-12.212846 c 0.60388,-5.357643 5.91091,-12.475583 11.23595,-15.070009 3.91017,-1.905075 7.61419,-2.376885 18.66015,-2.376885 6.95421,0 8.29399,0.100665 8.29399,0.623194 0,1.412616 -2.22143,7.498525 -3.53621,9.687952 -1.6099,2.680872 -5.21166,5.761198 -8.83294,7.55419 l -2.47518,1.225525 -11.7869,0.189572 -11.7869,0.189574 z"
       id="path2559" /><path
       style="fill:#00ffff;fill-opacity:1;stroke:#000101;stroke-width:0.00387243"
       d="m 49.350103,-39.035288 c 0,-1.754437 1.41842,-6.051151 2.7074,-8.201284 1.88447,-3.143471 6.12502,-7.013043 9.5134,-8.681137 2.59821,-1.279092 3.27345,-1.410148 8.95573,-1.738168 3.38009,-0.195122 13.38469,-0.365329 22.23244,-0.378237 l 16.086797,-0.02347 -0.28484,2.474055 c -0.88258,7.665626 -8.12779,15.453741 -15.704787,16.881621 -1.36447,0.257133 -10.78744,0.436759 -22.9119,0.436759 -19.50161,0 -20.59424,-0.04086 -20.59424,-0.770141 z"
       id="path2561" /><path
       style="fill:#00ffff;fill-opacity:1;stroke:#000101;stroke-width:0.00387243"
       d="m 49.556463,-68.260396 c 0.90023,-6.003206 5.41027,-12.199942 11.1958,-15.38285 l 2.58162,-1.420282 31.73244,-0.27345 31.732427,-0.27345 -0.005,1.191016 c -0.003,0.655058 -0.27496,2.081564 -0.60533,3.170012 -1.76633,5.819405 -5.53888,10.232131 -11.28816,13.203642 l -3.50787,1.813039 H 80.322573 49.252383 Z"
       id="path2563" /></g></svg>
