<svg width="96" height="96" viewBox="0 0 96 96" fill="none" xmlns="http://www.w3.org/2000/svg">
<path d="M77.7001 17.3V9.40002C77.7001 7.20002 75.9001 5.40002 73.7001 5.40002H32.1001C29.9001 5.40002 28.1001 7.20002 28.1001 9.40002V37.1" stroke="white" stroke-width="1.5" stroke-miterlimit="10"/>
<path d="M28.2 82.7V86.7C28.2 88.9 30 90.7 32.2 90.7H73.8C76 90.7 77.8 88.9 77.8 86.7V60.9" stroke="white" stroke-width="1.5" stroke-miterlimit="10"/>
<path d="M50 11.4H55.9" stroke="white" stroke-width="1.5" stroke-miterlimit="10"/>
<path d="M91.6 23.2H46V54.9H91.6V23.2Z" stroke="white" stroke-width="1.5" stroke-miterlimit="10"/>
<path d="M46 51L61.9 35.1L74.3 47.5" stroke="white" stroke-width="1.5" stroke-miterlimit="10"/>
<path d="M69.8 43L75.7 37.1L91.6 53" stroke="white" stroke-width="1.5" stroke-miterlimit="10"/>
<path d="M81.7 31.2H83.7" stroke="white" stroke-width="1.5" stroke-miterlimit="10"/>
<path d="M49.9999 60.9V76.7H4.3999V43H40.0999" stroke="white" stroke-width="1.5" stroke-miterlimit="10"/>
<path d="M18.3 66.2L12.3 60.9L18.3 55.5" stroke="white" stroke-width="1.5" stroke-miterlimit="10"/>
<path d="M34.1001 66.2L40.1001 60.9L34.1001 55.5" stroke="white" stroke-width="1.5" stroke-miterlimit="10"/>
<path d="M29.2 52L23.2 69.8" stroke="white" stroke-width="1.5" stroke-miterlimit="10"/>
<path d="M57.8999 64.8H69.7999" stroke="white" stroke-width="1.5" stroke-miterlimit="10"/>
<path d="M57.8999 72.8H63.7999" stroke="white" stroke-width="1.5" stroke-miterlimit="10"/>
</svg>
