<svg width="96" height="96" viewBox="0 0 96 96" fill="none" xmlns="http://www.w3.org/2000/svg">
<path d="M3.03003 26.54H25.76L33.27 38.5601H39.05" stroke="white" stroke-width="1.5" stroke-miterlimit="8"/>
<path d="M3.03003 48.86H45.9199" stroke="white" stroke-width="1.5" stroke-miterlimit="8"/>
<path d="M51.0701 67.74H43.25L29.99 88.34H3.04004" stroke="white" stroke-width="1.5" stroke-miterlimit="8"/>
<path d="M51.0701 28.26H43.0901L29.5901 7.66003H9.88989" stroke="white" stroke-width="1.5" stroke-miterlimit="8"/>
<path d="M51.0701 48.86H45.9199" stroke="white" stroke-width="1.5" stroke-miterlimit="8"/>
<path d="M9.8999 69.46H25.3201L32.9399 57.4399H69.45V63.45L90.53 47.5699L69.45 31.6899V37.7H50.3201" stroke="white" stroke-width="1.5" stroke-miterlimit="8"/>
<path d="M61.3701 48.86H66.52" stroke="white" stroke-width="1.5" stroke-miterlimit="8"/>
<path d="M54.51 48.86H57.9399" stroke="white" stroke-width="1.5" stroke-miterlimit="8"/>
<path d="M54.51 28.26H57.9399" stroke="white" stroke-width="1.5" stroke-miterlimit="8"/>
<path d="M54.51 67.74H57.9399" stroke="white" stroke-width="1.5" stroke-miterlimit="8"/>
<path d="M45.9299 38.5601H42.5" stroke="white" stroke-width="1.5" stroke-miterlimit="8"/>
<path d="M3.03003 7.65002H6.45996" stroke="white" stroke-width="1.5" stroke-miterlimit="8"/>
<path d="M3.03003 69.46H6.45996" stroke="white" stroke-width="1.5" stroke-miterlimit="8"/>
</svg>
