<svg width="96" height="96" viewBox="0 0 96 96" fill="none" xmlns="http://www.w3.org/2000/svg">
<path d="M63 20.57H60.5601" stroke="white" stroke-width="1.5" stroke-linejoin="round"/>
<path d="M56.47 20.57H42.1201" stroke="white" stroke-width="1.5" stroke-linejoin="round"/>
<path d="M40.0701 20.57H37.6299" stroke="white" stroke-width="1.5" stroke-linejoin="round"/>
<path d="M19.3601 13.23H63V6.76001L72.8701 16.62L63 26.49V20.57" stroke="white" stroke-width="1.5" stroke-linejoin="round"/>
<path d="M82.98 48.63V42.71L92.8401 52.57L82.98 62.44V56.52H69.1799" stroke="white" stroke-width="1.5" stroke-linejoin="round"/>
<path d="M71.95 48.63H74.3899" stroke="white" stroke-width="1.5" stroke-linejoin="round"/>
<path d="M80.54 48.63H82.98" stroke="white" stroke-width="1.5" stroke-linejoin="round"/>
<path d="M69.03 76.71V70.36L78.8899 80.23L69.03 90.09V84.17H14.02" stroke="white" stroke-width="1.5" stroke-linejoin="round"/>
<path d="M58.3701 76.71H60.8101" stroke="white" stroke-width="1.5" stroke-linejoin="round"/>
<path d="M66.74 76.71H69.1799" stroke="white" stroke-width="1.5" stroke-linejoin="round"/>
<path d="M3.15991 72.03H5.6001" stroke="white" stroke-width="1.5" stroke-linejoin="round"/>
<path d="M10.1499 72.03H16.96" stroke="white" stroke-width="1.5" stroke-linejoin="round"/>
<path d="M19.24 72.03H21.6799" stroke="white" stroke-width="1.5" stroke-linejoin="round"/>
<path d="M46.24 50.65C46.24 53.92 43.5901 56.57 40.3201 56.57C37.0501 56.57 34.3999 53.92 34.3999 50.65C34.3999 47.38 37.0501 44.73 40.3201 44.73C43.6001 44.73 46.24 47.38 46.24 50.65Z" stroke="white" stroke-width="1.5" stroke-miterlimit="10"/>
<path d="M63.6599 45.37L61.1899 38.95L55.0601 40.76C53.9301 39.07 52.53 37.63 50.97 36.45L53.1101 30.42L46.8201 27.62L43.77 33.24C41.84 32.86 39.8301 32.79 37.8201 33.08L35.0701 27.31L28.6499 29.78L30.46 35.91C28.78 37.04 27.3299 38.43 26.1499 40L20.1201 37.87L17.3201 44.16L22.9399 47.21C22.5599 49.14 22.49 51.15 22.78 53.16L17.01 55.91L19.48 62.33L25.6101 60.52C26.7401 62.21 28.13 63.65 29.7 64.83L27.5601 70.86L33.8501 73.66L36.8999 68.04C38.8299 68.42 40.8401 68.49 42.8501 68.2L45.6001 73.97L52.03 71.5L50.22 65.37C51.91 64.24 53.35 62.85 54.53 61.28L60.5601 63.41L63.3601 57.12L57.74 54.07C58.12 52.14 58.1899 50.13 57.8999 48.12L63.6599 45.37Z" stroke="white" stroke-width="1.5" stroke-linejoin="round"/>
<path d="M21.6799 30.89H19.24" stroke="white" stroke-width="1.5" stroke-linejoin="round"/>
<path d="M15.0901 30.89H8.8501" stroke="white" stroke-width="1.5" stroke-linejoin="round"/>
<path d="M6.78003 30.89H4.34009" stroke="white" stroke-width="1.5" stroke-linejoin="round"/>
</svg>
