<svg width="96" height="96" viewBox="0 0 96 96" fill="none" xmlns="http://www.w3.org/2000/svg">
<path d="M64.0602 77.6V71.61C59.1502 67.78 57.6501 62.79 56.0701 59.62C54.4901 56.46 52.0801 51.63 52.0801 51.63C52.0801 49.7 56.1801 47.6 58.2401 49.63C60.3001 51.66 62.1501 53.62 62.1501 53.62H64.0602V31.64C64.0802 30.57 64.5202 29.55 65.2902 28.8C66.0602 28.05 67.0801 27.64 68.1501 27.64H68.1001C68.6201 27.64 69.1401 27.75 69.6201 27.95C70.1001 28.15 70.5402 28.45 70.9102 28.82C71.2802 29.19 71.5701 29.63 71.7601 30.12C71.9601 30.6 72.0602 31.12 72.0502 31.64V45.63L85.9401 48.51C89.3101 49.18 92.0302 51.63 92.0302 55.62V65.61C92.0302 67.86 90.0302 69.52 90.0302 71.6V77.59L64.0602 77.6Z" stroke="white" stroke-width="1.5" stroke-miterlimit="10"/>
<path d="M92.0299 77.6H60.0698V87.59H92.0299V77.6Z" stroke="white" stroke-width="1.5" stroke-miterlimit="10"/>
<path d="M49.76 66.34H3.97998V7.56H87.88V41.64" stroke="white" stroke-width="1.5" stroke-miterlimit="10"/>
<path d="M9.95996 15.29H13.95" stroke="white" stroke-width="1.5" stroke-miterlimit="10"/>
<path d="M17.95 15.29H21.9399" stroke="white" stroke-width="1.5" stroke-miterlimit="10"/>
<path d="M37.9302 15.29H41.9202" stroke="white" stroke-width="1.5" stroke-miterlimit="10"/>
<path d="M45.9199 15.29H49.9099" stroke="white" stroke-width="1.5" stroke-miterlimit="10"/>
<path d="M54.0698 15.29H58.0599" stroke="white" stroke-width="1.5" stroke-miterlimit="10"/>
<path d="M62.0601 15.29H66.05" stroke="white" stroke-width="1.5" stroke-miterlimit="10"/>
<path d="M70.05 15.29H74.04" stroke="white" stroke-width="1.5" stroke-miterlimit="10"/>
<path d="M77.8901 15.29H81.8801" stroke="white" stroke-width="1.5" stroke-miterlimit="10"/>
<path d="M21.78 58.75C27.2 58.75 31.6 54.36 31.6 48.93C31.6 43.51 27.2 39.11 21.78 39.11C16.36 39.11 11.97 43.5 11.97 48.93C11.96 54.35 16.36 58.75 21.78 58.75Z" stroke="white" stroke-width="1.5" stroke-miterlimit="10"/>
<path d="M39.9302 45.1V49.1" stroke="white" stroke-width="1.5" stroke-miterlimit="10"/>
<path d="M39.9302 53.09V57.09" stroke="white" stroke-width="1.5" stroke-miterlimit="10"/>
<path d="M30.5101 23.12H12.1201V29.77H30.5101V23.12Z" stroke="white" stroke-width="1.5" stroke-miterlimit="10"/>
<path d="M55.12 23.12H36.73V29.77H55.12V23.12Z" stroke="white" stroke-width="1.5" stroke-miterlimit="10"/>
</svg>
