<svg width="96" height="96" viewBox="0 0 96 96" fill="none" xmlns="http://www.w3.org/2000/svg">
<path d="M71.7 32V9.3C71.7 7.2 70 5.5 67.9 5.5H28.3C26.2 5.5 24.5 7.2 24.5 9.3V18.7" stroke="white" stroke-width="1.5" stroke-miterlimit="10"/>
<path d="M47.2 24.4H5.69995V52.7H47.2V24.4Z" stroke="white" stroke-width="1.5" stroke-miterlimit="10"/>
<path d="M18.9 43.7L13.2 38.6L18.9 33.5" stroke="white" stroke-width="1.5" stroke-miterlimit="10"/>
<path d="M34 43.7L39.6 38.6L34 33.5" stroke="white" stroke-width="1.5" stroke-miterlimit="10"/>
<path d="M29.3001 30.1L23.6001 47.1" stroke="white" stroke-width="1.5" stroke-miterlimit="10"/>
<path d="M54.7 24.4H64.0999" stroke="white" stroke-width="1.5" stroke-miterlimit="10"/>
<path d="M54.7 32H64.0999" stroke="white" stroke-width="1.5" stroke-miterlimit="10"/>
<path d="M26.3999 60.3H43.3999" stroke="white" stroke-width="1.5" stroke-miterlimit="10"/>
<path d="M26.3999 67.8H35.8999" stroke="white" stroke-width="1.5" stroke-miterlimit="10"/>
<path d="M54.7 39.5H58.5" stroke="white" stroke-width="1.5" stroke-miterlimit="10"/>
<path d="M18.9 60.3H9.5V69.7H18.9V60.3Z" stroke="white" stroke-width="1.5" stroke-miterlimit="10"/>
<path d="M26.3999 77.2V86.6C26.3999 88.7 28.0999 90.4 30.1999 90.4H67.8999C69.9999 90.4 71.6999 88.7 71.6999 86.6V62.1" stroke="white" stroke-width="1.5" stroke-miterlimit="10"/>
<path d="M45.3 84.8H50.9001" stroke="white" stroke-width="1.5" stroke-miterlimit="10"/>
<path d="M45.3 11.2H50.9001" stroke="white" stroke-width="1.5" stroke-miterlimit="10"/>
<path d="M51.7999 59.9L47.7 70.7L58.5 66.6L89.5 35.6C90.6 34.5 90.6 32.7 89.5 31.6L86.8 28.9C85.7 27.8 83.9 27.8 82.8 28.9L51.7999 59.9Z" stroke="white" stroke-width="1.5" stroke-miterlimit="10"/>
<path d="M84.8001 40.2L78.1001 33.5" stroke="white" stroke-width="1.5" stroke-miterlimit="10"/>
</svg>
