<svg width="96" height="96" viewBox="0 0 96 96" fill="none" xmlns="http://www.w3.org/2000/svg">
<path d="M26.3101 45.69C29.5401 45.69 32.1599 43.07 32.1599 39.84C32.1599 36.61 29.5401 33.99 26.3101 33.99C23.0801 33.99 20.46 36.61 20.46 39.84C20.46 43.07 23.0801 45.69 26.3101 45.69Z" stroke="white" stroke-width="1.5" stroke-miterlimit="10"/>
<path d="M65.01 49.59C68.24 49.59 70.8601 46.97 70.8601 43.74C70.8601 40.51 68.24 37.89 65.01 37.89C61.78 37.89 59.1599 40.51 59.1599 43.74C59.1599 46.97 61.78 49.59 65.01 49.59Z" stroke="white" stroke-width="1.5" stroke-miterlimit="10"/>
<path d="M65.01 68.89C68.24 68.89 70.8601 66.27 70.8601 63.04C70.8601 59.81 68.24 57.19 65.01 57.19C61.78 57.19 59.1599 59.81 59.1599 63.04C59.1599 66.27 61.78 68.89 65.01 68.89Z" stroke="white" stroke-width="1.5" stroke-miterlimit="10"/>
<path d="M45.6101 37.99C48.8401 37.99 51.46 35.37 51.46 32.14C51.46 28.91 48.8401 26.29 45.6101 26.29C42.3801 26.29 39.76 28.91 39.76 32.14C39.76 35.37 42.3801 37.99 45.6101 37.99Z" stroke="white" stroke-width="1.5" stroke-miterlimit="10"/>
<path d="M45.6101 37.89V94.04" stroke="white" stroke-width="1.5" stroke-miterlimit="10"/>
<path d="M61.1101 47.54L53.4099 55.24V66.84" stroke="white" stroke-width="1.5" stroke-miterlimit="10"/>
<path d="M30.1101 43.74L37.8101 51.44V63.04" stroke="white" stroke-width="1.5" stroke-miterlimit="10"/>
<path d="M61.1101 68.89L53.4099 76.59V82.44" stroke="white" stroke-width="1.5" stroke-miterlimit="10"/>
<path d="M76.6101 55.34H78.5601C86.0701 55.34 92.1101 49.3 92.1101 41.79C92.1101 34.28 86.0701 28.24 78.5601 28.24C77.2001 28.24 75.73 28.43 74.47 28.92C74.66 28.04 74.76 27.17 74.76 26.39C74.76 18.88 68.71 12.84 61.21 12.84C57.99 12.84 54.7801 14.01 52.3401 16.15C49.6101 8.35002 42.3001 3.17999 34.1101 3.17999C23.3901 3.17999 14.71 11.86 14.71 22.58C14.71 24.53 15.0001 26.58 15.5901 28.43C8.57009 29.02 3.11011 34.86 3.11011 41.88C3.11011 49.39 9.14991 55.43 16.6599 55.43H32.1599" stroke="white" stroke-width="1.5" stroke-miterlimit="10"/>
<path d="M52.3401 16.05C52.8301 17.51 53.2201 18.97 53.3201 20.53" stroke="white" stroke-width="1.5" stroke-miterlimit="10"/>
<path d="M74.3701 28.82C74.0801 30.38 73.49 31.84 72.71 33.21" stroke="white" stroke-width="1.5" stroke-miterlimit="10"/>
<path d="M15.5901 28.24C17.2501 28.14 18.9999 28.34 20.6599 28.83" stroke="white" stroke-width="1.5" stroke-miterlimit="10"/>
<path d="M37.9099 66.94V70.84" stroke="white" stroke-width="1.5" stroke-miterlimit="10"/>
<path d="M37.9099 74.64V78.54" stroke="white" stroke-width="1.5" stroke-miterlimit="10"/>
<path d="M53.4099 86.24V90.14" stroke="white" stroke-width="1.5" stroke-miterlimit="10"/>
<path d="M37.9099 82.44V86.24" stroke="white" stroke-width="1.5" stroke-miterlimit="10"/>
</svg>
