<svg width="96" height="96" viewBox="0 0 96 96" fill="none" xmlns="http://www.w3.org/2000/svg">
<path d="M37.45 88.4L43.3299 77.18H52.2499L57.3399 88.34" stroke="white" stroke-width="1.5" stroke-linecap="round" stroke-linejoin="round"/>
<path d="M18.3401 28.77H12.9401C12.0301 28.77 11.3 29.5 11.3 30.41V49.76" stroke="white" stroke-width="1.5" stroke-linecap="round" stroke-linejoin="round"/>
<path d="M84.33 39.87V30.41C84.33 29.5 83.6 28.77 82.69 28.77H51.21" stroke="white" stroke-width="1.5" stroke-linecap="round" stroke-linejoin="round"/>
<path d="M11.3 62.01V75.47C11.3 76.38 12.0301 77.11 12.9401 77.11H82.6901C83.6001 77.11 84.33 76.38 84.33 75.47V62.43" stroke="white" stroke-width="1.5" stroke-linecap="round" stroke-linejoin="round"/>
<path d="M11.3 67.53H83.3501" stroke="white" stroke-width="1.5" stroke-linecap="round" stroke-linejoin="round"/>
<path d="M28.95 88.7H66.2499" stroke="white" stroke-width="1.5" stroke-linecap="round" stroke-linejoin="round"/>
<path d="M50.6101 8.14999H18.3401V40.36H50.6101V8.14999Z" stroke="white" stroke-width="1.5" stroke-linecap="round" stroke-linejoin="round"/>
<path d="M47.57 25.02V23.44C47.57 22.95 47.21 22.47 46.72 22.35L45.02 21.93C44.66 21.81 44.35 21.57 44.23 21.2C44.05 20.59 43.81 19.99 43.5 19.38C43.32 19.14 43.32 18.71 43.56 18.41L44.47 16.89C44.71 16.47 44.65 15.92 44.29 15.56L43.2 14.47C42.84 14.11 42.29 14.05 41.87 14.29L40.35 15.2C40.05 15.38 39.62 15.44 39.26 15.26C38.71 14.96 38.11 14.71 37.44 14.53C37.08 14.41 36.83 14.11 36.71 13.74L36.29 12.04C36.17 11.55 35.74 11.19 35.2 11.19H33.62C33.13 11.19 32.65 11.55 32.53 12.04L32.11 13.74C31.99 14.1 31.75 14.41 31.38 14.53C30.77 14.71 30.17 14.95 29.56 15.26C29.2 15.44 28.83 15.44 28.47 15.2L26.95 14.29C26.53 14.05 25.98 14.11 25.62 14.47L24.53 15.56C24.17 15.92 24.11 16.47 24.35 16.89L25.26 18.41C25.44 18.71 25.5 19.14 25.32 19.5C25.02 20.05 24.77 20.65 24.59 21.32C24.47 21.68 24.17 21.93 23.8 22.05L22.1 22.47C21.61 22.59 21.25 23.02 21.25 23.56V25.14C21.25 25.63 21.61 26.11 22.1 26.23L23.8 26.65C24.16 26.77 24.47 27.01 24.59 27.38C24.77 27.99 25.01 28.59 25.32 29.2C25.5 29.56 25.5 29.93 25.26 30.29L24.53 31.62C24.29 32.04 24.35 32.59 24.71 32.95L25.8 34.04C26.16 34.4 26.71 34.46 27.13 34.22L28.65 33.31C28.95 33.13 29.38 33.07 29.74 33.25C30.29 33.55 30.89 33.8 31.56 33.98C31.92 34.1 32.17 34.4 32.29 34.77L32.71 36.47C32.83 36.95 33.26 37.32 33.8 37.32H35.38C35.87 37.32 36.35 36.96 36.47 36.47L36.89 34.77C37.01 34.41 37.25 34.1 37.62 33.98C38.23 33.8 38.83 33.56 39.44 33.25C39.8 33.07 40.17 33.07 40.53 33.31L42.05 34.22C42.47 34.46 43.02 34.4 43.38 34.04L44.47 32.95C44.83 32.59 44.89 32.04 44.65 31.62L43.74 30.1C43.56 29.8 43.5 29.37 43.68 29.01C43.98 28.46 44.23 27.86 44.41 27.19C44.53 26.83 44.83 26.58 45.2 26.46L46.9 26.04C47.21 25.99 47.57 25.56 47.57 25.02Z" stroke="white" stroke-width="1.5" stroke-linecap="round" stroke-linejoin="round"/>
<path d="M36.78 26.59C38.05 25.32 38.05 23.25 36.78 21.98C35.51 20.71 33.44 20.71 32.17 21.98C30.9 23.25 30.9 25.32 32.17 26.59C33.44 27.86 35.51 27.86 36.78 26.59Z" stroke="white" stroke-width="1.5" stroke-linecap="round" stroke-linejoin="round"/>
<path d="M89.36 40.36H67.71V62.01H89.36V40.36Z" stroke="white" stroke-width="1.5" stroke-linecap="round" stroke-linejoin="round"/>
<path d="M86.3301 51.64V50.73C86.3301 50.43 86.1501 50.18 85.8401 50.12L84.8701 49.88C84.6901 49.82 84.5101 49.7 84.4501 49.46C84.3301 49.1 84.2101 48.73 84.0301 48.43C83.9101 48.25 83.9101 48.01 84.0301 47.82L84.5801 46.97C84.7001 46.73 84.7001 46.42 84.4601 46.18L83.8501 45.57C83.6701 45.39 83.3001 45.33 83.0601 45.45L82.2101 46C82.0301 46.12 81.7901 46.12 81.6001 46C81.3001 45.82 80.9301 45.7 80.5701 45.58C80.3901 45.52 80.2101 45.34 80.1501 45.16L79.9101 44.19C79.8501 43.89 79.6101 43.7 79.3001 43.7H78.3901C78.0901 43.7 77.8401 43.88 77.7801 44.19L77.5401 45.16C77.4801 45.34 77.3601 45.52 77.1201 45.58C76.7601 45.7 76.3901 45.82 76.0901 46C75.9101 46.12 75.6701 46.12 75.4801 46L74.6301 45.45C74.3901 45.33 74.0801 45.33 73.8401 45.57L73.2301 46.18C73.0501 46.36 72.9901 46.73 73.1101 46.97L73.6601 47.82C73.7801 48 73.7801 48.24 73.6601 48.43C73.4801 48.73 73.3601 49.1 73.2401 49.46C73.1801 49.64 73.0001 49.82 72.8201 49.88L71.8501 50.12C71.5501 50.18 71.3601 50.42 71.3601 50.73V51.64C71.3601 51.94 71.5401 52.19 71.8501 52.25L72.8201 52.49C73.0001 52.55 73.1801 52.67 73.2401 52.91C73.3601 53.27 73.4801 53.64 73.6601 53.94C73.7801 54.12 73.7801 54.36 73.6601 54.55L73.1101 55.4C72.9901 55.64 72.9901 55.95 73.2301 56.19L73.8401 56.8C74.0201 56.98 74.3901 57.04 74.6301 56.92L75.4801 56.37C75.6601 56.25 75.9001 56.25 76.0901 56.37C76.3901 56.55 76.7601 56.67 77.1201 56.79C77.3001 56.85 77.4801 57.03 77.5401 57.21L77.7801 58.18C77.8401 58.48 78.0801 58.67 78.3901 58.67H79.3001C79.6001 58.67 79.8501 58.49 79.9101 58.18L80.1501 57.21C80.2101 57.03 80.3301 56.85 80.5701 56.79C80.9301 56.67 81.3001 56.55 81.6001 56.37C81.7801 56.25 82.0201 56.25 82.2101 56.37L83.0601 56.92C83.3001 57.04 83.6101 57.04 83.8501 56.8L84.4601 56.19C84.6401 56.01 84.7001 55.64 84.5801 55.4L84.0301 54.55C83.9101 54.37 83.9101 54.13 84.0301 53.94C84.2101 53.64 84.3301 53.27 84.4501 52.91C84.5101 52.73 84.6901 52.55 84.8701 52.49L85.8401 52.25C86.1501 52.19 86.3301 51.94 86.3301 51.64Z" stroke="white" stroke-width="1.5" stroke-linecap="round" stroke-linejoin="round"/>
<path d="M79.54 52.91C80.51 52.49 80.93 51.39 80.57 50.42C80.15 49.45 79.05 49.02 78.08 49.39C77.11 49.81 76.68 50.91 77.05 51.88C77.48 52.85 78.57 53.34 79.54 52.91Z" stroke="white" stroke-width="1.5" stroke-linecap="round" stroke-linejoin="round"/>
<path d="M37.99 50.43H5.78003V62.01H37.99V50.43Z" stroke="white" stroke-width="1.5" stroke-linecap="round" stroke-linejoin="round"/>
<path d="M55.6401 46V36.36H50.6101" stroke="white" stroke-width="1.5" stroke-linecap="round" stroke-linejoin="round"/>
<path d="M37.99 56.01H55.64V52.01" stroke="white" stroke-width="1.5" stroke-linecap="round" stroke-linejoin="round"/>
<path d="M58.1301 48.91H67.7101" stroke="white" stroke-width="1.5" stroke-linecap="round" stroke-linejoin="round"/>
<path d="M55.6401 51.46C57.0401 51.46 58.1901 50.31 58.1901 48.91C58.1901 47.51 57.0401 46.36 55.6401 46.36C54.2501 46.36 53.0901 47.51 53.0901 48.91C53.0901 50.31 54.2501 51.46 55.6401 51.46Z" stroke="white" stroke-width="1.5" stroke-linecap="round" stroke-linejoin="round"/>
</svg>
