<svg width="96" height="96" viewBox="0 0 96 96" fill="none" xmlns="http://www.w3.org/2000/svg">
<path d="M89.435 45.3672V66.4978L79.1553 68.2111" stroke="white" stroke-width="2" stroke-linejoin="round"/>
<path d="M80.2337 37.688C75.665 35.5305 70.1444 34.071 64.3699 33.3096L55.1689 49.5541L89.3713 45.1757C87.7849 42.4471 84.8025 39.8455 80.2337 37.688Z" stroke="white" stroke-width="2" stroke-linejoin="round"/>
<path d="M73.7621 54.6312L40.7654 58.6923L49.5222 43.59C38.1637 42.1939 25.5361 43.59 16.6524 47.6511C3.32681 53.8062 3.32681 63.7687 16.6524 69.9873C29.978 76.1425 51.6797 76.1425 65.0052 69.9873C74.0159 65.8627 76.9348 59.9614 73.7621 54.6312Z" stroke="white" stroke-width="2" stroke-linejoin="round"/>
<path d="M6.5625 59.3906V76.6504C6.5625 85.4072 21.8552 92.5142 40.7648 92.5142C59.6745 92.5142 74.9672 85.4072 74.9672 76.6504V59.3906" stroke="white" stroke-width="2" stroke-linejoin="round"/>
<path d="M14.875 42.8294V26.2676H27.3122" stroke="white" stroke-width="2" stroke-linejoin="round" stroke-dasharray="5.85 5.85"/>
<path d="M27.3115 38.6405V3.48633H39.7487V38.704" stroke="white" stroke-width="2" stroke-linejoin="round" stroke-dasharray="5.85 5.85"/>
<path d="M39.6855 15.9229H52.1228V38.7033" stroke="white" stroke-width="2" stroke-linejoin="round" stroke-dasharray="5.85 5.85"/>
</svg>
