<svg width="96" height="96" viewBox="0 0 96 96" fill="none" xmlns="http://www.w3.org/2000/svg">
<path d="M32.9453 53.6142V47.4263C32.9453 42.0677 36.8367 40.0264 41.8763 40.0264L48.0004 46.8522L53.7418 40.0902C58.7814 40.0902 63.1193 42.0677 63.1193 47.4901V53.678" stroke="white" stroke-width="2" stroke-linejoin="round"/>
<path d="M54.9537 26.9475C54.9537 30.8389 51.8279 34.0285 48.0003 34.0285C44.1727 34.0285 41.0469 30.8389 41.0469 26.9475V24.332C41.0469 20.4406 44.1727 17.251 48.0003 17.251C51.8279 17.251 54.9537 20.4406 54.9537 24.332V26.9475Z" stroke="white" stroke-width="2" stroke-miterlimit="10"/>
<path d="M76.1967 49.7853V33.4544C76.1967 30.7113 77.9191 28.4785 80.4071 28.4785C82.8312 28.4785 84.8726 30.6475 84.8726 33.3906V65.1594L70.3278 84.1697C70.3278 84.1697 68.733 86.0197 69.2433 92.7179" stroke="white" stroke-width="2" stroke-linejoin="round"/>
<path d="M51.7646 92.9098V78.1736C51.7646 72.4323 58.4629 68.5409 58.4629 68.5409C61.4612 66.4995 64.906 62.9909 64.906 62.9909L70.5835 56.803C72.9439 54.2513 76.3249 53.5496 78.1111 55.2082C79.8973 56.8668 79.4507 60.3116 77.0904 62.8633L69.0525 71.5392" stroke="white" stroke-width="2" stroke-miterlimit="10"/>
<path d="M19.8038 49.7853V33.4544C19.8038 30.7113 18.0814 28.4785 15.5934 28.4785C13.1693 28.4785 11.1279 30.6475 11.1279 33.3906V65.1594L25.6727 84.1697C25.6727 84.1697 27.2675 86.0197 26.7572 92.7179" stroke="white" stroke-width="2" stroke-linejoin="round"/>
<path d="M44.2357 92.9098V78.1736C44.2357 72.4323 37.5375 68.5409 37.5375 68.5409C34.5392 66.4995 31.0944 62.9909 31.0944 62.9909L25.353 56.803C22.9927 54.2513 19.6117 53.5496 17.8255 55.2082C16.0393 56.8668 16.4858 60.3116 18.8462 62.8633L26.8841 71.5392" stroke="white" stroke-width="2" stroke-miterlimit="10"/>
<path d="M48 9.21396V3.08984" stroke="white" stroke-width="2" stroke-miterlimit="10" stroke-linecap="round"/>
<path d="M31.7966 14.8919L27.9053 10.1074" stroke="white" stroke-width="2" stroke-miterlimit="10" stroke-linecap="round"/>
<path d="M68.031 10.1074L64.1396 14.8919" stroke="white" stroke-width="2" stroke-miterlimit="10" stroke-linecap="round"/>
</svg>
