<svg width="96" height="96" viewBox="0 0 96 96" fill="none" xmlns="http://www.w3.org/2000/svg">
<path d="M89.2349 6.7334H6.76511C5.6371 6.7334 4.75977 7.73607 4.75977 8.92674V87.0098C4.75977 88.2632 5.6371 89.2658 6.70244 89.2658H89.2349C90.3002 89.2658 91.1775 88.2632 91.1775 87.0098V8.92674C91.2402 7.73607 90.3629 6.7334 89.2349 6.7334Z" stroke="white" stroke-width="2" stroke-linejoin="round"/>
<path d="M4.75977 18.5146H91.2402" stroke="white" stroke-width="2" stroke-linejoin="round"/>
<path d="M10.6504 12.624H14.5984" stroke="white" stroke-width="2" stroke-linejoin="round"/>
<path d="M18.5469 12.624H22.4949" stroke="white" stroke-width="2" stroke-linejoin="round"/>
<path d="M26.3799 12.624H30.3279" stroke="white" stroke-width="2" stroke-linejoin="round"/>
<path d="M47.0606 66.5167C50.3193 66.5167 52.9513 63.8847 52.9513 60.626C52.9513 57.3674 50.3193 54.7354 47.0606 54.7354C43.8019 54.7354 41.1699 57.3674 41.1699 60.626C41.1699 63.8847 43.8019 66.5167 47.0606 66.5167Z" stroke="white" stroke-width="2" stroke-miterlimit="10"/>
<path d="M67.4893 48.8457C69.4946 52.2924 70.6226 56.3031 70.6226 60.6271" stroke="white" stroke-width="2" stroke-miterlimit="10" stroke-linecap="round"/>
<path d="M23.498 60.6263C23.498 47.5915 34.0261 37.0635 47.0608 37.0635C51.3222 37.0635 55.3955 38.1915 58.8422 40.1968" stroke="white" stroke-width="2" stroke-miterlimit="10" stroke-linecap="round"/>
<path d="M39.2266 68.4597L43.1746 64.5117" stroke="white" stroke-width="2" stroke-miterlimit="10"/>
<path d="M51.0088 56.6786L66.7382 40.9492" stroke="white" stroke-width="2" stroke-miterlimit="10"/>
</svg>
