<svg width="96" height="96" viewBox="0 0 96 96" fill="none" xmlns="http://www.w3.org/2000/svg">
<path d="M70.041 18.8115H72.766" stroke="white" stroke-width="2" stroke-miterlimit="10"/>
<path d="M53.6299 26.9883L61.8653 18.7529H67.3152" stroke="white" stroke-width="2" stroke-miterlimit="10"/>
<path d="M67.3173 24.2627H64.5924L60.1113 28.6832" stroke="white" stroke-width="2" stroke-miterlimit="10"/>
<path d="M70.041 24.2627H72.766" stroke="white" stroke-width="2" stroke-miterlimit="10"/>
<path d="M5.79297 26.8663C11.6062 24.6864 19.2361 22.7486 28.1981 22.6881C36.7969 22.6275 44.7295 27.2902 51.4511 32.3768C58.536 32.9218 65.3786 33.709 72.1002 39.1589L70.7074 48.9687L63.8648 50.0587" stroke="white" stroke-width="2" stroke-miterlimit="10"/>
<path d="M6.09575 52.1774C7.06462 52.6618 8.09405 52.9646 9.24458 52.9646C12.999 52.9646 16.0872 49.8763 16.0872 46.122C16.0872 42.3676 12.999 39.2793 9.24458 39.2793C7.97294 39.2793 6.76185 39.6426 5.73242 40.2482" stroke="white" stroke-width="2" stroke-miterlimit="10"/>
<path d="M53.4502 50.1807H14.6953" stroke="white" stroke-width="2" stroke-miterlimit="10"/>
<path d="M58.536 52.9646C62.2904 52.9646 65.3787 49.8763 65.3787 46.122C65.3787 42.3676 62.2904 39.2793 58.536 39.2793C54.7816 39.2793 51.6934 42.3676 51.6934 46.122C51.6934 49.8763 54.7816 52.9646 58.536 52.9646Z" stroke="white" stroke-width="2" stroke-miterlimit="10"/>
<path d="M25.6553 22.9902V40.551C25.6553 42.8521 27.5325 44.7293 29.8335 44.7293H46.1833" stroke="white" stroke-width="2" stroke-miterlimit="10"/>
<path d="M51.4511 32.4365C49.5134 34.1926 47.0306 35.1615 44.4873 35.1615H5.49023" stroke="white" stroke-width="2" stroke-miterlimit="10"/>
<path d="M41.0371 67.1953L39.7654 78.3979C39.3415 81.3651 36.7982 83.6056 33.7705 83.6056H62.4734C59.4456 83.6056 56.9023 81.3651 56.4785 78.3979L55.2068 67.1953H41.0371V67.1953Z" stroke="white" stroke-width="2" stroke-miterlimit="10"/>
<path d="M41.2184 67.1954H9.36669C7.30783 67.1954 5.6123 65.4999 5.6123 63.441V16.1479C5.6123 14.0891 7.30783 12.3936 9.36669 12.3936H86.7554C88.8142 12.3936 90.5098 14.0891 90.5098 16.1479V63.441C90.5098 65.4999 88.8142 67.1954 86.7554 67.1954H55.1459" stroke="white" stroke-width="2" stroke-miterlimit="10"/>
<path d="M5.6123 57.5664H90.5098" stroke="white" stroke-width="2" stroke-miterlimit="10"/>
</svg>
