<svg width="96" height="96" viewBox="0 0 96 96" fill="none" xmlns="http://www.w3.org/2000/svg">
<path d="M48.0004 87.9265C52.1002 87.9265 55.4431 84.5836 55.4431 80.4838C55.4431 76.384 52.1002 73.041 48.0004 73.041C43.9006 73.041 40.5576 76.384 40.5576 80.4838C40.5576 84.5836 43.9006 87.9265 48.0004 87.9265Z" stroke="white" stroke-width="2" stroke-miterlimit="10"/>
<path d="M48.0004 50.7752C52.1002 50.7752 55.4431 47.4322 55.4431 43.3324C55.4431 39.2326 52.1002 35.8896 48.0004 35.8896C43.9006 35.8896 40.5576 39.2326 40.5576 43.3324C40.5576 47.4322 43.9006 50.7752 48.0004 50.7752Z" stroke="white" stroke-width="2" stroke-miterlimit="10"/>
<path d="M33.1781 22.9597C37.2779 22.9597 40.6209 19.6168 40.6209 15.517C40.5578 11.4172 37.2779 8.07422 33.1781 8.07422C29.0783 8.07422 25.7354 11.4172 25.7354 15.517C25.7354 19.6168 29.0783 22.9597 33.1781 22.9597Z" stroke="white" stroke-width="2" stroke-miterlimit="10" stroke-dasharray="5.64 5.64"/>
<path d="M48 69.3192V50.7754" stroke="white" stroke-width="2" stroke-miterlimit="10"/>
<path d="M42.449 32.2309L36.8984 22.959" stroke="white" stroke-width="2" stroke-miterlimit="10" stroke-dasharray="5.64 5.64"/>
<path d="M68.4359 63.7693C72.5357 63.7693 75.8787 60.4264 75.8787 56.3265C75.8787 52.2267 72.5357 48.8838 68.4359 48.8838C64.3361 48.8838 60.9932 52.2267 60.9932 56.3265C60.9932 60.4264 64.3361 63.7693 68.4359 63.7693Z" stroke="white" stroke-width="2" stroke-miterlimit="10"/>
<path d="M62.823 22.9597C66.9229 22.9597 70.2658 19.6168 70.2658 15.517C70.2658 11.4172 66.9229 8.07422 62.823 8.07422C58.7232 8.07422 55.4434 11.4172 55.4434 15.517C55.4434 19.6168 58.7232 22.9597 62.823 22.9597Z" stroke="white" stroke-width="2" stroke-miterlimit="10" stroke-dasharray="5.64 5.64"/>
<path d="M75.8164 45.2244L79.5378 39.6738" stroke="white" stroke-width="2" stroke-miterlimit="10" stroke-dasharray="5.64 5.64"/>
<path d="M57.2725 71.2114L63.8322 61.9395" stroke="white" stroke-width="2" stroke-miterlimit="10"/>
<path d="M83.2592 39.6746C87.359 39.6746 90.7019 36.3316 90.7019 32.2318C90.7019 28.132 87.359 24.7891 83.2592 24.7891C79.1593 24.7891 75.8164 28.132 75.8164 32.2318C75.8164 36.3316 79.1593 39.6746 83.2592 39.6746Z" stroke="white" stroke-width="2" stroke-miterlimit="10" stroke-dasharray="5.64 5.64"/>
<path d="M27.5639 63.7693C31.6637 63.7693 35.0066 60.4264 35.0066 56.3265C35.0066 52.2267 31.6637 48.8838 27.5639 48.8838C23.464 48.8838 20.1211 52.2267 20.1211 56.3265C20.1842 60.4264 23.464 63.7693 27.5639 63.7693Z" stroke="white" stroke-width="2" stroke-miterlimit="10"/>
<path d="M20.1852 45.2244L16.4639 39.6738" stroke="white" stroke-width="2" stroke-miterlimit="10" stroke-dasharray="5.64 5.64"/>
<path d="M38.7277 71.2114L32.168 61.9395" stroke="white" stroke-width="2" stroke-miterlimit="10"/>
<path d="M12.7416 39.6746C16.8414 39.6746 20.1843 36.3316 20.1843 32.2318C20.1843 28.132 16.8414 24.7891 12.7416 24.7891C8.64176 24.7891 5.29883 28.132 5.29883 32.2318C5.29883 36.3316 8.64176 39.6746 12.7416 39.6746Z" stroke="white" stroke-width="2" stroke-miterlimit="10" stroke-dasharray="5.64 5.64"/>
<path d="M53.5508 32.2309L59.1013 22.959" stroke="white" stroke-width="2" stroke-miterlimit="10" stroke-dasharray="5.64 5.64"/>
</svg>
