<svg width="96" height="96" viewBox="0 0 96 96" fill="none" xmlns="http://www.w3.org/2000/svg">
<path d="M42.258 80.3666C36.9972 84.1518 32.2497 86.7822 31.6081 86.9746C30.1325 86.5897 5.625 72.2188 5.625 62.4029V34.9442C12.9388 34.9442 29.0419 28.4003 31.6081 24.8076C34.1743 28.3362 50.2775 34.9442 57.5912 34.9442V50.0209" stroke="white" stroke-width="2" stroke-linecap="round" stroke-linejoin="round"/>
<path d="M20.894 39.8201C25.6416 38.2803 30.4533 35.9707 31.6081 34.4951C33.4044 36.8689 44.76 41.3598 49.8925 41.3598V55.6665" stroke="white" stroke-width="2" stroke-linecap="round" stroke-linejoin="round"/>
<path d="M40.2697 71.5134C36.0995 74.5288 32.0577 76.7101 31.6086 76.8384C30.5821 76.5817 13.3242 66.7659 13.3242 60.0937V46.1719" stroke="white" stroke-width="2" stroke-linecap="round" stroke-linejoin="round"/>
<path d="M69.1388 30.6456V22.9469H76.8375L63.3648 3.7002L49.8921 22.9469H57.5908V26.7963" stroke="white" stroke-width="2" stroke-linecap="round" stroke-linejoin="round" stroke-dasharray="6.01 6.01"/>
<path d="M82.6757 72.9885V51.8171H90.3744L76.9016 32.5703L63.3647 51.8171H71.0634V61.4404" stroke="white" stroke-width="2" stroke-linecap="round" stroke-linejoin="round" stroke-dasharray="6.01 6.01"/>
<path d="M51.818 92.2985V74.9764H46.0439L57.592 57.6543L69.14 74.9764H63.366V82.6751" stroke="white" stroke-width="2" stroke-linecap="round" stroke-linejoin="round" stroke-dasharray="6.01 6.01"/>
</svg>
