<svg width="96" height="96" viewBox="0 0 96 96" fill="none" xmlns="http://www.w3.org/2000/svg">
<g clip-path="url(#clip0_8428_556618)">
<path d="M32.1671 21.9351L31.0215 20.3789L31.1413 20.2987C31.6542 19.9471 32.1478 19.6245 32.6491 19.3115L33.6721 20.9508C33.1949 21.2483 32.7245 21.5564 32.2599 21.8742L32.1671 21.9351Z" fill="white"/>
<path d="M54.8035 95.9474L54.792 94.0154C56.0081 94.0087 57.2339 93.9449 58.4346 93.828L58.622 95.7503C57.3634 95.874 56.0786 95.9406 54.8035 95.9474ZM50.9831 95.7957C49.7177 95.6875 48.4426 95.5185 47.1917 95.2944L47.5327 93.3924C48.7256 93.6059 49.9418 93.7672 51.1483 93.8696L50.9831 95.7957ZM62.4067 95.2045L62.0435 93.3074C63.2326 93.0794 64.4256 92.7925 65.5876 92.4554L66.1266 94.311C64.9076 94.6655 63.6557 94.966 62.4067 95.2045ZM43.4611 94.4463C42.2363 94.1062 41.0124 93.7054 39.8252 93.2533L40.513 91.4479C41.6441 91.8787 42.8091 92.2612 43.9769 92.5839L43.4611 94.4463ZM69.7471 93.0746L69.039 91.2779C70.1663 90.8335 71.2849 90.3312 72.3649 89.7845L73.2371 91.5078C72.1031 92.0816 70.9294 92.608 69.7471 93.0746ZM36.3178 91.728C35.1779 91.1678 34.0497 90.5486 32.9649 89.885L33.9734 88.237C35.007 88.8697 36.0821 89.4609 37.1688 89.9931L36.3178 91.728ZM76.5659 89.6251L75.5381 87.9897C76.5639 87.3454 77.5715 86.6451 78.5345 85.909L79.7082 87.4439C78.6987 88.2158 77.641 88.9499 76.5659 89.6251ZM29.7965 87.7405C28.7784 86.9812 27.7834 86.165 26.8387 85.314L28.1312 83.8786C29.0324 84.69 29.982 85.4685 30.9518 86.193L29.7965 87.7405ZM82.6351 84.9836L81.3262 83.5627C82.2168 82.7416 83.0794 81.8693 83.8928 80.9691L85.3262 82.2635C84.4743 83.2072 83.5692 84.1229 82.6351 84.9836ZM24.1166 82.6276C23.253 81.6935 22.4242 80.7102 21.6515 79.7027L23.1845 78.5271C23.9205 79.4873 24.7117 80.4252 25.5356 81.3158L24.1166 82.6276ZM87.7557 79.3095L86.2082 78.1523C86.9336 77.1834 87.6233 76.1672 88.257 75.1336L89.904 76.144C89.2404 77.2279 88.5169 78.2933 87.7557 79.3095ZM19.4655 76.5642C18.7874 75.4881 18.1527 74.3686 17.578 73.2374L19.3003 72.3632C19.848 73.4422 20.4537 74.5086 21.0999 75.5345L19.4655 76.5642ZM91.7529 72.7941L90.0199 71.9401C90.555 70.8534 91.0458 69.729 91.4785 68.5969L93.2829 69.2866C92.8289 70.4738 92.3141 71.6542 91.7529 72.7941ZM16.0063 69.7503C15.5378 68.5679 15.1205 67.3508 14.7641 66.1318L16.6188 65.5899C16.9578 66.7519 17.3558 67.912 17.8021 69.0384L16.0063 69.7503ZM94.4808 65.6526L92.6193 65.1339C92.9449 63.968 93.2192 62.7721 93.4346 61.5811L95.3356 61.924C95.1096 63.1749 94.8217 64.4297 94.4808 65.6526ZM13.8648 62.4137C13.6233 61.1657 13.4378 59.8926 13.3132 58.6291L15.2355 58.4397C15.3543 59.6443 15.5311 60.8576 15.761 62.0476L13.8648 62.4137ZM95.8428 58.1335L93.9186 57.9664C94.0181 56.8198 94.0683 55.6529 94.0683 54.4986V54.3257L96.0002 54.3102V54.4986C95.9993 55.7089 95.9461 56.9319 95.8428 58.1335ZM13.1113 54.8125L13.1104 54.4986C13.1104 53.3307 13.1596 52.1493 13.2572 50.9883L15.1824 51.1496C15.0896 52.2575 15.0423 53.3839 15.0423 54.4986L15.0433 54.7951L13.1113 54.8125ZM93.8847 50.6791C93.7698 49.4746 93.5969 48.2604 93.3699 47.0703L95.268 46.709C95.5057 47.958 95.6872 49.2321 95.808 50.4956L93.8847 50.6791ZM15.6538 47.532L13.7518 47.193C13.9749 45.9382 14.2589 44.6824 14.597 43.4605L16.4594 43.9753C16.1377 45.1403 15.8672 46.3371 15.6538 47.532ZM92.5237 43.5232C92.1875 42.3583 91.7924 41.1962 91.351 40.0709L93.1496 39.3657C93.6123 40.5471 94.0267 41.7652 94.3803 42.9881L92.5237 43.5232ZM17.5925 40.5085L15.7861 39.8236C16.2362 38.6364 16.7482 37.4541 17.3075 36.3123L19.0424 37.1623C18.5092 38.25 18.0213 39.3763 17.5925 40.5085ZM89.8634 36.7431C89.3205 35.6641 88.7178 34.5958 88.0735 33.5651L89.7108 32.5402C90.387 33.6201 91.0187 34.7416 91.5877 35.8737L89.8634 36.7431ZM85.9995 30.5667C85.2625 29.6007 84.4743 28.6589 83.657 27.7692L85.0799 26.4613C85.9368 27.3944 86.7636 28.3807 87.5354 29.394L85.9995 30.5667ZM81.0692 25.1998C80.1728 24.3874 79.2262 23.6059 78.2554 22.8766L79.4155 21.332C80.4326 22.0961 81.4257 22.9152 82.3655 23.7672L81.0692 25.1998ZM75.2415 20.823C74.207 20.1864 73.1328 19.5913 72.0509 19.0552L72.9077 17.3242C74.0437 17.8864 75.17 18.5104 76.2548 19.1779L75.2415 20.823ZM36.851 19.1634L35.9835 17.4372C37.1195 16.8663 38.2961 16.3428 39.4784 15.8801L40.1826 17.6787C39.0544 18.1202 37.9329 18.6196 36.851 19.1634ZM68.7096 17.5918C67.5775 17.1571 66.4135 16.7707 65.2486 16.4442L65.7702 14.5838C66.9921 14.9267 68.2131 15.3314 69.4013 15.7874L68.7096 17.5918ZM43.636 16.5109L43.1018 14.6543C44.3228 14.3036 45.5756 14.0061 46.8246 13.7704L47.183 15.6685C45.9929 15.8926 44.799 16.1766 43.636 16.5109ZM61.6967 15.6241C60.5086 15.4068 59.2924 15.2425 58.083 15.1363L58.254 13.2121C59.5223 13.3241 60.7974 13.4961 62.0435 13.724L61.6967 15.6241ZM50.7948 15.1575L50.6132 13.2343C51.8738 13.1155 53.1595 13.0527 54.4336 13.0488L54.4403 14.9808C53.2232 14.9846 51.9974 15.0445 50.7948 15.1575Z" fill="white"/>
<path d="M20.8692 33.8424L19.2231 32.831C19.5564 32.2872 19.9032 31.752 20.2606 31.2256L21.8583 32.3113C21.5173 32.8146 21.187 33.3246 20.8692 33.8424Z" fill="white"/>
<path d="M54.559 84.1533C38.2012 84.1533 24.894 70.85 24.894 54.498C24.894 48.6684 26.5864 43.0329 29.7876 38.2002L31.3979 39.2666C28.4063 43.7825 26.826 49.049 26.826 54.498C26.826 69.7845 39.2667 82.2214 54.559 82.2214C69.8454 82.2214 82.2823 69.7845 82.2823 54.498C82.2823 39.2116 69.8454 26.7747 54.559 26.7747C49.1119 26.7747 43.8483 28.3492 39.3363 31.3283C39.1247 31.4597 38.9373 31.5852 38.7586 31.7099L37.6516 30.1266C37.8593 29.9808 38.0776 29.8359 38.2959 29.7006C43.1006 26.5274 48.7322 24.8428 54.559 24.8428C70.9109 24.8428 84.2142 38.1461 84.2142 54.498C84.2142 70.85 70.9109 84.1533 54.559 84.1533Z" fill="white"/>
<path d="M54.5591 72.7004C44.5169 72.7004 36.3477 64.5351 36.3477 54.4986C36.3477 51.7968 36.9224 49.2119 38.0555 46.8172L39.802 47.6431C38.7925 49.7779 38.2796 52.0847 38.2796 54.4986C38.2796 63.4706 45.5823 70.7685 54.5591 70.7685C63.53 70.7685 70.8289 63.4696 70.8289 54.4986C70.8289 45.5277 63.53 38.2288 54.5591 38.2288C52.1519 38.2288 49.8442 38.7379 47.6997 39.7425L46.8796 37.9921C49.282 36.8668 51.865 36.2959 54.5581 36.2959C64.5945 36.2959 72.7599 44.4612 72.7599 54.4977C72.7599 64.5341 64.5955 72.7004 54.5591 72.7004Z" fill="white"/>
<path d="M54.5543 61.4338C50.73 61.4338 47.6187 58.3224 47.6187 54.4972C47.6187 50.6719 50.73 47.5605 54.5543 47.5605C58.3786 47.5605 61.4909 50.6719 61.4909 54.4972C61.4909 58.3224 58.3786 61.4338 54.5543 61.4338ZM54.5543 49.4935C51.7955 49.4935 49.5506 51.7384 49.5506 54.4981C49.5506 57.2579 51.7955 59.5028 54.5543 59.5028C57.3131 59.5028 59.559 57.2579 59.559 54.4981C59.559 51.7384 57.3131 49.4935 54.5543 49.4935Z" fill="white"/>
<path d="M53.8722 55.1816L13.8994 15.2088V0.0537109L26.9313 13.0846L26.8618 25.4384L55.2381 53.8157L53.8722 55.1816ZM15.8314 14.409L24.9405 23.5171L24.9945 13.8806L15.8314 4.71741V14.409V14.409Z" fill="white"/>
<path d="M24.1126 26.884L24.0846 25.3713L23.959 25.2458L24.0807 25.1241L24.0768 24.9521L24.2555 24.9482L25.3249 23.8799L28.2527 26.8077L24.1126 26.884Z" fill="white"/>
<path d="M21.1293 24.9941L18.1875 25.0488L18.2234 26.9804L21.1652 26.9257L21.1293 24.9941Z" fill="white"/>
<path d="M13.0067 27.0894L11.3955 25.4772L12.7614 24.1113L13.793 25.142L15.2497 25.115L15.2855 27.0469L13.0067 27.0894Z" fill="white"/>
<path d="M7.1234 18.4767L5.75732 19.8428L8.57553 22.661L9.94161 21.2949L7.1234 18.4767Z" fill="white"/>
<path d="M2.9404 17.0219L0 14.0814L4.15849 14.0283L4.17782 15.5275L4.30629 15.656L4.18072 15.7816L4.18265 15.9603L4.00007 15.9622L2.9404 17.0219Z" fill="white"/>
<path d="M10.0844 13.9506L7.11914 13.9883L7.14368 15.92L10.1089 15.8824L10.0844 13.9506Z" fill="white"/>
<path d="M15.5734 16.86L14.5408 15.8273L13.0793 15.8457L13.0542 13.9137L15.33 13.8848L16.9393 15.4941L15.5734 16.86Z" fill="white"/>
<path d="M19.7323 18.2902L18.3662 19.6562L21.1612 22.4512L22.5273 21.0852L19.7323 18.2902Z" fill="white"/>
</g>
<defs>
<clipPath id="clip0_8428_556618">
<rect width="96" height="96" fill="white"/>
</clipPath>
</defs>
</svg>
