<svg width="96" height="96" viewBox="0 0 96 96" fill="none" xmlns="http://www.w3.org/2000/svg">
<g clip-path="url(#clip0_8428_556658)">
<path d="M57.5359 46.6843L62.7119 43.5563L60.3939 37.9603L54.5219 39.4083L54.4159 39.4523C53.0939 37.5283 51.4459 35.9043 49.5819 34.6243L49.6279 34.5143L51.0759 28.6423L45.4799 26.3243L42.3519 31.5003L42.3059 31.6103C40.0839 31.1983 37.7719 31.1803 35.4739 31.6063L35.4299 31.4983L32.3019 26.3223L26.7059 28.6403L28.1539 34.5123L28.1979 34.6203C26.2739 35.9423 24.6499 37.5903 23.3699 39.4523L23.2599 39.4063L17.3879 37.9583L15.0699 43.5543L20.2459 46.6823L20.3559 46.7283C19.9439 48.9503 19.9259 51.2623 20.3519 53.5603L20.2439 53.6043L15.0679 56.7323L17.3859 62.3283L23.2579 60.8803L23.3659 60.8363C24.6879 62.7603 26.3359 64.3843 28.1979 65.6643L28.1519 65.7743L26.7039 71.6463L32.2999 73.9643L35.4279 68.7883L35.4739 68.6783C37.6959 69.0903 40.0079 69.1083 42.3059 68.6823L42.3499 68.7883L45.4779 73.9643L51.0739 71.6463L49.6259 65.7743L49.5819 65.6683C51.5059 64.3463 53.1299 62.6983 54.4099 60.8363L54.5199 60.8823L60.3919 62.3303L62.7099 56.7343L57.5339 53.6063L57.4239 53.5603C57.8359 51.3383 57.8539 49.0243 57.4279 46.7283L57.5359 46.6843Z" stroke="white" stroke-width="2"/>
<path d="M41.7073 56.8329C45.3964 55.3048 47.1483 51.0754 45.6202 47.3862C44.092 43.6971 39.8626 41.9452 36.1734 43.4733C32.4843 45.0014 30.7324 49.2309 32.2606 52.92C33.7887 56.6092 38.0181 58.361 41.7073 56.8329Z" stroke="white" stroke-width="2"/>
<path d="M11.5439 84.9619H69.2899V90.8479L79.5339 81.4019L69.2899 71.9639V77.8419" stroke="white" stroke-width="2"/>
<path d="M70.0762 55.6982H83.7542V61.5902L94.0002 52.1442L83.7542 42.7002V48.5842" stroke="white" stroke-width="2"/>
<path d="M17.7041 10.882H62.6401V5L72.8901 14.444L62.6401 23.888V17.998" stroke="white" stroke-width="2"/>
<path d="M0.682129 29.4521H18.6121" stroke="white" stroke-width="2" stroke-dasharray="4 4"/>
<path d="M18.81 72.6738H-2" stroke="white" stroke-width="2" stroke-dasharray="4 4"/>
<path d="M69.29 77.8418H57.686" stroke="white" stroke-width="2" stroke-dasharray="4 4"/>
<path d="M83.7542 48.584H70.0762" stroke="white" stroke-width="2" stroke-dasharray="4 4"/>
<path d="M62.6398 17.998H33.0718" stroke="white" stroke-width="2" stroke-dasharray="4 4"/>
</g>
<defs>
<clipPath id="clip0_8428_556658">
<rect width="96" height="96" fill="white"/>
</clipPath>
</defs>
</svg>
