<svg width="96" height="96" viewBox="0 0 96 96" fill="none" xmlns="http://www.w3.org/2000/svg">
<g clip-path="url(#clip0_8428_556642)">
<path d="M-2 52H26" stroke="white" stroke-width="2" stroke-miterlimit="10"/>
<path d="M6 40H34" stroke="white" stroke-width="2" stroke-miterlimit="10"/>
<path d="M8 62H34" stroke="white" stroke-width="2" stroke-miterlimit="10"/>
<path d="M24.7399 34.14C30.9399 23.3 42.6199 16 55.9999 16C75.8799 16 91.9999 32.12 91.9999 52C91.9999 71.88 75.8799 88 55.9999 88C41.9799 88 29.8199 79.98 23.8799 68.26" stroke="white" stroke-width="2" stroke-miterlimit="10" stroke-dasharray="4 4"/>
<path d="M56 16V8" stroke="white" stroke-width="2" stroke-miterlimit="10"/>
<path d="M50 8H62" stroke="white" stroke-width="2" stroke-miterlimit="10"/>
<path d="M32 24L26 18" stroke="white" stroke-width="2" stroke-miterlimit="10"/>
<path d="M30 14L22 22" stroke="white" stroke-width="2" stroke-miterlimit="10"/>
<path d="M78 24L84 18" stroke="white" stroke-width="2" stroke-miterlimit="10"/>
<path d="M80 14L88 22" stroke="white" stroke-width="2" stroke-miterlimit="10"/>
<path d="M39.46 31.94C43.96 28.24 49.72 26 56 26C63.5 26 70.26 29.18 75 34.26" stroke="white" stroke-width="2" stroke-miterlimit="10"/>
<path d="M56 60C59.3137 60 62 57.3137 62 54C62 50.6863 59.3137 48 56 48C52.6863 48 50 50.6863 50 54C50 57.3137 52.6863 60 56 60Z" stroke="white" stroke-width="2" stroke-miterlimit="10"/>
<path d="M51 57.3203L44 62.0003" stroke="white" stroke-width="2" stroke-miterlimit="10"/>
<path d="M80 38L61 50.68" stroke="white" stroke-width="2" stroke-miterlimit="10"/>
</g>
<defs>
<clipPath id="clip0_8428_556642">
<rect width="96" height="96" fill="white"/>
</clipPath>
</defs>
</svg>
