<svg width="144" height="144" viewBox="0 0 144 144" fill="none" xmlns="http://www.w3.org/2000/svg">
<g clip-path="url(#clip0_7103_531969)">
<path d="M98.4961 18.4004H113.496C115.196 18.4004 116.496 19.7004 116.496 21.4004V63.5004" stroke="white" stroke-width="3.0032" stroke-linecap="round" stroke-linejoin="round"/>
<path d="M68.496 105.5H8.396C6.696 105.5 5.396 104.2 5.396 102.5V21.4004C5.396 19.7004 6.696 18.4004 8.396 18.4004H23.396" stroke="white" stroke-width="3.0032" stroke-linecap="round" stroke-linejoin="round"/>
<path d="M107.496 135.5C125.721 135.5 140.496 120.725 140.496 102.5C140.496 84.2746 125.721 69.5 107.496 69.5C89.2707 69.5 74.4961 84.2746 74.4961 102.5C74.4961 120.725 89.2707 135.5 107.496 135.5Z" stroke="white" stroke-width="3.0032" stroke-linecap="round" stroke-linejoin="round"/>
<path d="M5.396 42.5H116.596" stroke="white" stroke-width="3.0032" stroke-linecap="round" stroke-linejoin="round"/>
<path d="M122.596 87.5L107.496 105.5L95.4961 96.5" stroke="white" stroke-width="3.0032" stroke-linecap="round" stroke-linejoin="round"/>
<path d="M92.4961 9.40039V27.4004" stroke="white" stroke-width="3.0032" stroke-linecap="round" stroke-linejoin="round"/>
<path d="M35.4961 18.4004H86.4961" stroke="white" stroke-width="3.0032" stroke-linecap="round" stroke-linejoin="round"/>
<path d="M29.396 9.40039V27.4004" stroke="white" stroke-width="3.0032" stroke-linecap="round" stroke-linejoin="round"/>
<path d="M38.4961 57.5H47.4961" stroke="white" stroke-width="3.0032" stroke-linecap="round" stroke-linejoin="round"/>
<path d="M53.4961 57.5H62.4961" stroke="white" stroke-width="3.0032" stroke-linecap="round" stroke-linejoin="round"/>
<path d="M68.4961 57.5H77.4961" stroke="white" stroke-width="3.0032" stroke-linecap="round" stroke-linejoin="round"/>
<path d="M83.4961 57.5H92.4961" stroke="white" stroke-width="3.0032" stroke-linecap="round" stroke-linejoin="round"/>
<path d="M23.396 72.5H32.396" stroke="white" stroke-width="3.0032" stroke-linecap="round" stroke-linejoin="round"/>
<path d="M38.4961 72.5H47.4961" stroke="white" stroke-width="3.0032" stroke-linecap="round" stroke-linejoin="round"/>
<path d="M53.4961 72.5H62.4961" stroke="white" stroke-width="3.0032" stroke-linecap="round" stroke-linejoin="round"/>
<path d="M68.4961 72.5H77.4961" stroke="white" stroke-width="3.0032" stroke-linecap="round" stroke-linejoin="round"/>
<path d="M23.396 87.5H32.396" stroke="white" stroke-width="3.0032" stroke-linecap="round" stroke-linejoin="round"/>
<path d="M38.4961 87.5H47.4961" stroke="white" stroke-width="3.0032" stroke-linecap="round" stroke-linejoin="round"/>
<path d="M53.4961 87.5H62.4961" stroke="white" stroke-width="3.0032" stroke-linecap="round" stroke-linejoin="round"/>
</g>
<defs>
<clipPath id="clip0_7103_531969">
<rect width="144" height="144" fill="white"/>
</clipPath>
</defs>
</svg>
