<svg width="144" height="144" viewBox="0 0 144 144" fill="none" xmlns="http://www.w3.org/2000/svg">
<path d="M101.638 104.73C115.411 104.73 126.577 93.5648 126.577 79.7914C126.577 66.0181 115.411 54.8525 101.638 54.8525C87.8642 54.8525 76.6987 66.0181 76.6987 79.7914C76.6987 93.5648 87.8642 104.73 101.638 104.73Z" stroke="white" stroke-width="3.0032" stroke-linecap="round" stroke-linejoin="round"/>
<path d="M90.564 79.7917L98.939 88.0737L112.711 71.5098" stroke="white" stroke-width="3.0032" stroke-linecap="round" stroke-linejoin="round"/>
<path d="M112.711 102.125V140.65L101.638 132.368L90.564 140.65V102.125" stroke="white" stroke-width="3.0032" stroke-linecap="round" stroke-linejoin="round"/>
<path d="M82.2822 121.294H21.4238V13.3496H104.429V46.5704" stroke="white" stroke-width="3.0032" stroke-linecap="round" stroke-linejoin="round" stroke-dasharray="6.01 6.01"/>
<path d="M40.7793 35.4971H85.0737" stroke="white" stroke-width="3.0032" stroke-linecap="round" stroke-linejoin="round"/>
<path d="M40.7793 46.5703H85.0737" stroke="white" stroke-width="3.0032" stroke-linecap="round" stroke-linejoin="round"/>
<path d="M40.7793 57.6445H74.0001" stroke="white" stroke-width="3.0032" stroke-linecap="round" stroke-linejoin="round"/>
<path d="M40.7793 68.7178H68.5099" stroke="white" stroke-width="3.0032" stroke-linecap="round" stroke-linejoin="round"/>
<path d="M40.7793 79.791H65.7182" stroke="white" stroke-width="3.0032" stroke-linecap="round" stroke-linejoin="round"/>
<path d="M40.7793 101.938H54.6446" stroke="white" stroke-width="3.0032" stroke-linecap="round" stroke-linejoin="round"/>
</svg>
