<svg width="144" height="144" viewBox="0 0 144 144" fill="none" xmlns="http://www.w3.org/2000/svg">
<path d="M35.7022 58.5152V52.9735L41.2439 47.4319H49.6487V41.8902C49.6487 37.2722 45.8619 33.4854 41.2439 33.4854H28.498" stroke="white" stroke-width="3.0032" stroke-linecap="round" stroke-linejoin="round" stroke-dasharray="6.01 6.01"/>
<path d="M103.126 18.9854L97.1222 24.9888H80.4049L74.8632 30.5305H72.0924C67.4743 30.5305 63.6875 34.3173 63.6875 38.9354V41.7062H77.5417L88.7174 52.8819H94.259L97.0299 50.111H99.8007L105.342 55.6527H122.06" stroke="white" stroke-width="3.0032" stroke-linecap="round" stroke-linejoin="round" stroke-dasharray="6.01 6.01"/>
<path d="M21.7559 58.5155C21.7559 30.7148 44.1996 8.17871 72.0003 8.17871C99.801 8.17871 122.245 30.7148 122.245 58.4232" stroke="white" stroke-width="3.0032" stroke-linecap="round" stroke-linejoin="round" stroke-dasharray="6.01 6.01"/>
<path d="M133.421 69.6911H113.932C111.162 69.6911 108.483 68.8598 106.174 67.3821L104.789 66.4584C102.48 64.8883 99.8011 64.1494 97.0303 64.1494H75.972C73.94 64.1494 72.0004 64.8883 70.5226 66.1814L62.4872 74.3091C62.4872 74.3091 58.331 78.4654 54.2671 82.8987C58.5157 87.1473 63.0414 87.4244 67.0129 86.039C70.9845 84.6536 76.1567 80.9591 76.1567 80.9591H83.2685L93.7053 90.657" stroke="white" stroke-width="3.0032" stroke-linecap="round" stroke-linejoin="round"/>
<path d="M112.27 109.314C114.856 106.728 118.088 105.896 122.245 105.896" stroke="white" stroke-width="3.0032" stroke-linecap="round" stroke-linejoin="round"/>
<path d="M93.6128 90.5645C93.6128 90.5645 108.114 105.804 112.27 109.406C116.426 113.008 110.7 122.614 103.957 117.349C99.8934 113.932 87.0552 101.555 87.0552 101.555" stroke="white" stroke-width="3.0032" stroke-linecap="round" stroke-linejoin="round"/>
<path d="M105.897 118.365C104.696 121.321 99.7088 128.155 93.3359 123.353C89.272 119.935 80.9595 111.992 80.9595 111.992" stroke="white" stroke-width="3.0032" stroke-linecap="round" stroke-linejoin="round"/>
<path d="M95.7371 124.739C92.8739 130.558 87.794 132.867 83.2683 129.264C80.0357 126.771 75.2329 121.783 75.2329 121.783" stroke="white" stroke-width="3.0032" stroke-linecap="round" stroke-linejoin="round"/>
<path d="M84.7461 130.28C82.9912 134.621 78.0961 137.392 74.0322 134.898C71.7231 133.421 67.5669 130.373 67.5669 130.373" stroke="white" stroke-width="3.0032" stroke-linecap="round" stroke-linejoin="round"/>
<path d="M10.5801 69.6911H35.1481C37.3648 69.6911 39.4891 69.0446 41.3363 67.8439L44.1072 65.9966C45.9544 64.7959 48.0787 64.1494 50.2954 64.1494H63.7801C64.9808 64.1494 66.1815 64.5189 67.1974 65.3501L69.5988 67.0126" stroke="white" stroke-width="3.0032" stroke-linecap="round" stroke-linejoin="round"/>
<path d="M42.0754 113.286C44.1073 111.346 43.7379 108.575 41.7983 106.544C39.8587 104.512 36.6261 104.512 34.6865 106.451L31.8233 109.222C29.7914 111.162 29.7914 114.394 31.7309 116.426C33.6705 118.458 36.9032 118.55 38.9351 116.519" stroke="white" stroke-width="3.0032" stroke-linecap="round" stroke-linejoin="round"/>
<path d="M53.7125 109.129C51.7729 107.097 48.5403 107.005 46.5084 108.945L38.1959 117.072C36.1639 119.012 36.1639 122.245 38.1035 124.277C40.0431 126.309 43.2757 126.401 45.3077 124.369L53.6202 116.334C55.5597 114.302 55.6521 111.069 53.7125 109.129Z" stroke="white" stroke-width="3.0032" stroke-linecap="round" stroke-linejoin="round"/>
<path d="M46.6934 122.984C44.6614 124.924 44.5691 128.156 46.5086 130.188C48.4482 132.22 51.6809 132.312 53.7128 130.373L61.2864 122.984C63.3184 121.044 63.4107 117.812 61.4711 115.78C59.5316 113.748 56.2989 113.655 54.3593 115.595" stroke="white" stroke-width="3.0032" stroke-linecap="round" stroke-linejoin="round"/>
<path d="M57.315 126.77C55.2831 128.71 55.2831 131.942 57.2226 133.974C59.1622 136.006 62.3949 136.006 64.4268 134.067L66.3664 132.219C68.3983 130.28 68.3983 127.047 66.4588 125.015C64.5192 122.983 61.2865 122.983 59.3469 124.923" stroke="white" stroke-width="3.0032" stroke-linecap="round" stroke-linejoin="round"/>
<path d="M105.527 93.0588C98.8774 94.4442 97.2149 92.6893 93.6128 90.4727" stroke="white" stroke-width="3.0032" stroke-linecap="round" stroke-linejoin="round"/>
<path d="M31.5462 109.406C29.7914 107.744 26.2816 106.081 21.6636 106.081" stroke="white" stroke-width="3.0032" stroke-linecap="round" stroke-linejoin="round"/>
</svg>
