<svg width="96" height="96" viewBox="0 0 96 96" fill="none" xmlns="http://www.w3.org/2000/svg">
<g clip-path="url(#clip0_10454_417911)">
<path d="M55.203 46.6884L60.6773 43.3802L58.2257 37.4618L52.0154 38.9932L51.9033 39.0397C50.5051 37.0049 48.7621 35.2873 46.7907 33.9336L46.8394 33.8172L48.3708 27.6069L42.4524 25.1553L39.1441 30.6296L39.0955 30.7459C36.7455 30.3101 34.3002 30.2911 31.8698 30.7417L31.8233 30.6274L28.5151 25.1532L22.5967 27.6048L24.1281 33.8151L24.1746 33.9293C22.1397 35.3275 20.4222 37.0705 19.0684 39.0397L18.9521 38.9911L12.7418 37.4597L10.2902 43.3781L15.7644 46.6863L15.8808 46.735C15.445 49.085 15.426 51.5302 15.8765 53.9606L15.7623 54.0072L10.2881 57.3154L12.7396 63.2338L18.95 61.7024L19.0642 61.6559C20.4624 63.6907 22.2053 65.4083 24.1746 66.762L24.126 66.8784L22.5945 73.0887L28.513 75.5403L31.8212 70.066L31.8698 69.9497C34.2199 70.3855 36.6651 70.4045 39.0955 69.9539L39.142 70.066L42.4503 75.5403L48.3687 73.0887L46.8373 66.8784L46.7907 66.7663C48.8256 65.3681 50.5432 63.6251 51.8969 61.6559L52.0133 61.7045L58.2236 63.2359L60.6752 57.3175L55.2009 54.0093L55.0846 53.9606C55.5203 51.6106 55.5394 49.1633 55.0888 46.735L55.203 46.6884Z" stroke="white" stroke-width="2"/>
<path d="M38.4623 57.4222C42.364 55.8061 44.2168 51.3329 42.6006 47.4312C40.9844 43.5295 36.5113 41.6767 32.6096 43.2929C28.7079 44.9091 26.8551 49.3822 28.4713 53.2839C30.0875 57.1856 34.5606 59.0384 38.4623 57.4222Z" stroke="white" stroke-width="2"/>
<path d="M6.56055 87.172H67.6338V93.3971L78.468 83.4069L67.6338 73.425V79.6418" stroke="white" stroke-width="2"/>
<path d="M68.4648 56.2219H82.9309V62.4534L93.7673 52.4631L82.9309 42.475V48.698" stroke="white" stroke-width="2"/>
<path d="M13.0742 8.82368H60.5994V2.60278L71.44 12.5909L60.5994 22.5791V16.3497" stroke="white" stroke-width="2"/>
<path d="M-4.92871 28.4637H14.0344" stroke="white" stroke-width="2" stroke-dasharray="4 4"/>
<path d="M14.2444 74.1761H-7.76465" stroke="white" stroke-width="2" stroke-dasharray="4 4"/>
<path d="M67.633 79.642H55.3604" stroke="white" stroke-width="2" stroke-dasharray="4 4"/>
<path d="M82.9309 48.698H68.4648" stroke="white" stroke-width="2" stroke-dasharray="4 4"/>
<path d="M60.5998 16.3497H29.3281" stroke="white" stroke-width="2" stroke-dasharray="4 4"/>
</g>
<defs>
<clipPath id="clip0_10454_417911">
<rect width="96" height="96" fill="white"/>
</clipPath>
</defs>
</svg>
