<svg width="96" height="96" viewBox="0 0 96 96" fill="none" xmlns="http://www.w3.org/2000/svg">
<path d="M14.001 2H2.00098V14H14.001V2Z" stroke="white" stroke-width="2" stroke-linecap="round" stroke-linejoin="round"/>
<path d="M14.001 82H2.00098V94H14.001V82Z" stroke="white" stroke-width="2" stroke-linecap="round" stroke-linejoin="round"/>
<path d="M94.001 2H82.001V14H94.001V2Z" stroke="white" stroke-width="2" stroke-linecap="round" stroke-linejoin="round"/>
<path d="M94.001 82H82.001V94H94.001V82Z" stroke="white" stroke-width="2" stroke-linecap="round" stroke-linejoin="round"/>
<path d="M68.001 62.16L48.001 70.66L28.001 62.16V33.84L48.001 25.34L68.001 33.84V62.16Z" stroke="white" stroke-width="2" stroke-linecap="round" stroke-linejoin="round"/>
<path d="M68.001 33.84L48.001 42.34L28.001 33.84" stroke="white" stroke-width="2" stroke-linecap="round" stroke-linejoin="round"/>
<path d="M36.001 10C37.1055 10 38.001 9.10457 38.001 8C38.001 6.89543 37.1055 6 36.001 6C34.8964 6 34.001 6.89543 34.001 8C34.001 9.10457 34.8964 10 36.001 10Z" fill="white"/>
<path d="M28.001 10C29.1055 10 30.001 9.10457 30.001 8C30.001 6.89543 29.1055 6 28.001 6C26.8964 6 26.001 6.89543 26.001 8C26.001 9.10457 26.8964 10 28.001 10Z" fill="white"/>
<path d="M20.001 10C21.1055 10 22.001 9.10457 22.001 8C22.001 6.89543 21.1055 6 20.001 6C18.8964 6 18.001 6.89543 18.001 8C18.001 9.10457 18.8964 10 20.001 10Z" fill="white"/>
<path d="M60.001 10C61.1055 10 62.001 9.10457 62.001 8C62.001 6.89543 61.1055 6 60.001 6C58.8964 6 58.001 6.89543 58.001 8C58.001 9.10457 58.8964 10 60.001 10Z" fill="white"/>
<path d="M76.001 10C77.1055 10 78.001 9.10457 78.001 8C78.001 6.89543 77.1055 6 76.001 6C74.8964 6 74.001 6.89543 74.001 8C74.001 9.10457 74.8964 10 76.001 10Z" fill="white"/>
<path d="M68.001 10C69.1055 10 70.001 9.10457 70.001 8C70.001 6.89543 69.1055 6 68.001 6C66.8964 6 66.001 6.89543 66.001 8C66.001 9.10457 66.8964 10 68.001 10Z" fill="white"/>
<path d="M36.001 90C37.1055 90 38.001 89.1046 38.001 88C38.001 86.8954 37.1055 86 36.001 86C34.8964 86 34.001 86.8954 34.001 88C34.001 89.1046 34.8964 90 36.001 90Z" fill="white"/>
<path d="M28.001 90C29.1055 90 30.001 89.1046 30.001 88C30.001 86.8954 29.1055 86 28.001 86C26.8964 86 26.001 86.8954 26.001 88C26.001 89.1046 26.8964 90 28.001 90Z" fill="white"/>
<path d="M20.001 90C21.1055 90 22.001 89.1046 22.001 88C22.001 86.8954 21.1055 86 20.001 86C18.8964 86 18.001 86.8954 18.001 88C18.001 89.1046 18.8964 90 20.001 90Z" fill="white"/>
<path d="M60.001 90C61.1055 90 62.001 89.1046 62.001 88C62.001 86.8954 61.1055 86 60.001 86C58.8964 86 58.001 86.8954 58.001 88C58.001 89.1046 58.8964 90 60.001 90Z" fill="white"/>
<path d="M76.001 90C77.1055 90 78.001 89.1046 78.001 88C78.001 86.8954 77.1055 86 76.001 86C74.8964 86 74.001 86.8954 74.001 88C74.001 89.1046 74.8964 90 76.001 90Z" fill="white"/>
<path d="M68.001 90C69.1055 90 70.001 89.1046 70.001 88C70.001 86.8954 69.1055 86 68.001 86C66.8964 86 66.001 86.8954 66.001 88C66.001 89.1046 66.8964 90 68.001 90Z" fill="white"/>
<path d="M88.001 38C89.1055 38 90.001 37.1046 90.001 36C90.001 34.8954 89.1055 34 88.001 34C86.8964 34 86.001 34.8954 86.001 36C86.001 37.1046 86.8964 38 88.001 38Z" fill="white"/>
<path d="M88.001 30C89.1055 30 90.001 29.1046 90.001 28C90.001 26.8954 89.1055 26 88.001 26C86.8964 26 86.001 26.8954 86.001 28C86.001 29.1046 86.8964 30 88.001 30Z" fill="white"/>
<path d="M88.001 22C89.1055 22 90.001 21.1046 90.001 20C90.001 18.8954 89.1055 18 88.001 18C86.8964 18 86.001 18.8954 86.001 20C86.001 21.1046 86.8964 22 88.001 22Z" fill="white"/>
<path d="M88.001 62C89.1055 62 90.001 61.1046 90.001 60C90.001 58.8954 89.1055 58 88.001 58C86.8964 58 86.001 58.8954 86.001 60C86.001 61.1046 86.8964 62 88.001 62Z" fill="white"/>
<path d="M88.001 78C89.1055 78 90.001 77.1046 90.001 76C90.001 74.8954 89.1055 74 88.001 74C86.8964 74 86.001 74.8954 86.001 76C86.001 77.1046 86.8964 78 88.001 78Z" fill="white"/>
<path d="M88.001 70C89.1055 70 90.001 69.1046 90.001 68C90.001 66.8954 89.1055 66 88.001 66C86.8964 66 86.001 66.8954 86.001 68C86.001 69.1046 86.8964 70 88.001 70Z" fill="white"/>
<path d="M8.00098 38C9.10555 38 10.001 37.1046 10.001 36C10.001 34.8954 9.10555 34 8.00098 34C6.89641 34 6.00098 34.8954 6.00098 36C6.00098 37.1046 6.89641 38 8.00098 38Z" fill="white"/>
<path d="M8.00098 30C9.10555 30 10.001 29.1046 10.001 28C10.001 26.8954 9.10555 26 8.00098 26C6.89641 26 6.00098 26.8954 6.00098 28C6.00098 29.1046 6.89641 30 8.00098 30Z" fill="white"/>
<path d="M8.00098 22C9.10555 22 10.001 21.1046 10.001 20C10.001 18.8954 9.10555 18 8.00098 18C6.89641 18 6.00098 18.8954 6.00098 20C6.00098 21.1046 6.89641 22 8.00098 22Z" fill="white"/>
<path d="M8.00098 62C9.10555 62 10.001 61.1046 10.001 60C10.001 58.8954 9.10555 58 8.00098 58C6.89641 58 6.00098 58.8954 6.00098 60C6.00098 61.1046 6.89641 62 8.00098 62Z" fill="white"/>
<path d="M8.00098 78C9.10555 78 10.001 77.1046 10.001 76C10.001 74.8954 9.10555 74 8.00098 74C6.89641 74 6.00098 74.8954 6.00098 76C6.00098 77.1046 6.89641 78 8.00098 78Z" fill="white"/>
<path d="M8.00098 70C9.10555 70 10.001 69.1046 10.001 68C10.001 66.8954 9.10555 66 8.00098 66C6.89641 66 6.00098 66.8954 6.00098 68C6.00098 69.1046 6.89641 70 8.00098 70Z" fill="white"/>
<path d="M20.001 50C21.1055 50 22.001 49.1046 22.001 48C22.001 46.8954 21.1055 46 20.001 46C18.8964 46 18.001 46.8954 18.001 48C18.001 49.1046 18.8964 50 20.001 50Z" fill="white"/>
<path d="M76.001 50C77.1055 50 78.001 49.1046 78.001 48C78.001 46.8954 77.1055 46 76.001 46C74.8964 46 74.001 46.8954 74.001 48C74.001 49.1046 74.8964 50 76.001 50Z" fill="white"/>
<path d="M48.001 20C49.1055 20 50.001 19.1046 50.001 18C50.001 16.8954 49.1055 16 48.001 16C46.8964 16 46.001 16.8954 46.001 18C46.001 19.1046 46.8964 20 48.001 20Z" fill="white"/>
<path d="M48.001 80C49.1055 80 50.001 79.1046 50.001 78C50.001 76.8954 49.1055 76 48.001 76C46.8964 76 46.001 76.8954 46.001 78C46.001 79.1046 46.8964 80 48.001 80Z" fill="white"/>
<path d="M48.001 12C50.2101 12 52.001 10.2091 52.001 8C52.001 5.79086 50.2101 4 48.001 4C45.7918 4 44.001 5.79086 44.001 8C44.001 10.2091 45.7918 12 48.001 12Z" stroke="white" stroke-width="2" stroke-linecap="round" stroke-linejoin="round"/>
<path d="M48.001 92C50.2101 92 52.001 90.2091 52.001 88C52.001 85.7909 50.2101 84 48.001 84C45.7918 84 44.001 85.7909 44.001 88C44.001 90.2091 45.7918 92 48.001 92Z" stroke="white" stroke-width="2" stroke-linecap="round" stroke-linejoin="round"/>
<path d="M88.001 52C90.2101 52 92.001 50.2091 92.001 48C92.001 45.7909 90.2101 44 88.001 44C85.7918 44 84.001 45.7909 84.001 48C84.001 50.2091 85.7918 52 88.001 52Z" stroke="white" stroke-width="2" stroke-linecap="round" stroke-linejoin="round"/>
<path d="M8.00098 52C10.2101 52 12.001 50.2091 12.001 48C12.001 45.7909 10.2101 44 8.00098 44C5.79184 44 4.00098 45.7909 4.00098 48C4.00098 50.2091 5.79184 52 8.00098 52Z" stroke="white" stroke-width="2" stroke-linecap="round" stroke-linejoin="round"/>
</svg>
