<svg width="96" height="96" viewBox="0 0 96 96" fill="none" xmlns="http://www.w3.org/2000/svg">
<rect x="2.39062" y="72.2819" width="20.3118" height="19.3417" rx="1" stroke="white" stroke-width="2"/>
<path d="M94.5473 3.39817C94.5593 2.84602 94.1215 2.38868 93.5693 2.37668L84.5714 2.18107C84.0193 2.16907 83.5619 2.60695 83.5499 3.1591C83.5379 3.71125 83.9758 4.16859 84.528 4.1806L92.5261 4.35447L92.3522 12.3526C92.3402 12.9047 92.7781 13.3621 93.3302 13.3741C93.8824 13.3861 94.3397 12.9482 94.3517 12.396L94.5473 3.39817ZM3.05192 91.4057L94.2391 4.09875L92.856 2.65413L1.66878 89.961L3.05192 91.4057Z" fill="white"/>
<path d="M21.4515 91.6535H37.2831V56.7307H2.36035V73.2482" stroke="white" stroke-width="2" stroke-dasharray="4 4"/>
<path d="M37.2831 91.6535H60.565V35.389H2.36035V56.4882" stroke="white" stroke-width="2" stroke-dasharray="4 4"/>
<path d="M61.0202 91.6535H81.9067V14.0474H2.36035V35.683" stroke="white" stroke-width="2" stroke-dasharray="4 4"/>
</svg>
