<svg width="96" height="96" viewBox="0 0 96 96" fill="none" xmlns="http://www.w3.org/2000/svg">
<path d="M74.2713 79.1957C74.2713 78.3666 74.0288 77.2708 75.3546 75.9451L91.3002 59.9995C92.5042 58.7955 92.4858 45.5332 92.3834 43.7465C92.2858 42.0294 90.472 33.0014 89.1328 29.66C87.6582 29.4416 85.2561 30.4379 83.7149 32.9106C82.2442 35.2703 82.4935 37.7729 83.7149 41.5791L81.446 48.748" stroke="white" stroke-width="2"/>
<path d="M72.8795 65.4164L82.6313 55.6647C86.9651 51.3309 81.548 45.9129 77.2133 50.2467L70.7121 56.7479C69.8086 57.6514 65.9503 57.176 64.5183 58.607L59.1003 64.025C57.6363 65.4889 57.0053 68.496 56.9328 70.5262C56.9328 73.7738 56.7783 79.1947 56.7783 79.1947" stroke="white" stroke-width="2"/>
<path d="M52.5996 79.1976V90.0336H76.4379V79.1976H52.5996Z" stroke="white" stroke-width="2" stroke-dasharray="4 4"/>
<path d="M58.0166 84.6127H62.3504" stroke="white" stroke-width="2"/>
<path d="M14.5538 48.7472L12.285 41.5783C13.5063 37.7721 13.7556 35.2694 12.285 32.9097C10.7437 30.437 8.34246 29.4408 6.86694 29.6591C5.52767 33.0006 3.71394 42.0276 3.61634 43.7457C3.51488 45.5323 3.49565 58.7946 4.69964 59.9986L20.6452 75.9442C21.971 77.27 21.7284 78.3658 21.7284 79.1948" stroke="white" stroke-width="2"/>
<path d="M39.2206 79.1958C39.2206 79.1958 39.0659 73.775 39.0659 70.5273C38.9944 68.4971 38.3634 65.49 36.8985 64.0261L31.4806 58.6082C30.0486 57.1761 26.1902 57.6515 25.2867 56.749L18.7855 50.2478C14.4517 45.9141 9.03379 51.331 13.3676 55.6658L23.1194 65.4176" stroke="white" stroke-width="2"/>
<path d="M19.5615 79.1967V90.0326H43.3997V79.1967H19.5615Z" stroke="white" stroke-width="2" stroke-dasharray="4 4"/>
<path d="M33.6484 84.6127H37.9822" stroke="white" stroke-width="2"/>
<path d="M48.6953 5.96729V22.1004" stroke="white" stroke-width="2" stroke-dasharray="4 4"/>
<path d="M64.8277 34.1992L48.6946 22.0994L32.5615 34.1992" stroke="white" stroke-width="2" stroke-dasharray="4 4"/>
<path d="M64.8277 34.1991L48.6946 46.2989L32.5615 34.1991V18.066L48.6946 5.96619L64.8277 18.066V34.1991Z" stroke="white" stroke-width="2"/>
</svg>
