<svg width="96" height="96" viewBox="0 0 96 96" fill="none" xmlns="http://www.w3.org/2000/svg">
<path d="M78.4015 48.0047C78.4015 47.9391 78.4015 47.8923 78.4015 47.8267H73.7748L83.3653 33.5441L92.9557 47.8267H88.3197C88.3197 47.8829 88.3197 47.9485 88.3197 48.0047C88.3197 49.8497 88.1979 51.6667 87.9544 53.4461C85.2946 73.1796 68.3989 88.3895 47.9349 88.3895C33.7365 88.3895 21.2427 81.0562 14.0498 69.9766" stroke="white" stroke-width="2" stroke-linecap="square"/>
<path d="M81.7355 25.8923C74.5239 14.8783 62.0769 7.61047 47.9347 7.61047C27.6298 7.61047 10.8372 22.5862 7.98063 42.0949C7.70902 43.9306 7.56855 45.8037 7.54982 47.7143H3.04492L12.6354 61.997L18.0581 53.9238L22.2259 47.7143H17.4775" stroke="white" stroke-width="2" stroke-linecap="square"/>
<path d="M18.0576 53.9334V53.9238" stroke="white" stroke-width="2"/>
<path d="M47.9346 78.462C64.7553 78.462 78.4012 64.8255 78.4012 48.0048" stroke="white" stroke-width="2" stroke-dasharray="4 4"/>
<path d="M17.4775 47.7143C17.6368 31.0153 31.1983 17.5381 47.9348 17.5381" stroke="white" stroke-width="2" stroke-dasharray="4 4"/>
<path d="M36.2451 48.8878L44.6958 58.217L59.7539 37.782" stroke="white" stroke-width="2" stroke-linecap="square"/>
</svg>
