<svg width="96" height="96" viewBox="0 0 96 96" fill="none" xmlns="http://www.w3.org/2000/svg">
<path d="M44.2025 91.3093H51.7354V83.7765H44.2025V91.3093Z" stroke="white" stroke-width="2" stroke-miterlimit="10" stroke-dasharray="4 4"/>
<path d="M64.9174 91.3093H72.4502V83.7765H64.9174V91.3093Z" stroke="white" stroke-width="2" stroke-miterlimit="10"/>
<path d="M83.7494 72.4773H91.2822V64.9445H83.7494V72.4773Z" stroke="white" stroke-width="2" stroke-miterlimit="10"/>
<path d="M47.9688 49.8788V83.7765" stroke="white" stroke-width="2" stroke-miterlimit="10" stroke-dasharray="4 4"/>
<path d="M23.4873 40.4626V49.8787H72.4507V40.4626" stroke="white" stroke-width="2" stroke-miterlimit="10"/>
<path d="M36.6699 42.3459H59.2684" stroke="white" stroke-width="2" stroke-miterlimit="10"/>
<path d="M68.6844 83.7765V76.2437H55.502V49.8788" stroke="white" stroke-width="2" stroke-miterlimit="10"/>
<path d="M63.0342 49.8788V68.7109H83.7495" stroke="white" stroke-width="2" stroke-miterlimit="10" stroke-dasharray="4 4"/>
<path d="M31.0201 83.7765H23.4873V91.3093H31.0201V83.7765Z" stroke="white" stroke-width="2" stroke-miterlimit="10"/>
<path d="M12.1881 64.9445H4.65527V72.4773H12.1881V64.9445Z" stroke="white" stroke-width="2" stroke-miterlimit="10" stroke-dasharray="4 4"/>
<path d="M27.2539 83.7765V76.2437H40.4364V49.8788" stroke="white" stroke-width="2" stroke-miterlimit="10"/>
<path d="M32.9028 49.8788V68.7109H12.1875" stroke="white" stroke-width="2" stroke-miterlimit="10" stroke-dasharray="4 4"/>
<path d="M68.6844 57.4115H74.334C76.8189 57.4167 79.2746 56.8753 81.527 55.8259C83.7794 54.7764 85.7735 53.2445 87.3681 51.3387C88.9626 49.4329 90.1186 47.1997 90.7542 44.7974C91.3897 42.3952 91.4892 39.8825 91.0457 37.4375C90.6022 34.9925 89.6264 32.6749 88.1876 30.649C86.7488 28.623 84.8821 26.9381 82.7197 25.7138C80.5574 24.4895 78.1522 23.7556 75.6747 23.5642C73.1972 23.3727 70.7078 23.7284 68.3831 24.606C67.5196 18.787 64.5069 13.5027 59.9392 9.79546C55.3715 6.08824 49.5804 4.22722 43.7082 4.57946C37.8359 4.9317 32.3088 7.47163 28.2171 11.6983C24.1253 15.9249 21.7659 21.5314 21.6042 27.412C20.9796 27.3308 20.3507 27.2868 19.7209 27.2802C15.7253 27.2802 11.8933 28.8675 9.0679 31.6928C6.24253 34.5182 4.65527 38.3502 4.65527 42.3459C4.65527 46.3415 6.24253 50.1735 9.0679 52.9989C11.8933 55.8243 15.7253 57.4115 19.7209 57.4115H27.2538" stroke="white" stroke-width="2" stroke-miterlimit="10"/>
</svg>
