<svg width="96" height="96" viewBox="0 0 96 96" fill="none" xmlns="http://www.w3.org/2000/svg">
<path d="M65.4039 71.8951C60.3062 69.3653 54.3513 67.9124 47.9993 67.9124C37.6244 67.9124 28.3436 71.7748 22.0908 77.8691" stroke="white" stroke-width="2" stroke-dasharray="4 4"/>
<path d="M73.8871 18.1289C67.6534 24.2232 58.3535 28.0856 47.9787 28.0856C41.4071 28.0856 35.2536 26.5315 30.0566 23.8433" stroke="white" stroke-width="2" stroke-dasharray="4 4"/>
<path d="M47.9804 87.8259C36.0916 87.8259 25.3979 82.6079 18.1104 74.3447" stroke="white" stroke-width="2"/>
<path d="M48 8.17224V87.8278" stroke="white" stroke-width="2"/>
<path d="M38.0439 47.9989H48.0007" stroke="white" stroke-width="2" stroke-dasharray="4 4"/>
<path d="M29.3213 61.9385C32.1489 77.0539 39.4384 87.8259 47.9803 87.8259" stroke="white" stroke-width="2"/>
<path d="M47.9805 8.17224C36.9871 8.17224 26.0758 25.995 26.0758 47.999H34.0412L18.1105 67.9124L2.17969 47.999H8.1537C8.15179 24.8991 24.8806 8.17224 47.9805 8.17224Z" stroke="white" stroke-width="2"/>
<path d="M48.0205 8.17224C59.9094 8.17224 70.603 13.3902 77.8906 21.6534" stroke="white" stroke-width="2"/>
<path d="M57.9567 47.9989H48" stroke="white" stroke-width="2" stroke-dasharray="4 4"/>
<path d="M66.6796 34.0597C63.852 18.9442 56.5644 8.17224 48.0205 8.17224" stroke="white" stroke-width="2"/>
<path d="M48.0205 87.8259C59.012 87.8259 69.9252 70.0031 69.9252 47.9991H61.9599L77.8906 28.0857L93.8213 47.9991H87.8473C87.8473 71.099 71.1204 87.8259 48.0205 87.8259Z" stroke="white" stroke-width="2"/>
</svg>
