<svg width="96" height="96" viewBox="0 0 96 96" fill="none" xmlns="http://www.w3.org/2000/svg">
<path d="M91.8251 2.08691H4.17289C3.0203 2.08691 2.08594 3.14742 2.08594 4.45562V87.3603C2.08594 88.6685 3.0203 89.729 4.17289 89.729H91.8251C92.9777 89.729 93.912 88.6685 93.912 87.3603V4.45562C93.912 3.14742 92.9777 2.08691 91.8251 2.08691Z" stroke="white" stroke-width="2" stroke-linejoin="round"/>
<path d="M2.08594 14.6087H93.912" stroke="white" stroke-width="2" stroke-linejoin="round"/>
<path d="M8.34766 8.34784H12.5216" stroke="white" stroke-width="2" stroke-linejoin="round"/>
<path d="M16.6953 8.34784H20.8692" stroke="white" stroke-width="2" stroke-linejoin="round"/>
<path d="M25.043 8.34784H29.2169" stroke="white" stroke-width="2" stroke-linejoin="round"/>
<path d="M46.9992 65.6087C50.4569 65.6087 53.26 62.8056 53.26 59.3478C53.26 55.89 50.4569 53.0869 46.9992 53.0869C43.5414 53.0869 40.7383 55.89 40.7383 59.3478C40.7383 62.8056 43.5414 65.6087 46.9992 65.6087Z" stroke="white" stroke-width="2" stroke-miterlimit="10"/>
<path d="M68.7051 46.826C70.8338 50.4991 72.0442 54.7774 72.0442 59.3478" stroke="white" stroke-width="2" stroke-miterlimit="10" stroke-linecap="round"/>
<path d="M21.957 59.3478C21.957 45.5113 33.164 34.3043 47.0005 34.3043C51.5501 34.3043 55.8283 35.5148 59.5222 37.6435" stroke="white" stroke-width="2" stroke-miterlimit="10" stroke-linecap="round"/>
<path d="M38.6523 67.6956L42.8263 63.5217" stroke="white" stroke-width="2" stroke-miterlimit="10"/>
<path d="M51.1738 55.1739L67.8695 38.4783" stroke="white" stroke-width="2" stroke-miterlimit="10"/>
</svg>
