<svg width="96" height="96" viewBox="0 0 96 96" fill="none" xmlns="http://www.w3.org/2000/svg">
<path d="M17.7383 40.1593H21.986L30.4805 48.6547" stroke="white" stroke-width="2"/>
<path d="M36.8535 38.0359L44.2864 45.4687H48.5341H61.2763H80.4327" stroke="white" stroke-width="2" stroke-dasharray="4 4"/>
<path d="M30.4821 31.6649C32.2445 29.9026 35.0909 29.9026 36.8533 31.6649C38.6156 33.4272 38.6057 36.2845 36.8533 38.036C35.0909 39.7984 32.2445 39.7984 30.4821 38.036C28.7198 36.2737 28.7296 33.4165 30.4821 31.6649Z" stroke="white" stroke-width="2"/>
<path d="M13.4919 48.6548C15.2542 46.8924 18.1007 46.8924 19.863 48.6548C21.6254 50.4171 21.6155 53.2743 19.863 55.0259C18.1007 56.7883 15.2542 56.7883 13.4919 55.0259C11.7295 53.2636 11.7394 50.4064 13.4919 48.6548Z" stroke="white" stroke-width="2"/>
<path d="M29.4216 50.3284C30.2585 47.9801 32.829 46.7599 35.1773 47.5958C37.5255 48.4317 38.7414 51.0174 37.9099 53.3514C37.0731 55.6997 34.5026 56.92 32.1543 56.0841C29.806 55.2472 28.5902 52.6624 29.4216 50.3284Z" stroke="white" stroke-width="2"/>
<path d="M14.5524 39.0977H10.3047" stroke="white" stroke-width="2"/>
<path d="M37.9137 68.8298H33.666" stroke="white" stroke-width="2"/>
<path d="M19.863 23.1693H15.6152" stroke="white" stroke-width="2"/>
<path d="M19.8633 55.0259L27.2961 62.4587H40.0384L49.5955 52.9015H58.09L60.2135 50.7781H64.4612L66.5846 52.9015H70.8323L72.9557 50.7781H75.0791L77.2025 52.9015H83.5737L91.0065 45.4687L84.6372 39.0976H52.7806L36.8524 23.1693H24.1101" stroke="white" stroke-width="2"/>
<path d="M23.0478 30.6031H10.3055L4.99609 35.9126V57.1503L16.6767 68.8308H29.4189" stroke="white" stroke-width="2" stroke-dasharray="4 4"/>
</svg>
