<svg width="97" height="96" viewBox="0 0 97 96" fill="none" xmlns="http://www.w3.org/2000/svg">
<g clip-path="url(#clip0_4155_421819)">
<path d="M1.5 52H29.5" stroke="white" stroke-width="2" stroke-miterlimit="10"/>
<path d="M9.5 40H37.5" stroke="white" stroke-width="2" stroke-miterlimit="10"/>
<path d="M11.5 62H37.5" stroke="white" stroke-width="2" stroke-miterlimit="10"/>
<path d="M28.2389 34.14C34.4389 23.3 46.1189 16 59.4989 16C79.3789 16 95.4989 32.12 95.4989 52C95.4989 71.88 79.3789 88 59.4989 88C45.4789 88 33.3189 79.98 27.3789 68.26" stroke="white" stroke-width="2" stroke-miterlimit="10" stroke-dasharray="4 4"/>
<path d="M59.5 16V8" stroke="white" stroke-width="2" stroke-miterlimit="10"/>
<path d="M53.5 8H65.5" stroke="white" stroke-width="2" stroke-miterlimit="10"/>
<path d="M35.5 24L29.5 18" stroke="white" stroke-width="2" stroke-miterlimit="10"/>
<path d="M33.5 14L25.5 22" stroke="white" stroke-width="2" stroke-miterlimit="10"/>
<path d="M81.5 24L87.5 18" stroke="white" stroke-width="2" stroke-miterlimit="10"/>
<path d="M83.5 14L91.5 22" stroke="white" stroke-width="2" stroke-miterlimit="10"/>
<path d="M42.9609 31.94C47.4609 28.24 53.2209 26 59.5009 26C67.0009 26 73.7609 29.18 78.5009 34.26" stroke="white" stroke-width="2" stroke-miterlimit="10"/>
<path d="M59.5 60C62.8137 60 65.5 57.3137 65.5 54C65.5 50.6863 62.8137 48 59.5 48C56.1863 48 53.5 50.6863 53.5 54C53.5 57.3137 56.1863 60 59.5 60Z" stroke="white" stroke-width="2" stroke-miterlimit="10"/>
<path d="M54.5 57.32L47.5 62" stroke="white" stroke-width="2" stroke-miterlimit="10"/>
<path d="M83.5 38L64.5 50.68" stroke="white" stroke-width="2" stroke-miterlimit="10"/>
</g>
<defs>
<clipPath id="clip0_4155_421819">
<rect width="96" height="96" fill="white" transform="translate(0.5)"/>
</clipPath>
</defs>
</svg>
