<svg width="96" height="96" viewBox="0 0 96 96" fill="none" xmlns="http://www.w3.org/2000/svg">
<path d="M31.5371 21.4159C31.5744 21.3879 31.6116 21.3692 31.6489 21.3413C32.1071 21.0279 32.5709 20.7219 33.0422 20.4272" stroke="white" stroke-width="2"/>
<path d="M36.1836 18.6607C41.4441 16.0136 47.3845 14.5232 53.677 14.5232C75.2293 14.5232 92.7041 32.0301 92.7041 53.6149C92.7041 75.1978 75.2312 92.7067 53.677 92.7067C32.1153 92.7067 14.6406 75.1997 14.6406 53.6149C14.6406 46.7632 16.4009 40.3331 19.4913 34.7369" stroke="white" stroke-width="2" stroke-dasharray="4 4"/>
<path d="M20.3965 33.1811C20.7113 32.6681 21.0373 32.1644 21.3744 31.6664" stroke="white" stroke-width="2"/>
<path d="M37.909 30.8456C38.0953 30.715 38.2909 30.5844 38.4865 30.4632C42.8454 27.5811 48.0705 25.9115 53.6774 25.9115C68.9522 25.9115 81.3397 38.3073 81.3397 53.613C81.3397 68.9188 68.9522 81.3145 53.6774 81.3145C38.3933 81.3145 26.0059 68.9188 26.0059 53.613C26.0059 47.9888 27.6824 42.7563 30.5697 38.3912" stroke="white" stroke-width="2"/>
<path d="M46.6701 38.52C48.7974 37.522 51.1724 36.9698 53.6778 36.9698C62.852 36.9698 70.2975 44.4166 70.2975 53.6131C70.2975 62.8096 62.852 70.2564 53.6778 70.2564C44.4943 70.2564 37.0488 62.8096 37.0488 53.6131C37.0488 51.1022 37.6002 48.7257 38.6061 46.5954" stroke="white" stroke-width="2"/>
<path d="M53.6739 59.3772C56.8529 59.3772 59.43 56.7965 59.43 53.613C59.43 50.4296 56.8529 47.8489 53.6739 47.8489C50.495 47.8489 47.918 50.4296 47.918 53.613C47.918 56.7965 50.495 59.3772 53.6739 59.3772Z" stroke="white" stroke-width="2"/>
<path d="M26.039 25.9377L26.1061 14.0083L15.4062 3.29333V15.2899L53.677 53.6131" stroke="white" stroke-width="2"/>
<path d="M24.8376 24.7065L26.1099 25.9824L24.3086 26.016" stroke="white" stroke-width="2"/>
<path d="M21.4694 26.0682L17.2148 26.1464" stroke="white" stroke-width="2"/>
<path d="M15.7962 26.1727L13.9949 26.2063L12.7227 24.9322" stroke="white" stroke-width="2"/>
<path d="M10.0053 22.2106L5.92773 18.1272" stroke="white" stroke-width="2"/>
<path d="M4.56907 16.7671L3.29492 15.4911L5.09622 15.4688" stroke="white" stroke-width="2"/>
<path d="M7.95508 15.4315L12.2451 15.3756" stroke="white" stroke-width="2"/>
<path d="M13.6758 15.357L15.4771 15.3346L16.7512 16.6106" stroke="white" stroke-width="2"/>
<path d="M19.4453 19.308L23.4875 23.3578" stroke="white" stroke-width="2"/>
</svg>
