<svg width="96" height="96" viewBox="0 0 96 96" fill="none" xmlns="http://www.w3.org/2000/svg">
<g clip-path="url(#clip0_4155_421835)">
<path d="M57.5379 46.76L62.7138 43.6321L60.3958 38.0361L54.5239 39.4841L54.4179 39.5281C53.0959 37.6041 51.4479 35.9802 49.584 34.7002L49.63 34.5902L51.0779 28.7182L45.482 26.4003L42.354 31.5762L42.308 31.6862C40.086 31.2742 37.7741 31.2562 35.4761 31.6822L35.4321 31.5742L32.3041 26.3983L26.7082 28.7163L28.1562 34.5882L28.2002 34.6962C26.2762 36.0182 24.6522 37.6661 23.3722 39.5281L23.2622 39.4821L17.3903 38.0342L15.0723 43.6301L20.2483 46.7581L20.3583 46.8041C19.9463 49.026 19.9283 51.338 20.3543 53.636L20.2463 53.68L15.0703 56.8079L17.3883 62.4039L23.2602 60.9559L23.3682 60.9119C24.6902 62.8359 26.3382 64.4599 28.2002 65.7399L28.1542 65.8498L26.7062 71.7218L32.3021 74.0398L35.4301 68.8638L35.4761 68.7538C37.6981 69.1658 40.01 69.1838 42.308 68.7578L42.352 68.8638L45.48 74.0398L51.0759 71.7218L49.628 65.8498L49.584 65.7439C51.5079 64.4219 53.1319 62.7739 54.4119 60.9119L54.5219 60.9579L60.3938 62.4059L62.7118 56.81L57.5359 53.682L57.4259 53.636C57.8379 51.414 57.8559 49.1 57.4299 46.8041L57.5379 46.76Z" stroke="white" stroke-width="2"/>
<path d="M41.7076 56.909C45.3968 55.3809 47.1486 51.1515 45.6205 47.4624C44.0924 43.7733 39.863 42.0214 36.1739 43.5495C32.4848 45.0776 30.7329 49.307 32.261 52.9961C33.7892 56.6853 38.0185 58.4371 41.7076 56.909Z" stroke="white" stroke-width="2"/>
<path d="M11.5469 85.0377H69.2923V90.9236L79.5362 81.4777L69.2923 72.0398V77.9178" stroke="white" stroke-width="2"/>
<path d="M70.0781 55.7739H83.756V61.6659L94.0019 52.22L83.756 42.7761V48.66" stroke="white" stroke-width="2"/>
<path d="M17.7051 10.9584H62.6406V5.07648L72.8905 14.5204L62.6406 23.9643V18.0743" stroke="white" stroke-width="2"/>
<path d="M0.683594 29.5283H18.6134" stroke="white" stroke-width="2" stroke-dasharray="4 4"/>
<path d="M18.8117 72.7498H-1.99805" stroke="white" stroke-width="2" stroke-dasharray="4 4"/>
<path d="M69.2914 77.9178H57.6875" stroke="white" stroke-width="2" stroke-dasharray="4 4"/>
<path d="M83.756 48.66H70.0781" stroke="white" stroke-width="2" stroke-dasharray="4 4"/>
<path d="M62.6419 18.0744H33.0742" stroke="white" stroke-width="2" stroke-dasharray="4 4"/>
</g>
<defs>
<clipPath id="clip0_4155_421835">
<rect width="96" height="96" fill="white"/>
</clipPath>
</defs>
</svg>
