<svg width="96" height="96" viewBox="0 0 96 96" fill="none" xmlns="http://www.w3.org/2000/svg">
<path d="M78.5654 48.0046C78.5654 47.9387 78.5654 47.8916 78.5654 47.8257H73.9134L83.5564 33.4648L93.1994 47.8257H88.538C88.538 47.8822 88.538 47.9481 88.538 48.0046C88.538 49.8598 88.4155 51.6867 88.1707 53.4759C85.4963 73.3175 68.508 88.6106 47.9319 88.6106C33.6558 88.6106 21.0936 81.2372 13.8613 70.0969" stroke="white" stroke-width="2" stroke-linecap="square"/>
<path d="M81.9183 25.7712C74.6673 14.6968 62.1521 7.38922 47.9324 7.38922C27.5164 7.38922 10.6318 22.447 7.75961 42.0625C7.48652 43.9082 7.34527 45.7916 7.32644 47.7127H2.79688L12.4398 62.0736L17.8923 53.9562L22.0829 47.7127H17.3084" stroke="white" stroke-width="2" stroke-linecap="square"/>
<path d="M17.8926 53.9658V53.9562" stroke="white" stroke-width="2"/>
<path d="M47.9316 78.6287C64.8445 78.6287 78.5651 64.9176 78.5651 48.0047" stroke="white" stroke-width="2" stroke-dasharray="4 4"/>
<path d="M17.3086 47.7126C17.4687 30.9222 31.1045 17.3712 47.9326 17.3712" stroke="white" stroke-width="2" stroke-dasharray="4 4"/>
<path d="M36.1797 48.8925L44.6766 58.2728L59.8173 37.7259" stroke="white" stroke-width="2" stroke-linecap="square"/>
</svg>
