<svg width="97" height="96" viewBox="0 0 97 96" fill="none" xmlns="http://www.w3.org/2000/svg">
<path d="M72.5469 8.50684H75.5469" stroke="white" stroke-width="2" stroke-miterlimit="10"/>
<path d="M54.5469 17.5068L63.5469 8.50684H69.5469" stroke="white" stroke-width="2" stroke-miterlimit="10"/>
<path d="M69.5478 14.5068H66.5478L61.6953 19.3593" stroke="white" stroke-width="2" stroke-miterlimit="10"/>
<path d="M72.5469 14.5068H75.5469" stroke="white" stroke-width="2" stroke-miterlimit="10"/>
<path d="M2.19141 17.3662C8.58703 14.9493 16.9233 12.8718 26.7539 12.8193C36.1795 12.7687 44.8458 17.8856 52.2127 23.4543C59.9902 24.0431 67.447 24.9131 74.8477 30.9131L73.3158 41.6475L65.8158 42.8362" stroke="white" stroke-width="2" stroke-miterlimit="10"/>
<path d="M2.49234 45.0713C3.52547 45.6075 4.70109 45.9113 5.94609 45.9113C10.088 45.9113 13.4461 42.5531 13.4461 38.4113C13.4461 34.2694 10.088 30.9113 5.94609 30.9113C4.52859 30.9113 3.20484 31.3031 2.07422 31.9856" stroke="white" stroke-width="2" stroke-miterlimit="10"/>
<path d="M54.3841 42.9113H11.9473" stroke="white" stroke-width="2" stroke-miterlimit="10"/>
<path d="M59.9473 45.9113C64.0894 45.9113 67.4473 42.5534 67.4473 38.4113C67.4473 34.2691 64.0894 30.9113 59.9473 30.9113C55.8051 30.9113 52.4473 34.2691 52.4473 38.4113C52.4473 42.5534 55.8051 45.9113 59.9473 45.9113Z" stroke="white" stroke-width="2" stroke-miterlimit="10"/>
<path d="M23.9473 13.0931V32.3213C23.9473 34.8563 26.0023 36.9113 28.5373 36.9113H46.4191" stroke="white" stroke-width="2" stroke-miterlimit="10"/>
<path d="M52.2124 23.4525C50.1162 25.3556 47.3843 26.4113 44.553 26.4113H1.81055" stroke="white" stroke-width="2" stroke-miterlimit="10"/>
<path d="M40.7498 61.5L39.351 73.7962C38.8841 77.0681 36.081 79.5 32.7754 79.5H64.2266C60.921 79.5 58.1179 77.07 57.651 73.7962L56.2523 61.5H40.7516H40.7498Z" stroke="white" stroke-width="2" stroke-miterlimit="10"/>
<path d="M41 61.5H6.11188C3.84125 61.5 2 59.6588 2 57.3881V5.61188C2 3.34125 3.84125 1.5 6.11188 1.5H90.8881C93.1588 1.5 95 3.34125 95 5.61188V57.3881C95 59.6588 93.1588 61.5 90.8881 61.5H56.2512" stroke="white" stroke-width="2" stroke-miterlimit="10"/>
<path d="M2 51H95" stroke="white" stroke-width="2" stroke-miterlimit="10"/>
</svg>
