<svg width="151" height="151" viewBox="0 0 151 151" fill="none" xmlns="http://www.w3.org/2000/svg">
<path d="M117.623 131.844C117.623 130.547 117.247 128.828 119.294 126.75L144.013 101.766C145.872 99.8749 145.857 79.1093 145.685 76.3124C145.529 73.6249 142.716 59.4843 140.638 54.2499C138.357 53.9062 134.623 55.4687 132.232 59.3437C129.951 63.0468 130.342 66.9531 132.232 72.9218L128.717 84.1562" stroke="white" stroke-width="2"/>
<path d="M115.466 110.266L130.591 94.9844C137.31 88.2031 128.919 79.7031 122.185 86.5L112.106 96.6875C110.7 98.1094 104.716 97.3594 102.497 99.5938L94.091 108.078C91.8254 110.375 90.8412 115.078 90.7318 118.266C90.7318 123.359 90.4968 131.844 90.4968 131.844" stroke="white" stroke-width="2"/>
<path d="M84.0286 131.844V148.813H120.982V131.844H84.0286Z" stroke="white" stroke-width="2" stroke-dasharray="3.9 3.9"/>
<path d="M92.4347 140.328H99.1531" stroke="white" stroke-width="2"/>
<path d="M25.0442 84.1406L21.5285 72.9062C23.4192 66.9374 23.8098 63.0312 21.5285 59.328C19.1379 55.453 15.4186 53.8906 13.1217 54.2343C11.0436 59.4687 8.23111 73.6093 8.07486 76.2968C7.91861 79.0937 7.88748 99.8749 9.76248 101.75L34.4817 126.734C36.5442 128.812 36.1533 130.531 36.1533 131.828" stroke="white" stroke-width="2"/>
<path d="M63.2781 131.844C63.2781 131.844 63.0439 123.359 63.0439 118.266C62.9345 115.078 61.9503 110.375 59.6847 108.078L51.2786 99.5937C49.0598 97.3437 43.0749 98.0937 41.6686 96.6874L31.5909 86.4999C24.8722 79.7187 16.4661 88.2031 23.1849 94.9843L38.3094 110.266" stroke="white" stroke-width="2"/>
<path d="M32.8094 131.844V148.813H69.7624V131.844H32.8094Z" stroke="white" stroke-width="2" stroke-dasharray="3.9 3.9"/>
<path d="M54.6531 140.328H61.3723" stroke="white" stroke-width="2"/>
<path d="M83.9037 6.4375C85.763 8.3125 88.2783 9.37498 90.9189 9.37498C96.3876 9.37498 100.826 13.8594 100.826 19.3906C100.826 22.0469 101.872 24.5937 103.732 26.4687C107.607 30.375 107.607 36.7187 103.732 40.625C101.872 42.5 100.826 45.0469 100.826 47.7031C100.826 53.2344 96.3876 57.7187 90.9189 57.7187C88.2939 57.7187 85.7787 58.7812 83.9037 60.6562C80.0287 64.5625 73.7627 64.5625 69.8877 60.6562C68.0283 58.7812 65.5127 57.7187 62.8877 57.7187C57.419 57.7187 52.9817 53.2344 52.9817 47.7031C52.9817 45.0469 51.9351 42.5 50.0757 40.625C46.2007 36.7187 46.2007 30.375 50.0757 26.4687C51.9351 24.5937 52.9817 22.0469 52.9817 19.3906C52.9817 13.8594 57.419 9.37498 62.8877 9.37498C65.5127 9.37498 68.0283 8.3125 69.8877 6.4375C73.7627 2.53125 80.0287 2.53125 83.9037 6.4375Z" stroke="white" stroke-width="2"/>
<path d="M91.0911 56.9219L103.809 80.7656L92.8718 77.8594L89.247 88.6875L79.1221 69.7031" stroke="white" stroke-width="2"/>
<path d="M63.4505 57.1406L50.8567 80.7656L61.7942 77.8594L65.4189 88.6875L72.8873 74.6875" stroke="white" stroke-width="2"/>
<path d="M76.8875 48.2344C84.9188 48.2344 91.4192 41.6562 91.4192 33.5469C91.4192 25.4375 84.9031 18.8594 76.8875 18.8594C68.8563 18.8594 62.3566 25.4375 62.3566 33.5469C62.3566 41.6562 68.8719 48.2344 76.8875 48.2344Z" stroke="white" stroke-width="2"/>
</svg>
