<svg width="97" height="96" viewBox="0 0 97 96" fill="none" xmlns="http://www.w3.org/2000/svg">
<path d="M59.7727 61.56V63.65C59.7727 65.96 61.6427 67.84 63.9627 67.84H68.1527C70.4627 67.84 72.3427 65.97 72.3427 63.65V62.48C72.3427 60.68 71.1927 59.08 69.4727 58.51L62.6327 56.23C60.9227 55.66 59.7627 54.06 59.7627 52.26V51.09C59.7627 48.78 61.6327 46.9 63.9527 46.9H68.1427C70.4527 46.9 72.3327 48.77 72.3327 51.09V53.18" stroke="white" stroke-width="1.5" stroke-miterlimit="10"/>
<path d="M66.0427 46.9V40.63" stroke="white" stroke-width="1.5" stroke-miterlimit="10"/>
<path d="M66.0427 67.83V74.1" stroke="white" stroke-width="1.5" stroke-miterlimit="10"/>
<path d="M19.9927 49V51.46" stroke="white" stroke-width="1.5" stroke-miterlimit="10"/>
<path d="M19.9928 56.23V59.46C19.9928 61.01 19.8629 62.31 19.6729 63.37" stroke="white" stroke-width="1.5" stroke-miterlimit="10"/>
<path d="M19.0628 65.69C18.5028 67.24 17.8928 67.84 17.8928 67.84" stroke="white" stroke-width="1.5" stroke-miterlimit="10"/>
<path d="M13.7128 82.48C30.4628 78.29 32.5428 65.73 32.5428 57.36V48.99H40.9128L26.2628 28.06L11.6128 48.99H20.0028" stroke="white" stroke-width="1.5" stroke-miterlimit="10"/>
<path d="M49.3027 30.15V32.61" stroke="white" stroke-width="1.5" stroke-miterlimit="10"/>
<path d="M49.3027 37.82V55.28C49.3027 70.77 40.7828 83.41 28.8228 90.03" stroke="white" stroke-width="1.5" stroke-miterlimit="10"/>
<path d="M26.5129 91.22C25.7729 91.57 25.0129 91.9 24.2529 92.2" stroke="white" stroke-width="1.5" stroke-miterlimit="10"/>
<path d="M61.8528 36.17V30.15H72.3228L55.5728 2.94L38.8228 30.15H49.2827" stroke="white" stroke-width="1.5" stroke-miterlimit="10"/>
<path d="M47.2129 90.85C52.7129 86.27 56.1929 81.26 58.3829 76.2" stroke="white" stroke-width="1.5" stroke-miterlimit="10"/>
<path d="M71.1128 84.93C83.1128 73.83 84.5428 60.96 84.0028 50.72" stroke="white" stroke-width="1.5" stroke-miterlimit="10"/>
</svg>
