<svg width="97" height="96" viewBox="0 0 97 96" fill="none" xmlns="http://www.w3.org/2000/svg">
<g clip-path="url(#clip0_72_10805)">
<path d="M9.374 42.386C13.1339 42.386 16.1818 39.338 16.1818 35.5782C16.1818 31.8183 13.1339 28.7703 9.374 28.7703C5.61414 28.7703 2.56616 31.8183 2.56616 35.5782C2.56616 39.338 5.61414 42.386 9.374 42.386Z" stroke="white" stroke-width="1.5" stroke-miterlimit="10" stroke-linecap="round" stroke-linejoin="round"/>
<path d="M59.0619 17.6157C62.8217 17.6157 65.8697 14.5677 65.8697 10.8078C65.8697 7.04797 62.8217 4 59.0619 4C55.302 4 52.254 7.04797 52.254 10.8078C52.254 14.5677 55.302 17.6157 59.0619 17.6157Z" stroke="white" stroke-width="1.5" stroke-miterlimit="10" stroke-linecap="round" stroke-linejoin="round"/>
<path d="M54.608 56.0017C58.3679 56.0017 61.4159 52.9537 61.4159 49.1938C61.4159 45.434 58.3679 42.386 54.608 42.386C50.8481 42.386 47.8002 45.434 47.8002 49.1938C47.8002 52.9537 50.8481 56.0017 54.608 56.0017Z" stroke="white" stroke-width="1.5" stroke-miterlimit="10" stroke-linecap="round" stroke-linejoin="round"/>
<path d="M88.5001 42.386C92.26 42.386 95.3079 39.338 95.3079 35.5782C95.3079 31.8183 92.26 28.7703 88.5001 28.7703C84.7402 28.7703 81.6923 31.8183 81.6923 35.5782C81.6923 39.338 84.7402 42.386 88.5001 42.386Z" stroke="white" stroke-width="1.5" stroke-miterlimit="10" stroke-linecap="round" stroke-linejoin="round"/>
<path d="M70.3102 91.9C74.07 91.9 77.118 88.8521 77.118 85.0922C77.118 81.3323 74.07 78.2844 70.3102 78.2844C66.5503 78.2844 63.5023 81.3323 63.5023 85.0922C63.5023 88.8521 66.5503 91.9 70.3102 91.9Z" stroke="white" stroke-width="1.5" stroke-miterlimit="10" stroke-linecap="round" stroke-linejoin="round"/>
<path d="M34.3183 83.0459C38.0782 83.0459 41.1262 79.9979 41.1262 76.238C41.1262 72.4781 38.0782 69.4302 34.3183 69.4302C30.5585 69.4302 27.5105 72.4781 27.5105 76.238C27.5105 79.9979 30.5585 83.0459 34.3183 83.0459Z" stroke="white" stroke-width="1.5" stroke-miterlimit="10" stroke-linecap="round" stroke-linejoin="round"/>
<path d="M12.0624 41.8376L30.0784 70.9148" stroke="white" stroke-width="1.5" stroke-miterlimit="10" stroke-linecap="round" stroke-linejoin="round"/>
<path d="M15.8208 37.785L47.8003 46.8666" stroke="white" stroke-width="1.5" stroke-miterlimit="10" stroke-linecap="round" stroke-linejoin="round"/>
<path d="M14.6571 31.2714L52.7222 13.2955" stroke="white" stroke-width="1.5" stroke-miterlimit="10" stroke-linecap="round" stroke-linejoin="round"/>
<path d="M58.674 17.6023L54.608 42.386" stroke="white" stroke-width="1.5" stroke-miterlimit="10" stroke-linecap="round" stroke-linejoin="round"/>
<path d="M65.094 13.9642L84.287 30.2282" stroke="white" stroke-width="1.5" stroke-miterlimit="10" stroke-linecap="round" stroke-linejoin="round"/>
<path d="M60.9344 46.666L81.9598 37.4908" stroke="white" stroke-width="1.5" stroke-miterlimit="10" stroke-linecap="round" stroke-linejoin="round"/>
<path d="M88.5 42.386L74.6837 79.8759" stroke="white" stroke-width="1.5" stroke-miterlimit="10" stroke-linecap="round" stroke-linejoin="round"/>
<path d="M67.6218 78.8327L58.2058 54.9719" stroke="white" stroke-width="1.5" stroke-miterlimit="10" stroke-linecap="round" stroke-linejoin="round"/>
<path d="M50.3547 54.5171L38.2638 70.6874" stroke="white" stroke-width="1.5" stroke-miterlimit="10" stroke-linecap="round" stroke-linejoin="round"/>
<path d="M40.6445 78.7658L63.6093 83.875" stroke="white" stroke-width="1.5" stroke-miterlimit="10" stroke-linecap="round" stroke-linejoin="round"/>
</g>
<defs>
<clipPath id="clip0_72_10805">
<rect width="96" height="96" fill="white" transform="translate(0.99707)"/>
</clipPath>
</defs>
</svg>
