<svg width="150" height="151" viewBox="0 0 150 151" fill="none" xmlns="http://www.w3.org/2000/svg">
<path d="M4.73535 41.9688H40.2509L51.9853 60.75H61.0166" stroke="white" stroke-width="2" stroke-miterlimit="8"/>
<path d="M4.73535 76.8438H71.7508" stroke="white" stroke-width="2" stroke-miterlimit="8"/>
<path d="M79.7979 106.344H67.579L46.8603 138.531H4.75098" stroke="white" stroke-width="2" stroke-miterlimit="8"/>
<path d="M79.7979 44.6562H67.3292L46.2354 12.4688H15.4539" stroke="white" stroke-width="2" stroke-miterlimit="8"/>
<path d="M79.7978 76.8438H71.7507" stroke="white" stroke-width="2" stroke-miterlimit="8"/>
<path d="M15.4695 109.031H39.5635L51.4695 90.2499H108.516V99.6405L141.454 74.828L108.516 50.0155V59.4061H78.626" stroke="white" stroke-width="2" stroke-miterlimit="8"/>
<path d="M95.8918 76.8438H103.939" stroke="white" stroke-width="2" stroke-miterlimit="8"/>
<path d="M85.1729 76.8438H90.5321" stroke="white" stroke-width="2" stroke-miterlimit="8"/>
<path d="M85.1729 44.6562H90.5321" stroke="white" stroke-width="2" stroke-miterlimit="8"/>
<path d="M85.1729 106.344H90.5321" stroke="white" stroke-width="2" stroke-miterlimit="8"/>
<path d="M71.7665 60.75H66.4072" stroke="white" stroke-width="2" stroke-miterlimit="8"/>
<path d="M4.73535 12.4531H10.0946" stroke="white" stroke-width="2" stroke-miterlimit="8"/>
<path d="M4.73535 109.031H10.0946" stroke="white" stroke-width="2" stroke-miterlimit="8"/>
</svg>
