<svg width="96" height="96" viewBox="0 0 96 96" fill="none" xmlns="http://www.w3.org/2000/svg">
<path d="M74.3489 25.74L66.249 33.9L69.319 36.97L56.929 39.3L59.259 26.79L62.329 29.86L70.429 21.7" stroke="white" stroke-width="1.5" stroke-linejoin="round"/>
<path d="M49.569 68.61L53.739 70.57L52.329 75.84L47.789 75.41L43.799 81.18L45.759 85.35L41.3391 88.48L38.0891 85.23L31.3391 87.07L30.169 91.49L24.769 91L24.399 86.4L18.079 83.46L14.3391 86.1L10.479 82.24L13.119 78.5L10.049 72.12L5.50903 71.75L5.01904 66.29L9.43903 65.12L11.2791 58.31L8.02905 55.06L11.159 50.58L15.269 52.54L20.969 48.49L20.539 43.89L25.749 42.48L27.649 46.65L34.639 47.26L37.2791 43.52L42.189 45.85L40.959 50.27L45.929 55.24L50.349 54.01L52.619 58.98L48.879 61.62L49.569 68.61Z" stroke="white" stroke-width="1.5" stroke-linejoin="round"/>
<path d="M39.149 57.32C39.089 57.26 39.029 57.2 38.969 57.14" stroke="white" stroke-width="1.5" stroke-linejoin="round"/>
<path d="M29.209 53.27C27.739 53.27 26.269 53.58 24.919 54.07C24.119 54.38 23.389 54.68 22.709 55.11C22.459 55.23 22.279 55.36 22.039 55.54C21.369 55.97 20.749 56.46 20.199 57.01C20.079 57.13 19.889 57.32 19.769 57.44C19.519 57.69 19.2791 57.99 19.0291 58.3C18.9691 58.36 18.909 58.42 18.849 58.55C18.729 58.73 18.599 58.86 18.479 59.04C17.619 60.33 16.889 61.74 16.459 63.33C14.559 70.57 18.7891 78.05 26.0291 79.95C30.0791 81.05 34.129 80.2 37.319 77.93C37.499 77.81 37.629 77.68 37.809 77.56C37.869 77.5 37.929 77.44 38.059 77.38C38.369 77.13 38.609 76.89 38.919 76.64C39.039 76.52 39.229 76.33 39.349 76.21C39.899 75.66 40.389 75.04 40.819 74.37C40.939 74.12 41.129 73.94 41.249 73.7C41.679 73.03 41.989 72.29 42.289 71.55C42.409 71.18 42.539 70.75 42.659 70.32C42.969 69.22 43.089 68.11 43.089 67.01" stroke="white" stroke-width="1.5" stroke-linejoin="round"/>
<path d="M86.489 31.5L90.6589 33.4L89.249 38.67L84.709 38.24L80.7189 44.01L82.679 48.18L78.259 51.31L75.009 48.06L68.259 49.9L67.089 54.32L61.689 53.83L61.319 49.23L54.999 46.29L51.139 48.99L47.279 45.13L49.9189 41.39L46.9789 34.95L42.439 34.58L41.949 29.12L46.369 27.95L48.209 21.14L44.959 17.89L48.089 13.47L52.199 15.43L57.899 11.38L57.4689 6.78L62.679 5.37L64.579 9.53999L71.569 10.15L74.209 6.35001L79.119 8.67999L77.889 13.1L82.8589 18.07L87.279 16.84L89.549 21.81L85.809 24.45L86.489 31.5Z" stroke="white" stroke-width="1.5" stroke-linejoin="round"/>
<path d="M66.199 43.34C68.039 43.4 69.879 43.03 71.599 42.3C72.269 41.99 72.949 41.69 73.559 41.32C73.739 41.2 73.989 41.07 74.169 40.89C75.269 40.15 76.249 39.17 77.109 38.13C77.169 38.07 77.229 38.01 77.289 37.88C77.409 37.7 77.539 37.57 77.659 37.39C78.519 36.16 79.129 34.75 79.559 33.22C81.519 25.98 77.229 18.5 69.989 16.6C65.999 15.56 62.019 16.35 58.889 18.5C58.709 18.62 58.519 18.75 58.399 18.87C58.339 18.93 58.279 18.99 58.149 19.05C57.109 19.85 56.189 20.89 55.389 21.99C55.269 22.17 55.149 22.42 55.019 22.6C54.649 23.21 54.279 23.89 54.039 24.56C53.789 25.11 53.609 25.66 53.489 26.28C53.119 27.57 52.999 28.86 52.999 30.08" stroke="white" stroke-width="1.5" stroke-linejoin="round"/>
<path d="M21.729 70.69L29.889 62.53L26.819 59.46L39.209 57.13L36.879 69.64L33.809 66.57L25.709 74.73" stroke="white" stroke-width="1.5" stroke-linejoin="round"/>
<path d="M81.339 55.61V58.56" stroke="white" stroke-width="1.5" stroke-linejoin="round"/>
<path d="M81.339 65.67V76.33" stroke="white" stroke-width="1.5" stroke-linejoin="round" stroke-dasharray="7.11 7.11"/>
<path d="M81.3389 79.88V82.84H78.3889" stroke="white" stroke-width="1.5" stroke-linejoin="round"/>
<path d="M73.2889 82.84H55.449" stroke="white" stroke-width="1.5" stroke-linejoin="round" stroke-dasharray="5.1 5.1"/>
<path d="M52.899 82.84H49.939" stroke="white" stroke-width="1.5" stroke-linejoin="round"/>
<path d="M13.759 46.28V43.33" stroke="white" stroke-width="1.5" stroke-linejoin="round"/>
<path d="M13.759 38.18V20.16" stroke="white" stroke-width="1.5" stroke-linejoin="round" stroke-dasharray="5.15 5.15"/>
<path d="M13.759 17.59V14.64H16.709" stroke="white" stroke-width="1.5" stroke-linejoin="round"/>
<path d="M23.739 14.64H34.269" stroke="white" stroke-width="1.5" stroke-linejoin="round" stroke-dasharray="7.03 7.03"/>
<path d="M37.7891 14.64H40.7391" stroke="white" stroke-width="1.5" stroke-linejoin="round"/>
</svg>
