<svg width="96" height="96" viewBox="0 0 96 96" fill="none" xmlns="http://www.w3.org/2000/svg">
<path d="M46.051 17.67V24.9601" stroke="white" stroke-width="1.5" stroke-miterlimit="10"/>
<path d="M46.051 90.03C50.031 90.03 53.251 87.6 53.251 84.61C53.251 81.62 50.031 79.19 46.051 79.19C42.071 79.19 38.851 81.62 38.851 84.61C38.851 87.6 42.071 90.03 46.051 90.03Z" stroke="white" stroke-width="1.5" stroke-miterlimit="10"/>
<path d="M71.3809 90.03C75.3509 90.03 78.5809 87.6 78.5809 84.61C78.5809 81.62 75.3609 79.19 71.3809 79.19C67.4009 79.19 64.1809 81.62 64.1809 84.61C64.1809 87.6 67.4009 90.03 71.3809 90.03Z" stroke="white" stroke-width="1.5" stroke-miterlimit="10"/>
<path d="M46.0509 24.96L33.4309 32.16L46.0509 39.36L58.6709 32.16L46.0509 24.96Z" stroke="white" stroke-width="1.5" stroke-miterlimit="10"/>
<path d="M71.381 41.23L58.761 48.43L71.381 55.63L84.001 48.43L71.381 41.23Z" stroke="white" stroke-width="1.5" stroke-miterlimit="10"/>
<path d="M46.0509 57.5L33.4309 64.7L46.0509 71.9L58.6709 64.7L46.0509 57.5Z" stroke="white" stroke-width="1.5" stroke-miterlimit="10"/>
<path d="M33.421 32.16H20.801V43" stroke="white" stroke-width="1.5" stroke-miterlimit="10"/>
<path d="M58.6709 32.16H71.2909V41.23" stroke="white" stroke-width="1.5" stroke-miterlimit="10"/>
<path d="M29.781 43.01H11.741V53.85H29.781V43.01Z" stroke="white" stroke-width="1.5" stroke-miterlimit="10"/>
<path d="M58.671 48.43H46.051V57.5" stroke="white" stroke-width="1.5" stroke-miterlimit="10"/>
<path d="M20.7109 53.85V64.69H33.3309" stroke="white" stroke-width="1.5" stroke-miterlimit="10"/>
<path d="M71.381 55.63V79.18" stroke="white" stroke-width="1.5" stroke-miterlimit="10"/>
<path d="M46.051 71.89V79.18" stroke="white" stroke-width="1.5" stroke-miterlimit="10"/>
<path d="M38.761 6.83002H53.251C54.231 6.83002 55.031 7.63002 55.031 8.61002V15.9C55.031 16.88 54.231 17.68 53.251 17.68H38.761C37.781 17.68 36.981 16.88 36.981 15.9V8.61002C36.981 7.63002 37.781 6.83002 38.761 6.83002Z" stroke="white" stroke-width="1.5" stroke-miterlimit="10"/>
</svg>
