<svg width="96" height="96" viewBox="0 0 96 96" fill="none" xmlns="http://www.w3.org/2000/svg">
<path d="M14 2H2V14H14V2Z" stroke="white" stroke-width="2" stroke-linecap="round" stroke-linejoin="round"/>
<path d="M14 82H2V94H14V82Z" stroke="white" stroke-width="2" stroke-linecap="round" stroke-linejoin="round"/>
<path d="M94 2H82V14H94V2Z" stroke="white" stroke-width="2" stroke-linecap="round" stroke-linejoin="round"/>
<path d="M94 82H82V94H94V82Z" stroke="white" stroke-width="2" stroke-linecap="round" stroke-linejoin="round"/>
<path d="M68 62.16L48 70.66L28 62.16V33.84L48 25.34L68 33.84V62.16Z" stroke="white" stroke-width="2" stroke-linecap="round" stroke-linejoin="round"/>
<path d="M68 33.84L48 42.34L28 33.84" stroke="white" stroke-width="2" stroke-linecap="round" stroke-linejoin="round"/>
<path d="M36 10C37.1046 10 38 9.10457 38 8C38 6.89543 37.1046 6 36 6C34.8954 6 34 6.89543 34 8C34 9.10457 34.8954 10 36 10Z" fill="white"/>
<path d="M28 10C29.1046 10 30 9.10457 30 8C30 6.89543 29.1046 6 28 6C26.8954 6 26 6.89543 26 8C26 9.10457 26.8954 10 28 10Z" fill="white"/>
<path d="M20 10C21.1046 10 22 9.10457 22 8C22 6.89543 21.1046 6 20 6C18.8954 6 18 6.89543 18 8C18 9.10457 18.8954 10 20 10Z" fill="white"/>
<path d="M60 10C61.1046 10 62 9.10457 62 8C62 6.89543 61.1046 6 60 6C58.8954 6 58 6.89543 58 8C58 9.10457 58.8954 10 60 10Z" fill="white"/>
<path d="M76 10C77.1046 10 78 9.10457 78 8C78 6.89543 77.1046 6 76 6C74.8954 6 74 6.89543 74 8C74 9.10457 74.8954 10 76 10Z" fill="white"/>
<path d="M68 10C69.1046 10 70 9.10457 70 8C70 6.89543 69.1046 6 68 6C66.8954 6 66 6.89543 66 8C66 9.10457 66.8954 10 68 10Z" fill="white"/>
<path d="M36 90C37.1046 90 38 89.1046 38 88C38 86.8954 37.1046 86 36 86C34.8954 86 34 86.8954 34 88C34 89.1046 34.8954 90 36 90Z" fill="white"/>
<path d="M28 90C29.1046 90 30 89.1046 30 88C30 86.8954 29.1046 86 28 86C26.8954 86 26 86.8954 26 88C26 89.1046 26.8954 90 28 90Z" fill="white"/>
<path d="M20 90C21.1046 90 22 89.1046 22 88C22 86.8954 21.1046 86 20 86C18.8954 86 18 86.8954 18 88C18 89.1046 18.8954 90 20 90Z" fill="white"/>
<path d="M60 90C61.1046 90 62 89.1046 62 88C62 86.8954 61.1046 86 60 86C58.8954 86 58 86.8954 58 88C58 89.1046 58.8954 90 60 90Z" fill="white"/>
<path d="M76 90C77.1046 90 78 89.1046 78 88C78 86.8954 77.1046 86 76 86C74.8954 86 74 86.8954 74 88C74 89.1046 74.8954 90 76 90Z" fill="white"/>
<path d="M68 90C69.1046 90 70 89.1046 70 88C70 86.8954 69.1046 86 68 86C66.8954 86 66 86.8954 66 88C66 89.1046 66.8954 90 68 90Z" fill="white"/>
<path d="M88 38C89.1046 38 90 37.1046 90 36C90 34.8954 89.1046 34 88 34C86.8954 34 86 34.8954 86 36C86 37.1046 86.8954 38 88 38Z" fill="white"/>
<path d="M88 30C89.1046 30 90 29.1046 90 28C90 26.8954 89.1046 26 88 26C86.8954 26 86 26.8954 86 28C86 29.1046 86.8954 30 88 30Z" fill="white"/>
<path d="M88 22C89.1046 22 90 21.1046 90 20C90 18.8954 89.1046 18 88 18C86.8954 18 86 18.8954 86 20C86 21.1046 86.8954 22 88 22Z" fill="white"/>
<path d="M88 62C89.1046 62 90 61.1046 90 60C90 58.8954 89.1046 58 88 58C86.8954 58 86 58.8954 86 60C86 61.1046 86.8954 62 88 62Z" fill="white"/>
<path d="M88 78C89.1046 78 90 77.1046 90 76C90 74.8954 89.1046 74 88 74C86.8954 74 86 74.8954 86 76C86 77.1046 86.8954 78 88 78Z" fill="white"/>
<path d="M88 70C89.1046 70 90 69.1046 90 68C90 66.8954 89.1046 66 88 66C86.8954 66 86 66.8954 86 68C86 69.1046 86.8954 70 88 70Z" fill="white"/>
<path d="M8 38C9.10457 38 10 37.1046 10 36C10 34.8954 9.10457 34 8 34C6.89543 34 6 34.8954 6 36C6 37.1046 6.89543 38 8 38Z" fill="white"/>
<path d="M8 30C9.10457 30 10 29.1046 10 28C10 26.8954 9.10457 26 8 26C6.89543 26 6 26.8954 6 28C6 29.1046 6.89543 30 8 30Z" fill="white"/>
<path d="M8 22C9.10457 22 10 21.1046 10 20C10 18.8954 9.10457 18 8 18C6.89543 18 6 18.8954 6 20C6 21.1046 6.89543 22 8 22Z" fill="white"/>
<path d="M8 62C9.10457 62 10 61.1046 10 60C10 58.8954 9.10457 58 8 58C6.89543 58 6 58.8954 6 60C6 61.1046 6.89543 62 8 62Z" fill="white"/>
<path d="M8 78C9.10457 78 10 77.1046 10 76C10 74.8954 9.10457 74 8 74C6.89543 74 6 74.8954 6 76C6 77.1046 6.89543 78 8 78Z" fill="white"/>
<path d="M8 70C9.10457 70 10 69.1046 10 68C10 66.8954 9.10457 66 8 66C6.89543 66 6 66.8954 6 68C6 69.1046 6.89543 70 8 70Z" fill="white"/>
<path d="M20 50C21.1046 50 22 49.1046 22 48C22 46.8954 21.1046 46 20 46C18.8954 46 18 46.8954 18 48C18 49.1046 18.8954 50 20 50Z" fill="white"/>
<path d="M76 50C77.1046 50 78 49.1046 78 48C78 46.8954 77.1046 46 76 46C74.8954 46 74 46.8954 74 48C74 49.1046 74.8954 50 76 50Z" fill="white"/>
<path d="M48 20C49.1046 20 50 19.1046 50 18C50 16.8954 49.1046 16 48 16C46.8954 16 46 16.8954 46 18C46 19.1046 46.8954 20 48 20Z" fill="white"/>
<path d="M48 80C49.1046 80 50 79.1046 50 78C50 76.8954 49.1046 76 48 76C46.8954 76 46 76.8954 46 78C46 79.1046 46.8954 80 48 80Z" fill="white"/>
<path d="M48 12C50.2091 12 52 10.2091 52 8C52 5.79086 50.2091 4 48 4C45.7909 4 44 5.79086 44 8C44 10.2091 45.7909 12 48 12Z" stroke="white" stroke-width="2" stroke-linecap="round" stroke-linejoin="round"/>
<path d="M48 92C50.2091 92 52 90.2091 52 88C52 85.7909 50.2091 84 48 84C45.7909 84 44 85.7909 44 88C44 90.2091 45.7909 92 48 92Z" stroke="white" stroke-width="2" stroke-linecap="round" stroke-linejoin="round"/>
<path d="M88 52C90.2091 52 92 50.2091 92 48C92 45.7909 90.2091 44 88 44C85.7909 44 84 45.7909 84 48C84 50.2091 85.7909 52 88 52Z" stroke="white" stroke-width="2" stroke-linecap="round" stroke-linejoin="round"/>
<path d="M8 52C10.2091 52 12 50.2091 12 48C12 45.7909 10.2091 44 8 44C5.79086 44 4 45.7909 4 48C4 50.2091 5.79086 52 8 52Z" stroke="white" stroke-width="2" stroke-linecap="round" stroke-linejoin="round"/>
</svg>
