<svg width="97" height="96" viewBox="0 0 97 96" fill="none" xmlns="http://www.w3.org/2000/svg">
<path d="M94.9556 22.4681H45.9344V59.234H94.9556V22.4681Z" stroke="white" stroke-width="2" stroke-linejoin="round"/>
<path d="M45.9344 53.1064L62.2748 36.766L76.5727 51.0639" stroke="white" stroke-width="2" stroke-linejoin="round"/>
<path d="M70.4451 44.9361L76.5728 38.8085L94.9557 57.1915" stroke="white" stroke-width="2" stroke-linejoin="round"/>
<path d="M80.658 32.6808H84.7431" stroke="white" stroke-width="2" stroke-linejoin="round"/>
<path d="M56.1472 63.3191V87.8298H3.04081V49.0212H41.8493" stroke="white" stroke-width="2" stroke-linejoin="round" stroke-dasharray="4 4"/>
<path d="M58.1898 18.383V2.04254H15.2962V44.9362" stroke="white" stroke-width="2" stroke-linejoin="round"/>
<path d="M21.4239 75.5745L13.2537 69.4468L21.4239 63.3192" stroke="white" stroke-width="2" stroke-linejoin="round"/>
<path d="M37.7644 75.5745L45.9347 69.4468L37.7644 63.3192" stroke="white" stroke-width="2" stroke-linejoin="round"/>
<path d="M33.6793 59.234L25.5091 79.6595" stroke="white" stroke-width="2" stroke-linejoin="round"/>
<path d="M25.5091 14.2979H47.9772" stroke="white" stroke-width="2" stroke-linejoin="round"/>
<path d="M25.5091 22.4681H39.8069" stroke="white" stroke-width="2" stroke-linejoin="round"/>
<path d="M25.5091 30.6383H39.8069" stroke="white" stroke-width="2" stroke-linejoin="round"/>
<path d="M25.5091 38.8085H39.8069" stroke="white" stroke-width="2" stroke-linejoin="round"/>
</svg>
