<svg width="96" height="96" viewBox="0 0 96 96" fill="none" xmlns="http://www.w3.org/2000/svg">
<path d="M68.5693 73.7367H82.043C87.298 73.7367 91.608 69.4238 91.7875 63.9838L93.496 12.4276C93.685 6.71723 89.2677 1.98181 83.7515 1.98181H13.6967C8.18043 1.98181 3.76212 6.71723 3.95219 12.4276L3.94582 44.1379" stroke="white" stroke-width="2" stroke-linecap="round" stroke-linejoin="round" stroke-dasharray="4 4"/>
<path d="M28.4862 50.7309V21.8691C28.4862 19.4879 26.5156 17.5576 24.086 17.5576C21.6553 17.5576 19.6857 19.4879 19.6857 21.8691V57.6104" stroke="white" stroke-width="2" stroke-linecap="round" stroke-linejoin="round"/>
<path d="M37.2868 52.607V40.6052C37.2868 38.224 35.3163 36.2937 32.8866 36.2937C30.456 36.2937 28.4864 38.224 28.4864 40.6052V52.607" stroke="white" stroke-width="2" stroke-linecap="round" stroke-linejoin="round"/>
<path d="M46.0879 50.731V42.0479C46.0879 39.6667 44.1173 37.7364 41.6876 37.7364C39.257 37.7364 37.2874 39.6667 37.2874 42.0479V50.731" stroke="white" stroke-width="2" stroke-linecap="round" stroke-linejoin="round"/>
<path d="M51.0223 89.5956C53.5881 79.9073 54.8895 69.9248 54.8895 59.8958V45.6638C54.8895 43.2826 52.9189 41.3522 50.4893 41.3522C48.0586 41.3522 46.089 43.2826 46.089 45.6638V53.2321" stroke="white" stroke-width="2" stroke-linecap="round" stroke-linejoin="round"/>
<path d="M19.6847 58.2355V49.0251C19.6847 42.7794 10.8833 42.792 10.8833 45.1742V57.4982C10.8833 67.3094 12.3014 77.0703 15.0929 86.481L16.0179 89.5995" stroke="white" stroke-width="2" stroke-linecap="round" stroke-linejoin="round"/>
<path d="M19.6847 30.2135C16.7483 29.6832 14.5034 27.1114 14.5034 24.0432V17.7733C14.5034 14.3249 17.3397 11.5034 20.8062 11.5034H27.1089C30.5754 11.5034 33.4117 14.3249 33.4117 17.7733V24.0432C33.4117 27.0214 31.2962 29.5323 28.4852 30.1612" stroke="white" stroke-width="2" stroke-linecap="round" stroke-linejoin="round"/>
<path d="M48.6931 11.5025H48.6921C43.4708 11.5025 39.238 15.7132 39.238 20.9074V20.9083C39.238 26.1025 43.4708 30.3132 48.6921 30.3132H48.6931C53.9144 30.3132 58.1472 26.1025 58.1472 20.9083V20.9074C58.1472 15.7132 53.9144 11.5025 48.6931 11.5025Z" stroke="white" stroke-width="2" stroke-linecap="round" stroke-linejoin="round"/>
<path d="M73.4274 11.5025H73.4264C68.205 11.5025 63.9723 15.7132 63.9723 20.9074V20.9083C63.9723 26.1025 68.205 30.3132 73.4264 30.3132H73.4274C78.6487 30.3132 82.8815 26.1025 82.8815 20.9083V20.9074C82.8815 15.7132 78.6487 11.5025 73.4274 11.5025Z" stroke="white" stroke-width="2" stroke-linecap="round" stroke-linejoin="round"/>
</svg>
