<svg width="96" height="96" viewBox="0 0 96 96" fill="none" xmlns="http://www.w3.org/2000/svg">
<path d="M1.52344 60.8037C1.52344 51.9167 22.3257 44.7412 47.9995 44.7412C73.6732 44.7412 94.4755 51.9167 94.4755 60.8037" stroke="white" stroke-width="2" stroke-linecap="round" stroke-linejoin="round" stroke-dasharray="5.99 5.99"/>
<path d="M25.7494 87.5971C35.229 87.5971 42.9969 79.895 42.9969 70.3496C42.9969 60.8043 35.229 53.168 25.7494 53.168C16.2041 53.168 8.50195 60.8701 8.50195 70.4154C8.50195 79.9608 16.2041 87.5971 25.7494 87.5971Z" stroke="white" stroke-width="2" stroke-linecap="round" stroke-linejoin="round"/>
<path d="M36.0185 61.0664L24.4982 68.9002C23.5766 69.5585 23.3791 70.8093 24.1691 71.6651C24.8932 72.5208 26.2098 72.5208 26.934 71.6651L36.0185 61.0664Z" stroke="white" stroke-width="2" stroke-linecap="round" stroke-linejoin="round"/>
<path d="M25.749 56.5908V59.2899" stroke="white" stroke-width="2" stroke-linecap="round" stroke-linejoin="round"/>
<path d="M13.7676 77.2609L16.0716 75.9443" stroke="white" stroke-width="2" stroke-linecap="round" stroke-linejoin="round"/>
<path d="M37.6644 77.2609L35.3604 75.9443" stroke="white" stroke-width="2" stroke-linecap="round" stroke-linejoin="round"/>
<path d="M20.2188 80.2891H31.2124" stroke="white" stroke-width="2" stroke-linecap="round" stroke-linejoin="round"/>
<path d="M70.2504 87.5965C79.7299 87.5965 87.4979 79.8944 87.4979 70.349C87.4979 60.8037 79.7958 53.1016 70.2504 53.1016C60.7051 53.1016 53.0029 60.8037 53.0029 70.349C53.0029 79.8944 60.7709 87.5965 70.2504 87.5965Z" stroke="white" stroke-width="2" stroke-linecap="round" stroke-linejoin="round"/>
<path d="M84.1399 70.4152L70.3155 72.2585C69.1964 72.3901 68.209 71.5343 68.209 70.4152C68.209 69.2961 69.1964 68.4403 70.3155 68.572L84.1399 70.4152Z" stroke="white" stroke-width="2" stroke-linecap="round" stroke-linejoin="round"/>
<path d="M70.25 56.5908V59.2899" stroke="white" stroke-width="2" stroke-linecap="round" stroke-linejoin="round"/>
<path d="M82.2308 77.2609L79.9268 75.9443" stroke="white" stroke-width="2" stroke-linecap="round" stroke-linejoin="round"/>
<path d="M58.335 77.2609L60.639 75.9443" stroke="white" stroke-width="2" stroke-linecap="round" stroke-linejoin="round"/>
<path d="M75.7798 80.2891H64.7861" stroke="white" stroke-width="2" stroke-linecap="round" stroke-linejoin="round"/>
<path d="M23.3789 32.3652L16.4667 30.8512C15.216 30.6537 14.2285 29.5346 14.2285 28.218V18.2776C14.2285 18.2776 26.4071 8.46894 45.6953 8.40311C53.3316 8.33728 60.3754 12.5504 66.3001 17.0927C72.6198 17.5535 78.6103 18.2776 84.6667 23.2149L83.4159 32.0361L77.3596 33.0235" stroke="white" stroke-width="2" stroke-miterlimit="10"/>
<path d="M28.8425 35.4592C32.1998 35.4592 34.8989 32.6944 34.8989 29.337C34.8989 25.9797 32.1998 23.2148 28.8425 23.2148C25.4852 23.2148 22.7861 25.9797 22.7861 29.337C22.7861 32.6944 25.4852 35.4592 28.8425 35.4592Z" stroke="white" stroke-width="2" stroke-miterlimit="10"/>
<path d="M68.0776 32.957H33.6484" stroke="white" stroke-width="2" stroke-miterlimit="10"/>
<path d="M72.5544 35.4592C75.9117 35.4592 78.6108 32.6944 78.6108 29.337C78.6108 25.9797 75.9117 23.2148 72.5544 23.2148C69.1971 23.2148 66.498 25.9797 66.498 29.337C66.498 32.6944 69.1971 35.4592 72.5544 35.4592Z" stroke="white" stroke-width="2" stroke-miterlimit="10"/>
<path d="M43.3906 8.53418V24.2676C43.3906 26.3741 45.0364 28.0199 47.0771 28.0199H61.5597" stroke="white" stroke-width="2" stroke-miterlimit="10"/>
<path d="M14.2285 18.2773L19.0999 19.5281V23.2146H14.2285" stroke="white" stroke-width="2" stroke-miterlimit="10"/>
<path d="M66.3002 17.0273C64.5886 18.6073 62.4162 19.4631 60.1122 19.4631H22.7207" stroke="white" stroke-width="2" stroke-miterlimit="10"/>
</svg>
