<svg width="96" height="96" viewBox="0 0 96 96" fill="none" xmlns="http://www.w3.org/2000/svg">
<path d="M92.9758 26.0166H44.9805V61.9969H92.9758V26.0166Z" stroke="white" stroke-width="2" stroke-linejoin="round"/>
<path d="M44.9805 56.0217L60.9573 40.0449L74.9857 54.0733" stroke="white" stroke-width="2" stroke-linejoin="round"/>
<path d="M68.9463 48.0337L74.9213 42.0586L92.9115 60.0487" stroke="white" stroke-width="2" stroke-linejoin="round"/>
<path d="M78.9473 36.0186H82.9739" stroke="white" stroke-width="2" stroke-linejoin="round"/>
<path d="M54.9824 66.023V89.9882H3.02539V52.0596H41.019" stroke="white" stroke-width="2" stroke-linejoin="round" stroke-dasharray="6.03 6.03"/>
<path d="M56.9958 22.0544V6.0127H14.9756V48.033" stroke="white" stroke-width="2" stroke-linejoin="round"/>
<path d="M20.9503 78.038L12.9619 72.0629L20.9503 66.0879" stroke="white" stroke-width="2" stroke-linejoin="round"/>
<path d="M36.9932 78.038L44.9816 72.0629L36.9932 66.0879" stroke="white" stroke-width="2" stroke-linejoin="round"/>
<path d="M32.965 62.0625L24.9766 82.066" stroke="white" stroke-width="2" stroke-linejoin="round"/>
<path d="M24.9766 18.0273H46.9934" stroke="white" stroke-width="2" stroke-linejoin="round"/>
<path d="M24.9766 26.0166H39.005" stroke="white" stroke-width="2" stroke-linejoin="round"/>
<path d="M24.9766 34.0049H39.005" stroke="white" stroke-width="2" stroke-linejoin="round"/>
<path d="M24.9766 42.0586H39.005" stroke="white" stroke-width="2" stroke-linejoin="round"/>
</svg>
