<svg width="97" height="96" viewBox="0 0 97 96" fill="none" xmlns="http://www.w3.org/2000/svg">
<path d="M64.5331 15.5C78.1631 22.63 86.6631 36.77 86.5731 52.15C86.5731 74.33 69.1231 92.65 47.9931 92.65C26.8631 92.65 9.42311 74.33 9.42311 52.15C9.31311 43.48 12.0531 35 17.2331 28.04" stroke="white" stroke-width="1.5" stroke-linecap="round" stroke-linejoin="round"/>
<path d="M66.4532 52.4C66.4532 74.44 58.1532 92.65 48.0032 92.65C37.8532 92.65 29.5532 74.45 29.5532 52.4" stroke="white" stroke-width="1.5" stroke-linejoin="round"/>
<path d="M48.0032 52.4V92.66" stroke="white" stroke-width="1.5" stroke-linejoin="round"/>
<path d="M86.5831 52.4H9.4231" stroke="white" stroke-width="1.5" stroke-linejoin="round"/>
<path d="M76.5131 79.24C69.6331 74.93 59.0831 72.53 47.1631 72.53C35.8531 72.53 25.7831 74.69 18.9031 78.59" stroke="white" stroke-width="1.5" stroke-linejoin="round"/>
<path d="M56.3931 32.2799H69.8131V52.4099" stroke="white" stroke-width="1.5" stroke-linejoin="round"/>
<path d="M37.943 22.21H22.843V52.41" stroke="white" stroke-width="1.5" stroke-linejoin="round"/>
<path d="M56.3931 52.4V15.5H37.9431V52.4" stroke="white" stroke-width="1.5" stroke-linejoin="round"/>
<path d="M51.3631 10.47H44.6531V15.5H51.3631V10.47Z" stroke="white" stroke-width="1.5" stroke-linejoin="round"/>
<path d="M48.0032 10.47V2.08997" stroke="white" stroke-width="1.5" stroke-linejoin="round"/>
<path d="M44.6531 23.89H51.3531" stroke="white" stroke-width="1.5" stroke-linejoin="round"/>
<path d="M44.6531 30.6H51.3531" stroke="white" stroke-width="1.5" stroke-linejoin="round"/>
<path d="M44.6531 38.99H51.3531" stroke="white" stroke-width="1.5" stroke-linejoin="round"/>
<path d="M29.5532 28.9199H32.9132" stroke="white" stroke-width="1.5" stroke-linejoin="round"/>
<path d="M29.5532 37.3099H32.9132" stroke="white" stroke-width="1.5" stroke-linejoin="round"/>
<path d="M29.5532 44.02H32.9132" stroke="white" stroke-width="1.5" stroke-linejoin="round"/>
<path d="M56.3931 25.5699H64.7831V32.2799" stroke="white" stroke-width="1.5" stroke-linejoin="round"/>
</svg>
