<svg width="97" height="96" viewBox="0 0 97 96" fill="none" xmlns="http://www.w3.org/2000/svg">
<path d="M71.3733 91.55H24.9231V26.97H61.2532L71.3132 37.03V91.55H71.3733Z" stroke="white" stroke-width="1.5" stroke-miterlimit="10" stroke-dasharray="5.67 5.67"/>
<path d="M67.3333 39.08H59.2632V31" stroke="white" stroke-width="1.5" stroke-miterlimit="10"/>
<path d="M20.8831 79.4398H6.7832V14.8599H39.0732" stroke="white" stroke-width="1.5" stroke-miterlimit="10"/>
<path d="M43.1133 22.9301V4.73999H79.4431L89.5032 14.8V69.26H75.4031" stroke="white" stroke-width="1.5" stroke-miterlimit="10"/>
<path d="M85.4631 16.84H77.3931V8.77002" stroke="white" stroke-width="1.5" stroke-miterlimit="10"/>
<path d="M32.9932 49.1299H45.1033" stroke="white" stroke-width="1.5" stroke-miterlimit="10"/>
<path d="M32.9932 57.21H45.1033" stroke="white" stroke-width="1.5" stroke-miterlimit="10"/>
<path d="M32.9932 73.3599H45.1033" stroke="white" stroke-width="1.5" stroke-miterlimit="10"/>
<path d="M32.9932 81.4302H45.1033" stroke="white" stroke-width="1.5" stroke-miterlimit="10"/>
<path d="M32.9932 65.28H45.1033" stroke="white" stroke-width="1.5" stroke-miterlimit="10"/>
<path d="M51.1831 49.1299H63.2932" stroke="white" stroke-width="1.5" stroke-miterlimit="10"/>
<path d="M51.1831 57.21H63.2932" stroke="white" stroke-width="1.5" stroke-miterlimit="10"/>
<path d="M51.1831 73.3599H63.2932" stroke="white" stroke-width="1.5" stroke-miterlimit="10"/>
<path d="M51.1831 81.4302H63.2932" stroke="white" stroke-width="1.5" stroke-miterlimit="10"/>
<path d="M51.1831 65.28H63.2932" stroke="white" stroke-width="1.5" stroke-miterlimit="10"/>
</svg>
