<svg width="97" height="96" viewBox="0 0 97 96" fill="none" xmlns="http://www.w3.org/2000/svg">
<g clip-path="url(#clip0_132_6347)">
<path d="M53.002 87.84V28.22H69.4519V42.61" stroke="white" stroke-width="1.5"/>
<path d="M30.792 87.53V3.23999H47.2419V87.53" stroke="white" stroke-width="1.5"/>
<path d="M6.69189 87.4701V44.6201H24.4219V87.4701" stroke="white" stroke-width="1.5" stroke-dasharray="4 4"/>
<path d="M1.43188 91.95H93.9419" stroke="white" stroke-width="1.5"/>
<path d="M92.032 65.5499L96.002 63.15L94.2219 58.8599L89.7219 59.9699L89.6418 59.9999C88.6318 58.5199 87.3619 57.2799 85.9319 56.2999L85.9719 56.2199L87.082 51.71L82.792 49.9299L80.3918 53.9L80.3621 53.9799C78.6521 53.6599 76.8821 53.6499 75.1221 53.9799L75.092 53.9L72.6919 49.9299L68.4019 51.71L69.512 56.2199L69.542 56.2999C68.062 57.3099 66.822 58.5799 65.842 60.0099L65.752 59.9699L61.252 58.8599L59.4719 63.15L63.4419 65.5499L63.532 65.59C63.212 67.3 63.202 69.07 63.532 70.83L63.4519 70.8599L59.4819 73.2599L61.262 77.5499L65.772 76.4399L65.8521 76.4099C66.8621 77.8899 68.132 79.1299 69.562 80.1099L69.532 80.1899L68.4219 84.7L72.7219 86.4799L75.1221 82.5099L75.1619 82.4299C76.8719 82.7499 78.6419 82.7599 80.4019 82.4299L80.4319 82.5099L82.832 86.4799L87.1318 84.7L86.022 80.1899L85.9919 80.1099C87.4719 79.0999 88.7119 77.83 89.7019 76.4L89.782 76.4399L94.292 77.5499L96.072 73.2599L92.1021 70.8599L92.012 70.8199C92.332 69.1199 92.342 67.34 92.012 65.58L92.032 65.5499Z" stroke="white" stroke-width="1.5"/>
<path d="M79.8817 73.34C82.7117 72.17 84.0617 68.92 82.8817 66.09C81.7117 63.26 78.4617 61.91 75.6317 63.09C72.8017 64.26 71.4517 67.51 72.6317 70.34C73.8117 73.17 77.0517 74.51 79.8817 73.34Z" stroke="white" stroke-width="1.5"/>
</g>
<defs>
<clipPath id="clip0_132_6347">
<rect width="96" height="96" fill="white" transform="translate(0.00195312)"/>
</clipPath>
</defs>
</svg>
