<svg width="97" height="96" viewBox="0 0 97 96" fill="none" xmlns="http://www.w3.org/2000/svg">
<path d="M32.4827 79.6598C32.9327 79.0298 33.5226 78.5198 34.2126 78.1798C34.9026 77.8398 35.6627 77.6698 36.4327 77.6898H64.0527C66.2427 77.6898 78.3026 65.5998 79.8326 63.8798C81.3026 62.2298 87.8726 52.36 89.6926 48.1C88.5526 46.56 85.4527 45.2798 81.8027 46.1298C78.3127 46.9398 76.2627 49.4499 73.9127 54.0199L64.8727 58.7199" stroke="white" stroke-width="1.5" stroke-miterlimit="10"/>
<path d="M44.3226 65.8501H60.1027C67.9927 65.8501 67.9927 55.98 60.1027 55.98H49.6727C48.0327 55.98 44.9427 52.04 42.3427 52.04H32.4727C29.8027 52.04 26.4926 54.2 24.5826 55.98L16.6926 63.8701" stroke="white" stroke-width="1.5" stroke-miterlimit="10"/>
<path d="M12.7627 59.9299L2.90271 69.79L26.5726 93.46L36.4327 83.5901L12.7627 59.9299Z" stroke="white" stroke-width="1.5" stroke-miterlimit="10"/>
<path d="M12.7627 69.79L16.7126 73.73" stroke="white" stroke-width="1.5" stroke-miterlimit="10"/>
<path d="M32.4827 48.0901V16.53H48.2627" stroke="white" stroke-width="1.5" stroke-miterlimit="10"/>
<path d="M48.2727 50.0701V2.71997H64.0527V52.04" stroke="white" stroke-width="1.5" stroke-miterlimit="10"/>
<path d="M64.0527 30.3301H79.8326V42.1699" stroke="white" stroke-width="1.5" stroke-miterlimit="10"/>
</svg>
