<svg width="97" height="96" viewBox="0 0 97 96" fill="none" xmlns="http://www.w3.org/2000/svg">
<path d="M68.9819 46.16H72.802" stroke="white" stroke-width="1.5"/>
<path d="M38.4719 46.16H42.282" stroke="white" stroke-width="1.5"/>
<path d="M48.002 46.16C48.002 50.38 51.4118 53.79 55.6318 53.79C59.8418 53.79 63.262 50.38 63.262 46.16C63.262 41.95 59.8518 38.53 55.6318 38.53C51.4218 38.53 48.002 41.94 48.002 46.16Z" stroke="white" stroke-width="1.5"/>
<path d="M15.3819 25.5799C16.2219 28.6299 14.4222 31.77 11.3722 32.61C8.32216 33.45 5.18213 31.65 4.34213 28.6C3.51213 25.55 5.30214 22.4099 8.35214 21.5699C11.4021 20.7299 14.5419 22.5199 15.3819 25.5799Z" stroke="white" stroke-width="1.5" stroke-dasharray="3.9 3.9"/>
<path d="M15.4918 45.13C16.0618 48.24 14.0117 51.2201 10.8917 51.7901C7.77173 52.3601 4.80182 50.31 4.23182 47.19C3.66182 44.08 5.71192 41.1 8.83192 40.53C11.9419 39.96 14.9218 42.01 15.4918 45.13Z" stroke="white" stroke-width="1.5" stroke-dasharray="3.9 3.9"/>
<path d="M32.002 14.6501C30.442 17.4001 26.9519 18.3601 24.2019 16.8001C21.4519 15.2401 20.492 11.76 22.052 9.00004C23.612 6.24004 27.1021 5.29001 29.8521 6.85001C32.6021 8.41001 33.562 11.9001 32.002 14.6501Z" stroke="white" stroke-width="1.5" stroke-dasharray="3.9 3.9"/>
<path d="M14.072 61.3499C11.932 59.0199 8.32195 58.87 5.99195 61.02C3.66195 63.16 3.51187 66.7699 5.66187 69.0999C7.80187 71.4299 11.412 71.58 13.742 69.43C16.062 67.29 16.212 63.6799 14.072 61.3499Z" stroke="white" stroke-width="1.5" stroke-dasharray="3.9 3.9"/>
<path d="M32.252 78.1601C30.962 75.2701 27.5919 73.97 24.7019 75.26C21.8119 76.55 20.512 79.9201 21.802 82.8101C23.092 85.7001 26.4621 87 29.3521 85.71C32.2421 84.43 33.542 81.0501 32.252 78.1601Z" stroke="white" stroke-width="1.5" stroke-dasharray="3.9 3.9"/>
<path d="M38.4719 32.8101H30.842L25.1221 27.09H15.582" stroke="white" stroke-width="1.5"/>
<path d="M15.582 65.23H25.1121L30.832 59.51H78.512C78.512 55.69 81.0719 53.79 84.2319 53.79V38.53C81.0719 38.53 78.512 36.6201 78.512 32.8101H42.272" stroke="white" stroke-width="1.5"/>
<path d="M30.842 76.67L40.3721 67.13H49.9119H53.7219H91.8621V25.17H40.3621L30.832 15.63" stroke="white" stroke-width="1.5"/>
<path d="M15.582 46.16H34.6519" stroke="white" stroke-width="1.5"/>
</svg>
