<svg width="97" height="96" viewBox="0 0 97 96" fill="none" xmlns="http://www.w3.org/2000/svg">
<path d="M64.6056 44.501V36.631C64.6056 31.221 53.3656 28.761 47.9956 28.761C42.6256 28.761 31.3856 31.221 31.3856 36.631V44.501" stroke="white" stroke-width="1.5" stroke-miterlimit="8"/>
<path d="M47.1196 23.52C51.1196 23.52 54.1096 19.79 54.1096 15.51V12.83C54.1096 8.03004 51.1096 4.29004 47.1196 4.29004C43.1296 4.29004 40.1296 8.03004 40.1296 12.84V15.52C40.1296 19.79 43.1296 23.52 47.1196 23.52Z" stroke="white" stroke-width="1.5" stroke-miterlimit="8"/>
<path d="M16.4466 28.763C12.5066 28.683 9.37658 25.423 9.45658 21.483V18.573C9.37658 14.633 12.5066 11.373 16.4466 11.293C20.3866 11.373 23.5166 14.633 23.4366 18.573V21.483C23.5166 25.423 20.3866 28.683 16.4466 28.763Z" stroke="white" stroke-width="1.5" stroke-miterlimit="8"/>
<path d="M31.3926 91.7151L25.4026 73.7351H13.4026C7.89262 73.7151 3.43262 69.2551 3.41262 63.7451V41.7551C3.29262 38.5651 5.77262 35.8851 8.96262 35.7651C9.11262 35.7551 9.26262 35.7551 9.40262 35.7651H15.3926L25.3826 45.7551H37.3726C37.3726 45.7551 38.3726 53.7451 31.3826 53.7451H19.4026L11.4126 45.7551" stroke="white" stroke-width="1.5" stroke-miterlimit="8"/>
<path d="M17.3997 51.7419V61.5419H25.4497C28.7597 61.5419 31.6097 62.5419 32.5497 65.5619L40.1297 91.7019" stroke="white" stroke-width="1.5" stroke-miterlimit="8"/>
<path d="M80.3456 28.763C84.2856 28.683 87.4156 25.423 87.3356 21.483V18.573C87.4156 14.633 84.2856 11.373 80.3456 11.293C76.4056 11.373 73.2756 14.633 73.3556 18.573V21.483C73.2756 25.423 76.4056 28.683 80.3456 28.763Z" stroke="white" stroke-width="1.5" stroke-miterlimit="8"/>
<path d="M66.0096 91.7151L71.6996 73.7351H83.0896C88.4596 73.5751 92.6996 69.1151 92.5796 63.7451V41.7551C92.7796 38.6451 90.4196 35.9651 87.3096 35.7751C87.1696 35.7651 87.0296 35.7651 86.8796 35.7651H81.1796L71.6896 45.7551H60.3096C60.3096 45.7551 59.3596 53.7451 66.0096 53.7451H77.3996L84.9896 45.7551" stroke="white" stroke-width="1.5" stroke-miterlimit="8"/>
<path d="M78.5977 52.4819V61.5519H70.5477C67.2377 61.5519 64.3877 62.5519 63.4477 65.5719L55.8677 91.7119" stroke="white" stroke-width="1.5" stroke-miterlimit="8"/>
<path d="M22.6516 53.7131H73.3516" stroke="white" stroke-width="1.5" stroke-miterlimit="8"/>
</svg>
