<svg width="96" height="96" viewBox="0 0 96 96" fill="none" xmlns="http://www.w3.org/2000/svg">
<path d="M49.3673 16.115C49.3673 12.0857 49.7324 3.96484 39.241 3.96484C30.8981 3.96484 23.2818 12.8949 23.0396 18.1406C16.7407 18.9718 10.7666 25.1275 11.5977 32.9842C5.60341 35.9199 1.26962 51.5744 9.0859 59.0072C7.66759 65.3869 12.0436 80.0286 25.0854 78.8745C28.2652 95.9474 49.3874 95.441 49.3874 82.924V77.6397" stroke="white" stroke-width="2"/>
<path d="M37.2168 30.2927C29.8445 30.2927 23.041 29.1386 23.041 18.1426" stroke="white" stroke-width="2"/>
<path d="M23.7695 44.2243C27.1713 46.4517 32.9436 45.582 36.0426 42.3197C38.3306 39.9106 40.7819 36.1034 43.2919 36.386H72.7901" stroke="white" stroke-width="2"/>
<path d="M39.2422 77.038C40.7412 73.5555 44.3044 72.6436 49.3685 72.6436H64.0763" stroke="white" stroke-width="2"/>
<path d="M25.0664 78.8954C25.0664 71.1195 29.481 61.0537 40.8018 61.0537" stroke="white" stroke-width="2"/>
<path d="M17.3701 38.1895C20.8948 38.1895 23.7497 40.6811 23.7497 44.2241C23.7497 46.9984 21.9681 49.7322 19.4967 50.6037" stroke="white" stroke-width="2"/>
<path d="M55.7104 20.1667H49.3693C43.8612 20.1667 38.454 19.3355 36.5293 14.6182" stroke="white" stroke-width="2"/>
<path d="M49.3877 24.2158V32.4945" stroke="white" stroke-width="2"/>
<path d="M49.3691 42.4434V67.6243" stroke="white" stroke-width="2"/>
<path d="M49.3691 50.6318H57.6478" stroke="white" stroke-width="2"/>
<path d="M83.5225 45.0914C88.3407 44.1244 91.4635 39.4328 90.4966 34.6146C89.5296 29.7964 84.8381 26.6735 80.0198 27.6405C75.2016 28.6074 72.0788 33.2991 73.0458 38.1173C74.0127 42.9355 78.7043 46.0601 83.5225 45.0914Z" stroke="white" stroke-width="2" stroke-dasharray="4 4"/>
<path d="M74.1999 81.4417C79.0603 80.7078 82.4051 76.1739 81.6712 71.3135C80.9373 66.4531 76.4035 63.1083 71.5431 63.8422C66.6827 64.5761 63.3378 69.1099 64.0717 73.9703C64.8056 78.8307 69.3413 82.1756 74.1999 81.4417Z" stroke="white" stroke-width="2" stroke-dasharray="4 4"/>
<path d="M64.9061 25.3786C67.7849 23.6539 68.7207 19.9238 66.9978 17.045C65.2731 14.1661 61.5429 13.2304 58.6641 14.9533C55.7853 16.678 54.8496 20.4082 56.5724 23.287C58.2972 26.1658 62.0273 27.1015 64.9061 25.3786Z" stroke="white" stroke-width="2" stroke-dasharray="4 4"/>
<path d="M67.3068 55.5381C70.0169 53.5583 70.6077 49.7584 68.6279 47.0484C66.6481 44.3384 62.8483 43.7476 60.1383 45.7274C57.4283 47.7071 56.8375 51.507 58.8172 54.217C60.797 56.9252 64.5968 57.5178 67.3068 55.5381Z" stroke="white" stroke-width="2" stroke-dasharray="4 4"/>
</svg>
