<svg width="96" height="96" viewBox="0 0 96 96" fill="none" xmlns="http://www.w3.org/2000/svg">
<path d="M4.69043 80.2377V23.8242H18.7774V80.2377" stroke="white" stroke-width="2" stroke-linecap="round" stroke-linejoin="round" stroke-dasharray="5.76 5.76"/>
<path d="M26.8359 80.2371V60.0566H40.9229V80.1716" stroke="white" stroke-width="2" stroke-linecap="round" stroke-linejoin="round"/>
<path d="M48.9824 80.2369V74.209H63.0694V80.2369" stroke="white" stroke-width="2" stroke-linecap="round" stroke-linejoin="round"/>
<path d="M30.8984 9.73633C30.8984 40.3346 54.486 68.181 85.2808 68.1155H93.3399" stroke="white" stroke-width="2" stroke-linecap="round" stroke-linejoin="round"/>
<path d="M68.9005 47.4758C76.6975 47.4758 82.9875 41.1857 82.9875 33.3888C82.9875 25.5918 76.6975 19.3018 68.9005 19.3018C61.1035 19.3018 54.8135 25.5918 54.8135 33.3888C54.8135 41.1857 61.1035 47.4758 68.9005 47.4758Z" stroke="white" stroke-width="2" stroke-linejoin="round" stroke-dasharray="5.76 5.76"/>
<path d="M72.7656 30.8345V29.5241C72.7656 28.0826 71.5862 26.9688 70.2102 26.9688H67.6549C66.2135 26.9688 65.0996 28.1481 65.0996 29.5241V30.2448C65.0996 31.3587 65.8203 32.3415 66.8687 32.6691L71.062 34.045C72.1103 34.3726 72.8311 35.3554 72.8311 36.4693V37.19C72.8311 38.6315 71.6517 39.7453 70.2758 39.7453H67.7204C66.279 39.7453 65.1651 38.566 65.1651 37.19V35.8796" stroke="white" stroke-width="2" stroke-miterlimit="10"/>
<path d="M68.9004 39.8105V43.6763" stroke="white" stroke-width="2" stroke-miterlimit="10"/>
<path d="M68.9004 26.9693V23.1035" stroke="white" stroke-width="2" stroke-miterlimit="10"/>
<path d="M85.2803 60.0566L93.3393 68.1157L85.2803 76.1748" stroke="white" stroke-width="2" stroke-linecap="round" stroke-linejoin="round"/>
<path d="M2.65918 86.2646H75.1253" stroke="white" stroke-width="2" stroke-linecap="round" stroke-linejoin="round"/>
</svg>
