<svg width="150" height="150" viewBox="0 0 150 150" fill="none" xmlns="http://www.w3.org/2000/svg">
<path d="M49.4373 34.3125C49.4998 34.2656 49.5468 34.2344 49.6093 34.2031C50.3124 33.7187 51.0314 33.25 51.7501 32.7969" stroke="white" stroke-width="1.5"/>
<path d="M56.5937 30.0625C64.6875 25.9844 73.828 23.6875 83.5155 23.6875C116.687 23.6875 143.594 50.6406 143.594 83.8594C143.594 117.078 116.703 144.031 83.5155 144.031C50.328 144.031 23.4375 117.078 23.4375 83.8594C23.4375 73.3125 26.1407 63.4219 30.9063 54.7969" stroke="white" stroke-width="1.5" stroke-dasharray="3.94 3.94"/>
<path d="M32.281 52.4219C32.7654 51.625 33.2657 50.8594 33.7813 50.0938" stroke="white" stroke-width="1.5"/>
<path d="M59.2497 48.8125C59.531 48.6094 59.8436 48.4062 60.1405 48.2187C66.8436 43.7812 74.8904 41.2188 83.5154 41.2188C107.015 41.2188 126.094 60.2969 126.094 83.8594C126.094 107.422 107.031 126.5 83.5154 126.5C59.9841 126.5 40.9216 107.422 40.9216 83.8594C40.9216 75.2031 43.4997 67.1562 47.9372 60.4375" stroke="white" stroke-width="1.5"/>
<path d="M72.7343 60.625C76 59.0937 79.6561 58.2344 83.5154 58.2344C97.6404 58.2344 109.094 69.7031 109.094 83.8437C109.094 98 97.6248 109.453 83.5154 109.453C69.3748 109.453 57.9219 97.9844 57.9219 83.8437C57.9219 79.9844 58.7657 76.3281 60.3282 73.0469" stroke="white" stroke-width="1.5"/>
<path d="M83.4999 92.7344C88.3905 92.7344 92.3595 88.7656 92.3595 83.8594C92.3595 78.9531 88.3905 74.9844 83.4999 74.9844C78.6093 74.9844 74.6406 78.9531 74.6406 83.8594C74.6562 88.7656 78.6249 92.7344 83.4999 92.7344Z" stroke="white" stroke-width="1.5"/>
<path d="M40.9687 41.2656L41.0782 22.9063L24.6094 6.42188V24.8906L83.5155 83.875" stroke="white" stroke-width="1.5"/>
<path d="M39.125 39.375L41.0782 41.3438L38.3125 41.3906" stroke="white" stroke-width="1.5"/>
<path d="M33.9374 41.4688L27.3906 41.5938" stroke="white" stroke-width="1.5"/>
<path d="M25.2028 41.625L22.4375 41.6719L20.4688 39.7031" stroke="white" stroke-width="1.5"/>
<path d="M16.2966 35.5313L10.031 29.25" stroke="white" stroke-width="1.5"/>
<path d="M7.93752 27.1562L5.96875 25.1875L8.73441 25.1562" stroke="white" stroke-width="1.5"/>
<path d="M13.1404 25.0937L19.7341 25" stroke="white" stroke-width="1.5"/>
<path d="M21.9375 24.9844L24.7032 24.9531L26.6719 26.9219" stroke="white" stroke-width="1.5"/>
<path d="M30.8279 31.0625L37.0466 37.2969" stroke="white" stroke-width="1.5"/>
</svg>
