<svg width="150" height="150" viewBox="0 0 150 150" fill="none" xmlns="http://www.w3.org/2000/svg">
<path d="M132.312 122.812V85.7188" stroke="white" stroke-width="1.5"/>
<path d="M18.1252 122.812V48.875C18.1252 46.0781 20.3909 43.8125 23.2034 43.8125H38.2501" stroke="white" stroke-width="1.5"/>
<path d="M2.10962 123.953C2.10962 132.172 9.62523 138.828 18.8909 138.828H131.547C140.812 138.828 148.328 132.172 148.328 123.953H2.10962Z" stroke="white" stroke-width="1.5"/>
<path d="M67.2345 113.625V64.3593H78.3128C85.0003 64.3593 87.172 60.4219 87.172 55.5H47.3126C43.1408 55.5 36.2344 58.8437 36.2344 68.7812V84.2811C36.2344 89.0468 40.3284 93.1406 45.094 93.1406" stroke="white" stroke-width="1.5"/>
<path d="M45.094 68.7812V113.625" stroke="white" stroke-width="1.5"/>
<path d="M56.172 28.9219H53.9534C50.2815 28.9219 47.3127 31.8906 47.3127 35.5625V42.2031C47.3127 45.875 50.2815 48.8438 53.9534 48.8438H56.172C59.8439 48.8438 62.8126 45.875 62.8126 42.2031V35.5625C62.8126 31.9063 59.8439 28.9219 56.172 28.9219Z" stroke="white" stroke-width="1.5"/>
<path d="M56.1719 86.5V113.625" stroke="white" stroke-width="1.5"/>
<path d="M56.6094 19.7969V11.1719H138.141V76.5781H132.312H76.3905" stroke="white" stroke-width="1.5" stroke-dasharray="3.9 3.9"/>
</svg>
