<svg width="150" height="150" viewBox="0 0 150 150" fill="none" xmlns="http://www.w3.org/2000/svg">
<path d="M93.5938 74.0625L82.0312 63.4375H73.5937C73.5937 63.4375 68.125 67.3438 63.5938 68.75C59.2188 70.3125 54.0625 70 49.2188 65.1563C53.9062 60.3125 58.4375 55.625 58.4375 55.625L67.3437 46.5625C69.0625 45.1562 70.1563 44.8438 72.5 44.8438H87.9687C91.0937 44.8438 97.3438 44.2187 100.469 41.0937L102.5 39.0625" stroke="white" stroke-width="2"/>
<path d="M114.531 95.1563C128.906 82.0313 122.656 78.9063 128.906 72.5L132.5 68.9062" stroke="white" stroke-width="2"/>
<path d="M93.4375 74.0625C93.4375 74.0625 109.687 91.0938 114.375 95.1562C119.062 99.2187 112.656 110 105 104.062C100.469 100.156 85.9375 86.25 85.9375 86.25" stroke="white" stroke-width="2"/>
<path d="M107.344 105.312C105.937 108.594 100.313 116.25 93.2813 110.937C88.75 107.031 79.375 98.2812 79.375 98.2812" stroke="white" stroke-width="2"/>
<path d="M95.9375 112.5C92.6563 119.062 87.0313 121.719 81.875 117.656C78.2813 114.844 72.8125 109.219 72.8125 109.219" stroke="white" stroke-width="2"/>
<path d="M83.5938 118.594C81.7188 123.437 76.0938 126.562 71.5625 123.75C68.9062 122.187 64.5312 119.062 64.5312 119.062" stroke="white" stroke-width="2"/>
<path d="M48.9062 39.375C55.625 46.0938 58.2812 43.2812 64.5312 49.5312" stroke="white" stroke-width="2"/>
<path d="M29.0625 90.7812C21.0938 82.8125 29.2188 77.9688 19.8438 68.5938" stroke="white" stroke-width="2"/>
<path d="M35.4688 92.0313C33.2813 89.6875 29.6875 89.6875 27.3438 91.875L24.0625 95C21.875 97.1875 21.7188 100.781 23.9063 102.969C26.0938 105.313 29.6875 105.313 32.0313 103.125L35.1563 100.156C37.5 97.9688 37.6563 94.375 35.4688 92.0313Z" stroke="white" stroke-width="2"/>
<path d="M48.75 94.8438C46.5625 92.5 42.9688 92.5 40.625 94.6875L31.25 103.75C29.0625 105.938 28.9063 109.531 31.0938 111.719C33.2813 114.063 36.875 114.063 39.2188 111.875L48.4375 102.813C50.7813 100.781 50.9375 97.1875 48.75 94.8438Z" stroke="white" stroke-width="2"/>
<path d="M57.5 102.344C55.3125 100 51.7188 100 49.375 102.188L40.7813 110.469C38.4375 112.656 38.4375 116.25 40.625 118.438C42.8125 120.781 46.4063 120.781 48.75 118.594L57.1875 110.313C59.5313 108.281 59.6875 104.688 57.5 102.344Z" stroke="white" stroke-width="2"/>
<path d="M62.9688 112.812C60.7813 110.625 57.1875 110.469 55 112.656L52.8125 114.844C50.625 117.031 50.4688 120.625 52.6563 122.812C54.8438 125 58.4375 125.156 60.7813 122.969L62.9688 120.937C65.1563 118.594 65.1563 115 62.9688 112.812Z" stroke="white" stroke-width="2"/>
<path d="M106.875 76.875C99.375 78.4375 97.5 76.5625 93.5938 74.0625" stroke="white" stroke-width="2"/>
<path d="M52.0312 36.4062L40.625 25L4.6875 60.9375L16.0938 72.3437L52.0312 36.4062Z" stroke="white" stroke-width="2" stroke-dasharray="3 3"/>
<path d="M135.469 72.0312L146.875 60.625L111.563 25.3125L100.156 36.7187L135.469 72.0312Z" stroke="white" stroke-width="2" stroke-dasharray="3 3"/>
</svg>
