<?xml version="1.0" encoding="UTF-8"?>
<svg id="Layer_1" data-name="Layer 1" xmlns="http://www.w3.org/2000/svg" xmlns:xlink="http://www.w3.org/1999/xlink" viewBox="0 0 85 85">
  <defs>
    <style>
      .cls-1 {
        clip-path: url(#clippath);
      }

      .cls-2 {
        stroke-width: 0px;
      }

      .cls-2, .cls-3 {
        fill: none;
      }

      .cls-3 {
        stroke: #fff;
        stroke-miterlimit: 10;
        stroke-width: 2px;
      }
    </style>
    <clipPath id="clippath">
      <rect class="cls-2" x="2.71" y="9.8" width="78.8" height="65.76"/>
    </clipPath>
  </defs>
  <g class="cls-1">
    <g>
      <path class="cls-3" d="m54.21,39.61l-8.06-7.51h-5.49s-4.01,2.87-7.06,3.92c-3.06,1.05-6.59.84-9.85-2.43,3.2-3.39,6.39-6.62,6.39-6.62l6.19-6.27c1.18-1.01,2.68-1.57,4.23-1.57h9.92c2.13,0,6.48,0,8.64-2.16l8.86-6.67"/>
      <path class="cls-3" d="m68.64,54.18c9.9-9.1,5.58-11.26,9.9-15.59l2.51-2.51"/>
      <path class="cls-3" d="m54.21,39.61s11.2,11.77,14.44,14.57c3.24,2.79-1.22,10.23-6.43,6.13-3.11-2.66-13.1-12.24-13.1-12.24"/>
      <path class="cls-3" d="m63.7,61.19c-.95,2.26-4.8,7.58-9.7,3.87-3.11-2.66-9.57-8.78-9.57-8.78"/>
      <path class="cls-3" d="m55.86,66.11c-2.22,4.5-6.13,6.31-9.66,3.52-2.48-1.95-6.24-5.81-6.24-5.81"/>
      <path class="cls-3" d="m47.36,70.37c-1.34,3.33-5.18,5.49-8.28,3.55-1.79-1.12-4.81-3.28-4.81-3.28"/>
      <path class="cls-3" d="m34.28,22.77c-4.32-4.32-6.19-2.42-10.78-7.03l-4.16-3.7"/>
      <path class="cls-3" d="m9.84,51.11c-5.5-5.51.1-8.83-6.38-15.32"/>
      <path class="cls-3" d="m14.18,52.03l-.02-.02c-1.5-1.56-3.98-1.6-5.53-.09l-2.21,2.12c-1.55,1.51-1.59,3.99-.09,5.55,1.51,1.57,4.01,1.61,5.57.09l2.19-2.1c1.54-1.5,1.59-4,.09-5.55Z"/>
      <path class="cls-3" d="m23.36,54l-.02-.02c-1.5-1.56-3.98-1.6-5.53-.09l-6.42,6.27c-1.55,1.51-1.59,3.99-.09,5.55,1.51,1.57,4.01,1.61,5.57.09l6.39-6.25c1.54-1.5,1.59-4,.09-5.55Z"/>
      <path class="cls-3" d="m29.38,59.14l-.02-.02c-1.49-1.57-3.96-1.63-5.53-.14l-5.88,5.76c-1.56,1.49-1.63,3.98-.14,5.55,1.5,1.58,4,1.64,5.57.14l5.86-5.74c1.56-1.49,1.62-3.98.14-5.55Z"/>
      <path class="cls-3" d="m33.2,66.33l-.02-.02c-1.51-1.55-3.99-1.58-5.53-.06l-1.51,1.47c-1.54,1.52-1.57,4-.06,5.55,1.52,1.56,4.02,1.59,5.57.06l1.49-1.45c1.54-1.51,1.56-4.01.06-5.55Z"/>
      <path class="cls-3" d="m63.4,41.59c-5.14,1.06-6.44-.25-9.19-1.97"/>
    </g>
  </g>
</svg>