<svg width="96" height="96" viewBox="0 0 96 96" fill="none" xmlns="http://www.w3.org/2000/svg">
<path d="M78.5108 48.0045C78.5108 47.9387 78.5108 47.8917 78.5108 47.8259H73.8675L83.4926 33.4917L93.1177 47.8259H88.4649C88.4649 47.8823 88.4649 47.9481 88.4649 48.0045C88.4649 49.8562 88.3427 51.6797 88.0983 53.4657C85.4288 73.2704 68.4721 88.5352 47.9342 88.5352C33.6845 88.5352 21.1456 81.1755 13.9268 70.0558" stroke="white" stroke-width="2" stroke-linecap="square"/>
<path d="M81.8571 25.8125C74.6194 14.7586 62.1275 7.4646 47.9342 7.4646C27.556 7.4646 10.7027 22.4944 7.83586 42.0736C7.56327 43.9159 7.42229 45.7958 7.40349 47.7133H2.88232L12.5074 62.0476L17.9497 53.9452L22.1325 47.7133H17.367" stroke="white" stroke-width="2" stroke-linecap="square"/>
<path d="M17.9497 53.9551V53.9451" stroke="white" stroke-width="2"/>
<path d="M47.9346 78.5719C64.8161 78.5719 78.5112 64.8862 78.5112 48.0046" stroke="white" stroke-width="2" stroke-dasharray="4 4"/>
<path d="M17.3672 47.7134C17.527 30.9541 31.1375 17.4282 47.9344 17.4282" stroke="white" stroke-width="2" stroke-dasharray="4 4"/>
<path d="M36.2036 48.8908L44.6848 58.2537L59.7973 37.7449" stroke="white" stroke-width="2" stroke-linecap="square"/>
</svg>
