<svg width="96" height="96" viewBox="0 0 96 96" fill="none" xmlns="http://www.w3.org/2000/svg">
<path d="M42.0425 81.66C36.57 85.5675 31.645 88.3325 31 88.5C29.4775 88.105 4 73.17 4 63V34.5C11.6175 34.5 28.335 27.68 31 24C33.665 27.68 50.3825 34.5 58 34.5V50.125" stroke="white" stroke-width="2" stroke-linecap="round" stroke-linejoin="round"/>
<path d="M19.8726 39.5575C24.7926 37.9725 29.8276 35.5675 31.0001 34C32.8751 36.51 44.6401 41.1625 50.0001 41.1625V56" stroke="white" stroke-width="2" stroke-linecap="round" stroke-linejoin="round"/>
<path d="M39.995 72.4675C35.6825 75.58 31.5025 77.8725 31 78C29.9275 77.73 12 67.5425 12 60.605V46.165" stroke="white" stroke-width="2" stroke-linecap="round" stroke-linejoin="round"/>
<path d="M70 30V22H78L64 2L50 22H58V26" stroke="white" stroke-width="2" stroke-linecap="round" stroke-linejoin="round" stroke-dasharray="4 4"/>
<path d="M84 74V52H92L78 32L64 52H72V62" stroke="white" stroke-width="2" stroke-linecap="round" stroke-linejoin="round" stroke-dasharray="4 4"/>
<path d="M52 94V76H46L58 58L70 76H64V84" stroke="white" stroke-width="2" stroke-linecap="round" stroke-linejoin="round" stroke-dasharray="4 4"/>
</svg>
