<svg width="96" height="96" viewBox="0 0 96 96" fill="none" xmlns="http://www.w3.org/2000/svg">
<g clip-path="url(#clip0_10437_417858)">
<path d="M57.5359 46.7602L62.7119 43.6322L60.3939 38.0362L54.5219 39.4842L54.4159 39.5282C53.0939 37.6042 51.4459 35.9802 49.5819 34.7002L49.6279 34.5902L51.0759 28.7182L45.4799 26.4002L42.3519 31.5762L42.3059 31.6862C40.0839 31.2742 37.7719 31.2562 35.4739 31.6822L35.4299 31.5742L32.3019 26.3982L26.7059 28.7162L28.1539 34.5882L28.1979 34.6962C26.2739 36.0182 24.6499 37.6662 23.3699 39.5282L23.2599 39.4822L17.3879 38.0342L15.0699 43.6302L20.2459 46.7582L20.3559 46.8042C19.9439 49.0262 19.9259 51.3382 20.3519 53.6362L20.2439 53.6802L15.0679 56.8082L17.3859 62.4042L23.2579 60.9562L23.3659 60.9122C24.6879 62.8362 26.3359 64.4602 28.1979 65.7402L28.1519 65.8502L26.7039 71.7222L32.2999 74.0402L35.4279 68.8642L35.4739 68.7542C37.6959 69.1662 40.0079 69.1842 42.3059 68.7582L42.3499 68.8642L45.4779 74.0402L51.0739 71.7222L49.6259 65.8502L49.5819 65.7442C51.5059 64.4222 53.1299 62.7742 54.4099 60.9122L54.5199 60.9582L60.3919 62.4062L62.7099 56.8102L57.5339 53.6822L57.4239 53.6362C57.8359 51.4142 57.8539 49.1002 57.4279 46.8042L57.5359 46.7602Z" stroke="white" stroke-width="2"/>
<path d="M41.7073 56.9093C45.3964 55.3812 47.1483 51.1518 45.6202 47.4626C44.092 43.7735 39.8626 42.0216 36.1734 43.5497C32.4843 45.0779 30.7324 49.3073 32.2606 52.9965C33.7887 56.6856 38.0181 58.4374 41.7073 56.9093Z" stroke="white" stroke-width="2"/>
<path d="M11.5439 85.0381H69.2899V90.924L79.5339 81.4781L69.2899 72.04V77.9181" stroke="white" stroke-width="2"/>
<path d="M70.0762 55.7741H83.7542V61.6661L94.0002 52.2201L83.7542 42.7761V48.6601" stroke="white" stroke-width="2"/>
<path d="M17.7041 10.9582H62.6401V5.07617L72.8901 14.5202L62.6401 23.9642V18.0742" stroke="white" stroke-width="2"/>
<path d="M0.682129 29.5281H18.6121" stroke="white" stroke-width="2" stroke-dasharray="4 4"/>
<path d="M18.81 72.7502H-2" stroke="white" stroke-width="2" stroke-dasharray="4 4"/>
<path d="M69.29 77.9182H57.686" stroke="white" stroke-width="2" stroke-dasharray="4 4"/>
<path d="M83.7542 48.6602H70.0762" stroke="white" stroke-width="2" stroke-dasharray="4 4"/>
<path d="M62.6398 18.0742H33.0718" stroke="white" stroke-width="2" stroke-dasharray="4 4"/>
</g>
<defs>
<clipPath id="clip0_10437_417858">
<rect width="96" height="96" fill="white"/>
</clipPath>
</defs>
</svg>
