<svg width="144" height="144" viewBox="0 0 144 144" fill="none" xmlns="http://www.w3.org/2000/svg">
<path d="M120.3 71.1992V13.9992C120.3 11.3992 118.2 9.19922 115.5 9.19922H29.8C27.2 9.19922 25 11.2992 25 13.9992V71.1992" stroke="white" stroke-width="2" stroke-miterlimit="10"/>
<path d="M79.7998 42.5996V59.2996" stroke="white" stroke-width="2" stroke-miterlimit="10"/>
<path d="M89.4004 21.1992V59.2992" stroke="white" stroke-width="2" stroke-miterlimit="10"/>
<path d="M108.4 28.2988V59.2988" stroke="white" stroke-width="2" stroke-miterlimit="10"/>
<path d="M98.9004 37.7988V59.1988" stroke="white" stroke-width="2" stroke-miterlimit="10"/>
<path d="M56 23.5V37.8H70.3C70.3 29.9 63.9 23.5 56 23.5Z" stroke="white" stroke-width="2" stroke-miterlimit="10"/>
<path d="M65.5 42.5988C65.5 50.4988 59.1 56.8988 51.2 56.8988C43.3 56.8988 37 50.4988 37 42.5988C37 34.6988 43.4 28.2988 51.3 28.2988" stroke="white" stroke-width="2" stroke-miterlimit="10"/>
<path d="M19.2002 78.6V88L34.4002 90.2C35.4002 94.3 37.0002 98.3 39.2002 101.9L30.0002 114L39.9002 123.9L52.2002 114.7C55.8002 116.9 59.7002 118.5 63.8002 119.5L66.0002 134.7H80.0002L82.2002 119.5C86.3002 118.5 90.3002 116.9 93.9002 114.7L106.1 123.9L116 114L106.8 101.7C109 98.1 110.6 94.2 111.6 90.1L126.8 87.9V78.5" stroke="white" stroke-width="2" stroke-linecap="round" stroke-linejoin="round" stroke-dasharray="4 4"/>
<path d="M95.2996 87.9988C92.2996 97.4988 83.4996 104.399 72.9996 104.399C62.4996 104.399 53.4996 97.3988 50.5996 87.7988" stroke="white" stroke-width="2" stroke-linecap="round" stroke-linejoin="round"/>
<path d="M2 70.8984H142" stroke="white" stroke-width="2"/>
</svg>
