<svg width="96" height="96" viewBox="0 0 96 96" fill="none" xmlns="http://www.w3.org/2000/svg">
<path d="M32.1221 14.2637L47.9995 26.1717" stroke="white" stroke-width="2" stroke-dasharray="4 4"/>
<path d="M32.1221 65.8631L47.9995 53.9551L63.8768 65.8631V81.7405L47.9995 93.6485L32.1221 81.7405V65.8631V65.8631Z" stroke="white" stroke-width="2"/>
<path d="M26.1699 53.9551L37.0652 62.1315" stroke="white" stroke-width="2"/>
<path d="M32.1221 65.8613L47.9995 77.7694L63.8768 65.8613" stroke="white" stroke-width="2" stroke-dasharray="4 4"/>
<path d="M26.1696 61.8937L18.2309 67.8477L2.35352 55.9397V40.0623L18.2309 28.1543L34.1083 40.0623V51.9703" stroke="white" stroke-width="2"/>
<path d="M2.35352 40.0625L18.2309 51.9705L34.1083 40.0625" stroke="white" stroke-width="2" stroke-dasharray="4 4"/>
<path d="M29.1455 36.3507L40.0607 28.1543" stroke="white" stroke-width="2"/>
<path d="M55.9389 36.0918L48.0002 42.0458L40.0615 36.0918" stroke="white" stroke-width="2"/>
<path d="M63.8768 26.1696V14.2615L47.9995 2.35352L32.1221 14.2615V26.1696" stroke="white" stroke-width="2"/>
<path d="M63.8774 14.2637L48 26.1717" stroke="white" stroke-width="2" stroke-dasharray="4 4"/>
<path d="M69.8322 53.9551L58.917 62.1315" stroke="white" stroke-width="2"/>
<path d="M69.8323 61.8937L77.7709 67.8477L93.6483 55.9397V40.0623L77.7709 28.1543L61.8936 40.0623V51.9703" stroke="white" stroke-width="2"/>
<path d="M93.6473 40.0625L77.7699 51.9705L61.8926 40.0625" stroke="white" stroke-width="2" stroke-dasharray="4 4"/>
<path d="M66.8537 36.3507L55.9385 28.1543" stroke="white" stroke-width="2"/>
<path d="M48 26.1699V42.0473" stroke="white" stroke-width="2" stroke-dasharray="4 4"/>
<path d="M18.2314 51.9707V67.8481" stroke="white" stroke-width="2" stroke-dasharray="4 4"/>
<path d="M48 93.6469V77.7695" stroke="white" stroke-width="2" stroke-dasharray="4 4"/>
<path d="M77.7686 51.9707V67.8481" stroke="white" stroke-width="2" stroke-dasharray="4 4"/>
</svg>
