<svg width="86" height="86" viewBox="0 0 86 86" fill="none" xmlns="http://www.w3.org/2000/svg">
<g clip-path="url(#clip0_8428_557066)">
<path d="M56.7746 43.0017C56.7746 41.6185 56.5685 40.2838 56.1905 39.0224L59.5445 37.0856L56.3625 31.5762L53.0031 33.5148C51.1756 31.5762 48.7963 30.1662 46.116 29.5355V25.6602H39.7537V29.5355C37.0716 30.1662 34.6941 31.5762 32.8666 33.5148L29.5072 31.5762L26.3252 37.0856L29.6792 39.0224C29.3012 40.2838 29.0951 41.6185 29.0951 43.0017C29.0951 44.3849 29.3012 45.7197 29.6792 46.981L26.3252 48.9178L29.5072 54.4272L32.8666 52.4886C34.6941 54.4272 37.0734 55.8372 39.7537 56.4679V60.3432H46.116V56.4679C48.7981 55.8372 51.1774 54.4272 53.0031 52.4886L56.3625 54.4272L59.5445 48.9178L56.1905 46.981C56.5703 45.7197 56.7746 44.3849 56.7746 43.0017Z" stroke="white" stroke-width="2"/>
<path d="M42.9371 49.2474C46.3866 49.2474 49.1829 46.451 49.1829 43.0016C49.1829 39.5522 46.3866 36.7559 42.9371 36.7559C39.4877 36.7559 36.6914 39.5522 36.6914 43.0016C36.6914 46.451 39.4877 49.2474 42.9371 49.2474Z" stroke="white" stroke-width="2"/>
<path d="M72.0791 43.0035C72.0791 42.9408 72.0791 42.896 72.0791 42.8333H67.6537L76.827 29.1719L86.0003 42.8333H81.5659C81.5659 42.8871 81.5659 42.9498 81.5659 43.0035C81.5659 44.7683 81.4495 46.5063 81.2166 48.2083C78.6724 67.0835 62.5116 81.6319 42.9376 81.6319C29.3568 81.6319 17.4064 74.6175 10.5264 64.0198" stroke="white" stroke-width="2"/>
<path d="M75.2679 21.8538C68.37 11.3188 56.4644 4.36719 42.9373 4.36719C23.5156 4.36719 7.45335 18.6915 4.72106 37.3517C4.46127 39.1076 4.32687 40.8992 4.30896 42.7267H0L9.17332 56.3882L14.3602 48.6661L18.3466 42.7267H13.8048" stroke="white" stroke-width="2"/>
<path d="M14.3604 48.675V48.666" stroke="white" stroke-width="2"/>
<path d="M42.9375 72.1361C43.5198 72.1361 44.0967 72.1182 44.6701 72.0859" stroke="white" stroke-width="2"/>
<path d="M47.9023 71.7151C60.5461 69.5436 70.411 59.2253 71.8874 46.3594" stroke="white" stroke-width="2" stroke-dasharray="4 4"/>
<path d="M72.0283 44.7365C72.0624 44.1631 72.0785 43.5862 72.0785 43.0039" stroke="white" stroke-width="2"/>
<path d="M13.8047 42.7267C13.8101 42.1444 13.8334 41.5675 13.871 40.9941" stroke="white" stroke-width="2"/>
<path d="M14.2686 37.787C16.5332 25.2543 26.7959 15.5147 39.592 14.0527" stroke="white" stroke-width="2" stroke-dasharray="4 4"/>
<path d="M41.2051 13.9134C41.7784 13.8794 42.3553 13.8633 42.9376 13.8633" stroke="white" stroke-width="2"/>
</g>
<defs>
<clipPath id="clip0_8428_557066">
<rect width="86" height="86" fill="white"/>
</clipPath>
</defs>
</svg>
