<svg width="144" height="144" viewBox="0 0 144 144" fill="none" xmlns="http://www.w3.org/2000/svg">
<path d="M88.2998 70.2L95.9998 65.6L92.5998 57.3L83.8998 59.4L83.6998 59.5C81.6998 56.6 79.2998 54.2 76.4998 52.3L76.5998 52.1L78.6998 43.4L70.3998 40L65.7998 47.7L65.6998 47.9C62.3998 47.3 58.9998 47.3 55.5998 47.9L55.4998 47.7L50.8998 40L42.5998 43.4L44.6998 52.1L44.7998 52.3C41.8998 54.3 39.4998 56.7 37.5998 59.5L37.3998 59.4L28.6998 57.3L25.2998 65.6L32.9998 70.2L33.1998 70.3C32.5998 73.6 32.5998 77 33.1998 80.4H32.9998L25.2998 85L28.6998 93.3L37.3998 91.2L37.5998 91.1C39.5998 94 41.9998 96.4 44.7998 98.3L44.6998 98.5L42.5998 107.2L50.8998 110.6L55.4998 102.9L55.5998 102.7C58.8998 103.3 62.2998 103.3 65.6998 102.7L65.7998 102.9L70.3998 110.6L78.6998 107.2L76.5998 98.5L76.4998 98.3C79.3998 96.3 81.7998 93.9 83.6998 91.1L83.8998 91.2L92.5998 93.3L95.9998 85L88.2998 80.4L88.0998 80.3C88.6998 77 88.6998 73.6 88.0998 70.2H88.2998Z" stroke="white" stroke-width="1.7677"/>
<path d="M64.7995 85.2001C70.2995 82.9001 72.8995 76.7001 70.5995 71.2001C68.2995 65.7001 62.0995 63.1001 56.5995 65.4001C51.0995 67.7001 48.4995 73.9001 50.7995 79.4001C53.0995 84.9001 59.2995 87.5001 64.7995 85.2001Z" stroke="white" stroke-width="1.7677"/>
<path d="M20.0996 126.9H105.7V135.6L120.9 121.6L105.7 107.6V116.3" stroke="white" stroke-width="1.7677"/>
<path d="M106.9 83.5012H127.2V92.2012L142.4 78.2012L127.2 64.2012V73.0012" stroke="white" stroke-width="1.7677"/>
<path d="M29.2002 17.1004H95.8002V8.40039L111 22.4004L95.8002 36.4004V27.7004" stroke="white" stroke-width="1.7677"/>
<path d="M4 44.5996H30.6" stroke="white" stroke-width="1.7677" stroke-dasharray="3.54 3.54"/>
<path d="M30.9 108.701H0" stroke="white" stroke-width="1.7677" stroke-dasharray="3.54 3.54"/>
<path d="M105.7 116.4H88.5" stroke="white" stroke-width="1.7677" stroke-dasharray="3.54 3.54"/>
<path d="M127.1 73H106.8" stroke="white" stroke-width="1.7677" stroke-dasharray="3.54 3.54"/>
<path d="M95.8 27.5996H52" stroke="white" stroke-width="1.7677" stroke-dasharray="3.54 3.54"/>
</svg>
