<svg width="96" height="96" viewBox="0 0 96 96" fill="none" xmlns="http://www.w3.org/2000/svg">
<g clip-path="url(#clip0_8428_557153)">
<path d="M74.9091 79.5527C77.2595 84.6305 79.8103 90.1392 79.8103 90.1392L73.8324 88.5757L71.1791 94.1924C71.1791 94.1924 69.4904 90.5442 67.5918 86.4474" stroke="white" stroke-width="2" stroke-linecap="round" stroke-linejoin="round"/>
<path d="M56.0491 79.5273C53.6955 84.6132 51.1367 90.1396 51.1367 90.1396L57.1146 88.5761L59.7694 94.1928C59.7694 94.1928 62.9691 87.282 65.5054 81.8041" stroke="white" stroke-width="2" stroke-linecap="round" stroke-linejoin="round"/>
<path d="M77.9541 65.9944L76.9239 67.2094C76.3487 67.8871 75.9401 69.1569 76.009 70.0444L76.1324 71.6369C76.2013 72.526 75.5604 73.4135 74.7 73.6216L73.1555 73.9943C72.2951 74.2025 71.2232 74.9867 70.7618 75.7466L69.9334 77.1117C69.472 77.8717 68.4353 78.2105 67.6182 77.8701L66.1506 77.2553C65.3335 76.9132 64.0084 76.9132 63.1913 77.2553L61.7237 77.8701C60.9066 78.2121 59.8699 77.8733 59.4085 77.1117L58.5801 75.7466C58.1187 74.9867 57.0468 74.2009 56.1864 73.9943L54.6419 73.6216C53.7815 73.4135 53.1406 72.526 53.2095 71.6369L53.3329 70.0444C53.4018 69.1553 52.9932 67.8871 52.418 67.2094L51.3894 65.9944C50.8142 65.3167 50.8142 64.2179 51.3894 63.5402L52.418 62.3252C52.9932 61.6475 53.4018 60.3777 53.3329 59.4886L53.2095 57.896C53.1406 57.007 53.7815 56.1195 54.6419 55.9114L56.1864 55.5387C57.0468 55.3305 58.1187 54.5463 58.5801 53.7864L59.4085 52.4229C59.8699 51.6629 60.9066 51.3241 61.7237 51.6645L63.1913 52.2793C64.0084 52.6214 65.3335 52.6214 66.1506 52.2793L67.6182 51.6645C68.4353 51.3225 69.472 51.6613 69.9334 52.4229L70.7618 53.7864C71.2232 54.5463 72.2951 55.3321 73.1555 55.5387L74.7 55.9114C75.5604 56.1195 76.2013 57.007 76.1324 57.896L76.009 59.4886C75.9401 60.3777 76.3487 61.6459 76.9239 62.3236L77.9541 63.5386C78.5293 64.2163 78.5293 65.3151 77.9541 65.9928V65.9944Z" stroke="white" stroke-width="2" stroke-linecap="round" stroke-linejoin="round"/>
<path d="M71.3393 65.0695C71.5072 61.36 68.6573 58.2158 64.9738 58.0467C61.2904 57.8776 58.1682 60.7477 58.0003 64.4572C57.8324 68.1667 60.6823 71.3109 64.3658 71.48C68.0492 71.6491 71.1714 68.779 71.3393 65.0695Z" stroke="white" stroke-width="2" stroke-linecap="round" stroke-linejoin="round"/>
<path d="M49.68 76.9266H8.17285V1.80664H83.8109V49.4625" stroke="white" stroke-width="2" stroke-linecap="round" stroke-linejoin="round"/>
<path d="M72.2357 46.3728V16.1964C67.0679 16.1964 62.8773 12.5707 62.8773 8.09961H26.7607C26.7607 12.5707 22.5701 16.1964 17.4023 16.1964V62.5356C22.5701 62.5356 26.7607 66.1612 26.7607 70.6324H46.7306" stroke="white" stroke-width="2" stroke-linecap="round" stroke-linejoin="round" stroke-dasharray="4 4"/>
<path d="M39.9531 23.4609H52.0322" stroke="white" stroke-width="2" stroke-linecap="round" stroke-linejoin="round"/>
<path d="M31.8223 30.7539H60.1638" stroke="white" stroke-width="2" stroke-linecap="round" stroke-linejoin="round"/>
<path d="M31.8223 38.0469H60.1638" stroke="white" stroke-width="2" stroke-linecap="round" stroke-linejoin="round"/>
<path d="M31.8223 45.3379H48.9756" stroke="white" stroke-width="2" stroke-linecap="round" stroke-linejoin="round"/>
</g>
<defs>
<clipPath id="clip0_8428_557153">
<rect width="94" height="94" fill="white" transform="translate(1 1)"/>
</clipPath>
</defs>
</svg>
