<svg width="144" height="144" viewBox="0 0 144 144" fill="none" xmlns="http://www.w3.org/2000/svg">
<path d="M29.2002 114.799H50.6002" stroke="white" stroke-width="1.9402" stroke-miterlimit="10" stroke-dasharray="3.88 3.88"/>
<path d="M130.1 127V142.3H56.7V32.1996C56.7 27.0996 52.6 22.9996 47.5 22.9996C42.4 22.9996 38.3 27.0996 38.3 32.1996V105.6C38.3 110.7 34.2 114.8 29.1 114.8C24 114.8 19.9 110.7 19.9 105.6V10.7996C19.9 5.69961 15.8 1.59961 10.7 1.59961C5.6 1.59961 1.5 5.69961 1.5 10.7996V26.0996H13.7" stroke="white" stroke-width="1.9402" stroke-miterlimit="10" stroke-dasharray="3.88 3.88"/>
<path d="M47.5 23.0996H120.9C126 23.0996 130.1 27.1996 130.1 32.2996V50.5996" stroke="white" stroke-width="1.9402" stroke-miterlimit="10"/>
<path d="M13.9004 1.69922H81.2004C86.3004 1.69922 90.4004 5.79922 90.4004 10.8992V16.9992" stroke="white" stroke-width="1.9402" stroke-miterlimit="10"/>
<path d="M105.6 114.8C122.5 114.8 136.2 101.1 136.2 84.1996C136.2 67.2996 122.5 53.5996 105.6 53.5996C88.7 53.5996 75 67.2996 75 84.1996C75.1 101.1 88.7 114.8 105.6 114.8Z" stroke="white" stroke-width="1.9402" stroke-linejoin="round"/>
<path d="M124 108.699L142.3 126.999" stroke="white" stroke-width="1.9402" stroke-linejoin="round"/>
<path d="M93.4004 99.4988V90.2988" stroke="white" stroke-width="1.9402" stroke-linejoin="round"/>
<path d="M105.6 99.5004V65.9004" stroke="white" stroke-width="1.9402" stroke-linejoin="round"/>
<path d="M117.9 99.4996V78.0996" stroke="white" stroke-width="1.9402" stroke-linejoin="round"/>
</svg>
