<svg width="96" height="96" viewBox="0 0 96 96" fill="none" xmlns="http://www.w3.org/2000/svg">
<g clip-path="url(#clip0_8428_557102)">
<path d="M33.2454 72.4964L26.0609 69.5206L27.5828 63.351C26.0179 62.1911 24.646 60.8212 23.491 59.2642L17.3254 60.7852L14.3496 53.6016L19.7853 50.3168C19.5013 48.3999 19.5023 46.4601 19.7883 44.5332L14.3496 41.2474L17.3254 34.0628L23.495 35.5847C24.655 34.0208 26.0249 32.6479 27.5818 31.493L26.0609 25.3274L33.2444 22.3516L36.5292 27.7872C38.4461 27.5022 40.385 27.5042 42.3129 27.7902L45.5987 22.3516L52.7832 25.3274L51.2613 31.497C52.8262 32.6569 54.1981 34.0278 55.353 35.5837L61.5187 34.0628L64.4945 41.2474L59.0598 44.5312C59.3438 46.4491 59.3428 48.3889 59.0558 50.3148L64.4945 53.6016L61.5187 60.7852L55.349 59.2633C54.1891 60.8272 52.8192 62.2001 51.2623 63.355L52.7832 69.5206L45.5987 72.4964L42.3149 67.0608C40.398 67.3457 38.4591 67.3438 36.5312 67.0578L33.2454 72.4964ZM43.7768 65.6139L46.4216 69.9906L50.4294 68.3307L49.1884 63.327L48.8814 62.58L49.5474 62.1221C51.3393 60.8902 52.8772 59.3502 54.1171 57.5474L54.5741 56.8824L55.363 57.2054L60.3287 58.4303L61.9886 54.4226L57.5719 51.7617L56.824 51.4517L56.9709 50.6558C57.3699 48.5049 57.3709 46.3291 56.9749 44.1892L56.828 43.3942L57.6119 43.0683L61.9876 40.4234L60.3277 36.4157L55.324 37.6566L54.5771 37.9636L54.1191 37.2976C52.8882 35.5057 51.3483 33.9678 49.5444 32.7279L48.8775 32.2689L49.2044 31.48L50.4294 26.5163L46.4216 24.8564L43.7598 29.2731L43.4498 30.0211L42.6538 29.8741C40.501 29.4751 38.3261 29.4741 36.1872 29.8711L35.3913 30.0181L35.0663 29.2321L32.4225 24.8574L28.4147 26.5173L29.6557 31.521L29.9626 32.2679L29.2967 32.7259C27.5048 33.9578 25.9669 35.4977 24.727 37.3006L24.27 37.9656L23.481 37.6426L18.5153 36.4167L16.8555 40.4244L21.2722 43.0863L22.0201 43.3962L21.8731 44.1922C21.4742 46.3451 21.4732 48.5209 21.8701 50.6588L22.0171 51.4547L21.2312 51.7797L16.8565 54.4235L18.5163 58.4313L23.522 57.1894L24.268 56.8844L24.725 57.5494C25.9569 59.3412 27.4958 60.8791 29.2997 62.1191L29.9666 62.578L29.6397 63.367L28.4147 68.3307L32.4225 69.9906L35.0843 65.5729L35.3953 64.8259L36.1902 64.9729C38.3431 65.3719 40.519 65.3729 42.6568 64.9759L43.4518 64.8289L43.7768 65.6139Z" fill="white"/>
<path d="M39.4326 55.6541C36.2018 55.6541 33.131 53.7392 31.8191 50.5744C30.0822 46.3826 32.0801 41.5589 36.2728 39.822C40.4656 38.0851 45.2883 40.083 47.0242 44.2758C48.76 48.4675 46.7622 53.2912 42.5704 55.0281C41.5445 55.4531 40.4796 55.6541 39.4326 55.6541ZM39.4136 41.196C38.6207 41.196 37.8147 41.3479 37.0388 41.6699C35.5009 42.3069 34.304 43.5038 33.667 45.0417C33.03 46.5796 33.03 48.2725 33.667 49.8094C34.9819 52.9832 38.6347 54.4951 41.8055 53.1812C44.9783 51.8663 46.4912 48.2155 45.1773 45.0417C44.1833 42.6449 41.8585 41.196 39.4136 41.196Z" fill="white"/>
<path d="M68.8166 90.4055V83.2399H11.0742V81.2401H70.8165V85.8418L78.586 78.6792L70.8165 71.5217V76.1194H68.8166V66.9609L81.5368 78.6792L68.8166 90.4055Z" fill="white"/>
<path d="M83.2806 61.1498V53.9773H69.6045V51.9774H85.2805V56.5861L93.05 49.4235L85.2805 42.261V46.8637H83.2806V37.6973L96.0008 49.4235L83.2806 61.1498Z" fill="white"/>
<path d="M62.1676 23.4495V14.2801H64.1674V18.8868L71.941 11.7253L64.1674 4.56272V9.16242H17.2344V7.16255H62.1676V0L74.8928 11.7253L62.1676 23.4495Z" fill="white"/>
<path d="M19.1427 27.7303H16.6869V25.7305H19.1427V27.7303ZM12.8181 27.7303H8.95038V25.7305H12.8181V27.7303ZM5.08163 27.7303H1.21387V25.7305H5.08163V27.7303V27.7303Z" fill="white"/>
<path d="M19.3418 70.951H15.474V68.9512H19.3418V70.951ZM11.6053 70.951H7.73749V68.9512H11.6053V70.951ZM3.86874 70.951H0.000976562V68.9512H3.86874V70.951Z" fill="white"/>
<path d="M69.8169 76.1191H65.9489V74.1191H69.8169V76.1191ZM62.0799 76.1191H58.2139V74.1191H62.0799V76.1191Z" fill="white"/>
<path d="M84.2818 46.8633H80.4138V44.8633H84.2818V46.8633ZM76.5448 46.8633H72.6768V44.8633H76.5448V46.8633Z" fill="white"/>
<path d="M63.1671 16.2792H59.2994V14.2793H63.1671V16.2792ZM55.4316 16.2792H51.5639V14.2793H55.4316V16.2792ZM47.6951 16.2792H43.8273V14.2793H47.6951V16.2792ZM39.9586 16.2792H36.0908V14.2793H39.9586V16.2792Z" fill="white"/>
</g>
<defs>
<clipPath id="clip0_8428_557102">
<rect width="96" height="96" fill="white"/>
</clipPath>
</defs>
</svg>
