<svg width="96" height="96" viewBox="0 0 96 96" fill="none" xmlns="http://www.w3.org/2000/svg">
<path d="M84.1553 77.1784V53.6895" stroke="white" stroke-width="2"/>
<path d="M11.8467 77.1784V30.3548C11.8467 28.5799 13.284 27.1426 15.0589 27.1426H24.5895" stroke="white" stroke-width="2"/>
<path d="M1.69824 77.9023C1.69824 83.1037 6.45782 87.3201 12.3277 87.3201H83.6733C89.5441 87.3201 94.3027 83.1037 94.3027 77.9023H1.69824V77.9023Z" stroke="white" stroke-width="2"/>
<path d="M42.9486 71.3585V40.1563H49.9606C54.1964 40.1563 55.5701 37.6598 55.5701 34.5469H30.3263C27.69 34.5469 23.3145 36.6643 23.3145 42.9615V52.7786C23.3145 55.7941 25.9083 58.388 28.9238 58.388" stroke="white" stroke-width="2"/>
<path d="M28.9248 42.9629V71.3599" stroke="white" stroke-width="2"/>
<path d="M35.9366 17.7188H34.534C32.2102 17.7188 30.3271 19.6027 30.3271 21.9255V26.1323C30.3271 28.4561 32.2112 30.3391 34.534 30.3391H35.9366C38.2604 30.3391 40.1433 28.4552 40.1433 26.1323V21.9255C40.1433 19.6027 38.2604 17.7188 35.9366 17.7188Z" stroke="white" stroke-width="2"/>
<path d="M35.9365 54.1836V71.3609" stroke="white" stroke-width="2"/>
<path d="M36.2129 11.9403V6.48047H87.8501V47.9021H84.1554H48.7339" stroke="white" stroke-width="2" stroke-dasharray="4 4"/>
</svg>
