<svg width="144" height="144" viewBox="0 0 144 144" fill="none" xmlns="http://www.w3.org/2000/svg">
<g clip-path="url(#clip0_7812_542134)">
<path d="M20.646 2.52148H2.521V20.6465H20.646V2.52148Z" stroke="white" stroke-width="2" stroke-linecap="round" stroke-linejoin="round"/>
<path d="M20.646 123.354H2.521V141.479H20.646V123.354Z" stroke="white" stroke-width="2" stroke-linecap="round" stroke-linejoin="round"/>
<path d="M141.479 2.52148H123.354V20.6465H141.479V2.52148Z" stroke="white" stroke-width="2" stroke-linecap="round" stroke-linejoin="round"/>
<path d="M141.479 123.354H123.354V141.479H141.479V123.354Z" stroke="white" stroke-width="2" stroke-linecap="round" stroke-linejoin="round"/>
<path d="M102.208 93.387L71.9998 106.226L41.7915 93.387V50.612L71.9998 37.7734L102.208 50.612V93.387Z" stroke="white" stroke-width="2" stroke-linecap="round" stroke-linejoin="round"/>
<path d="M102.208 50.6113L71.9998 63.4499L41.7915 50.6113" stroke="white" stroke-width="2" stroke-linecap="round" stroke-linejoin="round"/>
<path d="M53.8748 14.6042C55.5432 14.6042 56.8957 13.2517 56.8957 11.5833C56.8957 9.91497 55.5432 8.5625 53.8748 8.5625C52.2065 8.5625 50.854 9.91497 50.854 11.5833C50.854 13.2517 52.2065 14.6042 53.8748 14.6042Z" fill="white"/>
<path d="M41.7918 14.6042C43.4602 14.6042 44.8127 13.2517 44.8127 11.5833C44.8127 9.91497 43.4602 8.5625 41.7918 8.5625C40.1235 8.5625 38.771 9.91497 38.771 11.5833C38.771 13.2517 40.1235 14.6042 41.7918 14.6042Z" fill="white"/>
<path d="M29.7083 14.6042C31.3767 14.6042 32.7292 13.2517 32.7292 11.5833C32.7292 9.91497 31.3767 8.5625 29.7083 8.5625C28.04 8.5625 26.6875 9.91497 26.6875 11.5833C26.6875 13.2517 28.04 14.6042 29.7083 14.6042Z" fill="white"/>
<path d="M90.1248 14.6042C91.7932 14.6042 93.1457 13.2517 93.1457 11.5833C93.1457 9.91497 91.7932 8.5625 90.1248 8.5625C88.4565 8.5625 87.104 9.91497 87.104 11.5833C87.104 13.2517 88.4565 14.6042 90.1248 14.6042Z" fill="white"/>
<path d="M114.292 14.6042C115.96 14.6042 117.313 13.2517 117.313 11.5833C117.313 9.91497 115.96 8.5625 114.292 8.5625C112.623 8.5625 111.271 9.91497 111.271 11.5833C111.271 13.2517 112.623 14.6042 114.292 14.6042Z" fill="white"/>
<path d="M102.208 14.6042C103.877 14.6042 105.229 13.2517 105.229 11.5833C105.229 9.91497 103.877 8.5625 102.208 8.5625C100.54 8.5625 99.1875 9.91497 99.1875 11.5833C99.1875 13.2517 100.54 14.6042 102.208 14.6042Z" fill="white"/>
<path d="M53.8748 135.438C55.5432 135.438 56.8957 134.086 56.8957 132.417C56.8957 130.749 55.5432 129.396 53.8748 129.396C52.2065 129.396 50.854 130.749 50.854 132.417C50.854 134.086 52.2065 135.438 53.8748 135.438Z" fill="white"/>
<path d="M41.7918 135.438C43.4602 135.438 44.8127 134.086 44.8127 132.417C44.8127 130.749 43.4602 129.396 41.7918 129.396C40.1235 129.396 38.771 130.749 38.771 132.417C38.771 134.086 40.1235 135.438 41.7918 135.438Z" fill="white"/>
<path d="M29.7083 135.438C31.3767 135.438 32.7292 134.086 32.7292 132.417C32.7292 130.749 31.3767 129.396 29.7083 129.396C28.04 129.396 26.6875 130.749 26.6875 132.417C26.6875 134.086 28.04 135.438 29.7083 135.438Z" fill="white"/>
<path d="M90.1248 135.438C91.7932 135.438 93.1457 134.086 93.1457 132.417C93.1457 130.749 91.7932 129.396 90.1248 129.396C88.4565 129.396 87.104 130.749 87.104 132.417C87.104 134.086 88.4565 135.438 90.1248 135.438Z" fill="white"/>
<path d="M114.292 135.438C115.96 135.438 117.313 134.086 117.313 132.417C117.313 130.749 115.96 129.396 114.292 129.396C112.623 129.396 111.271 130.749 111.271 132.417C111.271 134.086 112.623 135.438 114.292 135.438Z" fill="white"/>
<path d="M102.208 135.438C103.877 135.438 105.229 134.086 105.229 132.417C105.229 130.749 103.877 129.396 102.208 129.396C100.54 129.396 99.1875 130.749 99.1875 132.417C99.1875 134.086 100.54 135.438 102.208 135.438Z" fill="white"/>
<path d="M132.417 56.8952C134.085 56.8952 135.438 55.5427 135.438 53.8743C135.438 52.206 134.085 50.8535 132.417 50.8535C130.748 50.8535 129.396 52.206 129.396 53.8743C129.396 55.5427 130.748 56.8952 132.417 56.8952Z" fill="white"/>
<path d="M132.417 44.8132C134.085 44.8132 135.438 43.4607 135.438 41.7923C135.438 40.124 134.085 38.7715 132.417 38.7715C130.748 38.7715 129.396 40.124 129.396 41.7923C129.396 43.4607 130.748 44.8132 132.417 44.8132Z" fill="white"/>
<path d="M132.417 32.7292C134.085 32.7292 135.438 31.3767 135.438 29.7083C135.438 28.04 134.085 26.6875 132.417 26.6875C130.748 26.6875 129.396 28.04 129.396 29.7083C129.396 31.3767 130.748 32.7292 132.417 32.7292Z" fill="white"/>
<path d="M132.417 93.1452C134.085 93.1452 135.438 91.7927 135.438 90.1243C135.438 88.456 134.085 87.1035 132.417 87.1035C130.748 87.1035 129.396 88.456 129.396 90.1243C129.396 91.7927 130.748 93.1452 132.417 93.1452Z" fill="white"/>
<path d="M132.417 117.313C134.085 117.313 135.438 115.961 135.438 114.292C135.438 112.624 134.085 111.271 132.417 111.271C130.748 111.271 129.396 112.624 129.396 114.292C129.396 115.961 130.748 117.313 132.417 117.313Z" fill="white"/>
<path d="M132.417 105.229C134.085 105.229 135.438 103.877 135.438 102.208C135.438 100.54 134.085 99.1875 132.417 99.1875C130.748 99.1875 129.396 100.54 129.396 102.208C129.396 103.877 130.748 105.229 132.417 105.229Z" fill="white"/>
<path d="M11.5833 56.8952C13.2517 56.8952 14.6042 55.5427 14.6042 53.8743C14.6042 52.206 13.2517 50.8535 11.5833 50.8535C9.91497 50.8535 8.5625 52.206 8.5625 53.8743C8.5625 55.5427 9.91497 56.8952 11.5833 56.8952Z" fill="white"/>
<path d="M11.5833 44.8132C13.2517 44.8132 14.6042 43.4607 14.6042 41.7923C14.6042 40.124 13.2517 38.7715 11.5833 38.7715C9.91497 38.7715 8.5625 40.124 8.5625 41.7923C8.5625 43.4607 9.91497 44.8132 11.5833 44.8132Z" fill="white"/>
<path d="M11.5833 32.7292C13.2517 32.7292 14.6042 31.3767 14.6042 29.7083C14.6042 28.04 13.2517 26.6875 11.5833 26.6875C9.91497 26.6875 8.5625 28.04 8.5625 29.7083C8.5625 31.3767 9.91497 32.7292 11.5833 32.7292Z" fill="white"/>
<path d="M11.5833 93.1452C13.2517 93.1452 14.6042 91.7927 14.6042 90.1243C14.6042 88.456 13.2517 87.1035 11.5833 87.1035C9.91497 87.1035 8.5625 88.456 8.5625 90.1243C8.5625 91.7927 9.91497 93.1452 11.5833 93.1452Z" fill="white"/>
<path d="M11.5833 117.313C13.2517 117.313 14.6042 115.961 14.6042 114.292C14.6042 112.624 13.2517 111.271 11.5833 111.271C9.91497 111.271 8.5625 112.624 8.5625 114.292C8.5625 115.961 9.91497 117.313 11.5833 117.313Z" fill="white"/>
<path d="M11.5833 105.229C13.2517 105.229 14.6042 103.877 14.6042 102.208C14.6042 100.54 13.2517 99.1875 11.5833 99.1875C9.91497 99.1875 8.5625 100.54 8.5625 102.208C8.5625 103.877 9.91497 105.229 11.5833 105.229Z" fill="white"/>
<path d="M29.7083 75.0202C31.3767 75.0202 32.7292 73.6677 32.7292 71.9993C32.7292 70.331 31.3767 68.9785 29.7083 68.9785C28.04 68.9785 26.6875 70.331 26.6875 71.9993C26.6875 73.6677 28.04 75.0202 29.7083 75.0202Z" fill="white"/>
<path d="M114.292 75.0202C115.96 75.0202 117.313 73.6677 117.313 71.9993C117.313 70.331 115.96 68.9785 114.292 68.9785C112.623 68.9785 111.271 70.331 111.271 71.9993C111.271 73.6677 112.623 75.0202 114.292 75.0202Z" fill="white"/>
<path d="M71.9998 29.7077C73.6682 29.7077 75.0207 28.3552 75.0207 26.6868C75.0207 25.0185 73.6682 23.666 71.9998 23.666C70.3315 23.666 68.979 25.0185 68.979 26.6868C68.979 28.3552 70.3315 29.7077 71.9998 29.7077Z" fill="white"/>
<path d="M71.9998 120.333C73.6682 120.333 75.0207 118.98 75.0207 117.312C75.0207 115.643 73.6682 114.291 71.9998 114.291C70.3315 114.291 68.979 115.643 68.979 117.312C68.979 118.98 70.3315 120.333 71.9998 120.333Z" fill="white"/>
<path d="M72.0002 17.6243C75.3369 17.6243 78.0418 14.9194 78.0418 11.5827C78.0418 8.24596 75.3369 5.54102 72.0002 5.54102C68.6634 5.54102 65.9585 8.24596 65.9585 11.5827C65.9585 14.9194 68.6634 17.6243 72.0002 17.6243Z" stroke="white" stroke-width="2" stroke-linecap="round" stroke-linejoin="round"/>
<path d="M72.0002 138.458C75.3369 138.458 78.0418 135.753 78.0418 132.417C78.0418 129.08 75.3369 126.375 72.0002 126.375C68.6634 126.375 65.9585 129.08 65.9585 132.417C65.9585 135.753 68.6634 138.458 72.0002 138.458Z" stroke="white" stroke-width="2" stroke-linecap="round" stroke-linejoin="round"/>
<path d="M132.417 78.0423C135.753 78.0423 138.458 75.3374 138.458 72.0007C138.458 68.6639 135.753 65.959 132.417 65.959C129.08 65.959 126.375 68.6639 126.375 72.0007C126.375 75.3374 129.08 78.0423 132.417 78.0423Z" stroke="white" stroke-width="2" stroke-linecap="round" stroke-linejoin="round"/>
<path d="M11.5832 78.0423C14.9199 78.0423 17.6248 75.3374 17.6248 72.0007C17.6248 68.6639 14.9199 65.959 11.5832 65.959C8.24645 65.959 5.5415 68.6639 5.5415 72.0007C5.5415 75.3374 8.24645 78.0423 11.5832 78.0423Z" stroke="white" stroke-width="2" stroke-linecap="round" stroke-linejoin="round"/>
</g>
<defs>
<clipPath id="clip0_7812_542134">
<rect width="144" height="144" fill="white"/>
</clipPath>
</defs>
</svg>
