<svg width="144" height="144" viewBox="0 0 144 144" fill="none" xmlns="http://www.w3.org/2000/svg">
<g clip-path="url(#clip0_7812_542135)">
<path d="M85.3045 70.1406L93.0685 65.4486L89.5915 57.0546L80.7835 59.2266L80.6245 59.2926C78.6415 56.4066 76.1695 53.9706 73.3735 52.0506L73.4425 51.8857L75.6145 43.0777L67.2205 39.6007L62.5285 47.3647L62.4595 47.5296C59.1265 46.9116 55.6585 46.8846 52.2115 47.5236L52.1455 47.3616L47.4535 39.5977L39.0595 43.0747L41.2315 51.8826L41.2975 52.0447C38.4115 54.0276 35.9755 56.4996 34.0555 59.2926L33.8905 59.2237L25.0825 57.0517L21.6055 65.4456L29.3695 70.1377L29.5345 70.2066C28.9165 73.5396 28.8895 77.0076 29.5285 80.4546L29.3665 80.5206L21.6025 85.2126L25.0795 93.6066L33.8875 91.4346L34.0495 91.3686C36.0325 94.2546 38.5045 96.6906 41.2975 98.6106L41.2285 98.7756L39.0565 107.584L47.4505 111.061L52.1425 103.297L52.2115 103.132C55.5445 103.75 59.0125 103.777 62.4595 103.138L62.5255 103.297L67.2175 111.061L75.6115 107.584L73.4395 98.7756L73.3735 98.6166C76.2595 96.6336 78.6955 94.1616 80.6155 91.3686L80.7805 91.4376L89.5885 93.6096L93.0655 85.2156L85.3015 80.5236L85.1365 80.4546C85.7545 77.1216 85.7815 73.6506 85.1425 70.2066L85.3045 70.1406Z" stroke="white" stroke-width="2"/>
<path d="M61.5616 85.3636C67.0954 83.0714 69.7231 76.7273 67.431 71.1936C65.1388 65.6598 58.7946 63.032 53.2609 65.3242C47.7272 67.6164 45.0994 73.9606 47.3916 79.4943C49.6838 85.028 56.0279 87.6558 61.5616 85.3636Z" stroke="white" stroke-width="2"/>
<path d="M16.3159 127.558H102.935V136.387L118.301 122.218L102.935 108.061V116.878" stroke="white" stroke-width="2"/>
<path d="M104.114 83.661H124.631V92.499L140 78.3301L124.631 64.1641V72.9901" stroke="white" stroke-width="2"/>
<path d="M25.5562 16.4382H92.9601V7.61523L108.335 21.7812L92.9601 35.9472V27.1122" stroke="white" stroke-width="2"/>
<path d="M0.0224609 44.293H26.9174" stroke="white" stroke-width="2" stroke-dasharray="4 4"/>
<path d="M27.215 109.125H-4" stroke="white" stroke-width="2" stroke-dasharray="4 4"/>
<path d="M102.934 116.879H85.5283" stroke="white" stroke-width="2" stroke-dasharray="4 4"/>
<path d="M124.631 72.9922H104.114" stroke="white" stroke-width="2" stroke-dasharray="4 4"/>
<path d="M92.9603 27.1113H48.6084" stroke="white" stroke-width="2" stroke-dasharray="4 4"/>
</g>
<defs>
<clipPath id="clip0_7812_542135">
<rect width="144" height="144" fill="white"/>
</clipPath>
</defs>
</svg>
