<svg width="468" height="534" viewBox="0 0 468 534" fill="none" xmlns="http://www.w3.org/2000/svg">
<g opacity="0.8">
<path d="M228.047 399.105C331.635 399.105 415.609 314.741 415.609 210.672C415.609 106.603 331.635 22.2383 228.047 22.2383C124.459 22.2383 40.4844 106.603 40.4844 210.672C40.4844 314.741 124.459 399.105 228.047 399.105Z" fill="url(#paint0_linear_1419_185252)"/>
<path d="M228.046 421.339C199.739 421.339 172.278 415.768 146.42 404.781C121.451 394.17 99.0241 378.98 79.7649 359.637C60.5058 340.294 45.3862 317.762 34.8288 292.672C23.8926 266.699 18.3477 239.111 18.3477 210.667C18.3477 182.223 23.8926 154.64 34.8288 128.661C45.3917 103.577 60.5113 81.0456 79.7649 61.6971C99.0241 42.3485 121.445 27.1586 146.42 16.5522C172.278 5.57072 199.739 0 228.046 0C256.353 0 283.814 5.57072 309.672 16.5577C334.641 27.1697 357.068 42.3595 376.327 61.7026C395.586 81.0512 410.706 103.577 421.263 128.667C432.199 154.64 437.744 182.229 437.744 210.672C437.744 239.116 432.199 266.699 421.263 292.678C410.7 317.762 395.581 340.294 376.327 359.642C357.068 378.991 334.646 394.181 309.672 404.787C283.819 415.774 256.358 421.345 228.046 421.345V421.339ZM228.046 5.54865C115.467 5.54865 23.8761 97.5647 23.8761 210.672C23.8761 323.78 115.467 415.796 228.051 415.796C340.636 415.796 432.227 323.78 432.227 210.672C432.227 97.5647 340.625 5.54865 228.046 5.54865Z" fill="url(#paint1_linear_1419_185252)"/>
<path d="M228.044 421.339C172.035 421.339 119.374 399.426 79.7688 359.637C40.1636 319.847 18.3516 266.942 18.3516 210.672C18.3516 154.403 40.1581 101.492 79.7688 61.7026C119.374 21.9133 172.035 0 228.044 0C284.054 0 336.715 21.9133 376.32 61.7026C415.925 101.492 437.737 154.397 437.737 210.667C437.737 266.937 415.925 319.842 376.32 359.631C336.715 399.42 284.054 421.334 228.044 421.334V421.339ZM228.044 5.54865C115.465 5.54865 23.8746 97.5647 23.8746 210.672C23.8746 323.78 115.465 415.796 228.05 415.796C340.634 415.796 432.225 323.78 432.225 210.672C432.225 97.5647 340.623 5.54865 228.044 5.54865Z" fill="url(#paint2_linear_1419_185252)"/>
<path style="mix-blend-mode:screen" d="M234.003 534C363.239 534 468.005 521.377 468.005 505.805C468.005 490.233 363.239 477.609 234.003 477.609C104.767 477.609 0 490.233 0 505.805C0 521.377 104.767 534 234.003 534Z" fill="url(#paint3_radial_1419_185252)"/>
</g>
<defs>
<linearGradient id="paint0_linear_1419_185252" x1="330.31" y1="52.6787" x2="124.449" y2="367.788" gradientUnits="userSpaceOnUse">
<stop stop-color="#8E2DE2"/>
<stop offset="1" stop-color="#4A00E0"/>
</linearGradient>
<linearGradient id="paint1_linear_1419_185252" x1="18.3477" y1="210.672" x2="437.744" y2="210.672" gradientUnits="userSpaceOnUse">
<stop stop-color="#5815F3"/>
<stop offset="1" stop-color="#E453F5"/>
</linearGradient>
<linearGradient id="paint2_linear_1419_185252" x1="18.3461" y1="210.672" x2="437.743" y2="210.672" gradientUnits="userSpaceOnUse">
<stop stop-color="#5815F3"/>
<stop offset="1" stop-color="#E453F5"/>
</linearGradient>
<radialGradient id="paint3_radial_1419_185252" cx="0" cy="0" r="1" gradientUnits="userSpaceOnUse" gradientTransform="translate(234.003 509.063) scale(230.648 25.4892)">
<stop stop-color="#4424F1"/>
<stop offset="0.13" stop-color="#361DC2"/>
<stop offset="0.3" stop-color="#261487"/>
<stop offset="0.47" stop-color="#180D57"/>
<stop offset="0.63" stop-color="#0D0731"/>
<stop offset="0.77" stop-color="#060316"/>
<stop offset="0.9" stop-color="#010005"/>
<stop offset="1"/>
</radialGradient>
</defs>
</svg>
