<svg width="115" height="30" viewBox="0 0 115 30" fill="none" xmlns="http://www.w3.org/2000/svg">
<path d="M25.7881 11.626C24.9906 11.626 24.373 11.9268 23.9355 12.5283C23.498 13.1253 23.2793 13.9593 23.2793 15.0303C23.2793 17.2588 24.1156 18.373 25.7881 18.373C26.4899 18.373 27.3398 18.1976 28.3379 17.8467V19.624C27.5176 19.9658 26.6016 20.1367 25.5898 20.1367C24.1361 20.1367 23.0241 19.6969 22.2539 18.8174C21.4837 17.9333 21.0986 16.6663 21.0986 15.0166C21.0986 13.9775 21.2878 13.0684 21.666 12.2891C22.0443 11.5052 22.5866 10.9059 23.293 10.4912C24.0039 10.0719 24.8356 9.8623 25.7881 9.8623C26.7588 9.8623 27.734 10.097 28.7139 10.5664L28.0303 12.2891C27.6566 12.1113 27.2806 11.9564 26.9023 11.8242C26.5241 11.6921 26.1527 11.626 25.7881 11.626ZM31.9678 16.165C31.9678 16.9215 32.0908 17.4935 32.3369 17.8809C32.5876 18.2682 32.9932 18.4619 33.5537 18.4619C34.1097 18.4619 34.5085 18.2705 34.75 17.8877C34.9961 17.5003 35.1191 16.9261 35.1191 16.165C35.1191 15.4085 34.9961 14.8411 34.75 14.4629C34.5039 14.0846 34.1006 13.8955 33.54 13.8955C32.984 13.8955 32.583 14.0846 32.3369 14.4629C32.0908 14.8366 31.9678 15.404 31.9678 16.165ZM37.252 16.165C37.252 17.4092 36.9238 18.3822 36.2676 19.084C35.6113 19.7858 34.6976 20.1367 33.5264 20.1367C32.7926 20.1367 32.1455 19.9772 31.585 19.6582C31.0244 19.3346 30.5938 18.8721 30.293 18.2705C29.9922 17.6689 29.8418 16.9671 29.8418 16.165C29.8418 14.9163 30.1676 13.9456 30.8193 13.2529C31.471 12.5602 32.387 12.2139 33.5674 12.2139C34.3011 12.2139 34.9482 12.3734 35.5088 12.6924C36.0693 13.0114 36.5 13.4694 36.8008 14.0664C37.1016 14.6634 37.252 15.363 37.252 16.165ZM46.0293 20H43.9443V15.5361C43.9443 14.9847 43.8464 14.5723 43.6504 14.2988C43.4544 14.0208 43.1423 13.8818 42.7139 13.8818C42.1305 13.8818 41.709 14.0778 41.4492 14.4697C41.1895 14.8571 41.0596 15.502 41.0596 16.4043V20H38.9746V12.3574H40.5674L40.8477 13.335H40.9639C41.1963 12.9658 41.5153 12.6878 41.9209 12.501C42.3311 12.3096 42.7959 12.2139 43.3154 12.2139C44.2041 12.2139 44.8786 12.4554 45.3389 12.9385C45.7992 13.417 46.0293 14.1097 46.0293 15.0166V20ZM51.3955 18.4756C51.7601 18.4756 52.1976 18.3958 52.708 18.2363V19.7881C52.1885 20.0205 51.5505 20.1367 50.7939 20.1367C49.96 20.1367 49.3516 19.9271 48.9688 19.5078C48.5905 19.084 48.4014 18.4505 48.4014 17.6074V13.9229H47.4033V13.041L48.5518 12.3438L49.1533 10.7305H50.4863V12.3574H52.626V13.9229H50.4863V17.6074C50.4863 17.9036 50.5684 18.1224 50.7324 18.2637C50.901 18.4049 51.1221 18.4756 51.3955 18.4756ZM59.1133 20L58.71 18.9609H58.6553C58.3044 19.403 57.9421 19.7106 57.5684 19.8838C57.1992 20.0524 56.7161 20.1367 56.1191 20.1367C55.3854 20.1367 54.8066 19.9271 54.3828 19.5078C53.9635 19.0885 53.7539 18.4915 53.7539 17.7168C53.7539 16.9056 54.0365 16.3086 54.6016 15.9258C55.1712 15.5384 56.028 15.3242 57.1719 15.2832L58.498 15.2422V14.9072C58.498 14.1325 58.1016 13.7451 57.3086 13.7451C56.6979 13.7451 55.9801 13.9297 55.1553 14.2988L54.4648 12.8906C55.3444 12.4303 56.3197 12.2002 57.3906 12.2002C58.416 12.2002 59.2021 12.4235 59.749 12.8701C60.2959 13.3167 60.5693 13.9958 60.5693 14.9072V20H59.1133ZM58.498 16.459L57.6914 16.4863C57.0853 16.5046 56.6341 16.6139 56.3379 16.8145C56.0417 17.015 55.8936 17.3203 55.8936 17.7305C55.8936 18.3184 56.2308 18.6123 56.9053 18.6123C57.3883 18.6123 57.7734 18.4733 58.0605 18.1953C58.3522 17.9173 58.498 17.5482 58.498 17.0879V16.459ZM65.8262 20.1367C63.4473 20.1367 62.2578 18.8311 62.2578 16.2197C62.2578 14.9209 62.5814 13.9297 63.2285 13.2461C63.8757 12.5579 64.8031 12.2139 66.0107 12.2139C66.8949 12.2139 67.6878 12.387 68.3896 12.7334L67.7744 14.3467C67.4463 14.2145 67.141 14.1074 66.8584 14.0254C66.5758 13.9388 66.2933 13.8955 66.0107 13.8955C64.9261 13.8955 64.3838 14.6657 64.3838 16.2061C64.3838 17.7008 64.9261 18.4482 66.0107 18.4482C66.4118 18.4482 66.7832 18.3958 67.125 18.291C67.4668 18.1816 67.8086 18.013 68.1504 17.7852V19.5693C67.8132 19.7835 67.4714 19.9316 67.125 20.0137C66.7832 20.0957 66.3503 20.1367 65.8262 20.1367ZM73.1475 18.4756C73.512 18.4756 73.9495 18.3958 74.46 18.2363V19.7881C73.9404 20.0205 73.3024 20.1367 72.5459 20.1367C71.7119 20.1367 71.1035 19.9271 70.7207 19.5078C70.3424 19.084 70.1533 18.4505 70.1533 17.6074V13.9229H69.1553V13.041L70.3037 12.3438L70.9053 10.7305H72.2383V12.3574H74.3779V13.9229H72.2383V17.6074C72.2383 17.9036 72.3203 18.1224 72.4844 18.2637C72.653 18.4049 72.874 18.4756 73.1475 18.4756ZM85.0625 20L84.7822 19.0225H84.6729C84.4495 19.3779 84.1328 19.6536 83.7227 19.8496C83.3125 20.041 82.8454 20.1367 82.3213 20.1367C81.4235 20.1367 80.7467 19.8975 80.291 19.4189C79.8353 18.9359 79.6074 18.2432 79.6074 17.3408V12.3574H81.6924V16.8213C81.6924 17.3727 81.7904 17.7874 81.9863 18.0654C82.1823 18.3389 82.4945 18.4756 82.9229 18.4756C83.5062 18.4756 83.9277 18.2819 84.1875 17.8945C84.4473 17.5026 84.5771 16.8555 84.5771 15.9531V12.3574H86.6621V20H85.0625ZM94.1816 17.7305C94.1816 18.5143 93.9082 19.1113 93.3613 19.5215C92.819 19.9316 92.0055 20.1367 90.9209 20.1367C90.3649 20.1367 89.891 20.098 89.499 20.0205C89.1071 19.9476 88.7402 19.8382 88.3984 19.6924V17.9697C88.7858 18.152 89.221 18.3047 89.7041 18.4277C90.1917 18.5508 90.6201 18.6123 90.9893 18.6123C91.7458 18.6123 92.124 18.3936 92.124 17.9561C92.124 17.792 92.0739 17.6598 91.9736 17.5596C91.8734 17.4548 91.7002 17.3385 91.4541 17.2109C91.208 17.0788 90.8799 16.9261 90.4697 16.7529C89.8818 16.5068 89.4489 16.279 89.1709 16.0693C88.8975 15.8597 88.6969 15.6204 88.5693 15.3516C88.4463 15.0781 88.3848 14.7432 88.3848 14.3467C88.3848 13.6676 88.6468 13.1436 89.1709 12.7744C89.6995 12.4007 90.4469 12.2139 91.4131 12.2139C92.3337 12.2139 93.2292 12.4144 94.0996 12.8154L93.4707 14.3193C93.0879 14.1553 92.7301 14.0208 92.3975 13.916C92.0648 13.8112 91.7253 13.7588 91.3789 13.7588C90.7637 13.7588 90.4561 13.9251 90.4561 14.2578C90.4561 14.4447 90.554 14.6064 90.75 14.7432C90.9505 14.8799 91.3857 15.0827 92.0557 15.3516C92.6527 15.5931 93.0902 15.8187 93.3682 16.0283C93.6462 16.238 93.8512 16.4795 93.9834 16.7529C94.1156 17.0264 94.1816 17.3522 94.1816 17.7305Z" fill="white"/>
<rect x="0.5" y="0.5" width="114" height="29" rx="9.5" stroke="white"/>
</svg>
