<svg width="374" height="132" viewBox="0 0 374 132" fill="none" xmlns="http://www.w3.org/2000/svg">
<path d="M367.232 86.7448C365.418 86.942 363.407 87.3363 361.396 88.1251C359.424 88.9138 357.334 90.0574 355.283 91.6349C351.931 94.2377 349.802 97.8263 347.909 101.06C347.909 101.06 348.303 100.193 348.619 98.7728C348.934 97.3926 349.407 95.5391 349.841 93.6856C350.314 91.8321 350.748 89.9786 351.064 88.5983C351.3 87.1786 351.379 86.2321 351.379 86.2321C353.942 86.5871 361.278 87.3363 366.68 81.4998C370.23 77.9111 371.373 72.4295 372.004 67.9338C372.28 65.6859 372.438 63.6747 372.359 62.2155C372.241 60.7958 372.122 59.9282 372.122 59.9282C372.122 59.9282 369.638 59.9282 366.562 60.9536C365.024 61.4662 363.328 62.2155 361.711 63.2803C360.016 64.3451 358.32 65.7648 356.861 67.5788C354.573 70.4183 353.39 73.8098 352.523 76.9252C352.523 76.9252 352.523 76.6886 352.602 76.2548C352.602 75.821 352.602 75.19 352.602 74.4802C352.602 72.9816 352.602 71.0492 352.602 69.0774C352.602 67.1056 352.641 65.1338 352.602 63.6747C352.444 62.2155 352.326 61.2296 352.326 61.2296C354.692 60.9536 361.12 60.0071 364.551 53.9734C365.576 52.1199 366.404 49.872 366.601 47.703C366.799 45.4946 366.72 43.2862 366.483 41.3144C366.089 37.3708 365.221 34.4131 365.221 34.4131C365.221 34.4131 363.092 34.8863 360.528 36.3454C357.965 37.8046 354.968 40.2496 353.233 43.9172C351.892 46.6383 351.616 49.6354 351.34 52.4354C351.34 52.4354 351.261 51.41 350.866 49.9509C350.511 48.4523 350.038 46.4805 349.565 44.5087C349.092 42.5369 348.619 40.5257 348.264 39.0665C347.751 37.6074 347.435 36.6609 347.435 36.6609C349.486 35.9116 354.613 33.7426 356.348 28.0638C356.861 26.2892 357.097 24.278 356.94 22.3456C356.703 20.4527 356.19 18.5992 355.678 16.9429C354.613 13.6697 353.311 11.3429 353.311 11.3429C353.311 11.3429 351.537 12.1317 349.604 13.8668C347.672 15.602 345.543 18.2442 344.714 21.7146C344.123 24.1597 344.359 26.6441 344.636 28.9709C344.636 28.9709 344.517 28.5371 344.202 27.9061C343.926 27.2751 343.492 26.447 343.097 25.6188C342.269 23.9625 341.481 22.3062 341.481 22.3062C341.757 20.9653 342.072 18.8358 341.914 16.3513C341.599 13.9457 340.85 11.1852 339.272 8.66127C337.3 5.15146 333.593 3.33738 330.991 2.19374C328.309 1.08952 326.258 0.813477 326.258 0.813477C326.258 0.813477 326.101 2.98246 326.455 5.78242C326.731 8.66126 327.836 11.8556 329.571 14.971C330.951 17.2189 332.923 18.9147 334.934 20.1766C336.748 21.5569 338.523 22.5428 339.745 23.1343C339.745 23.1343 341.323 26.2498 342.703 29.4441C343.886 32.7173 345.069 36.0299 345.069 36.0299C343.728 34.137 342.072 32.3229 340.021 31.2187C337.064 29.6413 333.593 29.9962 331.148 30.5878C328.664 31.1793 326.968 32.1258 326.968 32.1258C326.968 32.1258 327.165 32.5596 327.52 33.2694C327.915 33.9793 328.506 34.9257 329.098 36.0299C330.36 38.2384 332.371 40.8017 335.368 42.3792C339.706 44.9819 345.188 44.2721 347.317 43.7594C347.317 43.7594 348.224 47.6636 349.171 51.5678C349.644 55.5508 350.117 59.5339 350.117 59.5339C349.131 56.9311 347.712 54.3283 345.621 52.5142C342.467 50.1086 338.72 49.6748 335.841 49.7537C332.962 49.872 330.833 50.4636 330.833 50.4636C330.833 50.4636 331.267 52.5537 332.331 55.1959C333.12 57.8776 334.658 61.1113 337.537 63.5564C341.875 67.5 348.145 68.1704 350.59 68.131C350.59 68.131 350.59 71.9957 350.59 75.8604C350.157 79.6857 349.683 83.5505 349.683 83.5505C349.25 80.3561 348.658 76.9252 346.371 74.3224C343.531 70.9309 339.627 69.5901 336.472 69.038C333.317 68.4859 330.833 68.6436 330.833 68.6436C330.833 68.6436 330.675 70.9704 331.267 74.0069C331.7 77.0435 332.331 80.8294 334.895 84.1815C338.641 89.5842 345.385 91.9898 348.027 92.5814C348.027 92.5814 347.199 96.2095 346.213 99.8376C344.912 103.347 343.61 106.857 343.61 106.857C344.005 103.19 344.399 99.1672 342.388 95.6179C340.179 91.3194 336.314 88.9927 333.041 87.6124C329.768 86.2716 327.047 85.8772 327.047 85.8772C327.047 85.8772 326.298 88.2434 326.179 91.556C326.219 93.2518 325.903 95.0264 326.101 97.0376C326.258 99.0094 326.692 101.1 327.639 103.19C330.202 109.854 337.064 114.429 339.548 115.691C339.548 115.691 339.075 116.637 338.326 118.057C337.971 118.767 337.537 119.595 337.064 120.502C336.512 121.33 335.92 122.237 335.329 123.105C332.923 126.615 330.557 130.164 330.557 130.164L332.095 131.347C332.095 131.347 335.565 126.339 338.878 121.251C340.258 118.57 341.678 115.849 342.703 113.837C343.216 112.812 343.65 111.984 343.965 111.392C344.241 110.801 344.359 110.406 344.359 110.406C346.923 111.432 354.652 114.429 362.106 109.381C366.838 106.384 369.559 100.626 371.373 95.8151C371.807 94.5926 372.201 93.4489 372.517 92.4236C372.753 91.3588 372.911 90.4124 373.03 89.6236C373.306 88.0068 373.384 87.0209 373.384 87.0209C373.384 87.0209 370.703 86.4688 367.114 86.8631L367.232 86.7448Z" fill="url(#paint0_linear_1432_182825)" fill-opacity="0.6"/>
<path d="M6.74579 86.7448C8.55985 86.942 10.5711 87.3363 12.5823 88.1251C14.5541 88.9138 16.6443 90.0574 18.6949 91.6349C22.047 94.2377 24.1766 97.8263 26.0695 101.06C26.0695 101.06 25.6751 100.193 25.3596 98.7728C25.0441 97.3926 24.5709 95.5391 24.1371 93.6856C23.6639 91.8321 23.2301 89.9786 22.9146 88.5983C22.678 87.1786 22.5991 86.2321 22.5991 86.2321C20.0358 86.5871 12.7006 87.3363 7.29789 81.4998C3.74864 77.9111 2.60499 72.4295 1.97401 67.9338C1.69796 65.6859 1.54022 63.6747 1.61909 62.2155C1.7374 60.7958 1.8557 59.9282 1.8557 59.9282C1.8557 59.9282 4.34018 59.9282 7.4162 60.9536C8.95421 61.4662 10.65 62.2155 12.2668 63.2803C13.9626 64.3451 15.6584 65.7648 17.1175 67.5788C19.4048 70.4183 20.5879 73.8098 21.4555 76.9252C21.4555 76.9252 21.4555 76.6886 21.3766 76.2548C21.3766 75.821 21.3766 75.19 21.3766 74.4802C21.3766 72.9816 21.3766 71.0492 21.3766 69.0774C21.3766 67.1056 21.3372 65.1338 21.3766 63.6747C21.5343 62.2155 21.6526 61.2296 21.6526 61.2296C19.2865 60.9536 12.8584 60.0071 9.42744 53.9734C8.4021 52.1199 7.57394 49.872 7.37676 47.703C7.17958 45.4946 7.25846 43.2862 7.49507 41.3144C7.88943 37.3708 8.75703 34.4131 8.75703 34.4131C8.75703 34.4131 10.8866 34.8863 13.4499 36.3454C16.0133 37.8046 19.0104 40.2496 20.7456 43.9172C22.0864 46.6383 22.3625 49.6354 22.6385 52.4354C22.6385 52.4354 22.7174 51.41 23.1118 49.9509C23.4667 48.4523 23.9399 46.4805 24.4132 44.5087C24.8864 42.5369 25.3596 40.5257 25.7146 39.0665C26.2272 37.6074 26.5427 36.6609 26.5427 36.6609C24.492 35.9116 19.3653 33.7426 17.6302 28.0638C17.1175 26.2892 16.8809 24.278 17.0386 22.3456C17.2752 20.4527 17.7879 18.5992 18.3006 16.9429C19.3653 13.6697 20.6667 11.3429 20.6667 11.3429C20.6667 11.3429 22.4414 12.1317 24.3737 13.8668C26.3061 15.602 28.4357 18.2442 29.2638 21.7146C29.8554 24.1597 29.6187 26.6441 29.3427 28.9709C29.3427 28.9709 29.461 28.5371 29.7765 27.9061C30.0525 27.2751 30.4469 26.447 30.8807 25.6188C31.6694 23.9625 32.4976 22.3062 32.4976 22.3062C32.2215 20.9653 31.906 18.8358 32.0638 16.3513C32.3793 13.9457 33.1286 11.1852 34.706 8.66127C36.6778 5.15146 40.3848 3.33738 42.9482 2.19374C45.6298 1.08952 47.6805 0.813477 47.6805 0.813477C47.6805 0.813477 47.8382 2.98246 47.4833 5.78242C47.2073 8.66126 46.103 11.8556 44.3679 14.971C42.9876 17.2189 41.0158 18.9147 39.0045 20.1766C37.1905 21.5569 35.4159 22.5428 34.1933 23.1343C34.1933 23.1343 32.6159 26.2498 31.2356 29.4441C30.0525 32.7173 28.8695 36.0299 28.8695 36.0299C30.1708 34.137 31.8666 32.3229 33.9173 31.2187C36.875 29.6413 40.3454 29.9962 42.7904 30.5878C45.2749 31.1793 46.9706 32.1258 46.9706 32.1258C46.9706 32.1258 46.7735 32.5596 46.4185 33.2694C46.0242 33.9793 45.4326 34.9257 44.8411 36.0299C43.5791 38.2384 41.5679 40.8017 38.6102 42.3792C34.2722 44.9819 28.7906 44.2721 26.661 43.7594C26.661 43.7594 25.754 47.6636 24.8075 51.5678C24.3343 55.5508 23.8611 59.5339 23.8611 59.5339C24.847 56.9311 26.2667 54.3283 28.3568 52.5142C31.5511 50.1086 35.2581 49.6748 38.1369 49.7537C41.0158 49.872 43.1453 50.4636 43.1453 50.4636C43.1453 50.4636 42.7115 52.5537 41.6468 55.1959C40.858 57.8776 39.2806 61.1113 36.4412 63.5564C32.0638 67.5 25.8329 68.1704 23.3878 68.131C23.3878 68.131 23.3878 71.9957 23.3878 75.8604C23.8216 79.6857 24.2949 83.5505 24.2949 83.5505C24.7287 80.3561 25.3202 76.9252 27.6075 74.3224C30.4469 70.9309 34.3511 69.5901 37.506 69.038C40.6609 68.4859 43.1453 68.6436 43.1453 68.6436C43.1453 68.6436 43.3031 70.9704 42.7115 74.0069C42.2777 77.0435 41.6468 80.8294 39.0834 84.1815C35.337 89.5842 28.554 91.9898 25.9512 92.5814C25.9512 92.5814 26.7793 96.2095 27.7652 99.8376C29.0666 103.347 30.368 106.857 30.368 106.857C29.9737 103.19 29.5793 99.1672 31.5905 95.6179C33.799 91.3194 37.6637 88.9927 40.9369 87.6124C44.2101 86.2716 46.9312 85.8772 46.9312 85.8772C46.9312 85.8772 47.6805 88.2434 47.7988 91.556C47.7594 93.2518 48.0748 95.0264 47.8777 97.0376C47.7199 99.0094 47.2861 101.1 46.3397 103.19C43.7763 109.854 36.9144 114.429 34.4299 115.691C34.4299 115.691 34.9032 116.637 35.6525 118.057C36.0074 118.767 36.4412 119.595 36.9144 120.502C37.4665 121.33 38.0581 122.237 38.6496 123.105C41.0158 126.615 43.4214 130.164 43.4214 130.164L41.8834 131.347C41.8834 131.347 38.4524 126.339 35.1004 121.251C33.7201 118.57 32.3004 115.849 31.2751 113.837C30.7624 112.812 30.3286 111.984 30.0131 111.392C29.737 110.801 29.6187 110.406 29.6187 110.406C27.0554 111.432 19.3259 114.429 11.8725 109.381C7.14015 106.384 4.41905 100.626 2.60499 95.8151C2.17119 94.5926 1.77683 93.4489 1.46134 92.4236C1.22473 91.3588 1.06698 90.4124 0.948675 89.6236C0.672622 88.0068 0.59375 87.0209 0.59375 87.0209C0.59375 87.0209 3.27541 86.4688 6.82466 86.8631L6.74579 86.7448Z" fill="url(#paint1_linear_1432_182825)" fill-opacity="0.6"/>
<defs>
<linearGradient id="paint0_linear_1432_182825" x1="332.331" y1="21.7512" x2="393.026" y2="30.3601" gradientUnits="userSpaceOnUse">
<stop offset="0.160435" stop-color="#56088B"/>
<stop offset="1" stop-color="#AD4797" stop-opacity="0.1"/>
</linearGradient>
<linearGradient id="paint1_linear_1432_182825" x1="6.88997" y1="21.7512" x2="67.5844" y2="30.3601" gradientUnits="userSpaceOnUse">
<stop offset="0.160435" stop-color="#56088B"/>
<stop offset="1" stop-color="#AD4797" stop-opacity="0.1"/>
</linearGradient>
</defs>
</svg>
