<svg width="40" height="30" viewBox="0 0 40 30" fill="none" xmlns="http://www.w3.org/2000/svg">
<path d="M39.6016 7.02551C39.6016 7.02551 39.2109 4.2677 38.0078 3.05676C36.4844 1.46301 34.7812 1.4552 34 1.36145C28.4063 0.9552 20.0078 0.9552 20.0078 0.9552H19.9922C19.9922 0.9552 11.5938 0.9552 6 1.36145C5.21875 1.4552 3.51562 1.46301 1.99219 3.05676C0.789063 4.2677 0.40625 7.02551 0.40625 7.02551C0.40625 7.02551 0 10.2677 0 13.5021V16.5333C0 19.7677 0.398437 23.0099 0.398437 23.0099C0.398437 23.0099 0.789062 25.7677 1.98437 26.9786C3.50781 28.5724 5.50781 28.5177 6.39844 28.6896C9.60156 28.9943 20 29.088 20 29.088C20 29.088 28.4063 29.0724 34 28.674C34.7812 28.5802 36.4844 28.5724 38.0078 26.9786C39.2109 25.7677 39.6016 23.0099 39.6016 23.0099C39.6016 23.0099 40 19.7755 40 16.5333V13.5021C40 10.2677 39.6016 7.02551 39.6016 7.02551ZM15.8672 20.213V8.97083L26.6719 14.6115L15.8672 20.213Z" fill="white"/>
</svg>
