<svg width="40" height="41" viewBox="0 0 40 41" fill="none" xmlns="http://www.w3.org/2000/svg">
<path d="M37.0391 0.0253906H2.95312C1.32031 0.0253906 0 1.31445 0 2.9082V37.1348C0 38.7285 1.32031 40.0254 2.95312 40.0254H37.0391C38.6719 40.0254 40 38.7285 40 37.1426V2.9082C40 1.31445 38.6719 0.0253906 37.0391 0.0253906ZM11.8672 34.1113H5.92969V15.0176H11.8672V34.1113ZM8.89844 12.416C6.99219 12.416 5.45312 10.877 5.45312 8.97851C5.45312 7.08008 6.99219 5.54102 8.89844 5.54102C10.7969 5.54102 12.3359 7.08008 12.3359 8.97851C12.3359 10.8691 10.7969 12.416 8.89844 12.416ZM34.0859 34.1113H28.1562V24.8301C28.1562 22.6191 28.1172 19.7676 25.0703 19.7676C21.9844 19.7676 21.5156 22.1816 21.5156 24.6738V34.1113H15.5938V15.0176H21.2812V17.627H21.3594C22.1484 16.127 24.0859 14.541 26.9688 14.541C32.9766 14.541 34.0859 18.4941 34.0859 23.6348V34.1113Z" fill="white"/>
</svg>
