<svg width="96" height="96" viewBox="0 0 96 96" fill="none" xmlns="http://www.w3.org/2000/svg">
<path d="M36.3701 44.29H42.02V59.4399H15.48V44.29H21.1299" stroke="white" stroke-width="1.5" stroke-miterlimit="10"/>
<path d="M23.1001 38.6399L34.4902 50.03" stroke="white" stroke-width="1.5" stroke-miterlimit="10"/>
<path d="M34.4902 38.6399L23.1001 50.03" stroke="white" stroke-width="1.5" stroke-miterlimit="10"/>
<path d="M74.2998 15.8701H79.9502V31.02H53.4102V15.8701H59.0601" stroke="white" stroke-width="1.5" stroke-miterlimit="10"/>
<path d="M42.02 72.72H15.48V87.8701H42.02V72.72Z" stroke="white" stroke-width="1.5" stroke-miterlimit="10"/>
<path d="M61.0298 10.1299L72.4199 21.52" stroke="white" stroke-width="1.5" stroke-miterlimit="10"/>
<path d="M72.4199 10.1299L61.0298 21.52" stroke="white" stroke-width="1.5" stroke-miterlimit="10"/>
<path d="M79.9502 44.29H53.4102V59.4399H79.9502V44.29Z" stroke="white" stroke-width="1.5" stroke-miterlimit="10"/>
<path d="M42.02 15.8701H15.48V31.02H42.02V15.8701Z" stroke="white" stroke-width="1.5" stroke-miterlimit="10"/>
<path d="M42.02 23.3999H53.4102" stroke="white" stroke-width="1.5" stroke-miterlimit="10"/>
<path d="M42.02 51.9099H53.4102" stroke="white" stroke-width="1.5" stroke-miterlimit="10"/>
<path d="M79.9502 23.3999H89.46V51.8301H79.9502" stroke="white" stroke-width="1.5" stroke-miterlimit="10"/>
<path d="M15.48 51.9099H5.97021V80.3401H15.48" stroke="white" stroke-width="1.5" stroke-miterlimit="10"/>
</svg>
