<svg width="96" height="96" viewBox="0 0 96 96" fill="none" xmlns="http://www.w3.org/2000/svg">
<path d="M42.1299 81.02C36.7399 84.87 31.8899 87.59 31.2499 87.76C29.7499 87.37 4.6499 72.6599 4.6499 62.6399V34.5701C12.1599 34.5701 28.6199 27.85 31.2499 24.23C33.8699 27.86 50.3399 34.5701 57.8499 34.5701V49.96" stroke="white" stroke-width="1.5" stroke-linecap="round" stroke-linejoin="round"/>
<path d="M20.29 39.54C25.14 37.98 30.1 35.6101 31.25 34.0701C33.1 36.5401 44.69 41.1299 49.97 41.1299V55.74" stroke="white" stroke-width="1.5" stroke-linecap="round" stroke-linejoin="round"/>
<path d="M40.1097 71.96C35.8597 75.03 31.7498 77.2799 31.2498 77.4099C30.1998 77.1499 12.5298 67.11 12.5298 60.28V46.05" stroke="white" stroke-width="1.5" stroke-linecap="round" stroke-linejoin="round"/>
<path d="M69.6698 30.1201V22.24H77.5498L63.7598 2.54004L49.9697 22.24H57.8497V26.1799" stroke="white" stroke-width="1.5" stroke-linecap="round" stroke-linejoin="round" stroke-dasharray="3.94 3.94"/>
<path d="M83.4597 73.47V51.8H91.3397L77.5498 32.1001L63.7598 51.8H71.6398V61.6499" stroke="white" stroke-width="1.5" stroke-linecap="round" stroke-linejoin="round" stroke-dasharray="3.94 3.94"/>
<path d="M51.9397 93.1699V75.4399H46.0298L57.8497 57.71L69.6698 75.4399H63.7598V83.3201" stroke="white" stroke-width="1.5" stroke-linecap="round" stroke-linejoin="round" stroke-dasharray="3.94 3.94"/>
</svg>
