<svg width="96" height="96" viewBox="0 0 96 96" fill="none" xmlns="http://www.w3.org/2000/svg">
<g clip-path="url(#clip0_181_5878)">
<path d="M50.7207 4.41992L61.3607 15.0601L42.2507 34.0701L50.7207 42.54L59.1907 34.0701L71.9007 46.78L82.4407 36.24L92.9807 46.78V4.41992H50.7207Z" stroke="white" stroke-width="1.5" stroke-miterlimit="10"/>
<path d="M35.9208 40.5L29.5808 46.8401L35.9208 53.1799L42.2608 46.8401L35.9208 40.5Z" stroke="white" stroke-width="1.5" stroke-miterlimit="10"/>
<path d="M82.5408 57.4099L65.6008 74.3501" stroke="white" stroke-width="1.5" stroke-miterlimit="10"/>
<path d="M61.3608 78.5901L57.1208 82.8301" stroke="white" stroke-width="1.5" stroke-miterlimit="10"/>
<path d="M52.8909 87.0601L48.6509 91.3" stroke="white" stroke-width="1.5" stroke-miterlimit="10"/>
<path d="M38.0107 19.29L19.0007 38.3" stroke="white" stroke-width="1.5" stroke-miterlimit="10"/>
<path d="M27.4509 57.4399L21.1108 63.78L27.4509 70.1201L33.7909 63.78L27.4509 57.4399Z" stroke="white" stroke-width="1.5" stroke-miterlimit="10"/>
<path d="M31.6608 76.46L25.3208 82.8L31.6608 89.1399L38.0008 82.8L31.6608 76.46Z" stroke="white" stroke-width="1.5" stroke-miterlimit="10"/>
<path d="M46.5507 61.6399L40.2107 67.98L46.5507 74.3201L52.8907 67.98L46.5507 61.6399Z" stroke="white" stroke-width="1.5" stroke-miterlimit="10"/>
<path d="M59.2509 48.9299L52.9109 55.27L59.2509 61.6101L65.5909 55.27L59.2509 48.9299Z" stroke="white" stroke-width="1.5" stroke-miterlimit="10"/>
<path d="M8.39078 67.96L2.05078 74.3L8.39078 80.6399L14.7308 74.3L8.39078 67.96Z" stroke="white" stroke-width="1.5" stroke-miterlimit="10"/>
</g>
<defs>
<clipPath id="clip0_181_5878">
<rect width="96" height="96" fill="white" transform="translate(0.000732422)"/>
</clipPath>
</defs>
</svg>
