<svg width="96" height="96" viewBox="0 0 96 96" fill="none" xmlns="http://www.w3.org/2000/svg">
<g clip-path="url(#clip0_8426_556427)">
<path d="M11.8961 47.5528C15.1721 47.5528 17.8276 44.8716 17.8276 41.564C17.8276 38.2563 15.1721 35.5752 11.8961 35.5752C8.62008 35.5752 5.9646 38.2563 5.9646 41.564C5.9646 44.8716 8.62008 47.5528 11.8961 47.5528Z" stroke="white" stroke-width="2"/>
<path d="M20.7928 57.534V53.5415C20.7928 50.2348 16.8091 47.5527 11.896 47.5527C6.98296 47.5527 2.99927 50.2348 2.99927 53.5415V57.534" stroke="white" stroke-width="2"/>
<path d="M85.0489 47.5528C88.3249 47.5528 90.9804 44.8716 90.9804 41.564C90.9804 38.2563 88.3249 35.5752 85.0489 35.5752C81.7729 35.5752 79.1174 38.2563 79.1174 41.564C79.1174 44.8716 81.7729 47.5528 85.0489 47.5528Z" stroke="white" stroke-width="2"/>
<path d="M93.9458 57.534V53.5415C93.9458 50.2348 89.9621 47.5527 85.0491 47.5527C80.136 47.5527 76.1523 50.2348 76.1523 53.5415V57.534" stroke="white" stroke-width="2"/>
<path d="M80.1065 17.6104V27.5917H70.2207" stroke="white" stroke-width="2"/>
<path d="M16.8384 27.5904C23.4614 16.8056 34.9805 9.62402 48.472 9.62402C61.9634 9.62402 73.4825 16.8056 80.1055 27.5904" stroke="white" stroke-width="2" stroke-dasharray="4 4"/>
<path d="M16.8384 77.496V67.5146H26.7242" stroke="white" stroke-width="2"/>
<path d="M80.1065 67.5156C73.4835 78.3004 61.9644 85.482 48.4729 85.482C34.9815 85.482 23.4624 78.3004 16.8394 67.5156" stroke="white" stroke-width="2" stroke-dasharray="4 4"/>
<path d="M64.2893 47.5534C64.2893 46.8025 64.2201 46.0689 64.1216 45.3477L67.967 41.7224L63.2216 33.4227L58.192 34.9723C57.0457 34.0664 55.7753 33.3156 54.4035 32.7541L53.2174 27.5889H43.7276L42.5415 32.7541C41.1726 33.3156 39.9021 34.0664 38.753 34.9723L33.7234 33.4227L28.978 41.7224L32.8234 45.3477C32.7249 46.0717 32.6557 46.8025 32.6557 47.5534C32.6557 48.3043 32.7249 49.0379 32.8234 49.7591L28.978 53.3843L33.7234 61.6841L38.753 60.1345C39.8993 61.0404 41.1697 61.7912 42.5415 62.3527L43.7276 67.5179H53.2174L54.4035 62.3527C55.7724 61.7912 57.0429 61.0404 58.192 60.1345L63.2216 61.6841L67.967 53.3843L64.1216 49.7591C64.2201 49.036 64.2893 48.3024 64.2893 47.5534Z" stroke="white" stroke-width="2"/>
<path d="M48.472 53.542C51.748 53.542 54.4035 50.8609 54.4035 47.5532C54.4035 44.2456 51.748 41.5645 48.472 41.5645C45.196 41.5645 42.5405 44.2456 42.5405 47.5532C42.5405 50.8609 45.196 53.542 48.472 53.542Z" stroke="white" stroke-width="2"/>
</g>
<defs>
<clipPath id="clip0_8426_556427">
<rect width="96" height="96" fill="white"/>
</clipPath>
</defs>
</svg>
