<svg width="96" height="96" viewBox="0 0 96 96" fill="none" xmlns="http://www.w3.org/2000/svg">
<g clip-path="url(#clip0_8426_556405)">
<path fill-rule="evenodd" clip-rule="evenodd" d="M65.9539 50.4238C64.0951 50.4238 62.5898 51.9291 62.5898 53.7878V55.0068C62.5898 56.4546 63.5167 57.7392 64.8904 58.1983C64.8905 58.1983 64.8903 58.1982 64.8904 58.1983L72.0141 60.5731C74.2022 61.3042 75.6819 63.3517 75.6819 65.6618V66.8808C75.6819 69.8441 73.2811 72.2448 70.3179 72.2448H65.9539C62.9906 72.2448 60.5898 69.8441 60.5898 66.8808V64.6988H62.5898V66.8808C62.5898 68.7395 64.0951 70.2448 65.9539 70.2448H70.3179C72.1766 70.2448 73.6819 68.7395 73.6819 66.8808V65.6618C73.6819 64.2142 72.7552 62.9297 71.3816 62.4705L64.2576 60.0955C62.0695 59.3645 60.5898 57.317 60.5898 55.0068V53.7878C60.5898 50.8245 62.9906 48.4238 65.9539 48.4238H70.3179C73.2811 48.4238 75.6819 50.8245 75.6819 53.7878V55.9698H73.6819V53.7878C73.6819 51.9291 72.1766 50.4238 70.3179 50.4238H65.9539Z" fill="white"/>
<path fill-rule="evenodd" clip-rule="evenodd" d="M69.1348 42.8809V49.4258H67.1348V42.8809H69.1348Z" fill="white"/>
<path fill-rule="evenodd" clip-rule="evenodd" d="M67.1348 77.7891V71.2441H69.1348V77.7891H67.1348Z" fill="white"/>
<path fill-rule="evenodd" clip-rule="evenodd" d="M26.6798 28.0469L43.8735 52.6086H34.2257V60.3357C34.2257 64.7657 33.676 70.4209 30.8275 75.5484C27.9556 80.7181 22.8069 85.244 13.8323 87.4878L13.3472 85.5475C21.8276 83.4273 26.4969 79.2256 29.0792 74.5771C31.685 69.8864 32.2257 64.6326 32.2257 60.3357V50.6086H40.0321L26.6798 31.5344L13.3275 50.6086H20.1338V52.6086H9.48608L26.6798 28.0469Z" fill="white"/>
<path fill-rule="evenodd" clip-rule="evenodd" d="M57.2257 1.69922L76.4703 32.9713H64.7718V38.2443H62.7718V30.9713H72.8912L57.2257 5.51527L41.5603 30.9713H50.6798V32.9713H37.9812L57.2257 1.69922Z" fill="white"/>
<path fill-rule="evenodd" clip-rule="evenodd" d="M61.0615 80.3714C58.7201 85.7823 54.9858 91.1379 49.1391 96.0124L47.8584 94.4762C53.4617 89.8047 57.0074 84.7042 59.226 79.5771L61.0615 80.3714Z" fill="white"/>
<path fill-rule="evenodd" clip-rule="evenodd" d="M87.8535 53.3643C88.4183 64.1918 86.9082 77.9479 74.0971 89.8062L72.7385 88.3385C84.9374 77.0468 86.4053 63.995 85.8562 53.4685L87.8535 53.3643Z" fill="white"/>
<path fill-rule="evenodd" clip-rule="evenodd" d="M21.1348 51.6084V54.3356H19.1348V51.6084H21.1348ZM21.1348 59.7901V62.5174C21.1348 63.3766 21.0985 64.1666 21.0344 64.8918L19.0421 64.7157C19.1009 64.0514 19.1348 63.3201 19.1348 62.5174V59.7901H21.1348ZM18.6605 71.951C18.6603 71.9512 18.66 71.9515 17.9529 71.2444C17.2458 70.5373 17.2455 70.5376 17.2453 70.5378L17.2447 70.5383L17.2438 70.5393L17.242 70.5411L17.239 70.5442L17.2355 70.5478C17.2342 70.5492 17.235 70.5484 17.2377 70.5453C17.2432 70.5393 17.2566 70.5242 17.2768 70.4997C17.317 70.4506 17.3845 70.3633 17.4705 70.2333C17.6423 69.9736 17.8896 69.541 18.1412 68.8986L20.0035 69.6281C19.7003 70.4021 19.3878 70.96 19.1386 71.3368C19.0141 71.525 18.9058 71.6674 18.8228 71.7684C18.7814 71.819 18.7463 71.8591 18.7188 71.8894C18.705 71.9046 18.6931 71.9173 18.6833 71.9276L18.6701 71.9413L18.6646 71.9469L18.6622 71.9493L18.6611 71.9504L18.6605 71.951Z" fill="white"/>
<path fill-rule="evenodd" clip-rule="evenodd" d="M51.6808 31.9727V34.1545H49.6808V31.9727H51.6808ZM51.6808 38.5182V42.8818H49.6808V38.5182H51.6808ZM51.6808 47.2455V51.6092H49.6808V47.2455H51.6808ZM51.6808 55.9728V58.1547C51.6808 58.8544 51.6645 59.5488 51.6322 60.2377L49.6344 60.1442C49.6652 59.4865 49.6808 58.8233 49.6808 58.1547V55.9728H51.6808ZM51.239 64.3857C51.039 65.7772 50.773 67.1418 50.4446 68.4771L48.5025 67.9994C48.8152 66.7278 49.0687 65.4277 49.2594 64.1012L51.239 64.3857ZM49.2483 72.4706C48.7797 73.7907 48.2483 75.0764 47.6582 76.3248L45.85 75.4701C46.4117 74.2819 46.9175 73.0582 47.3635 71.8016L49.2483 72.4706ZM45.6897 80C44.9698 81.196 44.1932 82.3503 43.3644 83.4599L41.762 82.2631C42.5513 81.2063 43.2908 80.1072 43.9762 78.9686L45.6897 80ZM40.7084 86.6718C39.7695 87.6996 38.782 88.679 37.7506 89.607L36.4128 88.1203C37.396 87.2357 38.3371 86.3022 39.2318 85.3229L40.7084 86.6718ZM34.5216 92.24C33.4034 93.0648 32.2458 93.8351 31.0532 94.548L30.0271 92.8313C31.1643 92.1515 32.2682 91.417 33.3344 90.6305L34.5216 92.24ZM27.3782 96.5102C26.124 97.1038 24.8398 97.6373 23.5302 98.1079L22.8539 96.2257C24.1023 95.7771 25.3267 95.2684 26.5226 94.7024L27.3782 96.5102ZM19.5445 99.3241C18.2013 99.6632 16.8376 99.9376 15.4582 100.144L15.1616 98.1665C16.4757 97.9695 17.7749 97.7081 19.055 97.3849L19.5445 99.3241ZM11.3102 100.558C10.6179 100.592 9.92295 100.61 9.22577 100.61H7.04402V98.6096H9.22577C9.88967 98.6096 10.5515 98.5931 11.2108 98.5603L11.3102 100.558ZM2.68053 100.61H0.498779V98.6096H2.68053V100.61Z" fill="white"/>
</g>
<defs>
<clipPath id="clip0_8426_556405">
<rect width="96" height="96" fill="white"/>
</clipPath>
</defs>
</svg>
