<svg width="96" height="96" viewBox="0 0 96 96" fill="none" xmlns="http://www.w3.org/2000/svg">
<path d="M42.1633 53.5701V55.6343C42.1633 57.9045 44.0499 59.762 46.3556 59.762H50.5479C52.8536 59.762 54.7402 57.9045 54.7402 55.6343V54.4783C54.7402 52.7037 53.5868 51.1146 51.8687 50.5566L45.0348 48.307C43.3157 47.7499 42.1633 46.1607 42.1633 44.3852V43.2292C42.1633 40.959 44.0499 39.1016 46.3556 39.1016H50.5479C52.8536 39.1016 54.7402 40.959 54.7402 43.2292V45.2934" stroke="white" stroke-width="2"/>
<path d="M48.4521 39.1225V32.9307" stroke="white" stroke-width="2"/>
<path d="M48.4521 59.7617V65.9536" stroke="white" stroke-width="2"/>
<path d="M48.4522 73.2999C61.8408 73.2999 72.6943 62.6138 72.6943 49.4317C72.6943 36.2496 61.8408 25.5635 48.4522 25.5635C35.0637 25.5635 24.2102 36.2496 24.2102 49.4317C24.2102 62.6138 35.0637 73.2999 48.4522 73.2999Z" stroke="white" stroke-width="2"/>
<path d="M11.2874 37.3038V34.7324C11.2874 22.6454 21.2425 12.8438 33.5188 12.8438H36.1405" stroke="white" stroke-width="2" stroke-dasharray="4 4"/>
<path d="M11.2874 61.5566V64.1379C11.2874 76.2248 21.2425 86.0265 33.5188 86.0265H36.1405" stroke="white" stroke-width="2" stroke-dasharray="4 4"/>
<path d="M85.6158 61.5566V64.1379C85.6158 76.2248 75.6607 86.0265 63.3844 86.0265H60.7727" stroke="white" stroke-width="2" stroke-dasharray="4 4"/>
<path d="M60.7727 12.8438H63.3844C75.6607 12.8438 85.6158 22.6454 85.6158 34.7324V37.3038" stroke="white" stroke-width="2" stroke-dasharray="4 4"/>
<path d="M48.4522 19.0332C51.9254 19.0332 54.7411 16.261 54.7411 12.8413C54.7411 9.42164 51.9254 6.64941 48.4522 6.64941C44.9789 6.64941 42.1633 9.42164 42.1633 12.8413C42.1633 16.261 44.9789 19.0332 48.4522 19.0332Z" stroke="white" stroke-width="2"/>
<path d="M48.4522 92.2148C51.9254 92.2148 54.7411 89.4427 54.7411 86.023C54.7411 82.6033 51.9254 79.8311 48.4522 79.8311C44.9789 79.8311 42.1633 82.6033 42.1633 86.023C42.1633 89.4427 44.9789 92.2148 48.4522 92.2148Z" stroke="white" stroke-width="2"/>
<path d="M85.616 55.624C89.0892 55.624 91.9049 52.8518 91.9049 49.4321C91.9049 46.0124 89.0892 43.2402 85.616 43.2402C82.1428 43.2402 79.3271 46.0124 79.3271 49.4321C79.3271 52.8518 82.1428 55.624 85.616 55.624Z" stroke="white" stroke-width="2"/>
<path d="M11.2884 55.624C14.7616 55.624 17.5772 52.8518 17.5772 49.4321C17.5772 46.0124 14.7616 43.2402 11.2884 43.2402C7.81513 43.2402 4.99951 46.0124 4.99951 49.4321C4.99951 52.8518 7.81513 55.624 11.2884 55.624Z" stroke="white" stroke-width="2"/>
<path d="M31.7717 18.111L37.0041 12.8416L31.7717 7.57227" stroke="white" stroke-width="2"/>
<path d="M65.1317 80.7539L59.9001 86.0233L65.1317 91.2927" stroke="white" stroke-width="2"/>
<path d="M16.6404 65.8549L11.2884 60.7031L5.93652 65.8549" stroke="white" stroke-width="2"/>
<path d="M80.2642 33.0098L85.6161 38.1606L90.968 33.0098" stroke="white" stroke-width="2"/>
</svg>
