<svg width="31" height="25" viewBox="0 0 31 25" fill="none" xmlns="http://www.w3.org/2000/svg">
<path d="M3.53812 3.77296C5.64262 1.49146 8.82712 0.334961 13.0016 0.334961H14.5016V4.56346L13.2956 4.80496C11.2406 5.21596 9.81112 6.02446 9.04612 7.21096C8.64696 7.85015 8.42057 8.58203 8.38912 9.33496H13.0016C13.3994 9.33496 13.781 9.493 14.0623 9.7743C14.3436 10.0556 14.5016 10.4371 14.5016 10.835V21.335C14.5016 22.9895 13.1561 24.335 11.5016 24.335H2.50162C2.10379 24.335 1.72226 24.1769 1.44096 23.8956C1.15965 23.6143 1.00162 23.2328 1.00162 22.835V15.335L1.00612 10.9565C0.992619 10.79 0.707619 6.84496 3.53812 3.77296ZM28.0016 24.335H19.0016C18.6038 24.335 18.2223 24.1769 17.941 23.8956C17.6597 23.6143 17.5016 23.2328 17.5016 22.835V15.335L17.5061 10.9565C17.4926 10.79 17.2076 6.84496 20.0381 3.77296C22.1426 1.49146 25.3271 0.334961 29.5016 0.334961H31.0016V4.56346L29.7956 4.80496C27.7406 5.21596 26.3111 6.02446 25.5461 7.21096C25.147 7.85015 24.9206 8.58203 24.8891 9.33496H29.5016C29.8994 9.33496 30.281 9.493 30.5623 9.7743C30.8436 10.0556 31.0016 10.4371 31.0016 10.835V21.335C31.0016 22.9895 29.6561 24.335 28.0016 24.335Z" fill="#5F249F"/>
</svg>
