<svg width="144" height="144" viewBox="0 0 144 144" fill="none" xmlns="http://www.w3.org/2000/svg">
<g clip-path="url(#clip0_7045_530614)">
<path d="M30.6282 71.6593V79.028L42.5654 80.732C43.333 83.9742 44.6102 87.0752 46.3542 89.9152L39.1298 99.5528L46.9437 107.367L56.5936 100.13C59.4305 101.877 62.5253 103.157 65.7645 103.928L67.4685 115.865H78.5215L80.2255 103.928C83.4677 103.16 86.5687 101.883 89.4087 100.139L99.0463 107.364L106.86 99.5498L99.6236 89.8999C101.371 87.0629 102.651 83.9681 103.421 80.7289L115.359 79.0249V71.6562" stroke="white" stroke-width="2" stroke-linecap="round" stroke-linejoin="round"/>
<path d="M90.5788 79.0252C88.2332 86.5013 81.2483 91.9234 72.9984 91.9234C64.7486 91.9234 57.6746 86.4307 55.375 78.8809" stroke="white" stroke-width="2" stroke-linecap="round" stroke-linejoin="round"/>
<path d="M38.0444 90.0811H30.6757V96.6914C29.4077 97.2041 28.2164 97.8919 27.1388 98.73L21.4188 95.4264L15.8923 104.996L21.6246 108.306C21.5232 108.982 21.471 109.66 21.4649 110.342C21.471 111.023 21.5232 111.705 21.6246 112.377L15.8923 115.687L21.4188 125.257L27.1511 121.948C28.2257 122.789 29.4139 123.477 30.6757 123.992V130.606H41.7288V123.995C42.9968 123.483 44.1881 122.795 45.2657 121.957L50.9857 125.26L56.5122 115.69L50.78 112.381" stroke="white" stroke-width="2" stroke-linecap="round" stroke-linejoin="round"/>
<path d="M42.5838 114.038C41.3096 116.237 38.9302 117.713 36.2068 117.713C32.1387 117.713 28.8381 114.413 28.8381 110.345C28.8381 107.621 30.3149 105.242 32.5133 103.968" stroke="white" stroke-width="2" stroke-linecap="round" stroke-linejoin="round"/>
<path d="M107.953 90.0811H115.322V96.6914C116.59 97.2041 117.781 97.8919 118.859 98.73L124.579 95.4264L130.105 104.996L124.373 108.306C124.474 108.982 124.526 109.66 124.533 110.342C124.526 111.023 124.474 111.705 124.373 112.377L130.105 115.687L124.579 125.257L118.846 121.948C117.772 122.789 116.584 123.477 115.322 123.992V130.606H104.269V123.995C103.001 123.483 101.809 122.795 100.732 121.957L95.0119 125.26L89.4854 115.69L95.2176 112.381" stroke="white" stroke-width="2" stroke-linecap="round" stroke-linejoin="round"/>
<path d="M103.416 114.038C104.69 116.237 107.069 117.713 109.792 117.713C113.861 117.713 117.161 114.413 117.161 110.345C117.161 107.621 115.684 105.242 113.486 103.968" stroke="white" stroke-width="2" stroke-linecap="round" stroke-linejoin="round"/>
<path d="M58.2617 58.7648V45.8697C58.2617 41.7862 61.5469 38.501 65.6304 38.501" stroke="white" stroke-width="2" stroke-linecap="round" stroke-linejoin="round"/>
<path d="M80.3687 38.501C84.4521 38.501 87.7373 41.7862 87.7373 45.8697V58.7648" stroke="white" stroke-width="2" stroke-linecap="round" stroke-linejoin="round"/>
<path d="M72.998 44.0267V42.1846" stroke="white" stroke-width="2" stroke-linecap="round" stroke-linejoin="round"/>
<path d="M72.998 58.7642V51.3955" stroke="white" stroke-width="2" stroke-linecap="round" stroke-linejoin="round"/>
<path d="M72.9978 16.3945C77.0813 16.3945 80.3665 19.6797 80.3665 23.7632V27.4475C80.3665 31.531 77.0813 34.8162 72.9978 34.8162C68.9144 34.8162 65.6292 31.531 65.6292 27.4475V23.7632C65.6292 19.6797 68.9144 16.3945 72.9978 16.3945Z" stroke="white" stroke-width="2" stroke-linecap="round" stroke-linejoin="round"/>
<path d="M15.8923 71.6599V51.396C15.8923 47.3125 19.1775 44.0273 23.261 44.0273" stroke="white" stroke-width="2" stroke-linecap="round" stroke-linejoin="round"/>
<path d="M37.9993 44.0273C42.0827 44.0273 45.3679 47.3125 45.3679 51.396V64.2912" stroke="white" stroke-width="2" stroke-linecap="round" stroke-linejoin="round"/>
<path d="M30.6287 49.5531V47.7109" stroke="white" stroke-width="2" stroke-linecap="round" stroke-linejoin="round"/>
<path d="M30.6287 64.2906V56.9219" stroke="white" stroke-width="2" stroke-linecap="round" stroke-linejoin="round"/>
<path d="M30.6299 21.9209C34.7134 21.9209 37.9986 25.2061 37.9986 29.2896V32.9739C37.9986 37.0574 34.7134 40.3426 30.6299 40.3426C26.5464 40.3426 23.2612 37.0574 23.2612 32.9739V29.2896C23.2612 25.2061 26.5464 21.9209 30.6299 21.9209Z" stroke="white" stroke-width="2" stroke-linecap="round" stroke-linejoin="round"/>
<path d="M100.634 64.2902V51.395C100.634 47.3116 103.919 44.0264 108.002 44.0264" stroke="white" stroke-width="2" stroke-linecap="round" stroke-linejoin="round"/>
<path d="M122.74 44.0264C126.824 44.0264 130.109 47.3116 130.109 51.395V71.6589" stroke="white" stroke-width="2" stroke-linecap="round" stroke-linejoin="round"/>
<path d="M115.37 49.5531V47.7109" stroke="white" stroke-width="2" stroke-linecap="round" stroke-linejoin="round"/>
<path d="M115.37 64.2906V56.9219" stroke="white" stroke-width="2" stroke-linecap="round" stroke-linejoin="round"/>
<path d="M115.371 21.9209C119.455 21.9209 122.74 25.2061 122.74 29.2896V32.9739C122.74 37.0574 119.455 40.3426 115.371 40.3426C111.288 40.3426 108.002 37.0574 108.002 32.9739V29.2896C108.002 25.2061 111.288 21.9209 115.371 21.9209Z" stroke="white" stroke-width="2" stroke-linecap="round" stroke-linejoin="round"/>
<path d="M39.8386 71.6592H106.157" stroke="white" stroke-width="2" stroke-linecap="round" stroke-linejoin="round"/>
<path d="M58.2612 71.6593V66.1328" stroke="white" stroke-width="2" stroke-linecap="round" stroke-linejoin="round"/>
<path d="M15.8918 79.0283V82.7127" stroke="white" stroke-width="2" stroke-linecap="round" stroke-linejoin="round"/>
<path d="M130.106 79.0283V82.7127" stroke="white" stroke-width="2" stroke-linecap="round" stroke-linejoin="round"/>
<path d="M87.7371 71.6593V66.1328" stroke="white" stroke-width="2" stroke-linecap="round" stroke-linejoin="round"/>
</g>
<defs>
<clipPath id="clip0_7045_530614">
<rect width="144" height="144" fill="white"/>
</clipPath>
</defs>
</svg>
