<svg width="144" height="144" viewBox="0 0 144 144" fill="none" xmlns="http://www.w3.org/2000/svg">
<path d="M121.198 113.203V81.2402" stroke="white" stroke-width="2"/>
<path d="M22.8022 113.202V49.4872C22.8022 47.072 24.758 45.1162 27.1732 45.1162H40.142" stroke="white" stroke-width="2"/>
<path d="M8.99414 114.186C8.99414 121.263 15.4707 127.001 23.4581 127.001H120.541C128.53 127.001 135.005 121.263 135.005 114.186H8.99414V114.186Z" stroke="white" stroke-width="2"/>
<path d="M65.1243 105.286V62.8273H74.6659C80.4296 62.8273 82.2989 59.4302 82.2989 55.1943H47.9486C44.3612 55.1943 38.4072 58.0756 38.4072 66.6444V80.0031C38.4072 84.1063 41.9368 87.636 46.0401 87.636" stroke="white" stroke-width="2"/>
<path d="M46.042 66.6445V105.286" stroke="white" stroke-width="2"/>
<path d="M55.5822 32.2939H53.6737C50.5116 32.2939 47.9492 34.8575 47.9492 38.0183V43.7427C47.9492 46.9048 50.5129 49.4671 53.6737 49.4671H55.5822C58.7444 49.4671 61.3066 46.9035 61.3066 43.7427V38.0183C61.3066 34.8575 58.7444 32.2939 55.5822 32.2939Z" stroke="white" stroke-width="2"/>
<path d="M55.5815 81.9111V105.285" stroke="white" stroke-width="2"/>
<path d="M55.959 24.4295V17H126.224V73.3643H121.197H72.9969" stroke="white" stroke-width="2" stroke-dasharray="4 4"/>
</svg>
