<svg width="144" height="144" viewBox="0 0 144 144" fill="none" xmlns="http://www.w3.org/2000/svg">
<path d="M88.1568 70.2643L95.4061 65.8834L92.1596 58.0458L83.9355 60.0739L83.7871 60.1355C81.9355 57.4408 79.6274 55.1663 77.0167 53.3736L77.0812 53.2195L79.1092 44.9954L71.2716 41.7489L66.8907 48.9982L66.8262 49.1523C63.7142 48.5752 60.4761 48.55 57.2576 49.1467L57.196 48.9954L52.815 41.7461L44.9775 44.9926L47.0055 53.2167L47.0671 53.368C44.3724 55.2195 42.0979 57.5276 40.3052 60.1355L40.1511 60.0711L31.927 58.0431L28.6805 65.8806L35.9298 70.2616L36.0839 70.326C35.5069 73.438 35.4817 76.6761 36.0783 79.8946L35.927 79.9563L28.6777 84.3372L31.9242 92.1748L40.1483 90.1467L40.2996 90.0851C42.1511 92.7798 44.4593 95.0543 47.0671 96.847L47.0027 97.0011L44.9747 105.225L52.8122 108.472L57.1932 101.222L57.2576 101.068C60.3696 101.645 63.6077 101.671 66.8262 101.074L66.8879 101.222L71.2688 108.472L79.1064 105.225L77.0784 97.0011L77.0167 96.8526C79.7114 95.0011 81.9859 92.693 83.7787 90.0851L83.9327 90.1495L92.1568 92.1775L95.4033 84.34L88.154 79.959L87.9999 79.8946C88.577 76.7826 88.6022 73.5417 88.0056 70.326L88.1568 70.2643Z" stroke="white" stroke-width="2"/>
<path d="M65.9878 84.4783C71.1547 82.338 73.6083 76.4145 71.468 71.2476C69.3278 66.0807 63.4042 63.6271 58.2373 65.7673C53.0704 67.9076 50.6168 73.8312 52.7571 78.9981C54.8973 84.1649 60.8209 86.6185 65.9878 84.4783Z" stroke="white" stroke-width="2"/>
<path d="M23.7412 123.874H104.618V132.118L118.965 118.888L104.618 105.67V113.902" stroke="white" stroke-width="2"/>
<path d="M105.72 82.8891H124.877V91.1412L139.227 77.9115L124.877 64.6846V72.9255" stroke="white" stroke-width="2"/>
<path d="M32.3691 20.1209H95.3048V11.8828L109.661 25.1097L95.3048 38.3366V30.0873" stroke="white" stroke-width="2"/>
<path d="M8.52832 46.1289H33.6404" stroke="white" stroke-width="2" stroke-dasharray="4 4"/>
<path d="M33.9182 106.665H4.77246" stroke="white" stroke-width="2" stroke-dasharray="4 4"/>
<path d="M104.618 113.902H88.3662" stroke="white" stroke-width="2" stroke-dasharray="4 4"/>
<path d="M124.877 72.9248H105.72" stroke="white" stroke-width="2" stroke-dasharray="4 4"/>
<path d="M95.3054 30.0869H53.8936" stroke="white" stroke-width="2" stroke-dasharray="4 4"/>
</svg>
