<svg width="144" height="144" viewBox="0 0 144 144" fill="none" xmlns="http://www.w3.org/2000/svg">
<path d="M21.0176 69.7859V78.6524L35.3812 80.7027C36.3048 84.604 37.8417 88.3353 39.9401 91.7526L31.2472 103.349L40.6494 112.751L52.2607 104.044C55.6743 106.146 59.3982 107.686 63.2958 108.614L65.3462 122.977H78.6458L80.6962 108.614C84.5974 107.69 88.3287 106.153 91.746 104.055L103.343 112.748L112.745 103.345L104.037 91.7341C106.139 88.3205 107.68 84.5966 108.607 80.699L122.971 78.6487V69.7822" stroke="white" stroke-width="2" stroke-linecap="round" stroke-linejoin="round"/>
<path d="M93.1539 78.6482C90.3314 87.644 81.9268 94.1682 72 94.1682C62.0733 94.1682 53.5615 87.559 50.7944 78.4746" stroke="white" stroke-width="2" stroke-linecap="round" stroke-linejoin="round"/>
<path d="M29.9397 91.9521H21.0732V99.9061C19.5475 100.523 18.1141 101.351 16.8173 102.359L9.93475 98.384L3.28491 109.899L10.1823 113.882C10.0604 114.695 9.99756 115.511 9.99017 116.331C9.99756 117.151 10.0604 117.971 10.1823 118.781L3.28491 122.763L9.93475 134.278L16.8321 130.296C18.1251 131.308 19.5549 132.136 21.0732 132.756V140.714H34.3729V132.76C35.8987 132.143 37.3321 131.316 38.6288 130.307L45.5114 134.282L52.1612 122.767L45.2639 118.784" stroke="white" stroke-width="2" stroke-linecap="round" stroke-linejoin="round"/>
<path d="M35.4 120.78C33.8668 123.425 31.0037 125.202 27.7268 125.202C22.8318 125.202 18.8604 121.23 18.8604 116.335C18.8604 113.058 20.6373 110.195 23.2825 108.662" stroke="white" stroke-width="2" stroke-linecap="round" stroke-linejoin="round"/>
<path d="M114.06 91.9521H122.927V99.9061C124.452 100.523 125.886 101.351 127.183 102.359L134.065 98.384L140.715 109.899L133.818 113.882C133.939 114.695 134.002 115.511 134.01 116.331C134.002 117.151 133.939 117.971 133.818 118.781L140.715 122.763L134.065 134.278L127.168 130.296C125.875 131.308 124.445 132.136 122.927 132.756V140.714H109.627V132.76C108.101 132.143 106.668 131.316 105.371 130.307L98.4885 134.282L91.8386 122.767L98.736 118.784" stroke="white" stroke-width="2" stroke-linecap="round" stroke-linejoin="round"/>
<path d="M108.6 120.78C110.133 123.425 112.996 125.202 116.273 125.202C121.168 125.202 125.139 121.23 125.139 116.335C125.139 113.058 123.362 110.195 120.717 108.662" stroke="white" stroke-width="2" stroke-linecap="round" stroke-linejoin="round"/>
<path d="M54.2671 54.2695V38.7532C54.2671 33.8397 58.2201 29.8867 63.1335 29.8867" stroke="white" stroke-width="2" stroke-linecap="round" stroke-linejoin="round"/>
<path d="M80.8662 29.8867C85.7797 29.8867 89.7327 33.8397 89.7327 38.7532V54.2695" stroke="white" stroke-width="2" stroke-linecap="round" stroke-linejoin="round"/>
<path d="M72.0002 36.5369V34.3203" stroke="white" stroke-width="2" stroke-linecap="round" stroke-linejoin="round"/>
<path d="M72.0002 54.2688V45.4023" stroke="white" stroke-width="2" stroke-linecap="round" stroke-linejoin="round"/>
<path d="M72.0002 3.28711C76.9137 3.28711 80.8667 7.24007 80.8667 12.1536V16.5868C80.8667 21.5003 76.9137 25.4532 72.0002 25.4532C67.0867 25.4532 63.1338 21.5003 63.1338 16.5868V12.1536C63.1338 7.24007 67.0867 3.28711 72.0002 3.28711Z" stroke="white" stroke-width="2" stroke-linecap="round" stroke-linejoin="round"/>
<path d="M3.28491 69.7863V45.4036C3.28491 40.4901 7.23787 36.5371 12.1514 36.5371" stroke="white" stroke-width="2" stroke-linecap="round" stroke-linejoin="round"/>
<path d="M29.8843 36.5371C34.7978 36.5371 38.7507 40.4901 38.7507 45.4036V60.9199" stroke="white" stroke-width="2" stroke-linecap="round" stroke-linejoin="round"/>
<path d="M21.0176 43.1873V40.9707" stroke="white" stroke-width="2" stroke-linecap="round" stroke-linejoin="round"/>
<path d="M21.0176 60.9192V52.0527" stroke="white" stroke-width="2" stroke-linecap="round" stroke-linejoin="round"/>
<path d="M21.0181 9.9375C25.9316 9.9375 29.8845 13.8905 29.8845 18.804V23.2372C29.8845 28.1507 25.9316 32.1036 21.0181 32.1036C16.1046 32.1036 12.1516 28.1507 12.1516 23.2372V18.804C12.1516 13.8905 16.1046 9.9375 21.0181 9.9375Z" stroke="white" stroke-width="2" stroke-linecap="round" stroke-linejoin="round"/>
<path d="M105.249 60.9199V45.4036C105.249 40.4901 109.201 36.5371 114.115 36.5371" stroke="white" stroke-width="2" stroke-linecap="round" stroke-linejoin="round"/>
<path d="M131.848 36.5371C136.761 36.5371 140.714 40.4901 140.714 45.4036V69.7863" stroke="white" stroke-width="2" stroke-linecap="round" stroke-linejoin="round"/>
<path d="M122.981 43.1873V40.9707" stroke="white" stroke-width="2" stroke-linecap="round" stroke-linejoin="round"/>
<path d="M122.981 60.9192V52.0527" stroke="white" stroke-width="2" stroke-linecap="round" stroke-linejoin="round"/>
<path d="M122.982 9.9375C127.895 9.9375 131.848 13.8905 131.848 18.804V23.2372C131.848 28.1507 127.895 32.1036 122.982 32.1036C118.068 32.1036 114.115 28.1507 114.115 23.2372V18.804C114.115 13.8905 118.068 9.9375 122.982 9.9375Z" stroke="white" stroke-width="2" stroke-linecap="round" stroke-linejoin="round"/>
<path d="M32.1006 69.7861H111.899" stroke="white" stroke-width="2" stroke-linecap="round" stroke-linejoin="round"/>
<path d="M54.2671 69.7856V63.1357" stroke="white" stroke-width="2" stroke-linecap="round" stroke-linejoin="round"/>
<path d="M3.28491 78.6523V83.0856" stroke="white" stroke-width="2" stroke-linecap="round" stroke-linejoin="round"/>
<path d="M140.715 78.6523V83.0856" stroke="white" stroke-width="2" stroke-linecap="round" stroke-linejoin="round"/>
<path d="M89.7329 69.7856V63.1357" stroke="white" stroke-width="2" stroke-linecap="round" stroke-linejoin="round"/>
</svg>
