<svg width="144" height="144" viewBox="0 0 144 144" fill="none" xmlns="http://www.w3.org/2000/svg">
<path d="M117.16 72.0065C117.16 71.9091 117.16 71.8395 117.16 71.7421H110.288L124.534 50.5254L138.781 71.7421H131.894C131.894 71.8256 131.894 71.923 131.894 72.0065C131.894 74.7473 131.713 77.4463 131.351 80.0897C127.4 109.404 102.302 131.998 71.9026 131.998C50.811 131.998 32.2516 121.104 21.5667 104.646" stroke="white" stroke-width="2" stroke-linecap="square"/>
<path d="M122.113 39.1594C111.401 22.7982 92.9106 12.002 71.9025 12.002C41.7399 12.002 16.7945 34.2482 12.5512 63.2283C12.1477 65.9551 11.939 68.7377 11.9112 71.5759H5.21924L19.4658 92.7926L27.5212 80.7999L33.7123 71.5759H26.6586" stroke="white" stroke-width="2" stroke-linecap="square"/>
<path d="M27.5215 80.8128V80.7988" stroke="white" stroke-width="2"/>
<path d="M71.9021 117.251C96.8892 117.251 117.16 96.9939 117.16 72.0068" stroke="white" stroke-width="2" stroke-dasharray="4 4"/>
<path d="M26.6589 71.5755C26.8955 46.7693 47.0409 26.749 71.9028 26.749" stroke="white" stroke-width="2" stroke-dasharray="4 4"/>
<path d="M54.5398 73.3189L67.0931 87.1773L89.4619 56.8213" stroke="white" stroke-width="2" stroke-linecap="square"/>
</svg>
