<svg width="144" height="144" viewBox="0 0 144 144" fill="none" xmlns="http://www.w3.org/2000/svg">
<g clip-path="url(#clip0_7267_531289)">
<path d="M115.107 34.7722L101.773 48.1854L106.784 53.2319L86.4087 57.0938L90.253 36.5997L95.2686 41.6461L108.603 28.2285" stroke="white" stroke-width="2" stroke-linejoin="round"/>
<path d="M74.4265 105.159L81.2344 108.334L78.9314 116.986L71.4541 116.308L64.8752 125.763L68.059 132.597L60.7623 137.74L55.4737 132.39L44.3855 135.376L42.4612 142.672L33.588 141.893L32.9495 134.372L22.5483 129.488L16.4142 133.834L10.1127 127.498L14.4326 121.328L9.57988 110.861L2.10706 110.227L1.32764 101.301L8.58028 99.3635L11.5527 88.2181L6.23319 82.8898L11.3413 75.5491L18.136 78.7593L27.5331 72.1364L26.8638 64.6195L35.4683 62.2988L38.6213 69.1507L50.0573 70.1548L54.3463 63.9634L62.4225 67.7504L60.4585 75.0339L68.5742 83.1981L75.818 81.2253L79.5831 89.3454L73.4269 93.6609L74.4265 105.159Z" stroke="white" stroke-width="2" stroke-linejoin="round"/>
<path d="M57.341 86.6413C57.2441 86.5356 57.1384 86.4299 57.0327 86.333" stroke="white" stroke-width="2" stroke-linejoin="round"/>
<path d="M41.0037 79.957H40.9993C38.5597 80.0055 36.1862 80.4722 33.9448 81.2957H33.9316C32.6633 81.7625 31.4392 82.3437 30.2766 83.0351H30.2722C29.9111 83.2465 29.5588 83.4667 29.2066 83.7C28.1277 84.4222 27.1149 85.2369 26.1725 86.1396C25.9259 86.373 25.6837 86.6152 25.4459 86.8618C25.032 87.3021 24.6269 87.7645 24.2438 88.2401C24.1469 88.359 24.0544 88.4779 23.9619 88.6012C23.755 88.8742 23.5524 89.1472 23.3542 89.4291C21.9011 91.5119 20.7738 93.8899 20.0736 96.4879C16.9119 108.395 23.9267 120.628 35.759 123.816C42.3688 125.595 49.071 124.177 54.2627 120.509C54.5446 120.316 54.8132 120.109 55.0818 119.902C55.2007 119.814 55.3196 119.717 55.4385 119.62C55.9097 119.237 56.372 118.836 56.808 118.413C57.0546 118.175 57.2924 117.938 57.5258 117.691C58.4109 116.757 59.2211 115.749 59.9433 114.661C60.1767 114.305 60.3969 113.952 60.6038 113.587H60.6083C61.2644 112.468 61.828 111.284 62.286 110.033C62.5282 109.382 62.7352 108.721 62.9201 108.038C63.4045 106.242 63.6467 104.428 63.6731 102.644" stroke="white" stroke-width="2" stroke-linejoin="round"/>
<path d="M135.046 44.1869L141.854 47.3574L139.55 56.0148L132.078 55.3323L125.494 64.7911L128.683 71.621L121.386 76.7643L116.093 71.414L105.005 74.3996L103.08 81.6919L94.2072 80.9169L93.5731 73.3956L83.1719 68.5165L77.0333 72.8628L70.7363 66.5261L75.0517 60.3523L70.2034 49.8895L62.7262 49.251L61.9468 40.325L69.2038 38.3918L72.1762 27.2376L66.8523 21.9181L71.9648 14.5774L78.7551 17.7876L88.1611 11.1647L87.483 3.64341L96.0875 1.32715L99.2404 8.17467L110.676 9.18308L114.965 2.98729L123.042 6.77434L121.078 14.0622L129.198 22.222L136.442 20.2492L140.202 28.3737L134.046 32.6892L135.046 44.1869Z" stroke="white" stroke-width="2" stroke-linejoin="round"/>
<path d="M101.737 63.5934H101.742C104.806 63.6506 107.796 63.0606 110.549 61.9244H110.553C111.663 61.4621 112.733 60.9116 113.754 60.2775C114.098 60.0661 114.433 59.8504 114.754 59.6214C116.555 58.3708 118.18 56.8472 119.554 55.0901C119.651 54.9712 119.739 54.8479 119.827 54.7246C120.034 54.4516 120.232 54.1742 120.426 53.888C121.808 51.8623 122.87 49.5681 123.539 47.0625C126.714 35.1553 119.69 22.9222 107.854 19.7385C101.35 17.9859 94.7399 19.3289 89.5877 22.8738C89.3015 23.0631 89.0285 23.2613 88.7511 23.4727C88.6234 23.5695 88.5089 23.6576 88.39 23.7545C86.677 25.1108 85.149 26.7269 83.8852 28.5676C83.8852 28.5676 83.8851 28.572 83.8807 28.572C83.6518 28.8978 83.436 29.2281 83.2334 29.5716C82.6169 30.58 82.0753 31.6368 81.6261 32.7465C81.2562 33.6405 80.9392 34.5564 80.6882 35.5164C80.1289 37.6081 79.8823 39.7174 79.9308 41.7826" stroke="white" stroke-width="2" stroke-linejoin="round"/>
<path d="M28.7178 108.58L42.0561 95.1623L37.0405 90.1202L57.4157 86.2539L53.5758 106.752L48.5602 101.71L35.2218 115.128" stroke="white" stroke-width="2" stroke-linejoin="round"/>
<path d="M126.626 83.7656V128.453H75.0562" stroke="white" stroke-width="2" stroke-linejoin="round" stroke-dasharray="4 4"/>
<path d="M15.5864 68.5078V16.5195H59.9213" stroke="white" stroke-width="2" stroke-linejoin="round" stroke-dasharray="4 4"/>
</g>
<defs>
<clipPath id="clip0_7267_531289">
<rect width="144" height="144" fill="white"/>
</clipPath>
</defs>
</svg>
