<svg width="96" height="96" viewBox="0 0 96 96" fill="none" xmlns="http://www.w3.org/2000/svg">
<path d="M69.5229 45.9648H73.4359" stroke="white" stroke-width="2"/>
<path d="M38.2192 45.9648H42.1322" stroke="white" stroke-width="2"/>
<path d="M48.002 45.9649C48.002 50.2887 51.5043 53.7912 55.8279 53.7912C60.1514 53.7912 63.6538 50.2887 63.6538 45.9649C63.6538 41.6412 60.1514 38.1387 55.8279 38.1387C51.5043 38.1387 48.002 41.6412 48.002 45.9649Z" stroke="white" stroke-width="2"/>
<path d="M14.5346 24.8525C15.3914 27.9856 13.5531 31.2059 10.421 32.0618C7.28802 32.9187 4.06784 31.0803 3.21194 27.9481C2.35604 24.8159 4.19346 21.5946 7.32552 20.7387C10.4585 19.8818 13.6787 21.7193 14.5346 24.8525Z" stroke="white" stroke-width="2" stroke-dasharray="4 4"/>
<path d="M14.6462 44.9082C15.2312 48.1032 13.1247 51.1538 9.9308 51.7397C6.73594 52.3247 3.68543 50.2182 3.10045 47.0241C2.51548 43.83 4.62195 40.7785 7.81588 40.1925C11.0098 39.6066 14.0613 41.7132 14.6462 44.9082Z" stroke="white" stroke-width="2" stroke-dasharray="4 4"/>
<path d="M31.5861 13.6449C29.9831 16.4696 26.4095 17.4558 23.5849 15.8527C20.7603 14.2496 19.7741 10.6758 21.3772 7.85113C22.9802 5.02644 26.5538 4.04019 29.3784 5.64332C32.203 7.24644 33.1892 10.8202 31.5861 13.6449Z" stroke="white" stroke-width="2" stroke-dasharray="4 4"/>
<path d="M13.1911 61.5547C10.9918 59.165 7.28699 59.0122 4.8974 61.2116C2.50781 63.411 2.35501 67.116 4.55429 69.5057C6.75358 71.8953 10.4584 72.0482 12.848 69.8488C15.2376 67.6494 15.3913 63.9444 13.1911 61.5547Z" stroke="white" stroke-width="2" stroke-dasharray="4 4"/>
<path d="M31.8421 78.794C30.5203 75.8268 27.0592 74.4993 24.0921 75.8211C21.1251 77.143 19.7976 80.6043 21.1195 83.5714C22.4413 86.5386 25.9024 87.8661 28.8694 86.5443C31.8365 85.2224 33.1639 81.7611 31.8421 78.794Z" stroke="white" stroke-width="2" stroke-dasharray="4 4"/>
<path d="M38.2195 32.2691H30.3935L24.5241 26.3994H14.7417" stroke="white" stroke-width="2"/>
<path d="M14.7427 65.5311H24.5251L30.3945 59.6614H79.3056C79.3056 55.7483 81.9277 53.7917 85.1751 53.7917V38.1392C81.9277 38.1392 79.3056 36.1827 79.3056 32.2695H42.1334" stroke="white" stroke-width="2"/>
<path d="M30.3936 77.2693L40.176 67.4864H49.9584H53.8713H93V24.444H40.176L30.3936 14.6611" stroke="white" stroke-width="2"/>
<path d="M14.7427 45.9648H34.3075" stroke="white" stroke-width="2"/>
</svg>
