<svg width="96" height="96" viewBox="0 0 96 96" fill="none" xmlns="http://www.w3.org/2000/svg">
<path d="M84.3887 77.3771V53.7354" stroke="white" stroke-width="2"/>
<path d="M11.6094 77.3769V30.2488C11.6094 28.4623 13.056 27.0156 14.8425 27.0156H24.4351" stroke="white" stroke-width="2"/>
<path d="M1.39502 78.1045C1.39502 83.3397 6.18555 87.5835 12.0936 87.5835H83.9032C89.8122 87.5835 94.6018 83.3397 94.6018 78.1045H1.39502V78.1045Z" stroke="white" stroke-width="2"/>
<path d="M42.9142 71.5208V40.1156H49.9718C54.2351 40.1156 55.6177 37.6029 55.6177 34.4697H30.2098C27.5563 34.4697 23.1523 36.6009 23.1523 42.939V52.82C23.1523 55.8551 25.7631 58.4659 28.7981 58.4659" stroke="white" stroke-width="2"/>
<path d="M28.7993 42.9395V71.5212" stroke="white" stroke-width="2"/>
<path d="M35.8569 17.5312H34.4452C32.1062 17.5312 30.2109 19.4274 30.2109 21.7654V25.9995C30.2109 28.3385 32.1072 30.2337 34.4452 30.2337H35.8569C38.1958 30.2337 40.091 28.3375 40.091 25.9995V21.7654C40.091 19.4274 38.1958 17.5312 35.8569 17.5312Z" stroke="white" stroke-width="2"/>
<path d="M35.8569 54.2314V71.5205" stroke="white" stroke-width="2"/>
<path d="M36.1348 11.7141V6.21875H88.1078V47.9098H84.3891H48.7372" stroke="white" stroke-width="2" stroke-dasharray="4 4"/>
</svg>
