<svg width="144" height="144" viewBox="0 0 144 144" fill="none" xmlns="http://www.w3.org/2000/svg">
<g clip-path="url(#clip0_8370_550808)">
<path d="M20.6484 3.02051H2.52344V21.1455H20.6484V3.02051Z" stroke="white" stroke-width="2" stroke-linecap="round" stroke-linejoin="round"/>
<path d="M20.6484 123.854H2.52344V141.979H20.6484V123.854Z" stroke="white" stroke-width="2" stroke-linecap="round" stroke-linejoin="round"/>
<path d="M141.477 3.02051H123.352V21.1455H141.477V3.02051Z" stroke="white" stroke-width="2" stroke-linecap="round" stroke-linejoin="round"/>
<path d="M141.477 123.854H123.352V141.979H141.477V123.854Z" stroke="white" stroke-width="2" stroke-linecap="round" stroke-linejoin="round"/>
<path d="M102.206 93.8879L71.9974 106.726L41.7891 93.8879V51.113L71.9974 38.2744L102.206 51.113V93.8879Z" stroke="white" stroke-width="2" stroke-linecap="round" stroke-linejoin="round"/>
<path d="M102.206 51.1133L71.9974 63.9518L41.7891 51.1133" stroke="white" stroke-width="2" stroke-linecap="round" stroke-linejoin="round"/>
<path d="M53.8724 15.1042C55.5408 15.1042 56.8932 13.7517 56.8932 12.0833C56.8932 10.415 55.5408 9.0625 53.8724 9.0625C52.204 9.0625 50.8516 10.415 50.8516 12.0833C50.8516 13.7517 52.204 15.1042 53.8724 15.1042Z" fill="white"/>
<path d="M41.7943 15.1042C43.4626 15.1042 44.8151 13.7517 44.8151 12.0833C44.8151 10.415 43.4626 9.0625 41.7943 9.0625C40.1259 9.0625 38.7734 10.415 38.7734 12.0833C38.7734 13.7517 40.1259 15.1042 41.7943 15.1042Z" fill="white"/>
<path d="M29.7083 15.1042C31.3767 15.1042 32.7292 13.7517 32.7292 12.0833C32.7292 10.415 31.3767 9.0625 29.7083 9.0625C28.04 9.0625 26.6875 10.415 26.6875 12.0833C26.6875 13.7517 28.04 15.1042 29.7083 15.1042Z" fill="white"/>
<path d="M90.1224 15.1042C91.7908 15.1042 93.1432 13.7517 93.1432 12.0833C93.1432 10.415 91.7908 9.0625 90.1224 9.0625C88.454 9.0625 87.1016 10.415 87.1016 12.0833C87.1016 13.7517 88.454 15.1042 90.1224 15.1042Z" fill="white"/>
<path d="M114.294 15.1042C115.963 15.1042 117.315 13.7517 117.315 12.0833C117.315 10.415 115.963 9.0625 114.294 9.0625C112.626 9.0625 111.273 10.415 111.273 12.0833C111.273 13.7517 112.626 15.1042 114.294 15.1042Z" fill="white"/>
<path d="M102.208 15.1042C103.877 15.1042 105.229 13.7517 105.229 12.0833C105.229 10.415 103.877 9.0625 102.208 9.0625C100.54 9.0625 99.1875 10.415 99.1875 12.0833C99.1875 13.7517 100.54 15.1042 102.208 15.1042Z" fill="white"/>
<path d="M53.8724 135.937C55.5408 135.937 56.8932 134.585 56.8932 132.916C56.8932 131.248 55.5408 129.896 53.8724 129.896C52.204 129.896 50.8516 131.248 50.8516 132.916C50.8516 134.585 52.204 135.937 53.8724 135.937Z" fill="white"/>
<path d="M41.7943 135.937C43.4626 135.937 44.8151 134.585 44.8151 132.916C44.8151 131.248 43.4626 129.896 41.7943 129.896C40.1259 129.896 38.7734 131.248 38.7734 132.916C38.7734 134.585 40.1259 135.937 41.7943 135.937Z" fill="white"/>
<path d="M29.7083 135.937C31.3767 135.937 32.7292 134.585 32.7292 132.916C32.7292 131.248 31.3767 129.896 29.7083 129.896C28.04 129.896 26.6875 131.248 26.6875 132.916C26.6875 134.585 28.04 135.937 29.7083 135.937Z" fill="white"/>
<path d="M90.1224 135.937C91.7908 135.937 93.1432 134.585 93.1432 132.916C93.1432 131.248 91.7908 129.896 90.1224 129.896C88.454 129.896 87.1016 131.248 87.1016 132.916C87.1016 134.585 88.454 135.937 90.1224 135.937Z" fill="white"/>
<path d="M114.294 135.937C115.963 135.937 117.315 134.585 117.315 132.916C117.315 131.248 115.963 129.896 114.294 129.896C112.626 129.896 111.273 131.248 111.273 132.916C111.273 134.585 112.626 135.937 114.294 135.937Z" fill="white"/>
<path d="M102.208 135.937C103.877 135.937 105.229 134.585 105.229 132.916C105.229 131.248 103.877 129.896 102.208 129.896C100.54 129.896 99.1875 131.248 99.1875 132.916C99.1875 134.585 100.54 135.937 102.208 135.937Z" fill="white"/>
<path d="M132.419 57.3962C134.088 57.3962 135.44 56.0437 135.44 54.3753C135.44 52.707 134.088 51.3545 132.419 51.3545C130.751 51.3545 129.398 52.707 129.398 54.3753C129.398 56.0437 130.751 57.3962 132.419 57.3962Z" fill="white"/>
<path d="M132.419 45.3122C134.088 45.3122 135.44 43.9597 135.44 42.2913C135.44 40.623 134.088 39.2705 132.419 39.2705C130.751 39.2705 129.398 40.623 129.398 42.2913C129.398 43.9597 130.751 45.3122 132.419 45.3122Z" fill="white"/>
<path d="M132.419 33.2292C134.088 33.2292 135.44 31.8767 135.44 30.2083C135.44 28.54 134.088 27.1875 132.419 27.1875C130.751 27.1875 129.398 28.54 129.398 30.2083C129.398 31.8767 130.751 33.2292 132.419 33.2292Z" fill="white"/>
<path d="M132.419 93.6462C134.088 93.6462 135.44 92.2937 135.44 90.6253C135.44 88.957 134.088 87.6045 132.419 87.6045C130.751 87.6045 129.398 88.957 129.398 90.6253C129.398 92.2937 130.751 93.6462 132.419 93.6462Z" fill="white"/>
<path d="M132.419 117.812C134.088 117.812 135.44 116.46 135.44 114.791C135.44 113.123 134.088 111.771 132.419 111.771C130.751 111.771 129.398 113.123 129.398 114.791C129.398 116.46 130.751 117.812 132.419 117.812Z" fill="white"/>
<path d="M132.419 105.729C134.088 105.729 135.44 104.377 135.44 102.708C135.44 101.04 134.088 99.6875 132.419 99.6875C130.751 99.6875 129.398 101.04 129.398 102.708C129.398 104.377 130.751 105.729 132.419 105.729Z" fill="white"/>
<path d="M11.5833 57.3962C13.2517 57.3962 14.6042 56.0437 14.6042 54.3753C14.6042 52.707 13.2517 51.3545 11.5833 51.3545C9.91497 51.3545 8.5625 52.707 8.5625 54.3753C8.5625 56.0437 9.91497 57.3962 11.5833 57.3962Z" fill="white"/>
<path d="M11.5833 45.3122C13.2517 45.3122 14.6042 43.9597 14.6042 42.2913C14.6042 40.623 13.2517 39.2705 11.5833 39.2705C9.91497 39.2705 8.5625 40.623 8.5625 42.2913C8.5625 43.9597 9.91497 45.3122 11.5833 45.3122Z" fill="white"/>
<path d="M11.5833 33.2292C13.2517 33.2292 14.6042 31.8767 14.6042 30.2083C14.6042 28.54 13.2517 27.1875 11.5833 27.1875C9.91497 27.1875 8.5625 28.54 8.5625 30.2083C8.5625 31.8767 9.91497 33.2292 11.5833 33.2292Z" fill="white"/>
<path d="M11.5833 93.6462C13.2517 93.6462 14.6042 92.2937 14.6042 90.6253C14.6042 88.957 13.2517 87.6045 11.5833 87.6045C9.91497 87.6045 8.5625 88.957 8.5625 90.6253C8.5625 92.2937 9.91497 93.6462 11.5833 93.6462Z" fill="white"/>
<path d="M11.5833 117.812C13.2517 117.812 14.6042 116.46 14.6042 114.791C14.6042 113.123 13.2517 111.771 11.5833 111.771C9.91497 111.771 8.5625 113.123 8.5625 114.791C8.5625 116.46 9.91497 117.812 11.5833 117.812Z" fill="white"/>
<path d="M11.5833 105.729C13.2517 105.729 14.6042 104.377 14.6042 102.708C14.6042 101.04 13.2517 99.6875 11.5833 99.6875C9.91497 99.6875 8.5625 101.04 8.5625 102.708C8.5625 104.377 9.91497 105.729 11.5833 105.729Z" fill="white"/>
<path d="M29.7083 75.5212C31.3767 75.5212 32.7292 74.1687 32.7292 72.5003C32.7292 70.832 31.3767 69.4795 29.7083 69.4795C28.04 69.4795 26.6875 70.832 26.6875 72.5003C26.6875 74.1687 28.04 75.5212 29.7083 75.5212Z" fill="white"/>
<path d="M114.294 75.5212C115.963 75.5212 117.315 74.1687 117.315 72.5003C117.315 70.832 115.963 69.4795 114.294 69.4795C112.626 69.4795 111.273 70.832 111.273 72.5003C111.273 74.1687 112.626 75.5212 114.294 75.5212Z" fill="white"/>
<path d="M71.9974 30.2087C73.6658 30.2087 75.0182 28.8562 75.0182 27.1878C75.0182 25.5195 73.6658 24.167 71.9974 24.167C70.329 24.167 68.9766 25.5195 68.9766 27.1878C68.9766 28.8562 70.329 30.2087 71.9974 30.2087Z" fill="white"/>
<path d="M71.9974 120.834C73.6658 120.834 75.0182 119.481 75.0182 117.813C75.0182 116.144 73.6658 114.792 71.9974 114.792C70.329 114.792 68.9766 116.144 68.9766 117.813C68.9766 119.481 70.329 120.834 71.9974 120.834Z" fill="white"/>
<path d="M72.0026 18.1253C75.3393 18.1253 78.0443 15.4204 78.0443 12.0837C78.0443 8.74694 75.3393 6.04199 72.0026 6.04199C68.6659 6.04199 65.9609 8.74694 65.9609 12.0837C65.9609 15.4204 68.6659 18.1253 72.0026 18.1253Z" stroke="white" stroke-width="2" stroke-linecap="round" stroke-linejoin="round"/>
<path d="M72.0026 138.958C75.3393 138.958 78.0443 136.253 78.0443 132.917C78.0443 129.58 75.3393 126.875 72.0026 126.875C68.6659 126.875 65.9609 129.58 65.9609 132.917C65.9609 136.253 68.6659 138.958 72.0026 138.958Z" stroke="white" stroke-width="2" stroke-linecap="round" stroke-linejoin="round"/>
<path d="M132.417 78.5413C135.753 78.5413 138.458 75.8364 138.458 72.4997C138.458 69.163 135.753 66.458 132.417 66.458C129.08 66.458 126.375 69.163 126.375 72.4997C126.375 75.8364 129.08 78.5413 132.417 78.5413Z" stroke="white" stroke-width="2" stroke-linecap="round" stroke-linejoin="round"/>
<path d="M11.5807 78.5413C14.9174 78.5413 17.6224 75.8364 17.6224 72.4997C17.6224 69.163 14.9174 66.458 11.5807 66.458C8.24401 66.458 5.53906 69.163 5.53906 72.4997C5.53906 75.8364 8.24401 78.5413 11.5807 78.5413Z" stroke="white" stroke-width="2" stroke-linecap="round" stroke-linejoin="round"/>
</g>
<defs>
<clipPath id="clip0_8370_550808">
<rect width="144" height="144" fill="white"/>
</clipPath>
</defs>
</svg>
