<svg width="144" height="144" viewBox="0 0 144 144" fill="none" xmlns="http://www.w3.org/2000/svg">
<path d="M88.9334 68.7863L96.0848 64.4646L92.8822 56.7329L84.7692 58.7335L84.6227 58.7943C82.7962 56.136 80.5192 53.8922 77.9438 52.1237L78.0074 51.9718L80.008 43.8587L72.2763 40.6561L67.9546 47.8075L67.891 47.9594C64.821 47.3902 61.6266 47.3653 58.4516 47.9539L58.3908 47.8047L54.069 40.6533L46.3374 43.856L48.338 51.969L48.3988 52.1182C45.7405 53.9447 43.4967 56.2217 41.7282 58.7943L41.5762 58.7308L33.4632 56.7301L30.2606 64.4618L37.412 68.7836L37.5639 68.8471C36.9947 71.9172 36.9698 75.1115 37.5584 78.2865L37.4092 78.3473L30.2578 82.6691L33.4605 90.4008L41.5735 88.4002L41.7227 88.3394C43.5492 90.9977 45.8262 93.2415 48.3988 95.01L48.3352 95.1619L46.3346 103.275L54.0663 106.478L58.3881 99.3262L58.4516 99.1742C61.5216 99.7435 64.716 99.7683 67.891 99.1798L67.9518 99.3262L72.2736 106.478L80.0053 103.275L78.0046 95.1619L77.9438 95.0155C80.6021 93.189 82.8459 90.912 84.6144 88.3394L84.7664 88.4029L92.8794 90.4035L96.0821 82.6719L88.9307 78.3501L88.7787 78.2865C89.3479 75.2165 89.3728 72.0194 88.7842 68.8471L88.9334 68.7863Z" stroke="white" stroke-width="2"/>
<path d="M67.0624 82.8081C72.1595 80.6968 74.5799 74.8533 72.4686 69.7562C70.3573 64.6591 64.5137 62.2386 59.4166 64.35C54.3195 66.4613 51.8991 72.3049 54.0104 77.402C56.1217 82.4991 61.9653 84.9195 67.0624 82.8081Z" stroke="white" stroke-width="2"/>
<path d="M25.3906 121.673H105.175V129.806L119.329 116.755L105.175 103.715V111.836" stroke="white" stroke-width="2"/>
<path d="M106.266 81.2408H125.164V89.3815L139.32 76.3305L125.164 63.2822V71.4118" stroke="white" stroke-width="2"/>
<path d="M33.8984 19.3211H95.984V11.1943L110.146 24.2426L95.984 37.2908V29.1529" stroke="white" stroke-width="2"/>
<path d="M10.3828 44.9775H35.1557" stroke="white" stroke-width="2" stroke-dasharray="4 4"/>
<path d="M35.4317 104.696H6.67969" stroke="white" stroke-width="2" stroke-dasharray="4 4"/>
<path d="M105.173 111.836H89.1406" stroke="white" stroke-width="2" stroke-dasharray="4 4"/>
<path d="M125.164 71.4111H106.266" stroke="white" stroke-width="2" stroke-dasharray="4 4"/>
<path d="M95.9852 29.1533H55.1328" stroke="white" stroke-width="2" stroke-dasharray="4 4"/>
</svg>
