<svg width="96" height="96" viewBox="0 0 96 96" fill="none" xmlns="http://www.w3.org/2000/svg">
<path d="M71.1562 86.0851V82.6619C71.1562 79.9907 77.0625 71.9966 77.0625 67.9996V46.5107C77.0625 44.2945 74.9756 42.5532 73.125 42.5532H71.1562" stroke="white" stroke-width="2" stroke-linejoin="round"/>
<path d="M47.5312 46.5106V16.8297C47.5312 13.545 45.3262 10.8936 42.6094 10.8936C39.8925 10.8936 37.6875 13.545 37.6875 16.8297V50.468L34.2028 56.4042L27.8438 46.5106C23.9456 41.1284 18 44.1559 18 46.5106C18 46.5106 27.765 68.1776 28.8281 69.8397C30.5213 72.511 37.6875 78.744 37.6875 80.8414V86.085" stroke="white" stroke-width="2" stroke-linejoin="round"/>
<path d="M57.375 44.532V36.6171C57.375 34.4009 55.2881 32.6597 53.4375 32.6597H51.4688" stroke="white" stroke-width="2" stroke-linejoin="round"/>
<path d="M67.2188 46.5105V38.5956C67.2188 36.3795 65.1319 34.6382 63.2812 34.6382H61.3125" stroke="white" stroke-width="2" stroke-linejoin="round"/>
<path d="M75.0938 94.0001V86.0852H33.75V94.0001" stroke="white" stroke-width="2" stroke-linejoin="round"/>
<path d="M61.3125 10.8937V2.97876H53.4375" stroke="white" stroke-width="2" stroke-linejoin="round"/>
<path d="M61.3125 16.8298V24.7447H53.4375" stroke="white" stroke-width="2" stroke-linejoin="round"/>
<path d="M23.9062 10.8937V2.97876H31.7812" stroke="white" stroke-width="2" stroke-linejoin="round"/>
<path d="M23.9062 16.8298V24.7447H31.7812" stroke="white" stroke-width="2" stroke-linejoin="round"/>
</svg>
