<svg width="96" height="96" viewBox="0 0 96 96" fill="none" xmlns="http://www.w3.org/2000/svg">
<path d="M83.7132 72.1299H3.99301C2.89685 72.1299 2 71.2416 2 70.1558V18.8312C2 17.7455 2.89685 16.8572 3.99301 16.8572H91.6853C92.7814 16.8572 93.6783 17.7455 93.6783 18.8312V66.2078" stroke="white" stroke-width="2" stroke-miterlimit="10"/>
<path d="M41.8604 82V72.1299" stroke="white" stroke-width="2" stroke-miterlimit="10"/>
<path d="M53.8184 72.1299V82" stroke="white" stroke-width="2" stroke-miterlimit="10"/>
<path d="M27.9092 82H67.7693" stroke="white" stroke-width="2" stroke-miterlimit="10"/>
<path d="M70.7586 64.2339C79.0139 64.2339 85.7061 57.6054 85.7061 49.4287C85.7061 41.252 79.0139 34.6235 70.7586 34.6235C62.5033 34.6235 55.811 41.252 55.811 49.4287C55.811 57.6054 62.5033 64.2339 70.7586 64.2339Z" stroke="white" stroke-width="2" stroke-miterlimit="10"/>
<path d="M79.7271 60.2856L93.6781 74.1038" stroke="white" stroke-width="2" stroke-miterlimit="10"/>
<path d="M57.8044 34.6234V26.7273H47.8394V66.2078" stroke="white" stroke-width="2" stroke-miterlimit="10"/>
<path d="M39.8669 66.2076V38.5713H29.9019V66.2076" stroke="white" stroke-width="2" stroke-miterlimit="10"/>
<path d="M21.9299 66.2079V48.4417H11.9648V66.2079" stroke="white" stroke-width="2" stroke-miterlimit="10"/>
</svg>
