<svg width="96" height="96" viewBox="0 0 96 96" fill="none" xmlns="http://www.w3.org/2000/svg">
<path d="M28.5418 82.7291H3.896V6.89575H91.1043V82.7291H66.4585" stroke="white" stroke-width="2" stroke-miterlimit="10"/>
<path d="M3.896 18.2708H91.1043" stroke="white" stroke-width="2" stroke-miterlimit="10"/>
<path d="M9.5835 12.5833H13.3752" stroke="white" stroke-width="2" stroke-miterlimit="10"/>
<path d="M17.1665 12.5833H20.9582" stroke="white" stroke-width="2" stroke-miterlimit="10"/>
<path d="M24.75 12.5833H28.5417" stroke="white" stroke-width="2" stroke-miterlimit="10"/>
<path d="M60.771 71.3542H34.2293C33.1823 71.3542 32.3335 72.203 32.3335 73.2501V92.2084C32.3335 93.2555 33.1823 94.1042 34.2293 94.1042H60.771C61.818 94.1042 62.6668 93.2555 62.6668 92.2084V73.2501C62.6668 72.203 61.818 71.3542 60.771 71.3542Z" stroke="white" stroke-width="2" stroke-miterlimit="10"/>
<path d="M38.021 61.8749C38.021 56.6424 42.2677 52.3958 47.5002 52.3958C52.7327 52.3958 56.9793 56.6424 56.9793 61.8749V71.3541H38.021V61.8749Z" stroke="white" stroke-width="2" stroke-miterlimit="10"/>
<path d="M32.3333 27.75H13.375V46.7083H32.3333V27.75Z" stroke="white" stroke-width="2" stroke-miterlimit="10"/>
<path d="M41.8125 35.3333H81.625" stroke="white" stroke-width="2" stroke-miterlimit="10"/>
<path d="M41.8125 27.75H81.625" stroke="white" stroke-width="2" stroke-miterlimit="10"/>
<path d="M41.8125 42.9167H68.3542" stroke="white" stroke-width="2" stroke-miterlimit="10"/>
</svg>
