<svg width="144" height="144" viewBox="0 0 144 144" fill="none" xmlns="http://www.w3.org/2000/svg">
<g clip-path="url(#clip0_15308_511790)">
<mask id="mask0_15308_511790" style="mask-type:luminance" maskUnits="userSpaceOnUse" x="0" y="0" width="144" height="144">
<path d="M144 0H0V144H144V0Z" fill="white"/>
</mask>
<g mask="url(#mask0_15308_511790)">
<path d="M114.799 35L101.599 48.3L106.599 53.3L86.3994 57.1L90.1994 36.7L95.1994 41.7L108.399 28.4" stroke="white" stroke-width="3" stroke-linejoin="round"/>
<path d="M74.3998 104.9L81.1998 108.1L78.8998 116.7L71.4998 116L64.9998 125.4L68.1998 132.2L60.9998 137.3L55.6998 132L44.6998 135L42.7998 142.2L33.9998 141.4L33.3998 133.9L23.0998 129.1L16.9998 133.4L10.6998 127.1L14.9998 121L9.9998 110.6L2.5998 110L1.7998 101.1L8.9998 99.2L11.9998 88.1L6.6998 82.8001L11.7998 75.5L18.4998 78.7L27.7998 72.1L27.0998 64.6L35.5998 62.3L38.6998 69.1L50.0998 70.1L54.3998 64L62.3998 67.8001L60.3998 75L68.4998 83.1L75.6998 81.1L79.3998 89.2L73.2998 93.5L74.3998 104.9Z" stroke="white" stroke-width="3" stroke-linejoin="round"/>
<path d="M57.3996 86.5001C57.2996 86.4001 57.1996 86.3001 57.0996 86.2001" stroke="white" stroke-width="3" stroke-linejoin="round"/>
<path d="M41.2001 79.9C38.8001 79.9 36.4001 80.4 34.2001 81.2C32.9001 81.7 31.7001 82.2 30.6001 82.9C30.2001 83.1 29.9001 83.3 29.5001 83.6C28.4001 84.3 27.4001 85.1 26.5001 86C26.3001 86.2 26.0001 86.5 25.8001 86.7C25.4001 87.1 25.0001 87.6 24.6001 88.1C24.5001 88.2 24.4001 88.3 24.3001 88.5C24.1001 88.8 23.9001 89 23.7001 89.3C22.3001 91.4 21.1001 93.7 20.4001 96.3C17.3001 108.1 24.2001 120.3 36.0001 123.4C42.6001 125.2 49.2001 123.8 54.4001 120.1C54.7001 119.9 54.9001 119.7 55.2001 119.5C55.3001 119.4 55.4001 119.3 55.6001 119.2C56.1001 118.8 56.5001 118.4 57.0001 118C57.2001 117.8 57.5001 117.5 57.7001 117.3C58.6001 116.4 59.4001 115.4 60.1001 114.3C60.3001 113.9 60.6001 113.6 60.8001 113.2C61.5001 112.1 62.0001 110.9 62.5001 109.7C62.7001 109.1 62.9001 108.4 63.1001 107.7C63.6001 105.9 63.8001 104.1 63.8001 102.3" stroke="white" stroke-width="3" stroke-linejoin="round"/>
<path d="M134.6 44.4001L141.4 47.5L139.1 56.1L131.7 55.4001L125.2 64.8001L128.4 71.6L121.2 76.7L115.9 71.4L104.9 74.4L103 81.6L94.2 80.8L93.6 73.3L83.3 68.5L77 72.9L70.7 66.6L75 60.5L70.2 50L62.8 49.4001L62 40.5L69.2 38.6L72.2 27.5L66.9 22.2001L72 15L78.7 18.2001L88 11.6L87.3 4.10005L95.8 1.80005L98.9 8.60005L110.3 9.60005L114.6 3.40005L122.6 7.20005L120.6 14.4L128.7 22.5L135.9 20.5L139.6 28.6L133.5 32.9001L134.6 44.4001Z" stroke="white" stroke-width="3" stroke-linejoin="round"/>
<path d="M101.5 63.7001C104.5 63.8001 107.5 63.2001 110.3 62.0001C111.4 61.5001 112.5 61.0001 113.5 60.4001C113.8 60.2001 114.2 60.0001 114.5 59.7001C116.3 58.5001 117.9 56.9001 119.3 55.2001C119.4 55.1001 119.5 55.0001 119.6 54.8001C119.8 54.5001 120 54.3001 120.2 54.0001C121.6 52.0001 122.6 49.7001 123.3 47.2001C126.5 35.4001 119.5 23.2001 107.7 20.1001C101.2 18.4001 94.7 19.7001 89.6 23.2001C89.3 23.4001 89 23.6001 88.8 23.8001C88.7 23.9001 88.6 24.0001 88.4 24.1001C86.7 25.4001 85.2 27.1001 83.9 28.9001C83.7 29.2001 83.5 29.6001 83.3 29.9001C82.7 30.9001 82.1 32.0001 81.7 33.1001C81.3 34.0001 81 34.9001 80.8 35.9001C80.2 38.0001 80 40.1001 80 42.1001" stroke="white" stroke-width="3" stroke-linejoin="round"/>
<path d="M29 108.3L42.3 95.0001L37.3 90.0001L57.5 86.2001L53.7 106.6L48.7 101.6L35.5 114.9" stroke="white" stroke-width="3" stroke-linejoin="round"/>
<path d="M126.2 83.7001V128.1H75" stroke="white" stroke-width="3" stroke-linejoin="round" stroke-dasharray="6 6"/>
<path d="M16 68.5V16.9H60" stroke="white" stroke-width="3" stroke-linejoin="round" stroke-dasharray="6 6"/>
</g>
</g>
<defs>
<clipPath id="clip0_15308_511790">
<rect width="144" height="144" fill="white"/>
</clipPath>
</defs>
</svg>
