<svg width="144" height="144" viewBox="0 0 144 144" fill="none" xmlns="http://www.w3.org/2000/svg">
<path d="M47.3001 11.2C29.8001 23.9 24.9001 47.9 36.0001 66.5C36.0001 66.5 37.9001 69.5 38.7001 70.5L44.7001 79C49.6001 85.8 52.3001 89.9 52.3001 98.2C52.3001 103.5 56.6001 107.8 61.9001 107.8H72.0001" stroke="white" stroke-width="2.9958" stroke-miterlimit="10" stroke-linecap="round"/>
<path d="M84.2994 108C88.3994 107.9 91.5994 104.5 91.5994 100.4L91.6994 98.4C91.6994 90 94.3994 85.9 99.2994 79.2L105.199 70.7C105.999 69.7 107.999 66.7 107.999 66.7C112.399 59.4 114.399 50.9 113.799 42.3C112.199 19 92.1994 1.59995 68.9994 3.19995C64.6994 3.49995 60.3994 4.49995 56.3994 6.09995" stroke="white" stroke-width="2.9958" stroke-miterlimit="10" stroke-linecap="round"/>
<path d="M80.8996 108H93.3996V115.2C93.3996 117.8 91.2996 120 88.5996 120H55.3996C52.7996 120 50.5996 117.9 50.5996 115.2V108H71.9996" stroke="white" stroke-width="2.9958" stroke-miterlimit="10" stroke-linecap="round"/>
<path d="M71.9996 131.9H56.5996C53.2996 131.9 50.5996 129.2 50.5996 125.9C50.5996 122.6 53.2996 119.9 56.5996 119.9H79.0996" stroke="white" stroke-width="2.9958" stroke-miterlimit="10" stroke-linecap="round"/>
<path d="M83.8998 119.9H87.3998C90.6998 119.9 93.3998 122.6 93.3998 125.9C93.3998 129.2 90.6998 131.9 87.3998 131.9H83.8998L76.7998 140.9H67.2998L57.7998 131.4" stroke="white" stroke-width="2.9958" stroke-miterlimit="10"/>
<path d="M113.9 45C113.9 65.9 98.4998 83.6 77.7998 86.5" stroke="white" stroke-width="2.9958" stroke-miterlimit="10" stroke-linecap="round"/>
<path d="M69 90C70.7 90 72 88.7 72 87C72 85.3 70.7 84 69 84C67.3 84 66 85.3 66 87C66 88.6 67.3 90 69 90Z" fill="white"/>
<path d="M93 60L72 69L51 60V30L72 21L93 30V60Z" stroke="white" stroke-width="2.9958" stroke-linecap="round" stroke-linejoin="round" stroke-dasharray="5.99 5.99"/>
<path d="M93 30.1L72 39.1L51 30.1" stroke="white" stroke-width="2.9958" stroke-linecap="round" stroke-linejoin="round" stroke-dasharray="5.99 5.99"/>
<path d="M3.09961 45H21.0996" stroke="white" stroke-width="2.9958" stroke-linecap="round" stroke-linejoin="round"/>
<path d="M122.899 45H140.899" stroke="white" stroke-width="2.9958" stroke-linecap="round" stroke-linejoin="round"/>
<path d="M12.2998 79.5L27.8998 70.5" stroke="white" stroke-width="2.9958" stroke-linecap="round" stroke-linejoin="round"/>
<path d="M116.1 19.6L131.7 10.6" stroke="white" stroke-width="2.9958" stroke-linecap="round" stroke-linejoin="round"/>
<path d="M131.7 79.5L116.1 70.5" stroke="white" stroke-width="2.9958" stroke-linecap="round" stroke-linejoin="round"/>
<path d="M27.8998 19.6L12.2998 10.6" stroke="white" stroke-width="2.9958" stroke-linecap="round" stroke-linejoin="round"/>
</svg>
