<svg width="144" height="144" viewBox="0 0 144 144" fill="none" xmlns="http://www.w3.org/2000/svg">
<g clip-path="url(#clip0_15308_511743)">
<path d="M86.3044 70.526L94.0684 65.834L90.5914 57.44L81.7834 59.612L81.6244 59.678C79.6414 56.792 77.1694 54.356 74.3734 52.436L74.4424 52.271L76.6144 43.463L68.2204 39.9861L63.5285 47.75L63.4595 47.915C60.1265 47.297 56.6585 47.27 53.2115 47.909L53.1455 47.747L48.4535 39.983L40.0595 43.4601L42.2315 52.268L42.2975 52.43C39.4115 54.413 36.9755 56.885 35.0555 59.678L34.8905 59.609L26.0825 57.437L22.6055 65.831L30.3695 70.523L30.5345 70.592C29.9165 73.925 29.8895 77.393 30.5285 80.84L30.3665 80.906L22.6025 85.598L26.0795 93.992L34.8875 91.82L35.0495 91.7539C37.0325 94.6399 39.5045 97.0759 42.2975 98.9959L42.2285 99.1609L40.0565 107.969L48.4505 111.446L53.1425 103.682L53.2115 103.517C56.5445 104.135 60.0125 104.162 63.4595 103.523L63.5255 103.682L68.2174 111.446L76.6114 107.969L74.4395 99.1609L74.3734 99.0019C77.2594 97.0189 79.6954 94.5469 81.6154 91.7539L81.7804 91.8229L90.5884 93.9949L94.0654 85.601L86.3014 80.909L86.1364 80.84C86.7544 77.507 86.7814 74.036 86.1424 70.592L86.3044 70.526Z" stroke="white" stroke-width="2"/>
<path d="M62.5616 85.7497C68.0953 83.4575 70.7231 77.1134 68.4309 71.5797C66.1387 66.046 59.7946 63.4182 54.2609 65.7103C48.7272 68.0025 46.0994 74.3467 48.3916 79.8804C50.6838 85.4141 57.0279 88.0419 62.5616 85.7497Z" stroke="white" stroke-width="2"/>
<path d="M17.3154 127.943H103.934V136.772L119.3 122.603L103.934 108.446V117.263" stroke="white" stroke-width="2"/>
<path d="M105.114 84.0467H125.631V92.8847L141 78.7158L125.631 64.5498V73.3758" stroke="white" stroke-width="2"/>
<path d="M26.5557 16.823H93.9596V8L109.335 22.166L93.9596 36.332V27.4969" stroke="white" stroke-width="2"/>
<path d="M1.02246 44.6777H27.9174" stroke="white" stroke-width="2" stroke-dasharray="4 4"/>
<path d="M28.2149 109.511H-3" stroke="white" stroke-width="2" stroke-dasharray="4 4"/>
<path d="M103.934 117.263H86.5283" stroke="white" stroke-width="2" stroke-dasharray="4 4"/>
<path d="M125.631 73.3759H105.114" stroke="white" stroke-width="2" stroke-dasharray="4 4"/>
<path d="M93.9603 27.4971H49.6084" stroke="white" stroke-width="2" stroke-dasharray="4 4"/>
</g>
<defs>
<clipPath id="clip0_15308_511743">
<rect width="144" height="144" fill="white"/>
</clipPath>
</defs>
</svg>
