<svg width="144" height="144" viewBox="0 0 144 144" fill="none" xmlns="http://www.w3.org/2000/svg">
<path d="M20.7998 69.8V78.7L35.1998 80.8C36.0998 84.7 37.6998 88.5 39.7998 91.9L30.9998 103.5L40.3998 112.9L52.0998 104.2C55.4998 106.3 59.2998 107.9 63.1998 108.8L65.2998 123.2H78.6998L80.7998 108.8C84.6998 107.9 88.4998 106.3 91.8998 104.2L103.6 112.9L113 103.5L104.3 91.8C106.4 88.4 108 84.6 108.9 80.7L123.3 78.6V69.7" stroke="white" stroke-width="2.8769" stroke-linecap="round" stroke-linejoin="round"/>
<path d="M93.3002 78.7C90.4002 87.7 82.0002 94.3 72.0002 94.3C62.0002 94.3 53.5002 87.7 50.7002 78.5" stroke="white" stroke-width="2.8769" stroke-linecap="round" stroke-linejoin="round"/>
<path d="M29.7 92H20.8V100C19.3 100.6 17.8 101.5 16.5 102.5L9.6 98.5L3 110.1L9.9 114.1C9.8 114.9 9.7 115.7 9.7 116.6C9.7 117.4 9.8 118.2 9.9 119.1L3 123L9.7 134.6L16.6 130.6C17.9 131.6 19.3 132.4 20.9 133.1V141.1H34.3V133.1C35.8 132.5 37.3 131.6 38.6 130.6L45.5 134.6L52.2 123L45.3 119" stroke="white" stroke-width="2.8769" stroke-linecap="round" stroke-linejoin="round"/>
<path d="M35.1996 121C33.6996 123.7 30.7996 125.4 27.4996 125.4C22.5996 125.4 18.5996 121.4 18.5996 116.5C18.5996 113.2 20.3996 110.3 22.9996 108.8" stroke="white" stroke-width="2.8769" stroke-linecap="round" stroke-linejoin="round"/>
<path d="M114.3 92H123.2V100C124.7 100.6 126.2 101.5 127.5 102.5L134.4 98.5L141.1 110.1L134.2 114.1C134.3 114.9 134.4 115.7 134.4 116.6C134.4 117.4 134.3 118.2 134.2 119.1L141.1 123.1L134.4 134.7L127.5 130.7C126.2 131.7 124.8 132.5 123.2 133.2V141.2H109.8V133.2C108.3 132.6 106.8 131.7 105.5 130.7L98.6004 134.7L91.9004 123L98.8004 119" stroke="white" stroke-width="2.8769" stroke-linecap="round" stroke-linejoin="round"/>
<path d="M108.8 121C110.3 123.7 113.2 125.4 116.5 125.4C121.4 125.4 125.4 121.4 125.4 116.5C125.4 113.2 123.6 110.3 121 108.8" stroke="white" stroke-width="2.8769" stroke-linecap="round" stroke-linejoin="round"/>
<path d="M54.2002 54.2V38.5999C54.2002 33.6999 58.2002 29.7 63.1002 29.7" stroke="white" stroke-width="2.8769" stroke-linecap="round" stroke-linejoin="round"/>
<path d="M80.9004 29.7C85.8004 29.7 89.8004 33.6999 89.8004 38.5999V54.2" stroke="white" stroke-width="2.8769" stroke-linecap="round" stroke-linejoin="round"/>
<path d="M72 36.4V34.2" stroke="white" stroke-width="2.8769" stroke-linecap="round" stroke-linejoin="round"/>
<path d="M72 54.2001V45.3" stroke="white" stroke-width="2.8769" stroke-linecap="round" stroke-linejoin="round"/>
<path d="M71.9996 3C76.8996 3 80.8996 7 80.8996 11.9V16.4C80.8996 21.3 76.8996 25.3 71.9996 25.3C67.0996 25.3 63.0996 21.3 63.0996 16.4V11.9C63.0996 6.9 67.0996 3 71.9996 3Z" stroke="white" stroke-width="2.8769" stroke-linecap="round" stroke-linejoin="round"/>
<path d="M3 69.8V45.3C3 40.4 7 36.4 11.9 36.4" stroke="white" stroke-width="2.8769" stroke-linecap="round" stroke-linejoin="round"/>
<path d="M29.7002 36.4C34.6002 36.4 38.6002 40.4 38.6002 45.3V60.9" stroke="white" stroke-width="2.8769" stroke-linecap="round" stroke-linejoin="round"/>
<path d="M20.7998 43V40.8" stroke="white" stroke-width="2.8769" stroke-linecap="round" stroke-linejoin="round"/>
<path d="M20.7998 60.9V52" stroke="white" stroke-width="2.8769" stroke-linecap="round" stroke-linejoin="round"/>
<path d="M20.8004 9.59998C25.7004 9.59998 29.7004 13.6 29.7004 18.5V23C29.7004 27.9 25.7004 31.9 20.8004 31.9C15.9004 31.9 11.9004 27.9 11.9004 23V18.5C11.9004 13.6 15.8004 9.59998 20.8004 9.59998Z" stroke="white" stroke-width="2.8769" stroke-linecap="round" stroke-linejoin="round"/>
<path d="M105.4 60.9V45.3C105.4 40.4 109.4 36.4 114.3 36.4" stroke="white" stroke-width="2.8769" stroke-linecap="round" stroke-linejoin="round"/>
<path d="M132.1 36.4C137 36.4 141 40.4 141 45.3V69.8" stroke="white" stroke-width="2.8769" stroke-linecap="round" stroke-linejoin="round"/>
<path d="M123.2 43V40.8" stroke="white" stroke-width="2.8769" stroke-linecap="round" stroke-linejoin="round"/>
<path d="M123.2 60.9V52" stroke="white" stroke-width="2.8769" stroke-linecap="round" stroke-linejoin="round"/>
<path d="M123.2 9.59998C128.1 9.59998 132.1 13.6 132.1 18.5V23C132.1 27.9 128.1 31.9 123.2 31.9C118.3 31.9 114.3 27.9 114.3 23V18.5C114.3 13.6 118.3 9.59998 123.2 9.59998Z" stroke="white" stroke-width="2.8769" stroke-linecap="round" stroke-linejoin="round"/>
<path d="M31.9004 69.8H112.1" stroke="white" stroke-width="2.8769" stroke-linecap="round" stroke-linejoin="round"/>
<path d="M54.2002 69.8V63.1" stroke="white" stroke-width="2.8769" stroke-linecap="round" stroke-linejoin="round"/>
<path d="M3 78.7V83.2" stroke="white" stroke-width="2.8769" stroke-linecap="round" stroke-linejoin="round"/>
<path d="M141 78.7V83.2" stroke="white" stroke-width="2.8769" stroke-linecap="round" stroke-linejoin="round"/>
<path d="M89.7998 69.8V63.1" stroke="white" stroke-width="2.8769" stroke-linecap="round" stroke-linejoin="round"/>
</svg>
