<svg width="96" height="96" viewBox="0 0 96 96" fill="none" xmlns="http://www.w3.org/2000/svg">
<path d="M53.3199 15.01V4.37H36.29V14C33.22 14.79 30.27 16.01 27.53 17.63L20.72 10.8199L8.68005 22.86L15.49 29.67C13.87 32.41 12.65 35.3601 11.86 38.4301H2.22998V55.46H11.86C12.65 58.53 13.87 61.48 15.49 64.22L8.68005 71.03L20.72 83.07L27.53 76.26C30.27 77.88 33.22 79.1 36.29 79.89V89.53H53.3199V78.89" stroke="white" stroke-width="2" stroke-miterlimit="10"/>
<path d="M57.58 23.52H59.71L70.35 12.88" stroke="white" stroke-width="2" stroke-miterlimit="10"/>
<path d="M70.35 83.12L57.58 70.35H44.8101C41.7401 70.35 38.69 69.7399 35.85 68.5699C33.01 67.3899 30.43 65.67 28.25 63.49C26.08 61.32 24.3501 58.73 23.1801 55.89C22.0001 53.05 21.4 50.0101 21.4 46.9301C21.4 43.8501 22.0101 40.81 23.1801 37.97C24.3601 35.13 26.08 32.55 28.25 30.37C30.43 28.19 33.01 26.47 35.85 25.29C38.69 24.12 41.7301 23.51 44.8101 23.51" stroke="white" stroke-width="2" stroke-miterlimit="10"/>
<path d="M46.9399 57.58H44.8101C41.9901 57.58 39.28 56.46 37.28 54.46C35.29 52.46 34.16 49.7601 34.16 46.9301C34.16 45.5301 34.44 44.15 34.97 42.86C35.5 41.57 36.29 40.39 37.28 39.41C38.27 38.42 39.44 37.64 40.73 37.1C42.02 36.57 43.41 36.29 44.8 36.29H61.83L70.34 27.77H80.98" stroke="white" stroke-width="2" stroke-miterlimit="10"/>
<path d="M80.99 68.22H72.48L61.84 57.58H59.71" stroke="white" stroke-width="2" stroke-miterlimit="10"/>
<path d="M74.61 15.01C78.14 15.01 81 12.15 81 8.62C81 5.09 78.14 2.22998 74.61 2.22998C71.08 2.22998 68.22 5.09 68.22 8.62C68.22 12.15 71.08 15.01 74.61 15.01Z" stroke="white" stroke-width="2" stroke-miterlimit="10"/>
<path d="M87.38 34.16C90.91 34.16 93.77 31.3 93.77 27.77C93.77 24.24 90.91 21.38 87.38 21.38C83.85 21.38 80.99 24.24 80.99 27.77C80.99 31.3 83.85 34.16 87.38 34.16Z" stroke="white" stroke-width="2" stroke-miterlimit="10"/>
<path d="M87.38 53.3199C90.91 53.3199 93.77 50.4601 93.77 46.9301C93.77 43.4001 90.91 40.54 87.38 40.54C83.85 40.54 80.99 43.4001 80.99 46.9301C80.99 50.4601 83.85 53.3199 87.38 53.3199Z" stroke="white" stroke-width="2" stroke-miterlimit="10"/>
<path d="M87.38 74.61C90.91 74.61 93.77 71.75 93.77 68.22C93.77 64.69 90.91 61.83 87.38 61.83C83.85 61.83 80.99 64.69 80.99 68.22C80.99 71.75 83.85 74.61 87.38 74.61Z" stroke="white" stroke-width="2" stroke-miterlimit="10"/>
<path d="M74.61 93.76C78.14 93.76 81 90.9 81 87.37C81 83.84 78.14 80.98 74.61 80.98C71.08 80.98 68.22 83.84 68.22 87.37C68.22 90.9 71.08 93.76 74.61 93.76Z" stroke="white" stroke-width="2" stroke-miterlimit="10"/>
<path d="M59.71 46.9399H78.87" stroke="white" stroke-width="2" stroke-miterlimit="10"/>
<path d="M42.6801 46.9399H46.9399" stroke="white" stroke-width="2" stroke-miterlimit="10"/>
<path d="M51.1899 46.9399H55.4399" stroke="white" stroke-width="2" stroke-miterlimit="10"/>
<path d="M51.1899 57.58H55.4399" stroke="white" stroke-width="2" stroke-miterlimit="10"/>
<path d="M49.0601 23.52H53.3199" stroke="white" stroke-width="2" stroke-miterlimit="10"/>
</svg>
