<svg width="96" height="96" viewBox="0 0 96 96" fill="none" xmlns="http://www.w3.org/2000/svg">
<path d="M21.6099 45.58V39.89C21.6099 37.73 27.7798 34.2 32.7998 34.2C37.8398 34.2 43.9902 37.73 43.9902 39.89V45.58" stroke="white" stroke-width="2" stroke-miterlimit="10"/>
<path d="M32.7998 34.2C37.2798 34.2 40.2598 30.56 40.2598 26.06V23.35C40.2598 18.85 37.2898 15.21 32.7998 15.21C28.2998 15.21 25.3398 18.85 25.3398 23.35V26.06C25.3398 30.56 28.2998 34.2 32.7998 34.2Z" stroke="white" stroke-width="2" stroke-miterlimit="10"/>
<path d="M51.4502 45.58V39.89C51.4502 37.73 57.6201 34.2 62.6401 34.2C67.6701 34.2 73.8301 37.73 73.8301 39.89V45.58" stroke="white" stroke-width="2" stroke-miterlimit="10"/>
<path d="M62.6402 34.2C67.1202 34.2 70.1001 30.56 70.1001 26.06V23.35C70.1001 18.85 67.1402 15.21 62.6402 15.21C58.1402 15.21 55.1802 18.85 55.1802 23.35V26.06C55.1702 30.56 58.1402 34.2 62.6402 34.2Z" stroke="white" stroke-width="2" stroke-miterlimit="10"/>
<path d="M38.3901 81.62C37.3601 81.62 36.52 80.77 36.52 79.72V74.03C36.52 71.87 42.69 68.34 47.71 68.34C52.74 68.34 58.8999 71.87 58.8999 74.03V79.72C58.8999 80.76 58.0598 81.62 57.0298 81.62H38.3901Z" stroke="white" stroke-width="2" stroke-miterlimit="10"/>
<path d="M47.7202 68.34C52.2002 68.34 55.1802 64.7 55.1802 60.2V57.49C55.1802 52.99 52.2202 49.35 47.7202 49.35C43.2302 49.35 40.2598 52.99 40.2598 57.49V60.2C40.2598 64.7 43.2202 68.34 47.7202 68.34Z" stroke="white" stroke-width="2" stroke-miterlimit="10"/>
<path d="M68.23 81.62C67.2 81.62 66.3599 80.77 66.3599 79.72V74.03C66.3599 71.87 72.5298 68.34 77.5498 68.34C82.5798 68.34 88.7402 71.87 88.7402 74.03V79.72C88.7402 80.76 87.9001 81.62 86.8701 81.62H68.23Z" stroke="white" stroke-width="2" stroke-miterlimit="10"/>
<path d="M77.5601 68.34C82.0301 68.34 85.02 64.7 85.02 60.2V57.49C85.02 52.99 82.0501 49.35 77.5601 49.35C73.0601 49.35 70.1001 52.99 70.1001 57.49V60.2C70.0901 64.7 73.0601 68.34 77.5601 68.34Z" stroke="white" stroke-width="2" stroke-miterlimit="10"/>
<path d="M8.5498 81.62C7.5298 81.62 6.68994 80.77 6.68994 79.72V74.03C6.68994 71.87 12.8599 68.34 17.8799 68.34C22.9199 68.34 29.0698 71.87 29.0698 74.03V79.72C29.0698 80.76 28.2302 81.62 27.2002 81.62H8.5498Z" stroke="white" stroke-width="2" stroke-miterlimit="10"/>
<path d="M17.8799 68.34C22.3599 68.34 25.3398 64.7 25.3398 60.2V57.49C25.3398 52.99 22.3699 49.35 17.8799 49.35C13.3899 49.35 10.4199 52.99 10.4199 57.49V60.2C10.4199 64.7 13.3799 68.34 17.8799 68.34Z" stroke="white" stroke-width="2" stroke-miterlimit="10"/>
</svg>
