<svg width="150" height="151" viewBox="0 0 150 151" fill="none" xmlns="http://www.w3.org/2000/svg">
<path d="M53.0781 123.922C54.2812 122.719 55.5 120.797 59.3437 120.797H103.172C106.656 120.797 125.781 101.609 128.219 98.875C130.562 96.25 140.984 80.5938 143.875 73.8282C142.063 71.3907 137.156 69.3438 131.359 70.7032C125.828 71.9844 122.562 75.9688 118.844 83.2188L104.484 90.6719" stroke="white" stroke-width="2" stroke-linecap="round" stroke-linejoin="round"/>
<path d="M71.875 102H96.9219C109.438 102 109.438 86.3437 96.9219 86.3437H80.375C77.7656 86.3437 72.875 80.0781 68.7344 80.0781H53.0781C48.8438 80.0781 43.5937 83.5156 40.5625 86.3437C35.875 91.0312 28.0469 98.8594 28.0469 98.8594" stroke="white" stroke-width="2" stroke-linecap="round" stroke-linejoin="round"/>
<path d="M21.7851 92.6061L6.12927 108.262L43.6943 145.827L59.3501 130.171L21.7851 92.6061Z" stroke="white" stroke-width="2" stroke-linecap="round" stroke-linejoin="round"/>
<path d="M21.7812 108.266L28.0469 114.531" stroke="white" stroke-width="2" stroke-linecap="round" stroke-linejoin="round"/>
<path d="M124.469 25.1562L100.375 5.84369C99.625 5.24994 98.3438 4.95307 97.2344 5.35932L68.8438 16.4218C67.5625 16.6718 66.5157 17.6874 66.3125 19.0468L61.8594 49.0468C61.6719 50.3749 61.8907 51.7656 62.8594 52.5312L86.9532 71.8437C87.875 72.5937 88.5938 73.0468 89.5157 72.7031L118.656 61.3749C120.219 60.7656 120.891 60.1093 121.094 58.6562L125.625 28.1093C125.766 27.2031 125.313 25.8281 124.469 25.1562Z" stroke="white" stroke-width="2" stroke-linecap="round" stroke-linejoin="round"/>
<path d="M96.6406 14.3438L92.6094 38.5313L71.875 46.0937" stroke="white" stroke-width="2" stroke-linecap="round" stroke-linejoin="round"/>
<path d="M92.6094 38.5312L112.563 54.3281" stroke="white" stroke-width="2" stroke-linecap="round" stroke-linejoin="round"/>
</svg>
