<svg width="150" height="150" viewBox="0 0 150 150" fill="none" xmlns="http://www.w3.org/2000/svg">
<path d="M79.25 6.90613L95.875 23.5313L66.0156 53.2345L79.25 66.4688L92.4844 53.2345L112.344 73.0938L128.813 56.625L145.281 73.0938V6.90613H79.25Z" stroke="white" stroke-width="2" stroke-miterlimit="10"/>
<path d="M56.125 63.2812L46.2188 73.1876L56.125 83.0936L66.0313 73.1876L56.125 63.2812Z" stroke="white" stroke-width="2" stroke-miterlimit="10"/>
<path d="M128.969 89.703L102.5 116.172" stroke="white" stroke-width="2" stroke-miterlimit="10"/>
<path d="M95.875 122.797L89.25 129.422" stroke="white" stroke-width="2" stroke-miterlimit="10"/>
<path d="M82.6407 136.031L76.0156 142.656" stroke="white" stroke-width="2" stroke-miterlimit="10"/>
<path d="M59.3906 30.1406L29.6875 59.8438" stroke="white" stroke-width="2" stroke-miterlimit="10"/>
<path d="M42.8907 89.7499L32.9844 99.6563L42.8907 109.563L52.7969 99.6563L42.8907 89.7499Z" stroke="white" stroke-width="2" stroke-miterlimit="10"/>
<path d="M49.4687 119.469L39.5625 129.375L49.4687 139.281L59.375 129.375L49.4687 119.469Z" stroke="white" stroke-width="2" stroke-miterlimit="10"/>
<path d="M72.7344 96.3124L62.8281 106.219L72.7344 116.125L82.6407 106.219L72.7344 96.3124Z" stroke="white" stroke-width="2" stroke-miterlimit="10"/>
<path d="M92.5781 76.453L82.6719 86.3594L92.5781 96.2658L102.484 86.3594L92.5781 76.453Z" stroke="white" stroke-width="2" stroke-miterlimit="10"/>
<path d="M13.1094 106.188L3.20312 116.094L13.1094 126L23.0156 116.094L13.1094 106.188Z" stroke="white" stroke-width="2" stroke-miterlimit="10"/>
</svg>
