<svg width="96" height="96" viewBox="0 0 96 96" fill="none" xmlns="http://www.w3.org/2000/svg">
<path d="M37.79 15.8201L42.3401 5.5H53.6599L58.21 15.8201C60.55 17.1701 62.2 18.13 64.54 19.47L75.75 18.25C78.44 22.91 78.7199 23.4 81.4099 28.05L74.75 37.1499V44.45L81.4099 53.55C78.7199 58.21 78.44 58.7001 75.75 63.3501L64.54 62.1299C62.21 63.4799 60.55 64.44 58.21 65.78L53.6599 76.1001H42.3401L37.79 65.78C35.46 64.43 33.8 63.4699 31.46 62.1299L20.25 63.3501C17.56 58.7001 17.2801 58.21 14.5901 53.55L21.25 44.45V37.1499L14.5901 28.05C17.2801 23.39 17.56 22.9 20.25 18.25L31.46 19.47C33.8 18.13 35.46 17.1701 37.79 15.8201Z" stroke="white" stroke-width="2"/>
<path d="M48 52.0901C54.23 52.0901 59.28 47.0401 59.28 40.8101C59.28 34.5801 54.23 29.54 48 29.54C41.77 29.54 36.73 34.5901 36.73 40.8101C36.73 47.0301 41.77 52.0901 48 52.0901Z" stroke="white" stroke-width="2"/>
<path d="M58.3799 76.1101H91.7V90.2H4.32007V76.1101H38.22" stroke="white" stroke-width="2"/>
<path d="M9.94995 80.3401V85.98" stroke="white" stroke-width="2"/>
<path d="M15.5901 80.3401V85.98" stroke="white" stroke-width="2"/>
<path d="M21.22 80.3401V85.98" stroke="white" stroke-width="2"/>
<path d="M26.8601 80.3401V85.98" stroke="white" stroke-width="2"/>
<path d="M32.5 80.3401V85.98" stroke="white" stroke-width="2"/>
<path d="M38.1299 80.3401V85.98" stroke="white" stroke-width="2"/>
<path d="M43.77 80.3401V85.98" stroke="white" stroke-width="2"/>
<path d="M49.4099 80.3401V85.98" stroke="white" stroke-width="2"/>
<path d="M16.99 40.8799H14.1699" stroke="white" stroke-width="2"/>
<path d="M79.01 40.8799H81.8301" stroke="white" stroke-width="2"/>
<path d="M11.3601 40.8799H8.54004" stroke="white" stroke-width="2"/>
<path d="M5.71997 40.8799H2.8999" stroke="white" stroke-width="2"/>
<path d="M84.6399 40.8799H87.46" stroke="white" stroke-width="2"/>
<path d="M90.28 40.8799H93.1001" stroke="white" stroke-width="2"/>
<path d="M53.6699 19.6699H42.3401L32.53 25.3301L26.8701 35.1399V46.47L32.53 56.28L42.3401 61.95H53.6699L63.48 56.28L69.1399 46.47V35.1399L63.48 25.3301L53.6699 19.6699Z" stroke="white" stroke-width="2" stroke-miterlimit="10" stroke-dasharray="3.94 3.94"/>
</svg>
