<svg width="96" height="96" viewBox="0 0 96 96" fill="none" xmlns="http://www.w3.org/2000/svg">
<g clip-path="url(#clip0_14772_459520)">
<path d="M69.78 22.38L75.3101 16.85L70.49 12.03L94.9299 9.22998L89.74 31.26L84.9399 26.45" stroke="white" stroke-width="2"/>
<path d="M29.8701 32.16L44.9299 47.21L61.51 30.64" stroke="white" stroke-width="2"/>
<path d="M24.21 45.73L44.9299 66.45L67.78 43.6" stroke="white" stroke-width="2" stroke-dasharray="3.9 3.9"/>
<path d="M1.3501 25.36L12.21 14.51L21.6001 23.9" stroke="white" stroke-width="2"/>
<path d="M1.3501 44.6L12.21 33.73L14.3601 35.87" stroke="white" stroke-width="2" stroke-dasharray="3.9 3.9"/>
<path d="M46.45 75.15C61.98 75.15 74.5701 62.56 74.5701 47.03C74.5701 31.5 61.98 18.91 46.45 18.91C30.92 18.91 18.3301 31.5 18.3301 47.03C18.3301 62.56 30.92 75.15 46.45 75.15Z" stroke="white" stroke-width="2"/>
<path d="M87.04 87.62L66.3301 66.91" stroke="white" stroke-width="2"/>
<path d="M84.9399 26.46L78.6699 32.7299" stroke="white" stroke-width="2" stroke-dasharray="3.9 3.9"/>
</g>
<defs>
<clipPath id="clip0_14772_459520">
<rect width="96" height="96" fill="white"/>
</clipPath>
</defs>
</svg>
