<svg width="96" height="96" viewBox="0 0 96 96" fill="none" xmlns="http://www.w3.org/2000/svg">
<path d="M50.72 4.41992L61.36 15.0601L42.25 34.0701L50.72 42.54L59.19 34.0701L71.9 46.78L82.44 36.24L92.98 46.78V4.41992H50.72Z" stroke="white" stroke-width="2" stroke-miterlimit="10"/>
<path d="M35.9201 40.5L29.5801 46.8401L35.9201 53.1799L42.2601 46.8401L35.9201 40.5Z" stroke="white" stroke-width="2" stroke-miterlimit="10"/>
<path d="M82.5401 57.4099L65.6001 74.3501" stroke="white" stroke-width="2" stroke-miterlimit="10"/>
<path d="M61.3601 78.5901L57.1201 82.8301" stroke="white" stroke-width="2" stroke-miterlimit="10"/>
<path d="M52.8902 87.0601L48.6501 91.3" stroke="white" stroke-width="2" stroke-miterlimit="10"/>
<path d="M38.01 19.29L19 38.3" stroke="white" stroke-width="2" stroke-miterlimit="10"/>
<path d="M27.45 57.4399L21.11 63.78L27.45 70.1201L33.79 63.78L27.45 57.4399Z" stroke="white" stroke-width="2" stroke-miterlimit="10"/>
<path d="M31.6601 76.46L25.3201 82.8L31.6601 89.1399L38.0001 82.8L31.6601 76.46Z" stroke="white" stroke-width="2" stroke-miterlimit="10"/>
<path d="M46.5501 61.6399L40.2101 67.98L46.5501 74.3201L52.8901 67.98L46.5501 61.6399Z" stroke="white" stroke-width="2" stroke-miterlimit="10"/>
<path d="M59.2502 48.9299L52.9102 55.27L59.2502 61.6101L65.5901 55.27L59.2502 48.9299Z" stroke="white" stroke-width="2" stroke-miterlimit="10"/>
<path d="M8.39005 67.96L2.05005 74.3L8.39005 80.6399L14.7301 74.3L8.39005 67.96Z" stroke="white" stroke-width="2" stroke-miterlimit="10"/>
</svg>
