<svg width="150" height="150" viewBox="0 0 150 150" fill="none" xmlns="http://www.w3.org/2000/svg">
<path d="M83.3124 23.4531V6.82812H56.7032V21.875C51.9063 23.1094 47.297 25.0156 43.0157 27.5469L32.375 16.9062L13.5626 35.7187L24.2031 46.3595C21.6719 50.6407 19.7656 55.2501 18.5313 60.047H3.48438V86.6562H18.5313C19.7656 91.4531 21.6719 96.0625 24.2031 100.344L13.5626 110.984L32.375 129.797L43.0157 119.156C47.297 121.688 51.9063 123.594 56.7032 124.828V139.891H83.3124V123.266" stroke="white" stroke-width="2" stroke-miterlimit="10"/>
<path d="M89.9688 36.75H93.2969L109.922 20.125" stroke="white" stroke-width="2" stroke-miterlimit="10"/>
<path d="M109.922 129.875L89.9688 109.922H70.0158C65.2189 109.922 60.4532 108.969 56.0157 107.141C51.5782 105.297 47.547 102.609 44.1407 99.2031C40.7501 95.8125 38.047 91.7656 36.2189 87.3281C34.3752 82.8906 33.4376 78.1407 33.4376 73.3282C33.4376 68.5157 34.3908 63.7656 36.2189 59.3281C38.0627 54.8906 40.7501 50.8594 44.1407 47.4531C47.547 44.0469 51.5782 41.3594 56.0157 39.5157C60.4532 37.6875 65.2033 36.7344 70.0158 36.7344" stroke="white" stroke-width="2" stroke-miterlimit="10"/>
<path d="M73.3437 89.9687H70.0158C65.6095 89.9687 61.3751 88.2187 58.2501 85.0937C55.1407 81.9687 53.3751 77.7501 53.3751 73.3282C53.3751 71.1407 53.8125 68.9843 54.6406 66.9687C55.4688 64.9531 56.7032 63.1094 58.2501 61.5781C59.797 60.0313 61.625 58.8124 63.6407 57.9687C65.6563 57.1406 67.8283 56.7032 70.0001 56.7032H96.6094L109.906 43.3906H126.531" stroke="white" stroke-width="2" stroke-miterlimit="10"/>
<path d="M126.547 106.594H113.25L96.625 89.9688H93.2969" stroke="white" stroke-width="2" stroke-miterlimit="10"/>
<path d="M116.578 23.4532C122.094 23.4532 126.563 18.9844 126.563 13.4688C126.563 7.95315 122.094 3.48438 116.578 3.48438C111.063 3.48438 106.594 7.95315 106.594 13.4688C106.594 18.9844 111.063 23.4532 116.578 23.4532Z" stroke="white" stroke-width="2" stroke-miterlimit="10"/>
<path d="M136.531 53.375C142.047 53.375 146.516 48.9063 146.516 43.3906C146.516 37.875 142.047 33.4062 136.531 33.4062C131.016 33.4062 126.547 37.875 126.547 43.3906C126.547 48.9063 131.016 53.375 136.531 53.375Z" stroke="white" stroke-width="2" stroke-miterlimit="10"/>
<path d="M136.531 83.3125C142.047 83.3125 146.516 78.8439 146.516 73.3283C146.516 67.8126 142.047 63.3439 136.531 63.3439C131.016 63.3439 126.547 67.8126 126.547 73.3283C126.547 78.8439 131.016 83.3125 136.531 83.3125Z" stroke="white" stroke-width="2" stroke-miterlimit="10"/>
<path d="M136.531 116.578C142.047 116.578 146.516 112.109 146.516 106.594C146.516 101.078 142.047 96.6094 136.531 96.6094C131.016 96.6094 126.547 101.078 126.547 106.594C126.547 112.109 131.016 116.578 136.531 116.578Z" stroke="white" stroke-width="2" stroke-miterlimit="10"/>
<path d="M116.578 146.5C122.094 146.5 126.563 142.031 126.563 136.516C126.563 131 122.094 126.531 116.578 126.531C111.063 126.531 106.594 131 106.594 136.516C106.594 142.031 111.063 146.5 116.578 146.5Z" stroke="white" stroke-width="2" stroke-miterlimit="10"/>
<path d="M93.2969 73.3438H123.234" stroke="white" stroke-width="2" stroke-miterlimit="10"/>
<path d="M66.6876 73.3438H73.3437" stroke="white" stroke-width="2" stroke-miterlimit="10"/>
<path d="M79.9844 73.3438H86.625" stroke="white" stroke-width="2" stroke-miterlimit="10"/>
<path d="M79.9844 89.9688H86.625" stroke="white" stroke-width="2" stroke-miterlimit="10"/>
<path d="M76.6564 36.75H83.3124" stroke="white" stroke-width="2" stroke-miterlimit="10"/>
</svg>
