<svg width="96" height="96" viewBox="0 0 96 96" fill="none" xmlns="http://www.w3.org/2000/svg">
<path d="M69.49 18.52C73.98 18.52 77.62 14.88 77.62 10.39C77.62 5.90001 73.98 2.26001 69.49 2.26001C65 2.26001 61.36 5.90001 61.36 10.39C61.36 14.88 65 18.52 69.49 18.52Z" stroke="white" stroke-width="2" stroke-miterlimit="10"/>
<path d="M61.36 10.39H47.13V20.5601" stroke="white" stroke-width="2" stroke-miterlimit="10"/>
<path d="M81.6899 65.28L71.52 75.45L81.6899 85.61L91.86 75.45L81.6899 65.28Z" stroke="white" stroke-width="2" stroke-miterlimit="10"/>
<path d="M10.53 83.58L26.79 93.74V73.42L10.53 83.58Z" stroke="white" stroke-width="2" stroke-miterlimit="10"/>
<path d="M4.43005 30.72H20.7V14.45H4.43005V30.72Z" stroke="white" stroke-width="2" stroke-miterlimit="10"/>
<path d="M73.5601 49.02H81.6899V65.29" stroke="white" stroke-width="2" stroke-miterlimit="10"/>
<path d="M20.7 49.02H12.5699V30.72" stroke="white" stroke-width="2" stroke-miterlimit="10"/>
<path d="M47.13 77.48V85.61H26.79" stroke="white" stroke-width="2" stroke-miterlimit="10"/>
<path d="M47.13 47.9399C47.72 47.9599 48.31 47.85 48.86 47.63C49.41 47.41 49.91 47.08 50.33 46.66C50.75 46.24 51.08 45.7399 51.3 45.1899C51.52 44.6399 51.62 44.05 51.61 43.46V41.23C51.63 40.64 51.52 40.05 51.3 39.5C51.08 38.95 50.75 38.45 50.33 38.03C49.91 37.61 49.41 37.2801 48.86 37.0601C48.31 36.8401 47.72 36.74 47.13 36.75C46.54 36.73 45.95 36.8401 45.4 37.0501C44.85 37.2701 44.3501 37.6 43.9301 38.02C43.5101 38.44 43.18 38.94 42.96 39.49C42.74 40.04 42.64 40.63 42.65 41.22V43.45C42.63 44.04 42.74 44.6301 42.96 45.1801C43.18 45.7301 43.5101 46.23 43.9301 46.65C44.3501 47.07 44.85 47.4 45.4 47.62C45.94 47.86 46.54 47.9599 47.13 47.9399Z" stroke="white" stroke-width="2" stroke-miterlimit="10"/>
<path d="M56.0699 60.11V56.38C56.0699 53.04 50.13 51.16 47.12 51.16C44.11 51.16 38.17 53.04 38.17 56.38V60.11" stroke="white" stroke-width="2" stroke-miterlimit="10"/>
<path d="M47.13 67.83C57.52 67.83 65.9399 59.41 65.9399 49.02C65.9399 38.63 57.52 30.21 47.13 30.21C36.74 30.21 28.32 38.63 28.32 49.02C28.31 59.41 36.73 67.83 47.13 67.83Z" stroke="white" stroke-width="2" stroke-miterlimit="10"/>
</svg>
