<svg width="96" height="96" viewBox="0 0 96 96" fill="none" xmlns="http://www.w3.org/2000/svg">
<g clip-path="url(#clip0_7408_538060)">
<path d="M47.9993 65.2725C57.5388 65.2725 65.272 57.5392 65.272 47.9998C65.272 38.4603 57.5388 30.7271 47.9993 30.7271C38.4598 30.7271 30.7266 38.4603 30.7266 47.9998C30.7266 57.5392 38.4598 65.2725 47.9993 65.2725Z" stroke="white" stroke-width="2" stroke-miterlimit="10"/>
<path d="M48.0007 15.6137C51.578 15.6137 54.478 12.7138 54.478 9.13645C54.478 5.55915 51.578 2.65918 48.0007 2.65918C44.4234 2.65918 41.5234 5.55915 41.5234 9.13645C41.5234 12.7138 44.4234 15.6137 48.0007 15.6137Z" stroke="white" stroke-width="2" stroke-miterlimit="10"/>
<path d="M48.0007 93.3408C51.578 93.3408 54.478 90.4408 54.478 86.8635C54.478 83.2862 51.578 80.3862 48.0007 80.3862C44.4234 80.3862 41.5234 83.2862 41.5234 86.8635C41.5234 90.4408 44.4234 93.3408 48.0007 93.3408Z" stroke="white" stroke-width="2" stroke-miterlimit="10"/>
<path d="M89.0229 15.6135C89.0229 19.1976 86.1297 22.0908 82.5456 22.0908C78.9615 22.0908 76.0684 19.1976 76.0684 15.6135C76.0684 12.0294 78.9615 9.13623 82.5456 9.13623C86.1297 9.13623 89.0229 12.0294 89.0229 15.6135Z" stroke="white" stroke-width="2" stroke-miterlimit="10"/>
<path d="M93.3413 48.0002C93.3413 51.5843 90.4481 54.4775 86.864 54.4775C83.2799 54.4775 80.3867 51.5843 80.3867 48.0002C80.3867 44.4161 83.2799 41.5229 86.864 41.5229C90.4481 41.5229 93.3413 44.4161 93.3413 48.0002Z" stroke="white" stroke-width="2" stroke-miterlimit="10"/>
<path d="M15.6127 48.0002C15.6127 51.5843 12.7196 54.4775 9.13548 54.4775C5.55138 54.4775 2.6582 51.5843 2.6582 48.0002C2.6582 44.4161 5.55138 41.5229 9.13548 41.5229C12.7196 41.5229 15.6127 44.4161 15.6127 48.0002Z" stroke="white" stroke-width="2" stroke-miterlimit="10"/>
<path d="M19.9311 15.6135C19.9311 19.1976 17.0379 22.0908 13.4538 22.0908C9.86974 22.0908 6.97656 19.1976 6.97656 15.6135C6.97656 12.0294 9.86974 9.13623 13.4538 9.13623C17.0379 9.13623 19.9311 12.0294 19.9311 15.6135Z" stroke="white" stroke-width="2" stroke-miterlimit="10"/>
<path d="M89.0229 80.3865C89.0229 83.9705 86.1297 86.8637 82.5456 86.8637C78.9615 86.8637 76.0684 83.9705 76.0684 80.3865C76.0684 76.8024 78.9615 73.9092 82.5456 73.9092C86.1297 73.9092 89.0229 76.8024 89.0229 80.3865Z" stroke="white" stroke-width="2" stroke-miterlimit="10"/>
<path d="M19.9311 80.3865C19.9311 83.9705 17.0379 86.8637 13.4538 86.8637C9.86974 86.8637 6.97656 83.9705 6.97656 80.3865C6.97656 76.8024 9.86974 73.9092 13.4538 73.9092C17.0379 73.9092 19.9311 76.8024 19.9311 80.3865Z" stroke="white" stroke-width="2" stroke-miterlimit="10"/>
<path d="M48 15.6138V26.4092" stroke="white" stroke-width="2" stroke-miterlimit="10"/>
<path d="M48 69.5908V80.3863" stroke="white" stroke-width="2" stroke-miterlimit="10"/>
<path d="M17.7734 19.9316L30.728 32.8862" stroke="white" stroke-width="2" stroke-miterlimit="10"/>
<path d="M78.228 19.9316L65.2734 32.8862" stroke="white" stroke-width="2" stroke-miterlimit="10"/>
<path d="M17.7734 76.0683L30.728 63.1138" stroke="white" stroke-width="2" stroke-miterlimit="10"/>
<path d="M78.228 76.0683L65.2734 63.1138" stroke="white" stroke-width="2" stroke-miterlimit="10"/>
<path d="M15.6133 48H26.4087" stroke="white" stroke-width="2" stroke-miterlimit="10"/>
<path d="M69.5918 48H80.3873" stroke="white" stroke-width="2" stroke-miterlimit="10"/>
</g>
<defs>
<clipPath id="clip0_7408_538060">
<rect width="96" height="96" fill="white"/>
</clipPath>
</defs>
</svg>
