<?xml version="1.0" encoding="utf-8"?>
<!-- Generator: Adobe Illustrator 26.5.0, SVG Export Plug-In . SVG Version: 6.00 Build 0)  -->
<svg version="1.1" id="Layer_1" xmlns="http://www.w3.org/2000/svg" xmlns:xlink="http://www.w3.org/1999/xlink" x="0px" y="0px"
	 viewBox="0 0 144 144" style="enable-background:new 0 0 144 144;" xml:space="preserve">
<style type="text/css">
	.st0{clip-path:url(#SVGID_00000157282582569561877200000017341911782693991588_);}
	.st1{fill:none;stroke:#FFFFFF;stroke-width:3;stroke-linecap:round;stroke-linejoin:round;}
	.st2{fill:none;stroke:#FFFFFF;stroke-width:3;stroke-linecap:round;stroke-linejoin:round;stroke-dasharray:6,6;}
</style>
<g>
	<g>
		<defs>
			<rect id="SVGID_1_" width="144" height="144"/>
		</defs>
		<clipPath id="SVGID_00000040560085191867977880000010488083949059678889_">
			<use xlink:href="#SVGID_1_"  style="overflow:visible;"/>
		</clipPath>
		<g style="clip-path:url(#SVGID_00000040560085191867977880000010488083949059678889_);">
			<path class="st1" d="M122.1,56.1h18.3"/>
			<path class="st1" d="M31.1,56.1h40.6"/>
			<path class="st1" d="M3.2,47.6c26.3,0,47.6,21.3,47.6,47.6s-21.3,47.6-47.6,47.6"/>
			<path class="st1" d="M3.2,58.5c20.3,0,36.7,16.4,36.7,36.7s-16.4,36.7-36.7,36.7"/>
			<path class="st1" d="M3.2,83.7c6.3,0,11.5,5.1,11.5,11.5c0,6.3-5.1,11.5-11.5,11.5"/>
			<path class="st1" d="M11.8,87.5l27.9,3.3"/>
			<path class="st1" d="M8.7,131.5l3-28.6l27.6-1.1"/>
			<path class="st1" d="M3.2,90.3c2.7,0,4.9,2.2,4.9,4.9c0,2.7-2.2,4.9-4.9,4.9"/>
			<path class="st1" d="M135.3,139.2H66.6c-2.9,0-5.2-2.1-5.2-4.7V78.3c0-2.6,2.3-4.7,5.2-4.7h68.7c2.9,0,5.2,2.1,5.2,4.7v56.1
				C140.5,137.1,138.1,139.2,135.3,139.2z"/>
			<path class="st1" d="M74.4,43.1H60.9c-4.1,0-7.5-3.4-7.5-7.5V8.7c0-4.1,3.4-7.5,7.5-7.5H133c4.1,0,7.5,3.4,7.5,7.5v26.9
				c0,4.1-3.4,7.5-7.5,7.5h-13.5"/>
			<path class="st1" d="M111.1,37.9H82.8c-4.6,0-8.5,3.3-9.3,7.8l-2.2,12.9c-0.3,1.9,1.1,3.7,3.1,3.7h45.1c1.9,0,3.4-1.7,3.1-3.7
				l-2.2-12.9C119.6,41.2,115.7,37.9,111.1,37.9L111.1,37.9z"/>
			<path class="st2" d="M127.4,87.5H76.3c-1.2,0-2.2,1.8-2.2,3.9v25.9c0,2.2,1,3.9,2.2,3.9h51.2c1.2,0,2.2-1.8,2.2-3.9V91.4
				C129.7,89.3,128.7,87.5,127.4,87.5z"/>
			<path class="st1" d="M73.1,32.4c-6.5,0-11.7-5.3-11.7-11.7c0-6.5,5.3-11.7,11.7-11.7c6.5,0,11.7,5.3,11.7,11.7"/>
			<path class="st1" d="M91.6,15.1l1.7-0.9l2.6-2.6v18"/>
			<path class="st1" d="M107.9,11.6c-7.6,1.8-7.2,19.1,1.7,18C117.3,28.7,116.7,10.6,107.9,11.6"/>
			<path class="st1" d="M127,11.6c-7.6,1.8-7.2,19.1,1.7,18C136.4,28.7,135.8,10.6,127,11.6"/>
			<path class="st1" d="M73.1,20.6V8.9"/>
		</g>
	</g>
</g>
</svg>
