<?xml version="1.0" encoding="utf-8"?>
<!-- Generator: Adobe Illustrator 26.5.0, SVG Export Plug-In . SVG Version: 6.00 Build 0)  -->
<svg version="1.1" id="Layer_1" xmlns="http://www.w3.org/2000/svg" xmlns:xlink="http://www.w3.org/1999/xlink" x="0px" y="0px"
	 viewBox="0 0 144 144" style="enable-background:new 0 0 144 144;" xml:space="preserve">
<style type="text/css">
	.st0{fill:none;stroke:#FFFFFF;stroke-width:3.127;stroke-linecap:round;stroke-linejoin:round;stroke-dasharray:6.2541,6.2541;}
	.st1{fill:none;stroke:#FFFFFF;stroke-width:3.127;stroke-linecap:round;stroke-linejoin:round;}
</style>
<g>
	<path class="st0" d="M103,115.7h21.1c8.2,0,15-6.7,15.2-15.2l2.7-80.6c0.3-8.9-6.6-16.3-15.2-16.3H17.2C8.6,3.5,1.7,10.9,2,19.8
		l0,49.6"/>
	<path class="st1" d="M40.4,79.7V34.6c0-3.7-3.1-6.7-6.9-6.7c-3.8,0-6.9,3-6.9,6.7v55.9"/>
	<path class="st1" d="M54.1,82.7V63.9c0-3.7-3.1-6.7-6.9-6.7c-3.8,0-6.9,3-6.9,6.7v18.8"/>
	<path class="st1" d="M67.9,79.7V66.1c0-3.7-3.1-6.7-6.9-6.7c-3.8,0-6.9,3-6.9,6.7v13.6"/>
	<path class="st1" d="M75.6,140.5c4-15.1,6-30.8,6-46.4V71.8c0-3.7-3.1-6.7-6.9-6.7c-3.8,0-6.9,3-6.9,6.7v11.8"/>
	<path class="st1" d="M26.6,91.5V77.1c0-9.8-13.8-9.7-13.8-6v19.3c0,15.3,2.2,30.6,6.6,45.3l1.4,4.9"/>
	<path class="st1" d="M26.6,47.6c-4.6-0.8-8.1-4.9-8.1-9.6v-9.8c0-5.4,4.4-9.8,9.9-9.8h9.9c5.4,0,9.9,4.4,9.9,9.8V38
		c0,4.7-3.3,8.6-7.7,9.6"/>
	<path class="st1" d="M72,18.4L72,18.4c-8.2,0-14.8,6.6-14.8,14.7v0c0,8.1,6.6,14.7,14.8,14.7h0c8.2,0,14.8-6.6,14.8-14.7v0
		C86.7,25,80.1,18.4,72,18.4z"/>
	<path class="st1" d="M110.6,18.4L110.6,18.4c-8.2,0-14.8,6.6-14.8,14.7v0c0,8.1,6.6,14.7,14.8,14.7h0c8.2,0,14.8-6.6,14.8-14.7v0
		C125.4,25,118.8,18.4,110.6,18.4z"/>
</g>
</svg>
