<?xml version="1.0" encoding="utf-8"?>
<!-- Generator: Adobe Illustrator 26.5.0, SVG Export Plug-In . SVG Version: 6.00 Build 0)  -->
<svg version="1.1" id="Layer_1" xmlns="http://www.w3.org/2000/svg" xmlns:xlink="http://www.w3.org/1999/xlink" x="0px" y="0px"
	 viewBox="0 0 144 144" style="enable-background:new 0 0 144 144;" xml:space="preserve">
<style type="text/css">
	.st0{fill:none;stroke:#FFFFFF;stroke-width:2.9958;stroke-linecap:round;stroke-miterlimit:10;}
	.st1{fill:none;stroke:#FFFFFF;stroke-width:2.9958;stroke-miterlimit:10;}
	.st2{fill:#FFFFFF;}
	.st3{fill:none;stroke:#FFFFFF;stroke-width:2.9958;stroke-linecap:round;stroke-linejoin:round;stroke-dasharray:5.9916,5.9916;}
	.st4{fill:none;stroke:#FFFFFF;stroke-width:2.9958;stroke-linecap:round;stroke-linejoin:round;}
</style>
<g>
	<path class="st0" d="M47.3,11.2C29.8,23.9,24.9,47.9,36,66.5c0,0,1.9,3,2.7,4l6,8.5c4.9,6.8,7.6,10.9,7.6,19.2
		c0,5.3,4.3,9.6,9.6,9.6H72"/>
	<path class="st0" d="M84.3,108c4.1-0.1,7.3-3.5,7.3-7.6l0.1-2c0-8.4,2.7-12.5,7.6-19.2l5.9-8.5c0.8-1,2.8-4,2.8-4
		c4.4-7.3,6.4-15.8,5.8-24.4C112.2,19,92.2,1.6,69,3.2c-4.3,0.3-8.6,1.3-12.6,2.9"/>
	<path class="st0" d="M80.9,108h12.5v7.2c0,2.6-2.1,4.8-4.8,4.8H55.4c-2.6,0-4.8-2.1-4.8-4.8V108H72"/>
	<path class="st0" d="M72,131.9H56.6c-3.3,0-6-2.7-6-6c0-3.3,2.7-6,6-6h22.5"/>
	<path class="st1" d="M83.9,119.9h3.5c3.3,0,6,2.7,6,6c0,3.3-2.7,6-6,6h-3.5l-7.1,9h-9.5l-9.5-9.5"/>
	<path class="st0" d="M113.9,45c0,20.9-15.4,38.6-36.1,41.5"/>
	<path class="st2" d="M69,90c1.7,0,3-1.3,3-3c0-1.7-1.3-3-3-3c-1.7,0-3,1.3-3,3C66,88.6,67.3,90,69,90z"/>
	<path class="st3" d="M93,60l-21,9l-21-9v-30l21-9l21,9V60z"/>
	<path class="st3" d="M93,30.1l-21,9l-21-9"/>
	<path class="st4" d="M3.1,45h18"/>
	<path class="st4" d="M122.9,45h18"/>
	<path class="st4" d="M12.3,79.5l15.6-9"/>
	<path class="st4" d="M116.1,19.6l15.6-9"/>
	<path class="st4" d="M131.7,79.5l-15.6-9"/>
	<path class="st4" d="M27.9,19.6l-15.6-9"/>
</g>
</svg>
