<?xml version="1.0" encoding="utf-8"?>
<!-- Generator: Adobe Illustrator 26.5.0, SVG Export Plug-In . SVG Version: 6.00 Build 0)  -->
<svg version="1.1" id="Layer_1" xmlns="http://www.w3.org/2000/svg" xmlns:xlink="http://www.w3.org/1999/xlink" x="0px" y="0px"
	 viewBox="0 0 144 144" style="enable-background:new 0 0 144 144;" xml:space="preserve">
<style type="text/css">
	.st0{fill:none;stroke:#FFFFFF;stroke-width:3.0503;}
	.st1{fill:none;stroke:#FFFFFF;stroke-width:3.0503;stroke-miterlimit:10;stroke-dasharray:6.1006,6.1006;}
</style>
<g>
	<path class="st0" d="M56.2,22.4l7-16h17.5l7,16c3.6,2.1,6.2,3.6,9.8,5.7l17.4-1.9c4.2,7.2,4.6,8,8.8,15.2l-10.3,14.1v11.3
		l10.3,14.1c-4.2,7.2-4.6,8-8.8,15.2l-17.4-1.9c-3.6,2.1-6.2,3.6-9.8,5.7l-7,16H63.2l-7-16c-3.6-2.1-6.2-3.6-9.8-5.7L29,96
		c-4.2-7.2-4.6-8-8.8-15.2l10.3-14.1V55.4L20.3,41.4c4.2-7.2,4.6-8,8.8-15.2l17.4,1.9C50,26,52.6,24.5,56.2,22.4L56.2,22.4z"/>
	<path class="st0" d="M72,78.5c9.6,0,17.5-7.8,17.5-17.5S81.6,43.6,72,43.6s-17.5,7.8-17.5,17.5S62.4,78.5,72,78.5z"/>
	<path class="st0" d="M88.1,115.7h51.6v21.8H4.4v-21.8h52.5"/>
	<path class="st0" d="M13.1,122.3v8.7"/>
	<path class="st0" d="M21.8,122.3v8.7"/>
	<path class="st0" d="M30.5,122.3v8.7"/>
	<path class="st0" d="M39.3,122.3v8.7"/>
	<path class="st0" d="M48,122.3v8.7"/>
	<path class="st0" d="M56.7,122.3v8.7"/>
	<path class="st0" d="M65.5,122.3v8.7"/>
	<path class="st0" d="M74.2,122.3v8.7"/>
	<path class="st0" d="M24,61.2h-4.4"/>
	<path class="st0" d="M120,61.2h4.4"/>
	<path class="st0" d="M15.3,61.2h-4.4"/>
	<path class="st0" d="M6.5,61.2H2.2"/>
	<path class="st0" d="M128.7,61.2h4.4"/>
	<path class="st0" d="M137.5,61.2h4.4"/>
	<path class="st1" d="M80.8,28.4H63.2L48,37.1l-8.8,15.2v17.5L48,85l15.2,8.8h17.5L96,85l8.8-15.2V52.3L96,37.1L80.8,28.4z"/>
</g>
</svg>
