<?xml version="1.0" encoding="utf-8"?>
<!-- Generator: Adobe Illustrator 26.5.0, SVG Export Plug-In . SVG Version: 6.00 Build 0)  -->
<svg version="1.1" id="Layer_1" xmlns="http://www.w3.org/2000/svg" xmlns:xlink="http://www.w3.org/1999/xlink" x="0px" y="0px"
	 viewBox="0 0 144 144" style="enable-background:new 0 0 144 144;" xml:space="preserve">
<style type="text/css">
	.st0{fill:none;stroke:#FFFFFF;stroke-width:3.052;stroke-linecap:round;stroke-linejoin:round;}
	.st1{fill:#FFFFFF;}
</style>
<g>
	<path class="st0" d="M20.1,1.8H1.8v18.3h18.3V1.8z"/>
	<path class="st0" d="M20.1,123.9H1.8v18.3h18.3V123.9z"/>
	<path class="st0" d="M142.2,1.8h-18.3v18.3h18.3V1.8z"/>
	<path class="st0" d="M142.2,123.9h-18.3v18.3h18.3V123.9z"/>
	<path class="st0" d="M102.5,93.6l-30.5,13l-30.5-13V50.4l30.5-13l30.5,13V93.6z"/>
	<path class="st0" d="M102.5,50.4L72,63.4l-30.5-13"/>
	<path class="st1" d="M53.7,14c1.7,0,3.1-1.4,3.1-3.1c0-1.7-1.4-3.1-3.1-3.1c-1.7,0-3.1,1.4-3.1,3.1C50.6,12.6,52,14,53.7,14z"/>
	<path class="st1" d="M41.5,14c1.7,0,3.1-1.4,3.1-3.1c0-1.7-1.4-3.1-3.1-3.1c-1.7,0-3.1,1.4-3.1,3.1C38.4,12.6,39.8,14,41.5,14z"/>
	<path class="st1" d="M29.3,14c1.7,0,3.1-1.4,3.1-3.1c0-1.7-1.4-3.1-3.1-3.1c-1.7,0-3.1,1.4-3.1,3.1C26.2,12.6,27.6,14,29.3,14z"/>
	<path class="st1" d="M90.3,14c1.7,0,3.1-1.4,3.1-3.1c0-1.7-1.4-3.1-3.1-3.1c-1.7,0-3.1,1.4-3.1,3.1C87.3,12.6,88.6,14,90.3,14z"/>
	<path class="st1" d="M114.7,14c1.7,0,3.1-1.4,3.1-3.1c0-1.7-1.4-3.1-3.1-3.1c-1.7,0-3.1,1.4-3.1,3.1C111.7,12.6,113,14,114.7,14z"
		/>
	<path class="st1" d="M102.5,14c1.7,0,3.1-1.4,3.1-3.1c0-1.7-1.4-3.1-3.1-3.1c-1.7,0-3.1,1.4-3.1,3.1C99.5,12.6,100.8,14,102.5,14z"
		/>
	<path class="st1" d="M53.7,136.1c1.7,0,3.1-1.4,3.1-3.1s-1.4-3.1-3.1-3.1c-1.7,0-3.1,1.4-3.1,3.1S52,136.1,53.7,136.1z"/>
	<path class="st1" d="M41.5,136.1c1.7,0,3.1-1.4,3.1-3.1s-1.4-3.1-3.1-3.1c-1.7,0-3.1,1.4-3.1,3.1S39.8,136.1,41.5,136.1z"/>
	<path class="st1" d="M29.3,136.1c1.7,0,3.1-1.4,3.1-3.1S31,130,29.3,130c-1.7,0-3.1,1.4-3.1,3.1S27.6,136.1,29.3,136.1z"/>
	<path class="st1" d="M90.3,136.1c1.7,0,3.1-1.4,3.1-3.1S92,130,90.3,130c-1.7,0-3.1,1.4-3.1,3.1S88.6,136.1,90.3,136.1z"/>
	<path class="st1" d="M114.7,136.1c1.7,0,3.1-1.4,3.1-3.1s-1.4-3.1-3.1-3.1c-1.7,0-3.1,1.4-3.1,3.1S113,136.1,114.7,136.1z"/>
	<path class="st1" d="M102.5,136.1c1.7,0,3.1-1.4,3.1-3.1s-1.4-3.1-3.1-3.1c-1.7,0-3.1,1.4-3.1,3.1S100.8,136.1,102.5,136.1z"/>
	<path class="st1" d="M133,56.7c1.7,0,3.1-1.4,3.1-3.1c0-1.7-1.4-3.1-3.1-3.1c-1.7,0-3.1,1.4-3.1,3.1C130,55.4,131.4,56.7,133,56.7z
		"/>
	<path class="st1" d="M133,44.5c1.7,0,3.1-1.4,3.1-3.1s-1.4-3.1-3.1-3.1c-1.7,0-3.1,1.4-3.1,3.1S131.4,44.5,133,44.5z"/>
	<path class="st1" d="M133,32.3c1.7,0,3.1-1.4,3.1-3.1s-1.4-3.1-3.1-3.1c-1.7,0-3.1,1.4-3.1,3.1S131.4,32.3,133,32.3z"/>
	<path class="st1" d="M133,93.4c1.7,0,3.1-1.4,3.1-3.1s-1.4-3.1-3.1-3.1c-1.7,0-3.1,1.4-3.1,3.1S131.4,93.4,133,93.4z"/>
	<path class="st1" d="M133,117.8c1.7,0,3.1-1.4,3.1-3.1c0-1.7-1.4-3.1-3.1-3.1c-1.7,0-3.1,1.4-3.1,3.1
		C130,116.4,131.4,117.8,133,117.8z"/>
	<path class="st1" d="M133,105.6c1.7,0,3.1-1.4,3.1-3.1c0-1.7-1.4-3.1-3.1-3.1c-1.7,0-3.1,1.4-3.1,3.1
		C130,104.2,131.4,105.6,133,105.6z"/>
	<path class="st1" d="M11,56.7c1.7,0,3.1-1.4,3.1-3.1c0-1.7-1.4-3.1-3.1-3.1c-1.7,0-3.1,1.4-3.1,3.1C7.9,55.4,9.3,56.7,11,56.7z"/>
	<path class="st1" d="M11,44.5c1.7,0,3.1-1.4,3.1-3.1s-1.4-3.1-3.1-3.1c-1.7,0-3.1,1.4-3.1,3.1S9.3,44.5,11,44.5z"/>
	<path class="st1" d="M11,32.3c1.7,0,3.1-1.4,3.1-3.1s-1.4-3.1-3.1-3.1c-1.7,0-3.1,1.4-3.1,3.1S9.3,32.3,11,32.3z"/>
	<path class="st1" d="M11,93.4c1.7,0,3.1-1.4,3.1-3.1s-1.4-3.1-3.1-3.1c-1.7,0-3.1,1.4-3.1,3.1S9.3,93.4,11,93.4z"/>
	<path class="st1" d="M11,117.8c1.7,0,3.1-1.4,3.1-3.1c0-1.7-1.4-3.1-3.1-3.1c-1.7,0-3.1,1.4-3.1,3.1C7.9,116.4,9.3,117.8,11,117.8z
		"/>
	<path class="st1" d="M11,105.6c1.7,0,3.1-1.4,3.1-3.1c0-1.7-1.4-3.1-3.1-3.1c-1.7,0-3.1,1.4-3.1,3.1C7.9,104.2,9.3,105.6,11,105.6z
		"/>
	<path class="st1" d="M29.3,75.1c1.7,0,3.1-1.4,3.1-3.1s-1.4-3.1-3.1-3.1c-1.7,0-3.1,1.4-3.1,3.1S27.6,75.1,29.3,75.1z"/>
	<path class="st1" d="M114.7,75.1c1.7,0,3.1-1.4,3.1-3.1s-1.4-3.1-3.1-3.1c-1.7,0-3.1,1.4-3.1,3.1S113,75.1,114.7,75.1z"/>
	<path class="st1" d="M72,29.3c1.7,0,3.1-1.4,3.1-3.1s-1.4-3.1-3.1-3.1c-1.7,0-3.1,1.4-3.1,3.1S70.3,29.3,72,29.3z"/>
	<path class="st1" d="M72,120.8c1.7,0,3.1-1.4,3.1-3.1c0-1.7-1.4-3.1-3.1-3.1c-1.7,0-3.1,1.4-3.1,3.1
		C68.9,119.5,70.3,120.8,72,120.8z"/>
	<path class="st0" d="M72,17.1c3.4,0,6.1-2.7,6.1-6.1c0-3.4-2.7-6.1-6.1-6.1c-3.4,0-6.1,2.7-6.1,6.1C65.9,14.3,68.6,17.1,72,17.1z"
		/>
	<path class="st0" d="M72,139.1c3.4,0,6.1-2.7,6.1-6.1s-2.7-6.1-6.1-6.1c-3.4,0-6.1,2.7-6.1,6.1S68.6,139.1,72,139.1z"/>
	<path class="st0" d="M133,78.1c3.4,0,6.1-2.7,6.1-6.1s-2.7-6.1-6.1-6.1c-3.4,0-6.1,2.7-6.1,6.1S129.7,78.1,133,78.1z"/>
	<path class="st0" d="M11,78.1c3.4,0,6.1-2.7,6.1-6.1s-2.7-6.1-6.1-6.1c-3.4,0-6.1,2.7-6.1,6.1S7.6,78.1,11,78.1z"/>
</g>
</svg>
