<svg width="96" height="96" viewBox="0 0 96 96" fill="none" xmlns="http://www.w3.org/2000/svg">
<path d="M47.719 54.8302C50.999 54.8302 53.649 52.1703 53.649 48.9003C53.649 45.6203 50.989 42.9702 47.719 42.9702C44.449 42.9702 41.7891 45.6303 41.7891 48.9003C41.7791 52.1803 44.439 54.8302 47.719 54.8302Z" stroke="white" stroke-width="2" stroke-miterlimit="10"/>
<path d="M71.0603 43.6401L68.5703 37.2301L62.4502 39.0502C61.3002 37.4202 59.9603 35.8901 58.3403 34.7501L60.4502 28.7201L54.1401 25.9401L51.0803 31.5901C49.1703 31.2101 47.1601 31.1101 45.1501 31.4001L42.3801 25.6602L35.9702 28.1501L37.7903 34.2701C36.1703 35.4201 34.6302 36.7601 33.4902 38.3801L27.4602 36.2802L24.6902 42.5901L30.3403 45.6501C29.9603 47.5601 29.8601 49.5701 30.1501 51.5801L24.4102 54.3501L26.9001 60.7601L33.0203 58.9401C34.1703 60.5701 35.5101 62.0001 37.1301 63.2401L35.0203 69.2701L41.3303 72.0402L44.3901 66.4001C46.3001 66.7801 48.3103 66.8801 50.3203 66.5901L53.0903 72.3301L59.5002 69.8401L57.6802 63.7201C59.3002 62.5701 60.7402 61.2301 61.9802 59.6101L68.0103 61.7101L70.7803 55.4001L65.1401 52.3401C65.5201 50.4301 65.6203 48.4202 65.3303 46.4102L71.0603 43.6401Z" stroke="white" stroke-width="2" stroke-miterlimit="10"/>
<path d="M69.4297 19.3401C73.7597 19.3401 77.2698 15.8301 77.2698 11.5001C77.2698 7.17012 73.7597 3.66016 69.4297 3.66016C65.0997 3.66016 61.5898 7.17012 61.5898 11.5001C61.5898 15.8301 65.0997 19.3401 69.4297 19.3401Z" stroke="white" stroke-width="2" stroke-miterlimit="10"/>
<path d="M61.491 11.5H47.7109V21.35" stroke="white" stroke-width="2" stroke-miterlimit="10"/>
<path d="M81.2002 64.6702L71.3203 74.5502L81.2002 84.4302L91.0803 74.5502L81.2002 64.6702Z" stroke="white" stroke-width="2" stroke-miterlimit="10"/>
<path d="M12.3203 82.3903L28.1003 92.2402V72.5303L12.3203 82.3903Z" stroke="white" stroke-width="2" stroke-miterlimit="10"/>
<path d="M22.1707 15.52H6.39062V31.3H22.1707V15.52Z" stroke="white" stroke-width="2" stroke-miterlimit="10"/>
<path d="M73.3516 48.9001H81.2014V64.6802" stroke="white" stroke-width="2" stroke-miterlimit="10"/>
<path d="M22.1719 48.9003H14.332V31.2002" stroke="white" stroke-width="2" stroke-miterlimit="10"/>
<path d="M47.7217 76.4502V84.2903H28.0117" stroke="white" stroke-width="2" stroke-miterlimit="10"/>
</svg>
