<svg width="96" height="96" viewBox="0 0 96 96" fill="none" xmlns="http://www.w3.org/2000/svg">
<path d="M42.1284 81.02C36.7384 84.87 31.8884 87.59 31.2484 87.76C29.7484 87.37 4.64844 72.6599 4.64844 62.6399V34.5701C12.1584 34.5701 28.6184 27.85 31.2484 24.23C33.8684 27.86 50.3384 34.5701 57.8484 34.5701V49.96" stroke="white" stroke-width="2" stroke-linecap="round" stroke-linejoin="round"/>
<path d="M20.2891 39.54C25.1391 37.98 30.099 35.6101 31.249 34.0701C33.099 36.5401 44.689 41.1299 49.969 41.1299V55.74" stroke="white" stroke-width="2" stroke-linecap="round" stroke-linejoin="round"/>
<path d="M40.1073 71.96C35.8573 75.03 31.7473 77.2799 31.2473 77.4099C30.1973 77.1499 12.5273 67.11 12.5273 60.28V46.05" stroke="white" stroke-width="2" stroke-linecap="round" stroke-linejoin="round"/>
<path d="M69.6688 30.1201V22.24H77.5488L63.7588 2.54004L49.9688 22.24H57.8488V26.1799" stroke="white" stroke-width="2" stroke-linecap="round" stroke-linejoin="round" stroke-dasharray="3.94 3.94"/>
<path d="M83.4578 73.47V51.8H91.3378L77.5479 32.1001L63.7578 51.8H71.6378V61.6499" stroke="white" stroke-width="2" stroke-linecap="round" stroke-linejoin="round" stroke-dasharray="3.94 3.94"/>
<path d="M51.9373 93.1699V75.4399H46.0273L57.8473 57.71L69.6674 75.4399H63.7573V83.3201" stroke="white" stroke-width="2" stroke-linecap="round" stroke-linejoin="round" stroke-dasharray="3.94 3.94"/>
</svg>
