<svg width="97" height="96" viewBox="0 0 97 96" fill="none" xmlns="http://www.w3.org/2000/svg">
<path d="M11.043 61.07V70.07C11.043 72.05 12.6329 73.67 14.5729 73.67H85.2429C87.1829 73.67 88.7729 72.05 88.7729 70.07V17.88C88.7729 15.9 87.1829 14.28 85.2429 14.28H14.5729C12.6329 14.28 11.043 15.9 11.043 17.88V26.88" stroke="white" stroke-width="2" stroke-linejoin="round"/>
<path d="M18.1055 61.0701V68.2701" stroke="white" stroke-width="2" stroke-linejoin="round"/>
<path d="M18.1055 35.8799V52.0799" stroke="white" stroke-width="2" stroke-linejoin="round"/>
<path d="M79.9531 19.6799V68.27" stroke="white" stroke-width="2" stroke-linejoin="round"/>
<path d="M18.1055 19.6799V25.08" stroke="white" stroke-width="2" stroke-linejoin="round"/>
<path d="M19.875 79.0701L21.825 80.8701H35.785L37.5551 79.0701" stroke="white" stroke-width="2" stroke-linejoin="round"/>
<path d="M62.2852 79.0701L64.2351 80.8701H78.1951L79.9651 79.0701" stroke="white" stroke-width="2" stroke-linejoin="round"/>
<path d="M21.6439 35.8799H9.27393C8.30393 35.8799 7.50391 35.0699 7.50391 34.0799V28.6799C7.50391 27.6899 8.29393 26.8799 9.27393 26.8799H21.6439V35.8799Z" stroke="white" stroke-width="2" stroke-linejoin="round"/>
<path d="M21.6439 61.0701H9.27393C8.30393 61.0701 7.50391 60.2601 7.50391 59.2701V53.8701C7.50391 52.8801 8.29393 52.0701 9.27393 52.0701H21.6439V61.0701Z" stroke="white" stroke-width="2" stroke-linejoin="round"/>
<path d="M11.043 35.8799V52.0799" stroke="white" stroke-width="2" stroke-linejoin="round"/>
<path d="M48.1433 39.78C48.6933 39.58 49.2933 39.47 49.9133 39.47C52.8433 39.47 55.2133 41.88 55.2133 44.87C55.2133 47.86 52.8433 50.27 49.9133 50.27C46.9833 50.27 44.6133 47.86 44.6133 44.87C44.6133 44.24 44.7133 43.63 44.9133 43.07" stroke="white" stroke-width="2" stroke-linejoin="round"/>
<path d="M49.913 57.47C56.743 57.47 62.283 51.83 62.283 44.87C62.283 37.91 56.743 32.27 49.913 32.27C43.083 32.27 37.543 37.91 37.543 44.87C37.543 51.83 43.083 57.47 49.913 57.47Z" stroke="white" stroke-width="2" stroke-linejoin="round"/>
<path d="M49.9141 25.0801V32.2801" stroke="white" stroke-width="2" stroke-linejoin="round"/>
<path d="M69.3551 44.8701H62.2852" stroke="white" stroke-width="2" stroke-linejoin="round"/>
<path d="M49.9141 64.67V57.47" stroke="white" stroke-width="2" stroke-linejoin="round"/>
<path d="M30.4727 44.8701H37.5427" stroke="white" stroke-width="2" stroke-linejoin="round"/>
<path d="M63.6523 30.8701L58.6523 35.9601" stroke="white" stroke-width="2" stroke-linejoin="round"/>
<path d="M63.6523 58.8801L58.6523 53.79" stroke="white" stroke-width="2" stroke-linejoin="round"/>
<path d="M36.1641 58.8801L41.1641 53.79" stroke="white" stroke-width="2" stroke-linejoin="round"/>
<path d="M36.1641 30.8701L41.1641 35.9601" stroke="white" stroke-width="2" stroke-linejoin="round"/>
</svg>
