<svg width="97" height="96" viewBox="0 0 97 96" fill="none" xmlns="http://www.w3.org/2000/svg">
<path d="M23.1875 27.7098H31.6572L43.0171 10.6699H59.1274" stroke="white" stroke-width="2" stroke-miterlimit="10"/>
<path d="M23.1875 48.48H27.0073" stroke="white" stroke-width="2" stroke-miterlimit="10"/>
<path d="M4.28516 40.9302H23.1855" stroke="white" stroke-width="2" stroke-miterlimit="10"/>
<path d="M59.1367 67.38H48.707L41.167 56.02H4.38672" stroke="white" stroke-width="2" stroke-miterlimit="10"/>
<path d="M11.9141 48.48H8.09375" stroke="white" stroke-width="2" stroke-miterlimit="10"/>
<path d="M19.4644 48.48H15.6445" stroke="white" stroke-width="2" stroke-miterlimit="10"/>
<path d="M19.4644 27.71H15.6445" stroke="white" stroke-width="2" stroke-miterlimit="10"/>
<path d="M21.3237 73.0601H17.5039" stroke="white" stroke-width="2" stroke-miterlimit="10"/>
<path d="M27.0039 40.9302H30.8237" stroke="white" stroke-width="2" stroke-miterlimit="10"/>
<path d="M62.957 10.67H70.4971V4.98999H72.3569L91.2568 20.08L72.5366 35.26H70.397V29.58H48.6069L41.0669 40.9399H34.5469" stroke="white" stroke-width="2" stroke-miterlimit="10"/>
<path d="M62.957 67.38H70.4971V61.7H72.3569L91.2568 76.79L72.5366 91.88H70.397V86.2H42.9268L33.4268 72.98H24.957" stroke="white" stroke-width="2" stroke-miterlimit="10"/>
<path d="M79.9946 36L83.8145 39.0699L65.0942 54.16H62.9546V48.48H30.8242" stroke="white" stroke-width="2" stroke-miterlimit="10"/>
<path d="M78.0352 49.97L85.5752 56.02L79.8955 60.58" stroke="white" stroke-width="2" stroke-miterlimit="10"/>
</svg>
