<?xml version="1.0" encoding="utf-8"?>
<!-- Generator: Adobe Illustrator 26.5.0, SVG Export Plug-In . SVG Version: 6.00 Build 0)  -->
<svg version="1.1" id="Layer_1" xmlns="http://www.w3.org/2000/svg" xmlns:xlink="http://www.w3.org/1999/xlink" x="0px" y="0px"
	 viewBox="0 0 144 144" style="enable-background:new 0 0 144 144;" xml:space="preserve">
<style type="text/css">
	.st0{fill:none;stroke:#FFFFFF;stroke-width:1.8832;}
	.st1{fill:none;stroke:#FFFFFF;stroke-width:1.8832;stroke-dasharray:3.7664,3.7664;}
</style>
<g>
	<path class="st0" d="M110.4,124c0-1.2-0.4-2.8,1.6-4.8l23.3-23.3c1.8-1.8,1.7-21.1,1.6-23.8c-0.1-2.5-2.8-15.7-4.8-20.6
		c-2.2-0.3-5.7,1.1-7.9,4.8c-2.1,3.4-1.8,7.1,0,12.7l-3.3,10.5"/>
	<path class="st0" d="M108.4,103.8l14.3-14.3c6.3-6.3-1.6-14.3-7.9-7.9l-9.5,9.5c-1.3,1.3-7,0.6-9.1,2.7l-7.9,7.9
		c-2.1,2.1-3.1,6.5-3.2,9.5c0,4.7-0.2,12.7-0.2,12.7"/>
	<path class="st1" d="M78.7,124v15.8h34.8V124H78.7z"/>
	<path class="st0" d="M86.6,131.9H93"/>
	<path class="st0" d="M23.1,79.4L19.8,69c1.8-5.6,2.1-9.2,0-12.7c-2.3-3.6-5.8-5.1-7.9-4.8c-2,4.9-4.6,18.1-4.8,20.6
		C7,74.7,7,94.1,8.7,95.9L32,119.2c1.9,1.9,1.6,3.5,1.6,4.8"/>
	<path class="st0" d="M59.2,124c0,0-0.2-7.9-0.2-12.7c-0.1-3-1-7.4-3.2-9.5l-7.9-7.9c-2.1-2.1-7.7-1.4-9.1-2.7l-9.5-9.5
		c-6.3-6.3-14.3,1.6-7.9,7.9l14.3,14.3"/>
	<path class="st1" d="M30.4,124v15.8h34.8V124H30.4z"/>
	<path class="st0" d="M51,131.9h6.3"/>
	<path class="st0" d="M78.6,6.9c1.8,1.8,4.1,2.7,6.6,2.7c5.2,0,9.3,4.2,9.3,9.3c0,2.5,1,4.9,2.7,6.6c3.6,3.6,3.6,9.6,0,13.2
		c-1.8,1.8-2.7,4.1-2.7,6.6c0,5.2-4.2,9.3-9.3,9.3c-2.5,0-4.9,1-6.6,2.7c-3.6,3.6-9.6,3.6-13.2,0c-1.8-1.8-4.1-2.7-6.6-2.7
		c-5.2,0-9.3-4.2-9.3-9.3c0-2.5-1-4.9-2.7-6.6c-3.6-3.6-3.6-9.6,0-13.2c1.8-1.8,2.7-4.1,2.7-6.6c0-5.2,4.2-9.3,9.3-9.3
		c2.5,0,4.9-1,6.6-2.7C69,3.3,75,3.3,78.6,6.9z"/>
	<path class="st0" d="M85.4,54l12,22.2l-10.3-2.7l-3.4,10.1L74.1,66"/>
	<path class="st0" d="M59.3,54.3l-11.9,22l10.3-2.7l3.4,10.1l7-13.1"/>
	<path class="st0" d="M72,45.9c7.6,0,13.7-6.1,13.7-13.7c0-7.6-6.1-13.7-13.7-13.7c-7.6,0-13.7,6.1-13.7,13.7
		C58.3,39.8,64.4,45.9,72,45.9z"/>
</g>
</svg>
