<?xml version="1.0" encoding="utf-8"?>
<!-- Generator: Adobe Illustrator 26.5.0, SVG Export Plug-In . SVG Version: 6.00 Build 0)  -->
<svg version="1.1" id="Layer_1" xmlns="http://www.w3.org/2000/svg" xmlns:xlink="http://www.w3.org/1999/xlink" x="0px" y="0px"
	 viewBox="0 0 144 144" style="enable-background:new 0 0 144 144;" xml:space="preserve">
<style type="text/css">
	.st0{fill:#FFFFFF;}
</style>
<g>
	<path class="st0" d="M50,112.8l-10.7-4.4l2.3-9.2c-2.3-1.7-4.4-3.8-6.1-6.1l-9.2,2.3l-4.4-10.7l8.1-4.9c-0.4-2.9-0.4-5.8,0-8.6
		l-8.1-4.9l4.4-10.7l9.2,2.3c1.7-2.3,3.8-4.4,6.1-6.1l-2.3-9.2L50,37.9l4.9,8.1c2.9-0.4,5.8-0.4,8.6,0l4.9-8.1l10.7,4.4l-2.3,9.2
		c2.3,1.7,4.4,3.8,6.1,6.1l9.2-2.3l4.4,10.7L88.5,71c0.4,2.9,0.4,5.8,0,8.6l8.1,4.9l-4.4,10.7L83,93c-1.7,2.3-3.8,4.4-6.1,6.1
		l2.3,9.2l-10.7,4.4l-4.9-8.1c-2.9,0.4-5.8,0.4-8.6,0L50,112.8z M65.7,102.5l3.9,6.5l6-2.5l-1.9-7.5l-0.5-1.1l1-0.7
		c2.7-1.8,5-4.1,6.8-6.8l0.7-1l1.2,0.5l7.4,1.8l2.5-6l-6.6-4l-1.1-0.5l0.2-1.2c0.6-3.2,0.6-6.5,0-9.7l-0.2-1.2l1.2-0.5l6.5-3.9
		l-2.5-6l-7.5,1.9l-1.1,0.5l-0.7-1c-1.8-2.7-4.1-5-6.8-6.8l-1-0.7l0.5-1.2l1.8-7.4l-6-2.5l-4,6.6l-0.5,1.1L64,49.1
		c-3.2-0.6-6.5-0.6-9.7,0l-1.2,0.2l-0.5-1.2l-3.9-6.5l-6,2.5l1.9,7.5l0.5,1.1l-1,0.7c-2.7,1.8-5,4.1-6.8,6.8l-0.7,1l-1.2-0.5
		L28,58.9l-2.5,6l6.6,4l1.1,0.5L33,70.5c-0.6,3.2-0.6,6.5,0,9.7l0.2,1.2L32,81.8l-6.5,3.9l2.5,6l7.5-1.9l1.1-0.5l0.7,1
		c1.8,2.7,4.1,5,6.8,6.8l1,0.7l-0.5,1.2l-1.8,7.4l6,2.5l4-6.6l0.5-1.1l1.2,0.2c3.2,0.6,6.5,0.6,9.7,0l1.2-0.2L65.7,102.5z"/>
	<path class="st0" d="M59.2,87.6c-4.8,0-9.4-2.9-11.4-7.6c-2.6-6.3,0.4-13.5,6.7-16.1c6.3-2.6,13.5,0.4,16.1,6.7
		c2.6,6.3-0.4,13.5-6.7,16.1C62.4,87.3,60.8,87.6,59.2,87.6z M59.2,66c-1.2,0-2.4,0.2-3.5,0.7c-2.3,1-4.1,2.7-5,5
		c-1,2.3-1,4.8,0,7.1c2,4.7,7.4,7,12.2,5c4.7-2,7-7.4,5-12.2C66.3,68.2,62.8,66,59.2,66z"/>
	<path class="st0" d="M103.1,139.5v-10.7H16.9v-3h89.2v6.9l11.6-10.7l-11.6-10.7v6.9h-3v-13.7l19,17.5L103.1,139.5z"/>
	<path class="st0" d="M124.7,95.8V85.1h-20.4v-3h23.4V89l11.6-10.7l-11.6-10.7v6.9h-3V60.8l19,17.5L124.7,95.8z"/>
	<path class="st0" d="M93.2,39.5V25.8h3v6.9L107.8,22L96.1,11.3v6.9H26.1v-3h67.1V4.5l19,17.5L93.2,39.5z"/>
	<path class="st0" d="M28.9,45.9h-3.7v-3h3.7V45.9z M19.5,45.9h-5.8v-3h5.8V45.9z M7.9,45.9H2.1v-3h5.8V45.9L7.9,45.9z"/>
	<path class="st0" d="M29.2,110.5h-5.8v-3h5.8V110.5z M17.6,110.5h-5.8v-3h5.8V110.5z M6.1,110.5H0.3v-3h5.8V110.5z"/>
	<path class="st0" d="M104.6,118.2h-5.8v-3h5.8V118.2z M93,118.2h-5.8v-3H93V118.2z"/>
	<path class="st0" d="M126.2,74.5h-5.8v-3h5.8V74.5z M114.6,74.5h-5.8v-3h5.8V74.5z"/>
	<path class="st0" d="M94.6,28.8h-5.8v-3h5.8V28.8z M83.1,28.8h-5.8v-3h5.8V28.8z M71.5,28.8h-5.8v-3h5.8V28.8z M60,28.8h-5.8v-3H60
		V28.8z"/>
</g>
</svg>
