<?xml version="1.0" encoding="utf-8"?>
<!-- Generator: Adobe Illustrator 26.5.0, SVG Export Plug-In . SVG Version: 6.00 Build 0)  -->
<svg version="1.1" id="Layer_1" xmlns="http://www.w3.org/2000/svg" xmlns:xlink="http://www.w3.org/1999/xlink" x="0px" y="0px"
	 viewBox="0 0 144 144" style="enable-background:new 0 0 144 144;" xml:space="preserve">
<style type="text/css">
	.st0{fill:none;stroke:#FFFFFF;stroke-width:4;}
	.st1{fill:#FFFFFF;}
	.st2{fill:none;stroke:#FFFFFF;stroke-width:2.8114;stroke-dasharray:5.6228,5.6228;}
</style>
<g>
	<path class="st0" d="M7,107h26.7c1.5,0,2.8,1.3,2.8,2.8v25.3c0,1.5-1.3,2.8-2.8,2.8H7c-1.5,0-2.8-1.3-2.8-2.8v-25.3
		C4.2,108.2,5.5,107,7,107z"/>
	<path class="st1" d="M139.9,8.6c0-1.2-0.9-2.1-2-2.1l-19-0.4c-1.2,0-2.1,0.9-2.1,2s0.9,2.1,2,2.1l16.8,0.4l-0.4,16.8
		c0,1.2,0.9,2.1,2,2.1s2.1-0.9,2.1-2L139.9,8.6z M7,136.5L139.2,10.1L136.3,7L4.1,133.5L7,136.5z"/>
	<path class="st2" d="M36.5,136.4h19.6V85.9H5.6v21.5"/>
	<path class="st2" d="M56.2,136.4H90V54.9H5.6v30.6"/>
	<path class="st2" d="M90.6,136.4h30.3V24H5.6v31.3"/>
</g>
</svg>
