<?xml version="1.0" encoding="utf-8"?>
<!-- Generator: Adobe Illustrator 27.9.0, SVG Export Plug-In . SVG Version: 6.00 Build 0)  -->
<svg version="1.1" id="Layer_1" xmlns="http://www.w3.org/2000/svg" xmlns:xlink="http://www.w3.org/1999/xlink" x="0px" y="0px"
	 width="144px" height="144px" viewBox="0 0 144 144" style="enable-background:new 0 0 144 144;" xml:space="preserve">
<style type="text/css">
	.st0{fill:none;stroke:#FFFFFF;stroke-width:2.2175;stroke-miterlimit:10;}
	.st1{fill:none;stroke:#FFFFFF;stroke-width:2.2175;stroke-miterlimit:10;stroke-dasharray:0,0,11.8746,11.8746;}
</style>
<g>
	<g transform="translate(-4166 -192)">
		<g>
			<g>
				<g>
					<g>
						<g>
							<g>
								<path class="st0" d="M4214.4,256.8h7.1c2.2,0,5.6,1.3,7.1,3.5h7.1c3.3,0,7.1,3.1,7.1,7.1h7.1c3.3,0,7.1,3.1,7.1,7.1v31.6
									c0,7.1-7.1,12.9-7.1,17.6v3.5"/>
								<path class="st0" d="M4214.4,274.4v-42.1c0-3.8-3.1-7.1-7.1-7.1c-3.8,0-7.1,3.1-7.1,7.1v49.1l-4.7,4.4l-9.2-14.2
									c-5.6-7.7-14.2-3.4-14.2,0c0,0,10.6,30.5,12.1,32.8c2.5,3.8,12.4,12.4,12.4,15.5v7.1"/>
								<path class="st0" d="M4228.4,260.3v14"/>
								<path class="st0" d="M4242.5,267.3v10.5"/>
								<path class="st0" d="M4177.7,258.9v-5.8"/>
								<path class="st1" d="M4177.7,241.3v-24.1c0-8.4,6.8-15.4,15.4-15.4h96.5c8.4,0,15.4,6.8,15.4,15.4v73
									c0,8.4-6.8,15.4-15.4,15.4h-13.3"/>
								<path class="st0" d="M4270.4,305.4h-5.8"/>
								<path class="st0" d="M4200.3,242.6c-4.1-0.4-7.4-4-7.4-8.3v-10.5c0-4.6,3.7-8.3,8.3-8.3h10.5c4.6,0,8.3,3.7,8.3,8.3v10.5
									c0,3.7-2.4,6.8-5.8,7.8"/>
								<path class="st0" d="M4242.2,215.5c7.5,0,13.6,6.1,13.6,13.6l0,0c0,7.5-6.1,13.6-13.6,13.6l0,0c-7.5,0-13.6-6.1-13.6-13.6
									l0,0C4228.6,221.6,4234.8,215.5,4242.2,215.5L4242.2,215.5z"/>
								<path class="st0" d="M4277.9,215.5c7.5,0,13.6,6.1,13.6,13.6l0,0c0,7.5-6.1,13.6-13.6,13.6l0,0c-7.5,0-13.6-6.1-13.6-13.6
									l0,0C4264.3,221.6,4270.4,215.5,4277.9,215.5L4277.9,215.5z"/>
							</g>
						</g>
					</g>
				</g>
			</g>
		</g>
	</g>
</g>
</svg>
