<?xml version="1.0" encoding="utf-8"?>
<!-- Generator: Adobe Illustrator 27.9.0, SVG Export Plug-In . SVG Version: 6.00 Build 0)  -->
<svg version="1.1" id="Layer_1" xmlns="http://www.w3.org/2000/svg" xmlns:xlink="http://www.w3.org/1999/xlink" x="0px" y="0px"
	 width="144px" height="144px" viewBox="0 0 144 144" style="enable-background:new 0 0 144 144;" xml:space="preserve">
<style type="text/css">
	.st0{fill:none;stroke:#FFFFFF;stroke-width:2.1692;stroke-linejoin:round;}
	.st1{fill:none;stroke:#FFFFFF;stroke-width:2.1692;stroke-miterlimit:10;}
	.st2{fill:none;stroke:#FFFFFF;stroke-width:2.1692;stroke-linecap:round;stroke-miterlimit:10;}
</style>
<g>
	<g transform="translate(-4661 -2190)">
		<g>
			<g>
				<g>
					<g>
						<g>
							<g>
								<g>
									<g>
										<path class="st0" d="M4711.2,2270.4v-9c0-8,5.8-10.8,13-10.8l9,10l8.4-10c7.4,0,13.7,2.9,13.7,10.8v9"/>
										<path class="st1" d="M4743.5,2231.4c0,5.6-4.6,10.4-10.3,10.4c-5.6,0-10.3-4.6-10.3-10.4v-3.9c0-5.6,4.6-10.4,10.3-10.4
											c5.6,0,10.3,4.6,10.3,10.4V2231.4z"/>
										<path class="st0" d="M4774.6,2264.8v-24c0-4,2.6-7.2,6.2-7.2c3.6,0,6.5,3.2,6.5,7.2v46.6l-21.4,27.9c0,0-2.3,2.7-1.6,12.6
											"/>
										<path class="st1" d="M4738.8,2328v-21.7c0-8.4,9.8-14.2,9.8-14.2c4.5-3,9.5-8.1,9.5-8.1l8.4-9.1c3.5-3.8,8.4-4.8,11-2.3
											c2.6,2.5,2,7.5-1.4,11.3l-11.7,12.7"/>
										<path class="st0" d="M4692.1,2264.8v-24c0-4-2.6-7.2-6.2-7.2c-3.6,0-6.5,3.2-6.5,7.2v46.6l21.4,27.9c0,0,2.3,2.7,1.6,12.6
											"/>
										<path class="st1" d="M4727.8,2328v-21.7c0-8.4-9.8-14.2-9.8-14.2c-4.5-3-9.5-8.1-9.5-8.1l-8.4-9.1
											c-3.5-3.8-8.4-4.8-11-2.3c-2.6,2.5-2,7.5,1.4,11.3l11.7,12.7"/>
										<path class="st2" d="M4733.3,2205.4v-9"/>
										<path class="st2" d="M4709.6,2213.6l-5.6-7.1"/>
										<path class="st2" d="M4762.6,2206.7l-5.6,7.1"/>
									</g>
								</g>
							</g>
						</g>
					</g>
				</g>
			</g>
		</g>
	</g>
</g>
</svg>
