<?xml version="1.0" encoding="utf-8"?>
<!-- Generator: Adobe Illustrator 27.9.0, SVG Export Plug-In . SVG Version: 6.00 Build 0)  -->
<svg version="1.1" id="Layer_1" xmlns="http://www.w3.org/2000/svg" xmlns:xlink="http://www.w3.org/1999/xlink" x="0px" y="0px"
	 width="144px" height="144px" viewBox="0 0 144 144" style="enable-background:new 0 0 144 144;" xml:space="preserve">
<style type="text/css">
	.st0{fill:none;stroke:#FFFFFF;stroke-width:2.3471;stroke-linejoin:round;}
	.st1{fill:none;stroke:#FFFFFF;stroke-width:2.3471;stroke-miterlimit:10;}
	.st2{fill:none;stroke:#FFFFFF;stroke-width:2.3471;stroke-linecap:round;stroke-miterlimit:10;}
</style>
<path class="st0" d="M74.3,63.2v-25h16.6v19.4"/>
<path class="st0" d="M82.6,13.3v24.9"/>
<path class="st0" d="M107.5,60.4V49.3h16.6v19.4"/>
<path class="st0" d="M115.8,24.4v24.9"/>
<path class="st0" d="M57.6,24.4H41v52.7h16.6V24.4z"/>
<path class="st0" d="M49.3,5v19.4"/>
<path class="st0" d="M49.3,77v22.2"/>
<path class="st0" d="M24.4,57.7H7.8v58.2h16.6C24.4,115.8,24.4,57.6,24.4,57.7z"/>
<path class="st0" d="M16.1,32.7v24.9"/>
<path class="st0" d="M16.1,115.8V138"/>
<path class="st1" d="M96.4,124.1c16.9,0,30.5-13,30.5-28.9S113.3,66,96.4,66S66,79,66,95S79.6,124.1,96.4,124.1z"/>
<path class="st2" d="M118.6,115.8l16.6,16.6"/>
</svg>
