<svg width="96" height="96" viewBox="0 0 96 96" fill="none" xmlns="http://www.w3.org/2000/svg">
<path d="M47.7239 54.8302C51.0039 54.8302 53.6538 52.1703 53.6538 48.9003C53.6538 45.6203 50.9939 42.9702 47.7239 42.9702C44.4539 42.9702 41.794 45.6303 41.794 48.9003C41.784 52.1803 44.4439 54.8302 47.7239 54.8302Z" stroke="white" stroke-width="1.5" stroke-miterlimit="10"/>
<path d="M71.064 43.6401L68.574 37.2301L62.4539 39.0502C61.3039 37.4202 59.964 35.8901 58.344 34.7501L60.4539 28.7201L54.1438 25.9401L51.084 31.5901C49.174 31.2101 47.1638 31.1101 45.1538 31.4001L42.3838 25.6602L35.9739 28.1501L37.7939 34.2701C36.1739 35.4201 34.6339 36.7601 33.4939 38.3801L27.4639 36.2802L24.6938 42.5901L30.344 45.6501C29.964 47.5601 29.8638 49.5701 30.1538 51.5801L24.4138 54.3501L26.9038 60.7601L33.0239 58.9401C34.1739 60.5701 35.5138 62.0001 37.1338 63.2401L35.0239 69.2701L41.334 72.0402L44.3938 66.4001C46.3038 66.7801 48.314 66.8801 50.324 66.5901L53.094 72.3301L59.5039 69.8401L57.6838 63.7201C59.3038 62.5701 60.7439 61.2301 61.9839 59.6101L68.0139 61.7101L70.7839 55.4001L65.1438 52.3401C65.5238 50.4301 65.624 48.4202 65.334 46.4102L71.064 43.6401Z" stroke="white" stroke-width="1.5" stroke-miterlimit="10"/>
<path d="M69.4338 19.3401C73.7638 19.3401 77.2739 15.8301 77.2739 11.5001C77.2739 7.17012 73.7638 3.66016 69.4338 3.66016C65.1038 3.66016 61.594 7.17012 61.594 11.5001C61.594 15.8301 65.1038 19.3401 69.4338 19.3401Z" stroke="white" stroke-width="1.5" stroke-miterlimit="10"/>
<path d="M61.4939 11.5H47.7139V21.35" stroke="white" stroke-width="1.5" stroke-miterlimit="10"/>
<path d="M81.2039 64.6702L71.324 74.5502L81.2039 84.4302L91.084 74.5502L81.2039 64.6702Z" stroke="white" stroke-width="1.5" stroke-miterlimit="10"/>
<path d="M12.324 82.3903L28.104 92.2402V72.5303L12.324 82.3903Z" stroke="white" stroke-width="1.5" stroke-miterlimit="10"/>
<path d="M22.1738 15.52H6.3938V31.3H22.1738V15.52Z" stroke="white" stroke-width="1.5" stroke-miterlimit="10"/>
<path d="M73.354 48.9001H81.2039V64.6802" stroke="white" stroke-width="1.5" stroke-miterlimit="10"/>
<path d="M22.1738 48.9003H14.334V31.2002" stroke="white" stroke-width="1.5" stroke-miterlimit="10"/>
<path d="M47.7239 76.4502V84.2903H28.0139" stroke="white" stroke-width="1.5" stroke-miterlimit="10"/>
</svg>
