<svg width="96" height="96" viewBox="0 0 96 96" fill="none" xmlns="http://www.w3.org/2000/svg">
<path d="M16.1099 26.6101H24.0801L32.0498 38.4701H38.0298" stroke="white" stroke-width="1.5" stroke-miterlimit="10"/>
<path d="M16.3999 48.8101H46.1899" stroke="white" stroke-width="1.5" stroke-miterlimit="10"/>
<path d="M16.1099 26.6101C16.1099 29.9301 13.4499 32.5901 10.1299 32.5901C6.80988 32.5901 4.1499 29.9301 4.1499 26.6101C4.1499 23.2901 6.80988 20.6301 10.1299 20.6301C13.4499 20.6301 16.1099 23.3801 16.1099 26.6101Z" stroke="white" stroke-width="1.5" stroke-miterlimit="10"/>
<path d="M16.1099 48.4299C16.1099 51.7499 13.4499 54.41 10.1299 54.41C6.80988 54.41 4.1499 51.7499 4.1499 48.4299C4.1499 45.1099 6.80988 42.45 10.1299 42.45C13.4499 42.45 16.1099 45.1099 16.1099 48.4299Z" stroke="white" stroke-width="1.5" stroke-miterlimit="10"/>
<path d="M31.96 16.74L39.9302 28.6H49.7998" stroke="white" stroke-width="1.5" stroke-miterlimit="10"/>
<path d="M33.9502 12.75C33.9502 16.07 31.2902 18.73 27.9702 18.73C24.6502 18.73 21.9902 16.07 21.9902 12.75C21.9902 9.43002 24.6502 6.77002 27.9702 6.77002C31.2902 6.78002 33.9502 9.43002 33.9502 12.75Z" stroke="white" stroke-width="1.5" stroke-miterlimit="10"/>
<path d="M16.1099 70.25C16.1099 66.93 13.4499 64.27 10.1299 64.27C6.80988 64.27 4.1499 66.93 4.1499 70.25C4.1499 73.57 6.80988 76.23 10.1299 76.23C13.4499 76.23 16.1099 73.48 16.1099 70.25Z" stroke="white" stroke-width="1.5" stroke-miterlimit="10"/>
<path d="M31.96 80.12L39.9302 68.26H49.7998" stroke="white" stroke-width="1.5" stroke-miterlimit="10"/>
<path d="M33.9502 84.1001C33.9502 80.7801 31.2902 78.1201 27.9702 78.1201C24.6502 78.1201 21.9902 80.7801 21.9902 84.1001C21.9902 87.4201 24.6502 90.0801 27.9702 90.0801C31.2902 90.0801 33.9502 87.4301 33.9502 84.1001Z" stroke="white" stroke-width="1.5" stroke-miterlimit="10"/>
<path d="M49.8901 48.8101H46.1899" stroke="white" stroke-width="1.5" stroke-miterlimit="10"/>
<path d="M16.1099 70.2501H24.0801L32.0498 58.3901H69.7202V64.0801L92.4902 48.7101L69.7202 32.3901V38.5601H49.8901" stroke="white" stroke-width="1.5" stroke-miterlimit="10"/>
<path d="M62.04 48.8101H65.8398" stroke="white" stroke-width="1.5" stroke-miterlimit="10"/>
<path d="M53.6899 48.8101H57.3901" stroke="white" stroke-width="1.5" stroke-miterlimit="10"/>
<path d="M53.6899 28.22H57.3901" stroke="white" stroke-width="1.5" stroke-miterlimit="10"/>
<path d="M53.6899 68.3501H57.3901" stroke="white" stroke-width="1.5" stroke-miterlimit="10"/>
<path d="M46.1899 38.47H41.54" stroke="white" stroke-width="1.5" stroke-miterlimit="10"/>
</svg>
