<svg width="96" height="96" viewBox="0 0 96 96" fill="none" xmlns="http://www.w3.org/2000/svg">
<path d="M10.312 21.0601L22.692 33.45L16.502 39.64H39.202V16.9399L33.012 23.13L14.432 4.55005" stroke="white" stroke-width="1.5" stroke-miterlimit="10"/>
<path d="M22.692 23.12L2.052 2.47998" stroke="white" stroke-width="1.5" stroke-miterlimit="10"/>
<path d="M92.872 12.8L72.2321 33.4399L78.4221 39.63H55.712V16.9301L61.902 23.12L74.282 10.73" stroke="white" stroke-width="1.5" stroke-miterlimit="10"/>
<path d="M72.2321 23.12L92.872 2.47998" stroke="white" stroke-width="1.5" stroke-miterlimit="10"/>
<path d="M4.12195 80.9199L22.702 62.3398L16.512 56.1499H39.2119V78.8499L33.0219 72.6599L22.702 82.9799" stroke="white" stroke-width="1.5" stroke-miterlimit="10"/>
<path d="M22.692 72.6602L2.052 93.3002" stroke="white" stroke-width="1.5" stroke-miterlimit="10"/>
<path d="M82.552 72.6599L72.2321 62.3398L78.4221 56.1499H55.722V78.8499L61.912 72.6599L80.492 91.2399" stroke="white" stroke-width="1.5" stroke-miterlimit="10"/>
<path d="M72.2321 72.6602L92.872 93.3002" stroke="white" stroke-width="1.5" stroke-miterlimit="10"/>
<path d="M22.692 47.8901H2.052" stroke="white" stroke-width="1.5" stroke-miterlimit="10"/>
<path d="M92.872 47.8901H72.2321" stroke="white" stroke-width="1.5" stroke-miterlimit="10"/>
<path d="M57.782 47.8901H37.142" stroke="white" stroke-width="1.5" stroke-miterlimit="10"/>
<path d="M47.462 58.2098V37.5698" stroke="white" stroke-width="1.5" stroke-miterlimit="10"/>
<path d="M47.462 23.12V2.47998" stroke="white" stroke-width="1.5" stroke-miterlimit="10"/>
<path d="M47.462 93.3002V72.6602" stroke="white" stroke-width="1.5" stroke-miterlimit="10"/>
</svg>
