<svg width="96" height="96" viewBox="0 0 96 96" fill="none" xmlns="http://www.w3.org/2000/svg">
<path d="M37.7109 88.6275L43.7024 77.1875H52.7805L57.9849 88.5593" stroke="white" stroke-width="2" stroke-linecap="round" stroke-linejoin="round"/>
<path d="M11.1172 67.458H84.3638" stroke="white" stroke-width="2" stroke-linecap="round" stroke-linejoin="round"/>
<path d="M29.0469 88.9639H66.9507" stroke="white" stroke-width="2" stroke-linecap="round" stroke-linejoin="round"/>
<path d="M51.0706 7.03711H18.2891V39.8077H51.0706V7.03711Z" stroke="white" stroke-width="2" stroke-linecap="round" stroke-linejoin="round"/>
<path d="M47.9949 24.2124V22.6333C47.9949 22.1193 47.645 21.6711 47.1462 21.5465L45.4175 21.1143C45.0437 21.0207 44.738 20.7434 44.6256 20.3749C44.4307 19.7367 44.1766 19.1242 43.8685 18.5448C43.6875 18.2045 43.7066 17.7925 43.905 17.4619L44.8212 15.9353C45.0858 15.4944 45.0162 14.9303 44.6528 14.567L43.5357 13.4504C43.1723 13.0871 42.6077 13.0175 42.167 13.2819L40.6399 14.1978C40.3092 14.3962 39.8974 14.4153 39.5566 14.2344C38.977 13.9264 38.3644 13.6724 37.7259 13.4775C37.3573 13.3651 37.0799 13.0596 36.9862 12.6858L36.5539 10.9578C36.4293 10.4591 35.9809 10.1094 35.4668 10.1094H33.8871C33.373 10.1094 32.9246 10.4591 32.8 10.9578L32.3677 12.6858C32.274 13.0596 31.9966 13.3651 31.6283 13.4775C30.9899 13.6724 30.3772 13.9264 29.7976 14.2344C29.4572 14.4153 29.045 14.3962 28.7144 14.1978L27.1872 13.2819C26.7462 13.0175 26.1819 13.0871 25.8185 13.4504L24.7015 14.567C24.3381 14.9303 24.2684 15.4948 24.533 15.9353L25.4492 17.4619C25.6476 17.7925 25.6667 18.2042 25.4857 18.5448C25.1777 19.1246 24.9236 19.7367 24.7286 20.3749C24.6162 20.7434 24.3106 21.0207 23.9367 21.1143L22.208 21.5465C21.7092 21.6711 21.3594 22.1193 21.3594 22.6333V24.2124C21.3594 24.7264 21.7092 25.1746 22.208 25.2992L23.9367 25.7314C24.3106 25.825 24.6162 26.1023 24.7286 26.4705C24.9236 27.1087 25.1777 27.7212 25.4857 28.3005C25.6667 28.6409 25.6476 29.0529 25.4492 29.3835L24.533 30.9101C24.2684 31.351 24.3381 31.9151 24.7015 32.2783L25.8185 33.395C26.1819 33.7583 26.7466 33.8279 27.1872 33.5634L28.7144 32.6476C29.045 32.4492 29.4569 32.4301 29.7976 32.611C30.3776 32.919 30.9899 33.173 31.6283 33.3679C31.9969 33.4803 32.2744 33.7858 32.3677 34.1595L32.8 35.8876C32.9246 36.3863 33.373 36.736 33.8871 36.736H35.4668C35.9809 36.736 36.4293 36.3863 36.5539 35.8876L36.9862 34.1595C37.0799 33.7858 37.3573 33.4803 37.7259 33.3679C38.3644 33.173 38.977 32.919 39.5566 32.611C39.897 32.4301 40.3092 32.4492 40.6399 32.6476L42.167 33.5634C42.608 33.8279 43.1723 33.7583 43.5357 33.395L44.6528 32.2783C45.0162 31.9151 45.0858 31.3506 44.8212 30.9101L43.905 29.3835C43.7066 29.0529 43.6875 28.6412 43.8685 28.3005C44.1766 27.7208 44.4307 27.1087 44.6256 26.4705C44.738 26.102 45.0437 25.8246 45.4175 25.7314L47.1462 25.2992C47.645 25.1746 47.9949 24.7264 47.9949 24.2124V24.2124Z" stroke="white" stroke-width="2" stroke-linecap="round" stroke-linejoin="round"/>
<path d="M37.0311 25.7762C38.3312 24.4765 38.3312 22.3692 37.0311 21.0695C35.7309 19.7698 33.623 19.7698 32.3229 21.0695C31.0227 22.3692 31.0227 24.4765 32.3229 25.7762C33.623 27.0759 35.7309 27.0759 37.0311 25.7762Z" stroke="white" stroke-width="2" stroke-linecap="round" stroke-linejoin="round"/>
<path d="M90.5096 39.8076H68.4844V61.8256H90.5096V39.8076Z" stroke="white" stroke-width="2" stroke-linecap="round" stroke-linejoin="round"/>
<path d="M87.4375 51.2723V50.3613C87.4375 50.0648 87.2356 49.8062 86.9477 49.7342L85.9504 49.485C85.7346 49.4311 85.5584 49.271 85.4934 49.0584C85.3809 48.6902 85.2344 48.337 85.0565 48.0026C84.9521 47.806 84.9632 47.5687 85.0777 47.378L85.6061 46.4973C85.7586 46.2429 85.7186 45.9175 85.509 45.7077L84.8647 45.0636C84.6548 44.8537 84.3293 44.8137 84.0748 44.9665L83.1938 45.4947C83.0031 45.6092 82.7653 45.6203 82.569 45.5159C82.2345 45.3385 81.8811 45.1916 81.5128 45.0792C81.3002 45.0142 81.14 44.8381 81.0861 44.6223L80.8368 43.6254C80.7648 43.3376 80.5061 43.1357 80.2096 43.1357H79.2982C79.0017 43.1357 78.743 43.3376 78.671 43.6254L78.4217 44.6223C78.3678 44.8381 78.2076 45.0142 77.9949 45.0792C77.6267 45.1916 77.2733 45.3381 76.9388 45.5159C76.7421 45.6203 76.5047 45.6092 76.314 45.4947L75.4329 44.9665C75.1785 44.8141 74.853 44.8541 74.6431 45.0636L73.9988 45.7077C73.7889 45.9175 73.7488 46.2429 73.9017 46.4973L74.4301 47.378C74.5446 47.5687 74.5557 47.8064 74.4513 48.0026C74.2738 48.337 74.1269 48.6902 74.0144 49.0584C73.9493 49.271 73.7732 49.4311 73.5574 49.485L72.5601 49.7342C72.2722 49.8062 72.0703 50.0648 72.0703 50.3613V51.2723C72.0703 51.5688 72.2722 51.8273 72.5601 51.8994L73.5574 52.1485C73.7732 52.2024 73.9493 52.3625 74.0144 52.5751C74.1269 52.9433 74.2734 53.2965 74.4513 53.6309C74.5557 53.8275 74.5446 54.0648 74.4301 54.2555L73.9017 55.1363C73.7492 55.3907 73.7892 55.716 73.9988 55.9259L74.6431 56.57C74.853 56.7798 75.1785 56.8198 75.4329 56.6671L76.314 56.1388C76.5047 56.0243 76.7425 56.0132 76.9388 56.1176C77.2733 56.2951 77.6267 56.4419 77.9949 56.5543C78.2076 56.6194 78.3678 56.7955 78.4217 57.0112L78.671 58.0082C78.743 58.296 79.0017 58.4978 79.2982 58.4978H80.2096C80.5061 58.4978 80.7648 58.296 80.8368 58.0082L81.0861 57.0112C81.14 56.7955 81.3002 56.6194 81.5128 56.5543C81.8811 56.4419 82.2345 56.2954 82.569 56.1176C82.7656 56.0132 83.0031 56.0243 83.1938 56.1388L84.0748 56.6671C84.3293 56.8195 84.6548 56.7795 84.8647 56.57L85.509 55.9259C85.7189 55.716 85.759 55.3907 85.6061 55.1363L85.0777 54.2555C84.9632 54.0648 84.9521 53.8272 85.0565 53.6309C85.234 53.2965 85.3809 52.9433 85.4934 52.5751C85.5584 52.3625 85.7346 52.2024 85.9504 52.1485L86.9477 51.8994C87.2356 51.8273 87.4375 51.5688 87.4375 51.2723Z" stroke="white" stroke-width="2" stroke-linecap="round" stroke-linejoin="round"/>
<path d="M80.4908 52.5905C81.4709 52.1847 81.9363 51.0615 81.5304 50.0817C81.1244 49.102 80.0008 48.6367 79.0207 49.0425C78.0406 49.4484 77.5752 50.5716 77.9812 51.5514C78.3871 52.5311 79.5107 52.9964 80.4908 52.5905Z" stroke="white" stroke-width="2" stroke-linecap="round" stroke-linejoin="round"/>
<path d="M38.2659 50.0488H5.48438V61.826H38.2659V50.0488Z" stroke="white" stroke-width="2" stroke-linecap="round" stroke-linejoin="round"/>
<path d="M38.2656 55.6816H56.1934V35.7119H51.0711" stroke="white" stroke-width="2" stroke-linecap="round" stroke-linejoin="round"/>
<path d="M56.1953 48.5127H68.4884" stroke="white" stroke-width="2" stroke-linecap="round" stroke-linejoin="round"/>
<path d="M56.1938 51.0724C57.6082 51.0724 58.7547 49.9262 58.7547 48.5123C58.7547 47.0984 57.6082 45.9521 56.1938 45.9521C54.7794 45.9521 53.6328 47.0984 53.6328 48.5123C53.6328 49.9262 54.7794 51.0724 56.1938 51.0724Z" fill="white" stroke="white" stroke-width="2" stroke-linecap="round" stroke-linejoin="round"/>
<path d="M84.4074 61.6543V77.1875H10.9453V61.6543" stroke="white" stroke-width="2"/>
<path d="M84.4074 40.1875V24.6543H50.9453" stroke="white" stroke-width="2"/>
<path d="M18.4074 24.6543H10.9453V49.1875" stroke="white" stroke-width="2"/>
</svg>
