<svg width="96" height="96" viewBox="0 0 96 96" fill="none" xmlns="http://www.w3.org/2000/svg">
<path d="M4.60156 79.8356V23.3154H18.7316V79.8356" stroke="white" stroke-width="2" stroke-linecap="round" stroke-linejoin="round" stroke-dasharray="4 4"/>
<path d="M26.8047 79.8352V59.6494H40.9347V79.8352" stroke="white" stroke-width="2" stroke-linecap="round" stroke-linejoin="round"/>
<path d="M49.0078 79.836V73.7803H63.1378V79.836" stroke="white" stroke-width="2" stroke-linecap="round" stroke-linejoin="round"/>
<path d="M30.8438 9.18555C30.8438 39.878 54.4611 67.7873 85.3453 67.7243H93.4196" stroke="white" stroke-width="2" stroke-linecap="round" stroke-linejoin="round"/>
<path d="M68.9425 47.0345C76.7463 47.0345 83.0726 40.7083 83.0726 32.9044C83.0726 25.1006 76.7463 18.7744 68.9425 18.7744C61.1387 18.7744 54.8125 25.1006 54.8125 32.9044C54.8125 40.7083 61.1387 47.0345 68.9425 47.0345Z" stroke="white" stroke-width="2" stroke-linejoin="round" stroke-dasharray="4 4"/>
<path d="M72.7971 30.3341V29.0496C72.7971 27.6301 71.6475 26.4805 70.228 26.4805H67.6589C66.2395 26.4805 65.0898 27.6301 65.0898 29.0496V29.7673C65.0898 30.8736 65.798 31.8547 66.8465 32.2047L71.0405 33.6033C72.089 33.9533 72.7971 34.9344 72.7971 36.0407V36.7585C72.7971 38.1779 71.6475 39.3276 70.228 39.3276H67.6589C66.2395 39.3276 65.0898 38.1779 65.0898 36.7585V35.4739" stroke="white" stroke-width="2" stroke-miterlimit="10"/>
<path d="M68.9414 39.3262V43.1798" stroke="white" stroke-width="2" stroke-miterlimit="10"/>
<path d="M68.9414 26.4806V22.627" stroke="white" stroke-width="2" stroke-miterlimit="10"/>
<path d="M85.3438 59.6494L93.4181 67.7237L85.3438 75.798" stroke="white" stroke-width="2" stroke-linecap="round" stroke-linejoin="round"/>
<path d="M2.58203 85.8916H75.2508" stroke="white" stroke-width="2" stroke-linecap="round" stroke-linejoin="round"/>
</svg>
