<svg width="96" height="96" viewBox="0 0 96 96" fill="none" xmlns="http://www.w3.org/2000/svg">
<g clip-path="url(#clip0_8444_562148)">
<path d="M-4 51H24" stroke="white" stroke-width="2" stroke-miterlimit="10"/>
<path d="M4 39H32" stroke="white" stroke-width="2" stroke-miterlimit="10"/>
<path d="M6 61H32" stroke="white" stroke-width="2" stroke-miterlimit="10"/>
<path d="M22.7389 33.14C28.9389 22.3 40.6189 15 53.9989 15C73.8789 15 89.9989 31.12 89.9989 51C89.9989 70.88 73.8789 87 53.9989 87C39.9789 87 27.8189 78.98 21.8789 67.26" stroke="white" stroke-width="2" stroke-miterlimit="10" stroke-dasharray="4 4"/>
<path d="M54 15V7" stroke="white" stroke-width="2" stroke-miterlimit="10"/>
<path d="M48 7H60" stroke="white" stroke-width="2" stroke-miterlimit="10"/>
<path d="M30 23L24 17" stroke="white" stroke-width="2" stroke-miterlimit="10"/>
<path d="M28 13L20 21" stroke="white" stroke-width="2" stroke-miterlimit="10"/>
<path d="M76 23L82 17" stroke="white" stroke-width="2" stroke-miterlimit="10"/>
<path d="M78 13L86 21" stroke="white" stroke-width="2" stroke-miterlimit="10"/>
<path d="M37.4609 30.94C41.9609 27.24 47.7209 25 54.0009 25C61.5009 25 68.2609 28.18 73.0009 33.26" stroke="white" stroke-width="2" stroke-miterlimit="10"/>
<path d="M54 59C57.3137 59 60 56.3137 60 53C60 49.6863 57.3137 47 54 47C50.6863 47 48 49.6863 48 53C48 56.3137 50.6863 59 54 59Z" stroke="white" stroke-width="2" stroke-miterlimit="10"/>
<path d="M49 56.3203L42 61.0003" stroke="white" stroke-width="2" stroke-miterlimit="10"/>
<path d="M78 37L59 49.68" stroke="white" stroke-width="2" stroke-miterlimit="10"/>
</g>
<defs>
<clipPath id="clip0_8444_562148">
<rect width="96" height="96" fill="white"/>
</clipPath>
</defs>
</svg>
