<svg width="96" height="96" viewBox="0 0 96 96" fill="none" xmlns="http://www.w3.org/2000/svg">
<path d="M78.3035 48.0055C78.3035 47.9401 78.3035 47.8935 78.3035 47.8281H73.6915L83.2515 33.5908L92.8115 47.8281H88.1902C88.1902 47.8841 88.1902 47.9495 88.1902 48.0055C88.1902 49.8447 88.0688 51.6558 87.8261 53.4297C85.1747 73.1005 68.3327 88.2621 47.9337 88.2621C33.7804 88.2621 21.3262 80.952 14.1562 69.9076" stroke="white" stroke-width="2" stroke-linecap="square"/>
<path d="M81.6281 25.963C74.4394 14.9839 62.0319 7.73926 47.9346 7.73926C27.6943 7.73926 10.955 22.6674 8.10753 42.1142C7.83679 43.944 7.69676 45.8112 7.67808 47.7157H3.1875L12.7475 61.953L18.153 53.9055L22.3075 47.7157H17.5742" stroke="white" stroke-width="2" stroke-linecap="square"/>
<path d="M18.1523 53.9153V53.9053" stroke="white" stroke-width="2"/>
<path d="M47.9336 78.3654C64.7009 78.3654 78.3034 64.7722 78.3034 48.0049" stroke="white" stroke-width="2" stroke-dasharray="4 4"/>
<path d="M17.5742 47.7151C17.7329 31.0692 31.2514 17.6348 47.9347 17.6348" stroke="white" stroke-width="2" stroke-dasharray="4 4"/>
<path d="M36.2812 48.885L44.705 58.1845L59.7154 37.8145" stroke="white" stroke-width="2" stroke-linecap="square"/>
</svg>
