<svg width="96" height="96" viewBox="0 0 96 96" fill="none" xmlns="http://www.w3.org/2000/svg">
<g clip-path="url(#clip0_8444_562146)">
<path d="M31.2435 74.4954L24.0589 71.5196L25.5808 65.35C24.0159 64.1901 22.644 62.8202 21.4891 61.2633L15.3235 62.7842L12.3477 55.6006L17.7833 52.3158C17.4993 50.399 17.5003 48.4591 17.7863 46.5322L12.3477 43.2464L15.3235 36.0618L21.4931 37.5838C22.653 36.0199 24.0229 34.6469 25.5798 33.492L24.0589 27.3264L31.2425 24.3506L34.5273 29.7862C36.4441 29.5013 38.383 29.5033 40.3109 29.7892L43.5967 24.3506L50.7813 27.3264L49.2594 33.496C50.8243 34.6559 52.1962 36.0269 53.3511 37.5828L59.5167 36.0618L62.4925 43.2464L57.0579 46.5302C57.3418 48.4481 57.3408 50.388 57.0539 52.3138L62.4925 55.6006L59.5167 62.7842L53.3471 61.2623C52.1872 62.8262 50.8173 64.1991 49.2604 65.354L50.7813 71.5196L43.5967 74.4954L40.3129 69.0598C38.396 69.3448 36.4572 69.3428 34.5293 69.0568L31.2435 74.4954ZM41.7748 67.6129L44.4197 71.9896L48.4274 70.3297L47.1865 65.326L46.8795 64.5791L47.5455 64.1211C49.3373 62.8892 50.8752 61.3493 52.1152 59.5464L52.5721 58.8814L53.3611 59.2044L58.3268 60.4293L59.9867 56.4216L55.57 53.7607L54.822 53.4508L54.969 52.6548C55.368 50.504 55.369 48.3281 54.973 46.1882L54.826 45.3933L55.61 45.0673L59.9857 42.4225L58.3258 38.4147L53.3221 39.6556L52.5751 39.9626L52.1172 39.2966C50.8863 37.5048 49.3463 35.9669 47.5425 34.7269L46.8755 34.268L47.2025 33.479L48.4274 28.5153L44.4197 26.8554L41.7578 31.2722L41.4478 32.0201L40.6519 31.8731C38.499 31.4741 36.3242 31.4731 34.1853 31.8701L33.3893 32.0171L33.0644 31.2312L30.4205 26.8564L26.4128 28.5163L27.6537 33.52L27.9607 34.267L27.2947 34.7249C25.5028 35.9569 23.9649 37.4968 22.725 39.2996L22.268 39.9646L21.4791 39.6416L16.5134 38.4157L14.8535 42.4234L19.2702 45.0853L20.0182 45.3953L19.8712 46.1912C19.4722 48.3441 19.4712 50.5199 19.8682 52.6578L20.0152 53.4538L19.2292 53.7787L14.8545 56.4226L16.5144 60.4303L21.5201 59.1884L22.266 58.8834L22.723 59.5484C23.9549 61.3403 25.4938 62.8782 27.2977 64.1181L27.9647 64.5771L27.6377 65.366L26.4128 70.3297L30.4205 71.9896L33.0824 67.5719L33.3933 66.8249L34.1883 66.9719C36.3412 67.3709 38.517 67.3719 40.6549 66.9749L41.4498 66.8279L41.7748 67.6129Z" fill="white"/>
<path d="M37.4317 57.6521C34.2009 57.6521 31.13 55.7372 29.8181 52.5724C28.0812 48.3807 30.0791 43.557 34.2719 41.8201C38.4646 40.0832 43.2873 42.0811 45.0232 46.2738C46.7591 50.4655 44.7612 55.2892 40.5695 57.0261C39.5435 57.4511 38.4786 57.6521 37.4317 57.6521ZM37.4127 43.194C36.6197 43.194 35.8138 43.346 35.0378 43.668C33.4999 44.3049 32.303 45.5019 31.666 47.0398C31.0291 48.5777 31.0291 50.2706 31.666 51.8075C32.9809 54.9813 36.6337 56.4932 39.8045 55.1792C42.9773 53.8643 44.4902 50.2136 43.1763 47.0398C42.1824 44.6429 39.8575 43.194 37.4127 43.194Z" fill="white"/>
<path d="M66.8166 92.4055V85.2399H9.07422V83.2401H68.8165V87.8418L76.586 80.6792L68.8165 73.5217V78.1194H66.8166V68.9609L79.5368 80.6792L66.8166 92.4055Z" fill="white"/>
<path d="M81.2816 63.1498V55.9773H67.6055V53.9774H83.2815V58.5861L91.051 51.4235L83.2815 44.261V48.8637H81.2816V39.6973L94.0018 51.4235L81.2816 63.1498Z" fill="white"/>
<path d="M60.1676 25.4495V16.2801H62.1674V20.8868L69.941 13.7253L62.1674 6.56272V11.1624H15.2344V9.16255H60.1676V2L72.8928 13.7253L60.1676 25.4495Z" fill="white"/>
<path d="M17.1437 29.7313H14.6879V27.7314H17.1437V29.7313ZM10.8191 29.7313H6.95136V27.7314H10.8191V29.7313ZM3.0826 29.7313H-0.785156V27.7314H3.0826V29.7313V29.7313Z" fill="white"/>
<path d="M17.3408 72.952H13.473V70.9521H17.3408V72.952ZM9.60428 72.952H5.73652V70.9521H9.60428V72.952ZM1.86776 72.952H-2V70.9521H1.86776V72.952Z" fill="white"/>
<path d="M67.8178 78.1191H63.9498V76.1191H67.8178V78.1191ZM60.0808 78.1191H56.2148V76.1191H60.0808V78.1191Z" fill="white"/>
<path d="M82.2808 48.8643H78.4128V46.8643H82.2808V48.8643ZM74.5438 48.8643H70.6758V46.8643H74.5438V48.8643Z" fill="white"/>
<path d="M61.1662 18.2801H57.2984V16.2803H61.1662V18.2801ZM53.4306 18.2801H49.5629V16.2803H53.4306V18.2801ZM45.6941 18.2801H41.8264V16.2803H45.6941V18.2801ZM37.9576 18.2801H34.0898V16.2803H37.9576V18.2801Z" fill="white"/>
</g>
<defs>
<clipPath id="clip0_8444_562146">
<rect width="96" height="96" fill="white"/>
</clipPath>
</defs>
</svg>
