<svg width="96" height="96" viewBox="0 0 96 96" fill="none" xmlns="http://www.w3.org/2000/svg">
<g clip-path="url(#clip0_10206_414236)">
<path d="M11.279 48.0004C14.5679 48.0004 17.2338 45.3345 17.2338 42.0456C17.2338 38.7567 14.5679 36.0908 11.279 36.0908C7.99012 36.0908 5.32422 38.7567 5.32422 42.0456C5.32422 45.3345 7.99012 48.0004 11.279 48.0004Z" stroke="white" stroke-width="2"/>
<path d="M20.211 57.9246V53.9548C20.211 50.6669 16.2117 48 11.2793 48C6.34699 48 2.34766 50.6669 2.34766 53.9548V57.9246" stroke="white" stroke-width="2"/>
<path d="M84.7204 48.0004C88.0093 48.0004 90.6752 45.3345 90.6752 42.0456C90.6752 38.7567 88.0093 36.0908 84.7204 36.0908C81.4315 36.0908 78.7656 38.7567 78.7656 42.0456C78.7656 45.3345 81.4315 48.0004 84.7204 48.0004Z" stroke="white" stroke-width="2"/>
<path d="M93.6524 57.9246V53.9548C93.6524 50.6669 89.6531 48 84.7207 48C79.7884 48 75.7891 50.6669 75.7891 53.9548V57.9246" stroke="white" stroke-width="2"/>
<path d="M79.7566 18.2285V28.1531H69.832" stroke="white" stroke-width="2"/>
<path d="M16.2422 28.1514C22.8913 17.4279 34.4556 10.2871 48 10.2871C61.5445 10.2871 73.1088 17.4279 79.7578 28.1514" stroke="white" stroke-width="2" stroke-dasharray="4 4"/>
<path d="M16.2422 77.7732V67.8486H26.1668" stroke="white" stroke-width="2"/>
<path d="M79.7578 67.8501C73.1088 78.5736 61.5445 85.7144 48 85.7144C34.4555 85.7144 22.8913 78.5736 16.2422 67.8501" stroke="white" stroke-width="2" stroke-dasharray="4 4"/>
<path d="M63.8796 48.001C63.8796 47.2544 63.8102 46.525 63.7113 45.8078L67.5718 42.2032L62.8078 33.9506L57.7584 35.4914C56.6076 34.5907 55.3322 33.8441 53.955 33.2858L52.7643 28.1499H43.2372L42.0464 33.2858C40.6721 33.8441 39.3967 34.5907 38.243 35.4914L33.1937 33.9506L28.4297 42.2032L32.2902 45.8078C32.1912 46.5278 32.1218 47.2544 32.1218 48.001C32.1218 48.7477 32.1912 49.4771 32.2902 50.1943L28.4297 53.7989L33.1937 62.0515L38.243 60.5107C39.3938 61.4114 40.6693 62.158 42.0464 62.7163L43.2372 67.8522H52.7643L53.955 62.7163C55.3293 62.158 56.6048 61.4114 57.7584 60.5107L62.8078 62.0515L67.5718 53.7989L63.7113 50.1943C63.8102 49.4752 63.8796 48.7458 63.8796 48.001Z" stroke="white" stroke-width="2"/>
<path d="M47.9977 53.9559C51.2866 53.9559 53.9525 51.29 53.9525 48.0012C53.9525 44.7123 51.2866 42.0464 47.9977 42.0464C44.7089 42.0464 42.043 44.7123 42.043 48.0012C42.043 51.29 44.7089 53.9559 47.9977 53.9559Z" stroke="white" stroke-width="2"/>
</g>
<defs>
<clipPath id="clip0_10206_414236">
<rect width="96" height="96" fill="white"/>
</clipPath>
</defs>
</svg>
