<svg width="96" height="96" viewBox="0 0 96 96" fill="none" xmlns="http://www.w3.org/2000/svg">
<path d="M24.9714 76.6646L23.7383 75.1203C24.7846 74.2845 25.9021 73.494 27.0601 72.7737L28.1044 74.4504C27.0127 75.1312 25.9575 75.8762 24.9714 76.6646ZM65.0117 72.8459C63.8764 72.2827 62.6878 71.7709 61.4814 71.3243L62.1661 69.4707C63.4387 69.942 64.6916 70.4815 65.8901 71.0753L65.0117 72.8459ZM31.4727 72.6068L30.622 70.8233C31.8314 70.2463 33.0921 69.7246 34.3696 69.2741L35.0277 71.1375C33.8163 71.5654 32.6198 72.0594 31.4727 72.6068ZM57.8079 70.1791C56.5728 69.863 55.3033 69.6031 54.0336 69.4104L54.333 67.4561C55.6668 67.6606 57.0007 67.9323 58.299 68.2643L57.8079 70.1791ZM38.719 70.0458L38.2556 68.125C39.5578 67.8108 40.8966 67.5579 42.2334 67.3731L42.5031 69.3304C41.2315 69.5073 39.958 69.7474 38.719 70.0458ZM50.201 69.0152C48.9274 68.9461 47.6262 68.9362 46.3437 68.9885L46.2646 67.0144C47.6054 66.9601 48.9719 66.969 50.3097 67.0421L50.201 69.0152Z" fill="white"/>
<path d="M48.8629 29.0125L48.8224 27.0364C50.1089 27.0098 51.4032 26.9218 52.6698 26.7726L52.8991 28.7349C51.5701 28.892 50.2126 28.9849 48.8629 29.0125ZM44.8179 28.9028C43.4741 28.8021 42.1215 28.6351 40.8015 28.4068L41.1394 26.4594C42.3972 26.6778 43.6846 26.8368 44.9651 26.9327L44.8179 28.9028ZM56.8907 28.0679L56.4679 26.1373C57.7247 25.8626 58.9745 25.5227 60.1839 25.1265L60.7994 27.0038C59.5278 27.4208 58.2117 27.7794 56.8907 28.0679ZM36.8513 27.5156C35.5461 27.1511 34.2527 26.7173 33.0078 26.2253L33.733 24.3875C34.9147 24.8539 36.1419 25.2659 37.3809 25.6117L36.8513 27.5156ZM64.5807 25.5405L63.7705 23.7383C64.9452 23.2107 66.0933 22.6169 67.1831 21.9747L68.187 23.6771C67.035 24.3559 65.8207 24.9833 64.5807 25.5405ZM71.5641 21.4145L70.3696 19.8405C71.3942 19.062 72.3694 18.2221 73.2685 17.3438L74.6498 18.7567C73.6924 19.6923 72.6539 20.5865 71.5641 21.4145Z" fill="white"/>
<path d="M47.9806 88.9212C36.2387 88.9212 25.0521 83.8723 17.2891 75.0689L18.7711 73.7617C26.1607 82.1393 36.8068 86.9451 47.9806 86.9451V88.9212Z" fill="white"/>
<path d="M48.9878 8.06641H47.0117V87.9337H48.9878V8.06641Z" fill="white"/>
<path d="M47.9998 48.9878H45.921V47.0117H47.9998V48.9878ZM41.9678 48.9878H38.0156V47.0117H41.9678V48.9878Z" fill="white"/>
<path d="M47.9816 88.9216C39.0675 88.9216 31.342 78.4167 28.3008 62.1585L30.2442 61.7949C33.0582 76.8388 40.1869 86.9455 47.9816 86.9455V88.9216Z" fill="white"/>
<path d="M18.0298 69.5489L0 47.0127H7.06744C7.53873 23.8116 24.5983 7.0791 47.9802 7.0791V9.05518C38.2253 9.05518 27.3332 25.2205 27.0121 47.0127H36.0585L18.0298 69.5489ZM4.11221 48.9878L18.0298 66.3852L31.9473 48.9878H25.029V47.9998C25.029 31.0588 31.5066 15.7353 40.1312 9.74583C21.7132 13.0805 9.03363 28.1451 9.03363 47.9998V48.9878H4.11221V48.9878Z" fill="white"/>
<path d="M77.229 22.2376C69.8404 13.86 59.1953 9.05421 48.0195 9.05421V7.07812C59.7614 7.07812 70.948 12.127 78.711 20.9305L77.229 22.2376Z" fill="white"/>
<path d="M57.9832 48.9878H54.031V47.0117H57.9832V48.9878ZM50.0788 48.9878H48V47.0117H50.0788V48.9878Z" fill="white"/>
<path d="M65.7568 34.2058C62.9419 19.1619 55.8142 9.05518 48.0195 9.05518V7.0791C56.9326 7.0791 64.6581 17.584 67.7003 33.8422L65.7568 34.2058Z" fill="white"/>
<path d="M48.0195 88.9215V86.9454C57.7745 86.9454 68.6666 70.7801 68.9877 48.9879H59.9422L77.97 26.4517L95.9998 48.9879H88.9323C88.461 72.189 71.4025 88.9215 48.0195 88.9215ZM64.0525 47.0118H70.9717V47.9998C70.9717 64.9408 64.4941 80.2643 55.8695 86.2538C74.2866 82.9192 86.9661 67.8545 86.9661 47.9998V47.0118H91.8875L77.97 29.6154L64.0525 47.0118Z" fill="white"/>
</svg>
