<?xml version="1.0" encoding="UTF-8"?>
<svg id="Layer_1" data-name="Layer 1" xmlns="http://www.w3.org/2000/svg" xmlns:xlink="http://www.w3.org/1999/xlink" viewBox="0 0 85 85">
  <defs>
    <style>
      .cls-1 {
        clip-path: url(#clippath);
      }

      .cls-2 {
        stroke-width: 0px;
      }

      .cls-2, .cls-3 {
        fill: none;
      }

      .cls-3 {
        stroke: #fff;
        stroke-miterlimit: 10;
        stroke-width: 2px;
      }
    </style>
    <clipPath id="clippath">
      <rect class="cls-2" x="6.48" y=".36" width="74.15" height="81.37"/>
    </clipPath>
  </defs>
  <g class="cls-1">
    <g>
      <path class="cls-3" d="m58.12,48.32c0-.68-.06-1.35-.15-2.01l3.54-3.3-4.37-7.56-4.63,1.41c-1.06-.82-2.23-1.51-3.49-2.02l-1.09-4.71h-8.74l-1.09,4.71c-1.26.51-2.43,1.19-3.49,2.02l-4.63-1.41-4.37,7.56,3.54,3.3c-.09.66-.15,1.33-.15,2.01s.06,1.35.15,2.01l-3.54,3.3,4.37,7.56,4.63-1.41c1.06.82,2.23,1.51,3.49,2.02l1.09,4.71h8.74l1.09-4.71c1.26-.51,2.43-1.19,3.49-2.02l4.63,1.41,4.37-7.56-3.54-3.3c.09-.66.15-1.33.15-2.01Z"/>
      <path class="cls-3" d="m43.56,53.78c3.02,0,5.46-2.44,5.46-5.46s-2.44-5.46-5.46-5.46-5.46,2.44-5.46,5.46,2.44,5.46,5.46,5.46Z"/>
      <path class="cls-3" d="m43.56,11.94c3.02,0,5.46-2.44,5.46-5.46s-2.44-5.46-5.46-5.46-5.46,2.44-5.46,5.46,2.44,5.46,5.46,5.46Z"/>
      <path class="cls-3" d="m34.46,22.86v-5.46c0-3.01,4.08-5.46,9.1-5.46s9.1,2.44,9.1,5.46v5.46"/>
      <path class="cls-3" d="m14.43,70.15c3.02,0,5.46-2.44,5.46-5.46s-2.44-5.46-5.46-5.46-5.46,2.44-5.46,5.46,2.44,5.46,5.46,5.46Z"/>
      <path class="cls-3" d="m7.15,81.07v-5.46c0-3.02,3.26-5.46,7.28-5.46s7.28,2.45,7.28,5.46v5.46"/>
      <path class="cls-3" d="m72.69,70.15c3.02,0,5.46-2.44,5.46-5.46s-2.44-5.46-5.46-5.46-5.46,2.44-5.46,5.46,2.44,5.46,5.46,5.46Z"/>
      <path class="cls-3" d="m65.41,81.07v-5.46c0-3.02,3.26-5.46,7.28-5.46s7.28,2.45,7.28,5.46v5.46"/>
      <path class="cls-3" d="m11,52.1c-.14-1.24-.21-2.5-.21-3.77,0-12.16,6.64-22.77,16.48-28.42"/>
      <path class="cls-3" d="m58.22,77.62c-4.41,2.21-9.39,3.45-14.66,3.45s-10.25-1.24-14.66-3.45"/>
      <path class="cls-3" d="m76.11,52.1c.14-1.24.21-2.5.21-3.77,0-12.16-6.64-22.77-16.48-28.42"/>
    </g>
  </g>
</svg>