<?xml version="1.0" encoding="UTF-8"?>
<svg id="Layer_1" data-name="Layer 1" xmlns="http://www.w3.org/2000/svg" xmlns:xlink="http://www.w3.org/1999/xlink" viewBox="0 0 85 85">
  <defs>
    <style>
      .cls-1 {
        clip-path: url(#clippath);
      }

      .cls-2 {
        stroke-width: 0px;
      }

      .cls-2, .cls-3 {
        fill: none;
      }

      .cls-3 {
        stroke: #fff;
        stroke-linejoin: round;
        stroke-width: 2px;
      }
    </style>
    <clipPath id="clippath">
      <rect class="cls-2" x="5.73" y="2.2" width="75.97" height="80.95"/>
    </clipPath>
  </defs>
  <g class="cls-1">
    <g>
      <path class="cls-3" d="m46.39,14.07c0-3.58.32-10.8-8.98-10.8-7.41,0-14.14,7.93-14.37,12.6-5.58.75-10.89,6.22-10.15,13.2-5.31,2.6-9.16,16.53-2.23,23.14-1.26,5.68,2.61,18.69,14.18,17.67,2.82,15.17,21.55,14.72,21.55,3.6v-9"/>
      <path class="cls-3" d="m35.62,26.67c-6.53,0-12.57-1.02-12.57-10.8"/>
      <path class="cls-3" d="m23.68,39.05c3.02,1.99,8.14,1.2,10.89-1.7,2.03-2.14,4.2-5.53,6.43-5.28h28.73"/>
      <path class="cls-3" d="m37.41,64.77c1.32-3.09,4.49-3.9,8.98-3.9h23.34"/>
      <path class="cls-3" d="m27.46,59.69c-3.01-.47-5.66-3.32-5.66-5.68"/>
      <path class="cls-3" d="m24.84,69.88c0-6.92,3.92-15.87,13.95-15.87"/>
      <path class="cls-3" d="m18.02,33.7c3.13,0,5.66,2.22,5.66,5.36,0,2.47-1.58,4.9-3.78,5.68"/>
      <path class="cls-3" d="m57.16,17.67h-10.77c-4.88,0-9.69-.75-11.37-4.94"/>
      <path class="cls-3" d="m46.39,21.27v10.8"/>
      <path class="cls-3" d="m46.39,37.47v19.8"/>
      <path class="cls-3" d="m46.39,46.47h10.77"/>
      <path class="cls-3" d="m49.98,75.28h7.18"/>
      <path class="cls-3" d="m75.12,37.47c2.98,0,5.39-2.42,5.39-5.4s-2.41-5.4-5.39-5.4-5.39,2.42-5.39,5.4,2.41,5.4,5.39,5.4Z"/>
      <path class="cls-3" d="m62.55,23.07c2.98,0,5.39-2.42,5.39-5.4s-2.41-5.4-5.39-5.4-5.39,2.42-5.39,5.4,2.41,5.4,5.39,5.4Z"/>
      <path class="cls-3" d="m62.55,51.87c2.98,0,5.39-2.42,5.39-5.4s-2.41-5.4-5.39-5.4-5.39,2.42-5.39,5.4,2.41,5.4,5.39,5.4Z"/>
      <path class="cls-3" d="m62.55,80.68c2.98,0,5.39-2.42,5.39-5.4s-2.41-5.4-5.39-5.4-5.39,2.42-5.39,5.4,2.41,5.4,5.39,5.4Z"/>
      <path class="cls-3" d="m75.12,66.27c2.98,0,5.39-2.42,5.39-5.4s-2.41-5.4-5.39-5.4-5.39,2.42-5.39,5.4,2.41,5.4,5.39,5.4Z"/>
    </g>
  </g>
</svg>