<?xml version="1.0" encoding="UTF-8"?>
<svg id="Layer_1" data-name="Layer 1" xmlns="http://www.w3.org/2000/svg" xmlns:xlink="http://www.w3.org/1999/xlink" viewBox="0 0 85 85">
  <defs>
    <style>
      .cls-1 {
        clip-path: url(#clippath);
      }

      .cls-2 {
        stroke-width: 0px;
      }

      .cls-2, .cls-3 {
        fill: none;
      }

      .cls-3 {
        stroke: #fff;
        stroke-linejoin: round;
        stroke-width: 2px;
      }
    </style>
    <clipPath id="clippath">
      <rect class="cls-2" x="4.25" y="3" width="75.53" height="78.99"/>
    </clipPath>
  </defs>
  <g class="cls-1">
    <g>
      <path class="cls-3" d="m28.88,68.42l-4.61-2.7-6.51,3.61-4.61-4.62,3.61-6.52-2.67-4.62-7.44-.13-1.46-6.31,6.41-3.84v-5.34l-6.41-3.84,1.64-6.31,7.34-.13,2.64-4.62-3.64-6.52,4.6-4.62,6.5,3.62,4.61-2.67.13-7.46,6.29-1.46,3.83,6.42h5.33l3.83-6.42,6.29,1.64.13,7.35,4.61,2.64,6.51-3.64,4.61,4.6-3.61,6.51,2.67,4.62,7.44.13,1.89,6.31-5.97,3.84v5.34l5.97,3.84-1.86,6.31-7.45.13-2.69,4.62,3.61,6.52-4.61,4.62-6.51-3.62-4.61,2.67"/>
      <path class="cls-3" d="m23.52,44.48c2.82,0,5.11-2.29,5.11-5.12s-2.29-5.12-5.11-5.12-5.11,2.29-5.11,5.12,2.29,5.12,5.11,5.12Z"/>
      <path class="cls-3" d="m57.55,35.95c2.82,0,5.11-2.29,5.11-5.12s-2.29-5.12-5.11-5.12-5.11,2.29-5.11,5.12,2.29,5.12,5.11,5.12Z"/>
      <path class="cls-3" d="m40.54,27.43c2.82,0,5.11-2.29,5.11-5.12s-2.29-5.12-5.11-5.12-5.11,2.29-5.11,5.12,2.29,5.12,5.11,5.12Z"/>
      <path class="cls-3" d="m40.54,27.43v54.57"/>
      <path class="cls-3" d="m54.15,34.25l-6.81,6.82v10.23"/>
      <path class="cls-3" d="m26.92,42.77l6.81,6.82v32.4"/>
      <path class="cls-3" d="m59.26,53c2.82,0,5.11-2.29,5.11-5.12s-2.29-5.12-5.11-5.12-5.11,2.29-5.11,5.12,2.29,5.12,5.11,5.12Z"/>
      <path class="cls-3" d="m55.85,51.3l-8.51,8.53v22.17"/>
    </g>
  </g>
</svg>