<svg width="96" height="96" viewBox="0 0 96 96" fill="none" xmlns="http://www.w3.org/2000/svg">
<path d="M74.6403 84.0601C74.6403 83.2301 74.4002 82.13 75.7102 80.8L91.53 64.8101C92.72 63.6001 92.7103 50.3101 92.6003 48.5201C92.5003 46.8001 90.7003 37.75 89.3703 34.4C87.9103 34.18 85.5204 35.1801 83.9904 37.6601C82.5304 40.0301 82.7804 42.5301 83.9904 46.3501L81.7404 53.54" stroke="white" stroke-width="2"/>
<path d="M73.2598 70.25L82.9399 60.47C87.2399 56.13 81.8701 50.69 77.5601 55.04L71.1099 61.56C70.2099 62.47 66.38 61.99 64.96 63.42L59.5801 68.85C58.1301 70.32 57.5002 73.33 57.4302 75.37C57.4302 78.63 57.2798 84.06 57.2798 84.06" stroke="white" stroke-width="2"/>
<path d="M53.1401 84.0601V94.9201H76.79V84.0601H53.1401Z" stroke="white" stroke-width="2" stroke-dasharray="3.9 3.9"/>
<path d="M58.52 89.49H62.8198" stroke="white" stroke-width="2"/>
<path d="M15.3901 53.53L13.1401 46.34C14.3501 42.52 14.6001 40.02 13.1401 37.65C11.6101 35.17 9.22973 34.17 7.75973 34.39C6.42973 37.74 4.62975 46.79 4.52975 48.51C4.42975 50.3 4.40982 63.6 5.60982 64.8L21.4301 80.7901C22.7501 82.1201 22.5 83.22 22.5 84.05" stroke="white" stroke-width="2"/>
<path d="M39.8598 84.06C39.8598 84.06 39.7099 78.63 39.7099 75.37C39.6399 73.33 39.01 70.32 37.56 68.85L32.1801 63.42C30.7601 61.98 26.9297 62.46 26.0297 61.56L19.58 55.04C15.28 50.7 9.90015 56.13 14.2002 60.47L23.8798 70.25" stroke="white" stroke-width="2"/>
<path d="M20.3599 84.0601V94.9201H44.0098V84.0601H20.3599Z" stroke="white" stroke-width="2" stroke-dasharray="3.9 3.9"/>
<path d="M34.3398 89.49H38.6401" stroke="white" stroke-width="2"/>
<path d="M53.0602 3.80005C54.2502 5.00005 55.8599 5.68004 57.5499 5.68004C61.0499 5.68004 63.8903 8.55004 63.8903 12.09C63.8903 13.79 64.5601 15.42 65.7501 16.62C68.2301 19.12 68.2301 23.18 65.7501 25.68C64.5601 26.88 63.8903 28.5101 63.8903 30.2101C63.8903 33.7501 61.0499 36.62 57.5499 36.62C55.8699 36.62 54.2602 37.3 53.0602 38.5C50.5802 41 46.57 41 44.09 38.5C42.9 37.3 41.29 36.62 39.61 36.62C36.11 36.62 33.2702 33.7501 33.2702 30.2101C33.2702 28.5101 32.6003 26.88 31.4103 25.68C28.9303 23.18 28.9303 19.12 31.4103 16.62C32.6003 15.42 33.2702 13.79 33.2702 12.09C33.2702 8.55004 36.11 5.68004 39.61 5.68004C41.29 5.68004 42.9 5.00005 44.09 3.80005C46.57 1.30005 50.5802 1.30005 53.0602 3.80005Z" stroke="white" stroke-width="2"/>
<path d="M57.6602 36.1101L65.7998 51.3701L58.7998 49.5101L56.48 56.4401L50 44.2901" stroke="white" stroke-width="2"/>
<path d="M39.9702 36.25L31.9102 51.37L38.9102 49.51L41.23 56.44L46.0098 47.48" stroke="white" stroke-width="2"/>
<path d="M48.5698 30.55C53.7098 30.55 57.8701 26.34 57.8701 21.15C57.8701 15.96 53.6998 11.75 48.5698 11.75C43.4298 11.75 39.27 15.96 39.27 21.15C39.27 26.34 43.4398 30.55 48.5698 30.55Z" stroke="white" stroke-width="2"/>
</svg>
