<svg width="96" height="96" viewBox="0 0 96 96" fill="none" xmlns="http://www.w3.org/2000/svg">
<path d="M84.6799 78.5999V54.8599" stroke="white" stroke-width="2"/>
<path d="M11.6001 78.6V31.28C11.6001 29.49 13.0501 28.04 14.8501 28.04H24.48" stroke="white" stroke-width="2"/>
<path d="M1.3501 79.3298C1.3501 84.5898 6.16009 88.8499 12.0901 88.8499H84.1899C90.1199 88.8499 94.9299 84.5898 94.9299 79.3298H1.3501Z" stroke="white" stroke-width="2"/>
<path d="M43.03 72.72V41.1899H50.1201C54.4001 41.1899 55.79 38.67 55.79 35.52H30.28C27.61 35.52 23.1899 37.66 23.1899 44.02V53.9399C23.1899 56.9899 25.8101 59.61 28.8601 59.61" stroke="white" stroke-width="2"/>
<path d="M28.8601 44.02V72.72" stroke="white" stroke-width="2"/>
<path d="M35.95 18.5098H34.53C32.18 18.5098 30.28 20.4098 30.28 22.7598V27.0098C30.28 29.3598 32.18 31.2598 34.53 31.2598H35.95C38.3 31.2598 40.2 29.3598 40.2 27.0098V22.7598C40.2 20.4198 38.3 18.5098 35.95 18.5098Z" stroke="white" stroke-width="2"/>
<path d="M35.95 55.3599V72.7198" stroke="white" stroke-width="2"/>
<path d="M36.23 12.6699V7.1499H88.4099V49.0099H84.6799H48.8899" stroke="white" stroke-width="2" stroke-dasharray="3.9 3.9"/>
</svg>
