<svg width="96" height="96" viewBox="0 0 96 96" fill="none" xmlns="http://www.w3.org/2000/svg">
<g clip-path="url(#clip0_88_5238)">
<path d="M42.02 52.9499V55.2099C42.02 57.6899 44.03 59.7199 46.49 59.7199H50.96C53.42 59.7199 55.4299 57.6899 55.4299 55.2099V53.9499C55.4299 52.0099 54.2001 50.2699 52.3701 49.6599L45.0901 47.1999C43.2601 46.5899 42.03 44.8499 42.03 42.9099V41.6499C42.03 39.1699 44.04 37.1399 46.5 37.1399H50.97C53.43 37.1399 55.4399 39.1699 55.4399 41.6499V43.9099" stroke="white" stroke-width="2"/>
<path d="M48.72 37.1499V30.3799" stroke="white" stroke-width="2"/>
<path d="M48.72 59.72V66.49" stroke="white" stroke-width="2"/>
<path d="M48.72 74.5298C62.99 74.5298 74.5601 62.8398 74.5601 48.4298C74.5601 34.0098 62.99 22.3298 48.72 22.3298C34.45 22.3298 22.8799 34.0198 22.8799 48.4298C22.8799 62.8398 34.45 74.5298 48.72 74.5298Z" stroke="white" stroke-width="2"/>
<path d="M9.11011 35.1599V32.3499C9.11011 19.1299 19.72 8.40991 32.8 8.40991H35.5901" stroke="white" stroke-width="2" stroke-dasharray="3.86 3.86"/>
<path d="M9.11011 61.6899V64.5099C9.11011 77.7299 19.72 88.45 32.8 88.45H35.5901" stroke="white" stroke-width="2" stroke-dasharray="3.86 3.86"/>
<path d="M88.3201 61.6899V64.5099C88.3201 77.7299 77.7099 88.45 64.6299 88.45H61.8501" stroke="white" stroke-width="2" stroke-dasharray="3.86 3.86"/>
<path d="M61.8501 8.40991H64.6299C77.7099 8.40991 88.3201 19.1299 88.3201 32.3499V35.1599" stroke="white" stroke-width="2" stroke-dasharray="3.86 3.86"/>
<path d="M48.72 15.1799C52.42 15.1799 55.4199 12.1499 55.4199 8.4099C55.4199 4.6699 52.42 1.63989 48.72 1.63989C45.02 1.63989 42.02 4.6699 42.02 8.4099C42.02 12.1499 45.02 15.1799 48.72 15.1799Z" stroke="white" stroke-width="2"/>
<path d="M48.72 95.2199C52.42 95.2199 55.4199 92.19 55.4199 88.45C55.4199 84.71 52.42 81.6799 48.72 81.6799C45.02 81.6799 42.02 84.71 42.02 88.45C42.02 92.19 45.02 95.2199 48.72 95.2199Z" stroke="white" stroke-width="2"/>
<path d="M88.3201 55.1999C92.0201 55.1999 95.02 52.1699 95.02 48.4299C95.02 44.6899 92.0201 41.6599 88.3201 41.6599C84.6201 41.6599 81.6201 44.6899 81.6201 48.4299C81.6201 52.1699 84.6201 55.1999 88.3201 55.1999Z" stroke="white" stroke-width="2"/>
<path d="M9.11011 55.1999C12.8101 55.1999 15.8101 52.1699 15.8101 48.4299C15.8101 44.6899 12.8101 41.6599 9.11011 41.6599C5.41011 41.6599 2.40991 44.6899 2.40991 48.4299C2.40991 52.1699 5.41011 55.1999 9.11011 55.1999Z" stroke="white" stroke-width="2"/>
<path d="M30.9399 14.1699L36.52 8.40991L30.9399 2.6499" stroke="white" stroke-width="2"/>
<path d="M66.49 82.6799L60.9099 88.4399L66.49 94.2" stroke="white" stroke-width="2"/>
<path d="M14.8101 66.3898L9.11011 60.7598L3.40991 66.3898" stroke="white" stroke-width="2"/>
<path d="M82.6201 30.46L88.3201 36.09L94.02 30.46" stroke="white" stroke-width="2"/>
</g>
<defs>
<clipPath id="clip0_88_5238">
<rect width="96" height="96" fill="white"/>
</clipPath>
</defs>
</svg>
