<svg width="150" height="150" viewBox="0 0 150 150" fill="none" xmlns="http://www.w3.org/2000/svg">
<path d="M73.4688 85.75C78.5601 85.75 82.6875 81.6226 82.6875 76.5312C82.6875 71.4399 78.5601 67.3125 73.4688 67.3125C68.3774 67.3125 64.25 71.4399 64.25 76.5312C64.25 81.6226 68.3774 85.75 73.4688 85.75Z" stroke="white" stroke-width="2" stroke-linecap="round" stroke-linejoin="round"/>
<path d="M109.797 68.3281L105.953 58.3125L96.4063 61.1406C94.6406 58.5156 92.4844 56.2656 90.0156 54.4219L93.3438 45.0313L83.5469 40.6719L78.7969 49.4219C75.7813 48.8281 72.6719 48.7188 69.5312 49.1719L65.25 40.1875L55.2344 44.0313L58.0625 53.5781C55.4375 55.3438 53.1875 57.5 51.3438 59.9688L41.9531 56.6406L37.5937 66.4375L46.3437 71.1875C45.75 74.2031 45.6406 77.3125 46.0938 80.4531L37.1094 84.75L40.9531 94.7656L50.5 91.9375C52.2656 94.5625 54.4219 96.8125 56.875 98.6562L53.5469 108.047L63.3438 112.406L68.0938 103.656C71.1094 104.25 74.2187 104.359 77.3594 103.906L81.6406 112.891L91.6562 109.047L88.8281 99.5C91.4531 97.7344 93.7031 95.5781 95.5469 93.125L104.938 96.4531L109.297 86.6562L100.547 81.9062C101.141 78.8906 101.25 75.7813 100.797 72.6406L109.781 68.3438L109.797 68.3281Z" stroke="white" stroke-width="2" stroke-linecap="round" stroke-linejoin="round"/>
<path d="M107.25 30.4531C114.033 30.4531 119.531 24.9546 119.531 18.1719C119.531 11.3891 114.033 5.89062 107.25 5.89062C100.467 5.89062 94.9688 11.3891 94.9688 18.1719C94.9688 24.9546 100.467 30.4531 107.25 30.4531Z" stroke="white" stroke-width="2" stroke-linecap="round" stroke-linejoin="round"/>
<path d="M94.9687 18.1719H73.4688V33.5312" stroke="white" stroke-width="2" stroke-linecap="round" stroke-linejoin="round"/>
<path d="M125.683 101.108L110.326 116.466L125.683 131.823L141.041 116.466L125.683 101.108Z" stroke="white" stroke-width="2" stroke-linecap="round" stroke-linejoin="round"/>
<path d="M18.1719 128.766L42.75 144.125V113.406L18.1719 128.766Z" stroke="white" stroke-width="2" stroke-linecap="round" stroke-linejoin="round"/>
<path d="M8.9375 48.8906H33.5156V24.3125L8.9375 24.3125L8.9375 48.8906Z" stroke="white" stroke-width="2" stroke-linecap="round" stroke-linejoin="round"/>
<path d="M113.406 76.5312H125.688V101.109" stroke="white" stroke-width="2" stroke-linecap="round" stroke-linejoin="round"/>
<path d="M33.5312 76.5312H21.2344V48.8906" stroke="white" stroke-width="2" stroke-linecap="round" stroke-linejoin="round"/>
<path d="M73.4687 119.547V131.828H42.75" stroke="white" stroke-width="2" stroke-linecap="round" stroke-linejoin="round"/>
</svg>
