<svg width="150" height="150" viewBox="0 0 150 150" fill="none" xmlns="http://www.w3.org/2000/svg">
<path d="M63.3907 115.437L80.3907 129.062C81.9063 130.297 83.0782 131.047 84.5938 130.469L132.563 111.828C135.141 110.828 136.234 109.734 136.578 107.359L144.031 57.0937C144.25 55.5937 143.516 53.3437 142.125 52.2343L102.484 20.4531C101.25 19.4687 99.1407 18.9999 97.3282 19.6562L50.5938 37.8593C48.4844 38.2812 46.75 39.9374 46.4219 42.1874L45.3594 49.3906M40.9063 79.4218L39.1094 91.5624C38.7969 93.7655 39.1719 96.0312 40.7657 97.3124L52.1875 106.469M44.0313 58.4218L42.25 70.4374" stroke="white" stroke-width="2" stroke-linecap="round" stroke-linejoin="round"/>
<path d="M96.3437 34.4219L89.7031 74.2344L55.5625 86.6875" stroke="white" stroke-width="2" stroke-linecap="round" stroke-linejoin="round"/>
<path d="M89.7031 74.2344L122.547 100.25" stroke="white" stroke-width="2" stroke-linecap="round" stroke-linejoin="round"/>
<path d="M17.9375 49.5781H59.9844" stroke="white" stroke-width="2" stroke-linecap="round" stroke-linejoin="round"/>
<path d="M5.92188 70.6094H50.9687" stroke="white" stroke-width="2" stroke-linecap="round" stroke-linejoin="round"/>
<path d="M20.9375 106.641H72" stroke="white" stroke-width="2" stroke-linecap="round" stroke-linejoin="round"/>
</svg>
