<svg width="150" height="150" viewBox="0 0 150 150" fill="none" xmlns="http://www.w3.org/2000/svg">
<path d="M86.7969 136.516V44.9688H111.938V67.0625" stroke="white" stroke-width="2"/>
<path d="M49.8281 136.047V6.625H74.9687V136.047" stroke="white" stroke-width="2"/>
<path d="M9.95312 135.938V70.1406H37.0625V135.938" stroke="white" stroke-width="2" stroke-dasharray="3.62 3.62"/>
<path d="M1.92188 142.828H143.359" stroke="white" stroke-width="2"/>
<path d="M95.8438 77.3594C100.656 74.7969 106.125 73.375 111.938 73.375C131.047 73.375 146.516 88.9062 146.516 108.094C146.516 118.766 141.734 128.297 134.203 134.672" stroke="white" stroke-width="2" stroke-dasharray="3.62 3.62"/>
<path d="M102.5 114.422V117.578C102.5 120.703 105.391 123.891 108.844 123.891H115.063C118.516 123.891 121.344 120.703 121.344 117.578V116.625C121.344 114.203 119.641 112.016 117.063 111.234L106.781 108.141C104.203 107.344 102.469 105.203 102.469 102.75V101.797C102.469 98.6719 105.297 95.4844 108.75 95.4844H115.031C118.484 95.4844 121.313 98.6719 121.313 101.797V104.953" stroke="white" stroke-width="2"/>
<path d="M111.938 95.4844V86.0156" stroke="white" stroke-width="2"/>
<path d="M111.938 123.891V133.359" stroke="white" stroke-width="2"/>
</svg>
