<svg width="18" height="18" viewBox="0 0 18 18" fill="none" xmlns="http://www.w3.org/2000/svg">
<path d="M18 1.39719C18 0.623989 17.3756 0 16.6024 0C12.6081 0 4.61983 0 1.39645 0C0.623256 0 0 0.626801 0 1.4V16.6C0 17.3732 0.626703 18 1.3999 18C3.55255 18 7.57586 18 9 18V11H7V8.525H9V6.475C9 4.311 10.212 2.791 12.766 2.791L14.569 2.793V5.398H13.372C12.378 5.398 12 6.144 12 6.836V8.526H14.568L14 11H12V18C13.1107 18 15.2041 18 16.6007 18C17.3739 18 18 17.3781 18 16.6049C18 12.9777 18 4.69893 18 1.39719Z" fill="#BFBFBF"/>
</svg>
