<svg width="17" height="17" viewBox="0 0 17 17" fill="none" xmlns="http://www.w3.org/2000/svg">
<path fill-rule="evenodd" clip-rule="evenodd" d="M16.0579 0H0.942083C0.423391 0.00385661 0.00385661 0.423391 0 0.942083V16.0579C0.00385661 16.5766 0.423391 16.9961 0.942083 17H9.08083V10.4267H6.87083V7.85542H9.08083V5.96417C9.08083 3.76833 10.4196 2.57125 12.3888 2.57125C13.0475 2.57125 13.7063 2.57125 14.365 2.67042V4.95833H13.0121C11.9425 4.95833 11.7371 5.46833 11.7371 6.21208V7.84833H14.2871L13.9542 10.4196H11.7371V17H16.0579C16.5766 16.9961 16.9961 16.5766 17 16.0579V0.942083C16.9961 0.423391 16.5766 0.00385661 16.0579 0Z" fill="white"/>
</svg>
