<svg width="36" height="36" viewBox="0 0 36 36" fill="none" xmlns="http://www.w3.org/2000/svg">
<g style="mix-blend-mode:multiply">
<path d="M29.5014 4.5H6.49336C5.39121 4.5 4.5 5.37012 4.5 6.4459V29.5488C4.5 30.6246 5.39121 31.5 6.49336 31.5H29.5014C30.6035 31.5 31.5 30.6246 31.5 29.5541V6.4459C31.5 5.37012 30.6035 4.5 29.5014 4.5ZM12.5104 27.508H8.50254V14.6197H12.5104V27.508ZM10.5064 12.8637C9.21973 12.8637 8.18086 11.8248 8.18086 10.5434C8.18086 9.26191 9.21973 8.22305 10.5064 8.22305C11.7879 8.22305 12.8268 9.26191 12.8268 10.5434C12.8268 11.8195 11.7879 12.8637 10.5064 12.8637ZM27.508 27.508H23.5055V21.2432C23.5055 19.7508 23.4791 17.826 21.4225 17.826C19.3395 17.826 19.023 19.4555 19.023 21.1377V27.508H15.0258V14.6197H18.8648V16.3811H18.9176C19.4502 15.3686 20.758 14.298 22.7039 14.298C26.7592 14.298 27.508 16.9664 27.508 20.4363V27.508Z" fill="#BFBFBF"/>
</g>
</svg>
