<svg width="25" height="24" viewBox="0 0 25 24" fill="none" xmlns="http://www.w3.org/2000/svg">
<path d="M22.2264 0H1.77487C0.795178 0 0.00299072 0.773438 0.00299072 1.72969V22.2656C0.00299072 23.2219 0.795178 24 1.77487 24H22.2264C23.2061 24 24.003 23.2219 24.003 22.2703V1.72969C24.003 0.773438 23.2061 0 22.2264 0ZM7.1233 20.4516H3.5608V8.99531H7.1233V20.4516ZM5.34205 7.43438C4.1983 7.43438 3.27487 6.51094 3.27487 5.37187C3.27487 4.23281 4.1983 3.30937 5.34205 3.30937C6.48112 3.30937 7.40455 4.23281 7.40455 5.37187C7.40455 6.50625 6.48112 7.43438 5.34205 7.43438ZM20.4546 20.4516H16.8967V14.8828C16.8967 13.5563 16.8733 11.8453 15.0452 11.8453C13.1936 11.8453 12.9124 13.2938 12.9124 14.7891V20.4516H9.35924V8.99531H12.7717V10.5609H12.8186C13.2921 9.66094 14.4546 8.70938 16.1842 8.70938C19.7889 8.70938 20.4546 11.0813 20.4546 14.1656V20.4516Z" fill="#BFBFBF"/>
</svg>
