<?xml version="1.0" encoding="utf-8"?>
<!-- Generator: Adobe Illustrator 27.9.0, SVG Export Plug-In . SVG Version: 6.00 Build 0)  -->
<svg version="1.1" id="Layer_1" xmlns="http://www.w3.org/2000/svg" xmlns:xlink="http://www.w3.org/1999/xlink" x="0px" y="0px"
	 viewBox="0 0 34 34" style="enable-background:new 0 0 34 34;" xml:space="preserve">
<style type="text/css">
	.st0{fill-rule:evenodd;clip-rule:evenodd;fill:#FFFFFF;}
</style>
<g>
	<polygon class="st0" points="17.2,15.3 11.9,7.6 8.9,7.6 15.7,17.2 16.4,18.3 16.4,18.3 22.1,26.4 24.9,26.4 17.9,16.4 	"/>
	<path class="st0" d="M31.5,0H2.6C1.1,0,0,1.1,0,2.7v28.5C0,32.9,1.1,34,2.6,34h28.7c1.5,0,2.6-1.1,2.6-2.6V2.7
		C34.2,1.1,33,0,31.5,0z M21.3,27.8l-5.9-8.3l-7.2,8.3H6.4l8.3-9.6L6.4,6.2h6.2l5.5,7.9l6.8-7.9h1.9l-7.9,9.1l0,0l8.5,12.5
		C27.4,27.8,21.3,27.8,21.3,27.8z"/>
</g>
</svg>
