<svg width="96" height="96" viewBox="0 0 96 96" fill="none" xmlns="http://www.w3.org/2000/svg">
<path d="M18.5 40.22H22.6399L30.9199 48.5" stroke="white" stroke-width="2"/>
<path d="M37.1299 38.1499L44.3799 45.3999H48.52H60.9399H79.6101" stroke="white" stroke-width="2" stroke-dasharray="3.9 3.9"/>
<path d="M30.92 31.9399C32.64 30.2199 35.4099 30.2199 37.1299 31.9399C38.8499 33.6599 38.8399 36.4399 37.1299 38.1499C35.4099 39.8699 32.64 39.8699 30.92 38.1499C29.2 36.4299 29.22 33.6399 30.92 31.9399Z" stroke="white" stroke-width="2"/>
<path d="M14.3602 48.5C16.0802 46.78 18.8502 46.78 20.5702 48.5C22.2902 50.22 22.2802 52.9999 20.5702 54.7099C18.8502 56.4299 16.0802 56.4299 14.3602 54.7099C12.6402 52.9899 12.6502 50.2 14.3602 48.5Z" stroke="white" stroke-width="2"/>
<path d="M29.8899 50.1298C30.6999 47.8398 33.21 46.6499 35.5 47.4699C37.79 48.2799 38.9699 50.8 38.1699 53.08C37.3499 55.37 34.8501 56.5599 32.5601 55.7399C30.2601 54.9199 29.0799 52.3998 29.8899 50.1298Z" stroke="white" stroke-width="2"/>
<path d="M15.3899 39.1799H11.25" stroke="white" stroke-width="2"/>
<path d="M38.1699 68.1599H34.03" stroke="white" stroke-width="2"/>
<path d="M20.5701 23.6499H16.4299" stroke="white" stroke-width="2"/>
<path d="M20.5701 54.71L27.8201 61.96H40.24L49.5601 52.6399H57.8401L59.9099 50.5701H64.05L66.1201 52.6399H70.26L72.3301 50.5701H74.3999L76.47 52.6399H82.6799L89.9299 45.3899L83.72 39.1799H52.6599L37.1299 23.6499H24.71" stroke="white" stroke-width="2"/>
<path d="M23.6799 30.8999H11.26L6.08008 36.0801V56.78L17.47 68.1699H29.8899" stroke="white" stroke-width="2" stroke-dasharray="3.9 3.9"/>
</svg>
