<svg width="97" height="96" viewBox="0 0 97 96" fill="none" xmlns="http://www.w3.org/2000/svg">
<g clip-path="url(#clip0_15155_503068)">
<path d="M84.6812 78.6V54.86" stroke="white" stroke-width="2"/>
<path d="M11.6013 78.6V31.28C11.6013 29.49 13.0513 28.04 14.8513 28.04H24.4812" stroke="white" stroke-width="2"/>
<path d="M1.35132 79.33C1.35132 84.59 6.16131 88.85 12.0913 88.85H84.1912C90.1212 88.85 94.9312 84.59 94.9312 79.33H1.35132Z" stroke="white" stroke-width="2"/>
<path d="M43.0312 72.72V41.1899H50.1213C54.4013 41.1899 55.7913 38.67 55.7913 35.52H30.2812C27.6112 35.52 23.1912 37.66 23.1912 44.02V53.9399C23.1912 56.9899 25.8113 59.61 28.8613 59.61" stroke="white" stroke-width="2"/>
<path d="M28.8613 44.02V72.72" stroke="white" stroke-width="2"/>
<path d="M35.9512 18.51H34.5312C32.1813 18.51 30.2812 20.41 30.2812 22.76V27.01C30.2812 29.36 32.1813 31.26 34.5312 31.26H35.9512C38.3012 31.26 40.2012 29.36 40.2012 27.01V22.76C40.2012 20.42 38.3012 18.51 35.9512 18.51Z" stroke="white" stroke-width="2"/>
<path d="M35.9512 55.36V72.72" stroke="white" stroke-width="2"/>
<path d="M36.2312 12.67V7.15002H88.4111V49.01H84.6812H48.8911" stroke="white" stroke-width="2" stroke-dasharray="3.9 3.9"/>
</g>
<defs>
<clipPath id="clip0_15155_503068">
<rect width="96" height="96" fill="white" transform="translate(0.0012207)"/>
</clipPath>
</defs>
</svg>
