<svg width="96" height="96" viewBox="0 0 96 96" fill="none" xmlns="http://www.w3.org/2000/svg">
<path d="M22.4601 48.6C26.6701 48.6 29.8002 45.08 29.8002 40.72V38.09C29.8002 33.74 26.6601 30.21 22.4601 30.21C18.2501 30.21 15.1101 33.73 15.1101 38.09V40.72C15.1101 45.07 18.2601 48.6 22.4601 48.6Z" stroke="white" stroke-width="2"/>
<path d="M37.1501 57.78C34.7101 56.48 29.9501 54.26 26.1301 54.11H16.9501C10.3801 54.11 5.93018 56.88 5.93018 65.13V72.48C5.93018 79.83 11.8801 81.66 16.9501 81.66H24.3002" stroke="white" stroke-width="2"/>
<path d="M15.1101 63.29V70.64C15.1101 71.65 15.9401 72.48 16.9501 72.48H27.9701" stroke="white" stroke-width="2"/>
<path d="M13.2803 81.65V90.83" stroke="white" stroke-width="2"/>
<path d="M33.48 85.32V90.83" stroke="white" stroke-width="2"/>
<path d="M45.89 77.98H41.04C40.1 77.98 39.48 76.99 39.9 76.14L42.3 71.34C42.52 70.91 42.9599 70.64 43.4399 70.64H48.8599C50.2199 70.64 51.12 72.07 50.5 73.3L49.18 75.96C48.55 77.21 47.29 78 45.89 78V77.98Z" stroke="white" stroke-width="2"/>
<path d="M22.46 63.29L31.64 68.8" stroke="white" stroke-width="2"/>
<path d="M48.17 70.63L51.84 63.28H33.48L22.46 85.32H40.8199L44.49 77.97" stroke="white" stroke-width="2"/>
<path d="M59.3501 44.93H57.3501L56.1501 46.53" stroke="white" stroke-width="2"/>
<path d="M53.4302 50.15L49.6301 55.21C48.5701 56.62 46.3301 55.87 46.3301 54.11V49.19" stroke="white" stroke-width="2" stroke-dasharray="4.52 4.52"/>
<path d="M46.3301 46.93V44.93H44.3301" stroke="white" stroke-width="2"/>
<path d="M40.4302 44.46C38.5002 43.61 37.1501 41.67 37.1501 39.42V11.88C37.1501 8.83 39.6102 6.37 42.6602 6.37H83.0602C86.1102 6.37 88.5701 8.83 88.5701 11.88V37.59C88.5701 41.65 85.2801 44.94 81.2301 44.94H61.3401" stroke="white" stroke-width="2" stroke-dasharray="3.97 3.97"/>
<path d="M57.3501 28.4V30.24C57.3501 32.06 59.0402 33.91 61.0602 33.91H64.7001C66.7201 33.91 68.3701 32.06 68.3701 30.24V29.69C68.3701 28.28 67.3801 27.01 65.8701 26.55L59.8601 24.75C58.3501 24.29 57.3401 23.04 57.3401 21.61V21.06C57.3401 19.24 58.9901 17.39 61.0101 17.39H64.6802C66.7002 17.39 68.3501 19.24 68.3501 21.06V22.9" stroke="white" stroke-width="2"/>
<path d="M62.8601 17.38V12.72" stroke="white" stroke-width="2"/>
<path d="M62.8601 33.91V38.57" stroke="white" stroke-width="2"/>
</svg>
