<svg width="96" height="96" viewBox="0 0 96 96" fill="none" xmlns="http://www.w3.org/2000/svg">
<path d="M80.0505 47.48V10.2C80.0505 8.49995 78.6807 7.06995 76.9207 7.06995H21.0608C19.3608 7.06995 17.9309 8.43995 17.9309 10.2V47.48" stroke="white" stroke-width="2" stroke-miterlimit="10"/>
<path d="M53.6506 28.84V39.73" stroke="white" stroke-width="2" stroke-miterlimit="10"/>
<path d="M59.9109 14.89V39.72" stroke="white" stroke-width="2" stroke-miterlimit="10"/>
<path d="M72.3005 19.51V39.72" stroke="white" stroke-width="2" stroke-miterlimit="10"/>
<path d="M66.1008 25.71V39.66" stroke="white" stroke-width="2" stroke-miterlimit="10"/>
<path d="M38.1409 16.39V25.71H47.4607C47.4607 20.56 43.2909 16.39 38.1409 16.39Z" stroke="white" stroke-width="2" stroke-miterlimit="10"/>
<path d="M44.3308 28.84C44.3308 33.99 40.1605 38.16 35.0105 38.16C29.8605 38.16 25.7507 33.99 25.7507 28.84C25.7507 23.69 29.9206 19.52 35.0706 19.52" stroke="white" stroke-width="2" stroke-miterlimit="10"/>
<path d="M14.1506 52.3V58.4301L24.0608 59.86C24.7108 62.53 25.7607 65.14 27.1907 67.49L21.1907 75.38L27.6409 81.83L35.6609 75.83C38.0109 77.27 40.5509 78.31 43.2209 78.96L44.6506 88.87H53.7708L55.2107 78.96C57.8807 78.31 60.4906 77.27 62.8406 75.83L70.7908 81.83L77.241 75.38L71.241 67.36C72.671 65.01 73.7208 62.47 74.3708 59.8L84.2805 58.37V52.24" stroke="white" stroke-width="2" stroke-linejoin="round" stroke-dasharray="3 3"/>
<path d="M63.7605 58.4301C61.8005 64.6201 56.0709 69.12 49.2209 69.12C42.3709 69.12 36.5108 64.56 34.6208 58.3" stroke="white" stroke-width="2" stroke-linecap="round" stroke-linejoin="round"/>
<path d="M2.94067 47.28H94.2009" stroke="white" stroke-width="2"/>
</svg>
