<svg width="96" height="96" viewBox="0 0 96 96" fill="none" xmlns="http://www.w3.org/2000/svg">
<path d="M38.5876 83.427C42.3616 83.427 44.8625 80.4902 44.8625 76.863V74.6784C44.8625 71.0512 42.3616 68.1144 38.5876 68.1144C34.8137 68.1144 32.3127 71.0512 32.3127 74.6784V76.863C32.3127 80.4902 34.8137 83.427 38.5876 83.427Z" stroke="white" stroke-width="2" stroke-linecap="round" stroke-linejoin="round"/>
<path d="M15.561 87.2501C19.335 87.2501 21.8359 84.3133 21.8359 80.6861V78.5015C21.8359 74.8743 19.335 71.9375 15.561 71.9375C11.7871 71.9375 9.28613 74.8743 9.28613 78.5015V80.6861C9.28613 84.3133 11.7871 87.2501 15.561 87.2501Z" stroke="white" stroke-width="2" stroke-linecap="round" stroke-linejoin="round"/>
<path d="M51.1487 93V89.1667C51.1487 84.4266 42.9474 83.4271 38.5876 83.4271C34.2279 83.4271 26.0266 84.4266 26.0266 89.1667V93" stroke="white" stroke-width="2" stroke-linecap="round" stroke-linejoin="round"/>
<path d="M26.0267 89.5274C23.3004 87.7241 18.5351 87.2604 15.561 87.2604C11.2013 87.2604 3 88.2599 3 93" stroke="white" stroke-width="2" stroke-linecap="round" stroke-linejoin="round"/>
<path d="M61.6144 87.2501C57.8404 87.2501 55.3395 84.3133 55.3395 80.6861V78.5015C55.3395 74.8743 57.8404 71.9375 61.6144 71.9375C65.3883 71.9375 67.8892 74.8743 67.8892 78.5015V80.6861C67.8892 84.3133 65.3883 87.2501 61.6144 87.2501Z" stroke="white" stroke-width="2" stroke-linecap="round" stroke-linejoin="round"/>
<path d="M51.1487 89.5274C53.8749 87.7241 58.6402 87.2604 61.6143 87.2604C65.9741 87.2604 74.1753 88.2599 74.1753 93" stroke="white" stroke-width="2" stroke-linecap="round" stroke-linejoin="round"/>
<path d="M11.3703 3H63.7098C67.1795 3 69.9847 5.57614 69.9847 8.73964V45.125C69.9847 49.3499 66.2332 52.7813 61.6144 52.7813H28.1221L19.335 63.5084C18.1296 64.9819 15.5723 64.1988 15.5723 62.3646V52.7916H11.3816C7.9118 52.7916 5.10669 50.2155 5.10669 47.052V8.74994C5.10669 5.57614 7.92306 3.0103 11.3816 3.0103L11.3703 3Z" stroke="white" stroke-width="2" stroke-linecap="round" stroke-linejoin="round"/>
<path d="M44.8625 56.6146C44.8625 59.7884 47.6789 62.3542 51.1374 62.3542H69.9733L78.8505 71.8241C80.1123 73.174 82.5344 72.36 82.5344 70.5773V62.3542H86.7251C90.1949 62.3542 93 59.7781 93 56.6146V22.1459C93 18.9721 90.1836 16.4062 86.7251 16.4062H74.1641" stroke="white" stroke-width="2" stroke-linecap="round" stroke-linejoin="round"/>
<path d="M44.9639 27.8546C44.9639 31.049 42.1363 33.6457 38.6327 33.6457C35.1292 33.6457 32.3015 31.0593 32.3015 27.8546C32.3015 24.6499 35.1292 22.0634 38.6327 22.0634C42.1363 22.0634 44.9639 24.6499 44.9639 27.8546Z" stroke="white" stroke-width="2" stroke-linecap="round" stroke-linejoin="round"/>
<path d="M53.2892 27.8546C53.2892 26.7932 53.1428 25.7628 52.8837 24.7735L56.9956 22.5993L52.8048 15.9631L48.7042 18.1271C47.0481 16.6844 45.0203 15.6025 42.7785 14.9945V10.6563H34.4082V15.0151C32.1777 15.6334 30.1837 16.7257 28.5389 18.158L24.3707 15.9631L20.1799 22.5993L24.382 24.8147C24.1341 25.7937 23.9877 26.8035 23.9877 27.8546C23.9877 28.9057 24.1454 29.967 24.4045 30.9666L20.1912 33.1924L24.382 39.8285L28.6065 37.5924C30.24 38.9938 32.2115 40.0758 34.4082 40.6735V45.125H42.7785V40.7044C44.9978 40.1067 46.9918 39.035 48.6478 37.6233L52.8161 39.8285L57.0068 33.1924L52.8724 31.0078C53.1428 29.9876 53.3005 28.9366 53.3005 27.8443L53.2892 27.8546Z" stroke="white" stroke-width="2" stroke-linecap="round" stroke-linejoin="round"/>
</svg>
