<svg width="96" height="96" viewBox="0 0 96 96" fill="none" xmlns="http://www.w3.org/2000/svg">
<path d="M61.5701 48.33C61.5701 46.98 61.37 45.6699 60.99 44.4399L64.3 42.55L61.1699 37.16L57.8601 39.0601C56.0601 37.1601 53.7201 35.79 51.0701 35.17V31.38H44.8V35.17C42.16 35.79 39.82 37.1601 38.02 39.0601L34.71 37.16L31.5801 42.55L34.8799 44.4399C34.5099 45.6699 34.3101 46.98 34.3101 48.33C34.3101 49.68 34.5099 50.99 34.8799 52.22L31.5801 54.11L34.71 59.49L38.02 57.6C39.82 59.49 42.16 60.87 44.8 61.49V65.28H51.0701V61.49C53.7101 60.87 56.0601 59.49 57.8601 57.6L61.1699 59.49L64.3 54.11L60.99 52.22C61.37 50.98 61.5701 49.68 61.5701 48.33Z" stroke="white" stroke-width="2"/>
<path d="M47.9399 54.4301C51.3399 54.4301 54.1001 51.6999 54.1001 48.3199C54.1001 44.9499 51.3399 42.21 47.9399 42.21C44.5399 42.21 41.79 44.9399 41.79 48.3199C41.79 51.6999 44.5399 54.4301 47.9399 54.4301Z" stroke="white" stroke-width="2"/>
<path d="M76.6499 48.33C76.6499 48.27 76.6499 48.22 76.6499 48.16H72.29L81.3301 34.8L90.3701 48.16H86C86 48.21 86 48.27 86 48.33C86 50.06 85.8799 51.75 85.6599 53.42C83.1499 71.88 67.2299 86.1 47.9399 86.1C34.5599 86.1 22.78 79.24 16.01 68.88" stroke="white" stroke-width="2"/>
<path d="M79.79 27.65C72.99 17.35 61.2599 10.55 47.9299 10.55C28.7899 10.55 12.97 24.56 10.28 42.8C10.02 44.52 9.89012 46.2701 9.87012 48.0601H5.62012L14.6599 61.42L19.77 53.87L23.7 48.0601H19.22" stroke="white" stroke-width="2"/>
<path d="M47.9399 76.8101C48.5099 76.8101 49.0799 76.79 49.6499 76.76" stroke="white" stroke-width="2"/>
<path d="M52.8301 76.4C65.2901 74.28 75.01 64.19 76.46 51.61" stroke="white" stroke-width="2" stroke-dasharray="4 4"/>
<path d="M76.6001 50.03C76.6301 49.47 76.6499 48.9 76.6499 48.33" stroke="white" stroke-width="2"/>
<path d="M19.23 48.0601C19.24 47.4901 19.26 46.93 19.3 46.36" stroke="white" stroke-width="2"/>
<path d="M19.6899 43.23C21.9199 30.98 32.0299 21.45 44.6399 20.02" stroke="white" stroke-width="2" stroke-dasharray="4 4"/>
<path d="M46.23 19.89C46.8 19.86 47.3599 19.84 47.9399 19.84" stroke="white" stroke-width="2"/>
</svg>
