<svg width="96" height="96" viewBox="0 0 96 96" fill="none" xmlns="http://www.w3.org/2000/svg">
<g clip-path="url(#clip0_10461_418125)">
<path d="M56.5363 45.7599L61.7124 42.632L59.3943 37.0359L53.5224 38.4839L53.4164 38.528C52.0944 36.604 50.4464 34.98 48.5824 33.7L48.6284 33.59L50.0764 27.718L44.4803 25.4L41.3524 30.576L41.3064 30.6859C39.0844 30.2739 36.7724 30.2559 34.4743 30.6819L34.4304 30.5739L31.3024 25.3979L25.7064 27.716L27.1544 33.588L27.1983 33.696C25.2743 35.018 23.6503 36.666 22.3703 38.528L22.2603 38.482L16.3884 37.034L14.0704 42.6299L19.2464 45.758L19.3564 45.804C18.9444 48.026 18.9264 50.338 19.3524 52.636L19.2444 52.68L14.0684 55.808L16.3864 61.404L22.2583 59.956L22.3663 59.912C23.6883 61.836 25.3363 63.46 27.1983 64.74L27.1524 64.8499L25.7043 70.722L31.3004 73.0399L34.4284 67.864L34.4743 67.754C36.6963 68.166 39.0084 68.184 41.3064 67.758L41.3504 67.864L44.4783 73.0399L50.0744 70.722L48.6264 64.8499L48.5824 64.744C50.5064 63.422 52.1304 61.774 53.4104 59.912L53.5204 59.9579L59.3923 61.4059L61.7104 55.81L56.5343 52.6819L56.4243 52.636C56.8363 50.414 56.8544 48.1 56.4284 45.804L56.5363 45.7599Z" stroke="white" stroke-width="2"/>
<path d="M40.7078 55.909C44.3969 54.3808 46.1488 50.1514 44.6207 46.4623C43.0925 42.7731 38.8631 41.0212 35.1739 42.5494C31.4848 44.0775 29.7329 48.3069 31.2611 51.9961C32.7892 55.6852 37.0186 57.4371 40.7078 55.909Z" stroke="white" stroke-width="2"/>
<path d="M10.543 84.0379H68.289V89.9239L78.533 80.4779L68.289 71.0399V76.9179" stroke="white" stroke-width="2"/>
<path d="M69.0762 54.774H82.7542V60.666L93.0002 51.22L82.7542 41.776V47.66" stroke="white" stroke-width="2"/>
<path d="M16.7031 9.95792H61.6391V4.07593L71.8891 13.5199L61.6391 22.9639V17.0739" stroke="white" stroke-width="2"/>
<path d="M-0.318359 28.528H17.6116" stroke="white" stroke-width="2" stroke-dasharray="4 4"/>
<path d="M17.81 71.7499H-3" stroke="white" stroke-width="2" stroke-dasharray="4 4"/>
<path d="M68.2896 76.918H56.6855" stroke="white" stroke-width="2" stroke-dasharray="4 4"/>
<path d="M82.7542 47.6599H69.0762" stroke="white" stroke-width="2" stroke-dasharray="4 4"/>
<path d="M61.6403 17.0739H32.0723" stroke="white" stroke-width="2" stroke-dasharray="4 4"/>
</g>
<defs>
<clipPath id="clip0_10461_418125">
<rect width="96" height="96" fill="white"/>
</clipPath>
</defs>
</svg>
