<svg width="96" height="96" viewBox="0 0 96 96" fill="none" xmlns="http://www.w3.org/2000/svg">
<g clip-path="url(#clip0_10461_418222)">
<path d="M23.4088 57.1172C18.9744 57.1172 15.5215 53.245 15.5215 48.88V45.9759C15.5215 41.6109 18.9744 37.7388 23.4088 37.7388C27.8432 37.7388 31.2961 41.6109 31.2961 45.9759V48.88C31.2961 53.245 27.8432 57.1172 23.4088 57.1172Z" stroke="white" stroke-width="2" stroke-miterlimit="8"/>
<path d="M6.75781 85.1552C6.75781 67.5016 6.75781 70.2825 6.75781 70.2825C6.75781 66.7096 9.26422 64.1575 12.7697 64.1575H16.3978C17.9052 64.1575 19.3424 64.8439 20.3064 66.0055L28.8072 76.4076H40.8309C40.8309 76.4076 41.83 84.5919 34.8191 84.5919H22.7953L14.7853 74.3659" stroke="white" stroke-width="2" stroke-miterlimit="8"/>
<path d="M34.8027 69.9305L42.4271 55.3571H73.3629L61.8123 78.2381H46.3532" stroke="white" stroke-width="2" stroke-linejoin="round"/>
<path d="M16.6445 84.6799H76.8684" stroke="white" stroke-width="2" stroke-linejoin="round"/>
<path d="M78.0953 63.8407L81.5833 66.5512L87.3848 60.5317L82.6349 53.9667C83.6865 51.7842 84.7382 49.5841 85.264 46.856L93.1688 46.3103V37.5628L85.264 37.0171C84.7382 34.289 83.6865 32.0889 82.6349 29.9065L87.3848 23.3414L81.5833 17.3219L75.2559 22.2501C73.1526 21.1589 71.0318 20.0676 68.4027 19.522L67.8769 11.3201H59.4287L58.9029 19.522C56.2738 20.0676 54.153 21.1589 52.0497 22.2501L45.7223 17.3219L39.9208 23.3414L44.6707 29.9065C43.6191 32.0889 42.5674 34.289 42.0416 37.0171L39.8682 37.1756L38.2031 37.2988" stroke="white" stroke-width="2" stroke-linejoin="round"/>
<path d="M63.6525 49.6016C67.3406 49.6016 70.3304 46.5993 70.3304 42.8958C70.3304 39.1922 67.3406 36.1899 63.6525 36.1899C59.9644 36.1899 56.9746 39.1922 56.9746 42.8958C56.9746 46.5993 59.9644 49.6016 63.6525 49.6016Z" stroke="white" stroke-width="2" stroke-miterlimit="8"/>
</g>
<defs>
<clipPath id="clip0_10461_418222">
<rect width="93" height="76" fill="white" transform="translate(1.5 10)"/>
</clipPath>
</defs>
</svg>
