<svg width="96" height="96" viewBox="0 0 96 96" fill="none" xmlns="http://www.w3.org/2000/svg">
<path d="M43.1074 49.0363C43.923 47.6546 45.1463 47.1941 46.3696 47.1941H48.0006C48.8162 47.1941 49.6317 48.1152 49.6317 49.0363V52.7373C49.6317 53.6584 48.8162 54.5795 48.0006 54.5795H44.7385C43.923 54.5795 43.1074 53.6584 43.1074 52.7373V41.6344C43.1074 40.7133 43.923 39.7758 44.7385 39.7758H48.0006C48.8162 39.7758 49.6317 40.6969 49.6317 41.6344V43.4767" stroke="white" stroke-width="2" stroke-miterlimit="8"/>
<path d="M64.3116 50.8786C64.3116 52.7208 62.6805 54.5795 61.0495 54.5795H59.4184C57.7873 54.5795 56.1562 52.7373 56.1562 50.8786V43.4767C56.1562 41.6344 57.7873 39.7758 59.4184 39.7758H61.0495C62.6805 39.7758 64.3116 41.6344 64.3116 43.4767V50.8786Z" stroke="white" stroke-width="2" stroke-miterlimit="8"/>
<path d="M30.0586 48H38.2139" stroke="white" stroke-width="2" stroke-miterlimit="8"/>
<path d="M28.4277 54.5795H36.2569C37.2355 54.5795 38.2141 53.6584 38.2141 52.7373V41.6344C38.2141 40.7133 37.2355 39.7758 36.2569 39.7758H28.4277" stroke="white" stroke-width="2" stroke-miterlimit="8"/>
<path d="M47.9994 90.7663C70.5197 90.7663 88.7761 71.6192 88.7761 48C88.7761 24.3808 70.5197 5.23364 47.9994 5.23364C25.479 5.23364 7.22266 24.3808 7.22266 48C7.22266 71.6192 25.479 90.7663 47.9994 90.7663Z" stroke="white" stroke-width="2" stroke-miterlimit="8"/>
<path d="M47.9994 67.7383C70.5197 67.7383 88.7761 58.533 88.7761 47.1776C88.7761 35.8222 70.5197 26.6168 47.9994 26.6168C25.479 26.6168 7.22266 35.8222 7.22266 47.1776C7.22266 58.533 25.479 67.7383 47.9994 67.7383Z" stroke="white" stroke-width="2" stroke-miterlimit="8"/>
<path d="M47.9992 90.7664C34.4124 90.7664 23.5332 71.7518 23.5332 48C23.5332 24.2482 34.4124 5.23364 47.9992 5.23364C61.586 5.23364 72.4652 24.2482 72.4652 48C72.4652 65.5835 66.5771 80.305 57.965 86.9667C54.8008 89.3353 51.6202 90.7664 47.9992 90.7664Z" stroke="white" stroke-width="2" stroke-miterlimit="8"/>
</svg>
