<svg width="96" height="96" viewBox="0 0 96 96" fill="none" xmlns="http://www.w3.org/2000/svg">
<path d="M55.6282 66.7366V61.6289C55.6282 59.5859 51.3393 56.5212 47.9997 56.5212C44.66 56.5212 40.3711 59.5859 40.3711 61.6289V66.7366" stroke="white" stroke-width="2" stroke-miterlimit="8"/>
<path d="M48.8468 73.5469C59.1456 73.5469 67.4945 64.7809 67.4945 53.9674C67.4945 43.154 59.1456 34.3879 48.8468 34.3879C38.548 34.3879 30.1992 43.154 30.1992 53.9674C30.1992 64.7809 38.548 73.5469 48.8468 73.5469Z" stroke="white" stroke-width="2" stroke-miterlimit="8"/>
<path d="M47.9997 56.5213C44.5415 56.5213 42.0664 53.6099 42.0664 50.6815V48.7406C42.0664 45.3354 44.5415 42.9008 47.9997 42.9008C51.458 42.9008 53.9331 45.3354 53.9331 48.7406V50.6815C53.9331 53.5929 51.458 56.5213 47.9997 56.5213Z" stroke="white" stroke-width="2" stroke-miterlimit="8"/>
<path d="M40.3722 28.1396C38.4058 26.1476 34.9814 24.1726 31.54 24.1726C27.1155 24.1726 21.7246 27.6458 21.7246 30.1316V36.0906" stroke="white" stroke-width="2" stroke-miterlimit="8"/>
<path d="M31.8943 24.1726C28.9276 24.1726 26.8086 20.9717 26.8086 16.7153V14.5871C26.8086 10.3307 28.9276 7.12988 31.8943 7.12988C34.861 7.12988 36.98 10.3307 36.98 14.5871V16.7153C36.98 20.9717 34.861 24.1726 31.8943 24.1726Z" stroke="white" stroke-width="2" stroke-miterlimit="8"/>
<path d="M57.3242 28.1396C59.1042 26.1476 62.2235 24.1726 65.3597 24.1726C69.3774 24.1726 74.2766 27.6458 74.2766 30.1316V36.0906" stroke="white" stroke-width="2" stroke-miterlimit="8"/>
<path d="M64.9529 24.1726C68.4112 24.1726 70.8862 20.9717 70.8862 16.7153V14.5871C70.8862 10.3307 68.4112 7.12988 64.9529 7.12988C61.4946 7.12988 59.0195 10.3307 59.0195 14.5871V16.7153C59.0195 20.9717 61.4946 24.1726 64.9529 24.1726Z" stroke="white" stroke-width="2" stroke-miterlimit="8"/>
<path d="M30.2004 88.87V84.7839C30.2004 82.23 25.0638 78.6547 20.8765 78.6547C16.6893 78.6547 11.5527 82.23 11.5527 84.7839V88.87" stroke="white" stroke-width="2" stroke-miterlimit="8"/>
<path d="M86.1437 88.87V84.7839C86.1437 82.23 81.0071 78.6547 76.8199 78.6547C72.6327 78.6547 67.4961 82.23 67.4961 84.7839V88.87" stroke="white" stroke-width="2" stroke-miterlimit="8"/>
<path d="M20.8767 78.6546C17.4184 78.6546 14.9434 75.7773 14.9434 71.9465V70.0396C14.9434 66.2089 17.4184 63.3315 20.8767 63.3315C24.335 63.3315 26.81 66.2089 26.81 70.0396V71.9465C26.81 75.7773 24.335 78.6546 20.8767 78.6546Z" stroke="white" stroke-width="2" stroke-miterlimit="8"/>
<path d="M76.8181 78.6546C80.2764 78.6546 82.7514 75.7773 82.7514 71.9465V70.0396C82.7514 66.2089 80.2764 63.3315 76.8181 63.3315C73.3598 63.3315 70.8848 66.2089 70.8848 70.0396V71.9465C70.8848 75.7773 73.3598 78.6546 76.8181 78.6546Z" stroke="white" stroke-width="2" stroke-miterlimit="8"/>
<path d="M91.2281 65.034V59.0751C91.2281 56.5893 86.5662 53.1161 82.752 53.1161" stroke="white" stroke-width="2" stroke-miterlimit="8"/>
<path d="M81.904 53.1162C78.4458 53.1162 75.9707 50.2388 75.9707 46.4081V44.5012C75.9707 40.6704 78.4458 37.7931 81.904 37.7931C85.3623 37.7931 87.8374 40.6704 87.8374 44.5012V46.4081C87.8374 50.2388 85.3623 53.1162 81.904 53.1162Z" stroke="white" stroke-width="2" stroke-miterlimit="8"/>
<path d="M4.77148 65.034V59.0751C4.77148 56.5893 10.3658 53.1161 14.9429 53.1161" stroke="white" stroke-width="2" stroke-miterlimit="8"/>
<path d="M14.9431 53.1162C17.9098 53.1162 20.0289 50.2388 20.0289 46.4081V44.5012C20.0289 40.6704 17.9098 37.7931 14.9431 37.7931C11.9765 37.7931 9.85742 40.6704 9.85742 44.5012V46.4081C9.85742 50.2388 11.9765 53.1162 14.9431 53.1162Z" stroke="white" stroke-width="2" stroke-miterlimit="8"/>
<path d="M48.8477 25.8751V39.4956" stroke="white" stroke-width="2" stroke-miterlimit="8"/>
<path d="M48.8477 66.7367V80.3572" stroke="white" stroke-width="2" stroke-miterlimit="8"/>
<path d="M35.2866 53.1161H23.4199" stroke="white" stroke-width="2" stroke-miterlimit="8"/>
<path d="M72.5815 53.1161H60.7148" stroke="white" stroke-width="2" stroke-miterlimit="8"/>
</svg>
