<svg width="96" height="96" viewBox="0 0 96 96" fill="none" xmlns="http://www.w3.org/2000/svg">
<path d="M24.9714 76.665L23.7383 75.1207C24.7846 74.2848 25.9021 73.4944 27.0601 72.7741L28.1044 74.4508C27.0127 75.1316 25.9575 75.8765 24.9714 76.665ZM65.0117 72.8462C63.8764 72.283 62.6878 71.7712 61.4814 71.3246L62.1661 69.4711C63.4387 69.9424 64.6916 70.4818 65.8901 71.0757L65.0117 72.8462ZM31.4727 72.6071L30.622 70.8237C31.8314 70.2467 33.0921 69.725 34.3696 69.2745L35.0277 71.1379C33.8163 71.5657 32.6198 72.0597 31.4727 72.6071ZM57.8079 70.1795C56.5728 69.8633 55.3033 69.6035 54.0336 69.4108L54.333 67.4565C55.6668 67.661 57.0007 67.9327 58.299 68.2647L57.8079 70.1795ZM38.719 70.0461L38.2556 68.1254C39.5578 67.8112 40.8966 67.5582 42.2334 67.3735L42.5031 69.3308C41.2315 69.5076 39.958 69.7477 38.719 70.0461ZM50.201 69.0156C48.9274 68.9464 47.6262 68.9365 46.3437 68.9889L46.2646 67.0148C47.6054 66.9605 48.9719 66.9694 50.3097 67.0425L50.201 69.0156Z" fill="white"/>
<path d="M48.8609 29.0129L48.8205 27.0368C50.1069 27.0101 51.4012 26.9222 52.6679 26.773L52.8971 28.7352C51.5682 28.8923 50.2106 28.9852 48.8609 29.0129ZM44.8159 28.9032C43.4722 28.8024 42.1195 28.6354 40.7995 28.4072L41.1375 26.4598C42.3952 26.6781 43.6826 26.8372 44.9631 26.933L44.8159 28.9032ZM56.8888 28.0683L56.4659 26.1377C57.7227 25.863 58.9726 25.5231 60.1819 25.1269L60.7975 27.0042C59.5258 27.4211 58.2098 27.7798 56.8888 28.0683ZM36.8494 27.516C35.5441 27.1514 34.2508 26.7177 33.0059 26.2256L33.7311 24.3879C34.9128 24.8542 36.1399 25.2662 37.379 25.612L36.8494 27.516ZM64.5787 25.5409L63.7685 23.7387C64.9433 23.2111 66.0914 22.6173 67.1812 21.9751L68.1851 23.6775C67.033 24.3562 65.8187 24.9836 64.5787 25.5409ZM71.5622 21.4149L70.3676 19.8409C71.3922 19.0623 72.3674 18.2225 73.2665 17.3441L74.6478 18.757C73.6904 19.6927 72.652 20.5869 71.5622 21.4149Z" fill="white"/>
<path d="M47.9806 88.9217C36.2387 88.9217 25.0521 83.8728 17.2891 75.0694L18.7711 73.7622C26.1607 82.1398 36.8068 86.9456 47.9806 86.9456V88.9217Z" fill="white"/>
<path d="M48.9878 8.06641H47.0117V87.9337H48.9878V8.06641Z" fill="white"/>
<path d="M47.9998 48.988H45.921V47.012H47.9998V48.988ZM41.9678 48.988H38.0156V47.012H41.9678V48.988Z" fill="white"/>
<path d="M47.9796 88.9217C39.0655 88.9217 31.34 78.4168 28.2988 62.1586L30.2423 61.795C33.0562 76.8389 40.185 86.9456 47.9796 86.9456V88.9217Z" fill="white"/>
<path d="M18.0298 69.5492L0 47.013H7.06744C7.53873 23.8118 24.5983 7.07935 47.9802 7.07935V9.05543C38.2253 9.05543 27.3332 25.2207 27.0121 47.013H36.0585L18.0298 69.5492ZM4.11221 48.9881L18.0298 66.3855L31.9473 48.9881H25.029V48C25.029 31.0591 31.5066 15.7356 40.1312 9.74607C21.7132 13.0807 9.03363 28.1454 9.03363 48V48.9881H4.11221V48.9881Z" fill="white"/>
<path d="M77.229 22.2379C69.8404 13.8603 59.1953 9.05445 48.0195 9.05445V7.07837C59.7614 7.07837 70.948 12.1273 78.711 20.9307L77.229 22.2379Z" fill="white"/>
<path d="M57.9832 48.988H54.031V47.012H57.9832V48.988ZM50.0788 48.988H48V47.012H50.0788V48.988Z" fill="white"/>
<path d="M65.7588 34.206C62.9438 19.1621 55.8161 9.05543 48.0215 9.05543V7.07935C56.9346 7.07935 64.66 17.5842 67.7022 33.8424L65.7588 34.206Z" fill="white"/>
<path d="M48.0195 88.9217V86.9457C57.7745 86.9457 68.6666 70.7803 68.9877 48.9881H59.9422L77.97 26.4519L95.9998 48.9881H88.9323C88.461 72.1893 71.4025 88.9217 48.0195 88.9217ZM64.0525 47.012H70.9717V48.0001C70.9717 64.941 64.4941 80.2646 55.8695 86.2541C74.2866 82.9194 86.9661 67.8548 86.9661 48.0001V47.012H91.8875L77.97 29.6156L64.0525 47.012Z" fill="white"/>
</svg>
