<svg width="96" height="96" viewBox="0 0 96 96" fill="none" xmlns="http://www.w3.org/2000/svg">
<g clip-path="url(#clip0_10461_418219)">
<path d="M39.6895 59.6504C39.6895 49.1017 47.4448 40.5656 57.0392 40.5656" stroke="white" stroke-width="2" stroke-miterlimit="8" stroke-linecap="round"/>
<path d="M58.9495 47.9393C57.5268 45.4409 57.041 42.9425 57.041 39.9584C57.041 29.9823 64.6402 21.4982 74.6337 21.4982C84.6272 21.4982 91.7406 29.9823 91.7406 39.9584C91.7406 49.9345 84.1414 57.9327 74.6337 57.9327C72.2568 57.9327 70.3483 57.9328 68.4572 56.9265" stroke="white" stroke-width="2" stroke-miterlimit="8" stroke-linecap="round"/>
<path d="M39.308 51.6695C39.308 51.6695 32.5589 46.1002 32.5589 43.5671V38.501H41.7196C44.1312 38.501 47.9829 34.9617 47.9829 31.9081V30.3813C47.9829 29.375 47.0113 28.3514 46.5429 27.8483L43.177 23.2853C41.737 20.7522 38.8396 19.7459 35.9421 20.7522L21.4898 25.8183C19.0782 26.8246 17.1523 28.8545 17.1523 31.8907V56.1978C17.1523 66.8332 28.7246 79.4985 32.5763 84.0615C32.5763 86.0914 34.5021 89.1276 37.3995 89.1276H44.6344C61.9841 89.1276 75.4823 75.456 77.8939 58.2277" stroke="white" stroke-width="2" stroke-miterlimit="8" stroke-linecap="round"/>
<path d="M32.7512 38.8306H29.2812" stroke="white" stroke-width="2" stroke-miterlimit="8" stroke-linecap="round"/>
<path d="M65.7151 64.8553C65.7151 70.5287 60.1979 75.2651 53.5703 75.2651" stroke="white" stroke-width="2" stroke-miterlimit="8" stroke-linecap="round"/>
<path d="M11.3576 40.5656L4.99023 36.2282L10.2646 31.0233L6.96811 24.5171L13.7692 22.1402L13.3181 14.541L21.0041 15.634L23.3983 8.69411L29.7657 12.5978L35.0227 7.60107L38.9611 14.1072L46.1959 12.1641L46.6297 19.5377" stroke="white" stroke-width="2" stroke-miterlimit="8"/>
</g>
<defs>
<clipPath id="clip0_10461_418219">
<rect width="90.08" height="84.8924" fill="white" transform="translate(2.96094 5.55377)"/>
</clipPath>
</defs>
</svg>
