<svg width="96" height="96" viewBox="0 0 96 96" fill="none" xmlns="http://www.w3.org/2000/svg">
<g clip-path="url(#clip0_10461_418218)">
<path d="M37.4185 49.0468H32.1198V60.4494C32.1198 62.3498 29.9134 63.3 29.0276 61.8827L19.7671 49.0468H16.24C13.1478 49.0468 10.9414 46.6633 10.9414 43.3456V11.0223C10.9575 7.70462 13.1639 5.32104 16.2561 5.32104H79.7431C82.8353 5.32104 85.0417 7.70462 85.0417 11.0223V43.3456C85.0417 46.6794 82.8353 49.0468 79.7431 49.0468H65.6349" stroke="white" stroke-width="2" stroke-miterlimit="8"/>
<path d="M35.1152 26.2579H41.5573" stroke="white" stroke-width="2" stroke-miterlimit="8"/>
<path d="M44.7793 26.2579H49.6109" stroke="white" stroke-width="2" stroke-miterlimit="8"/>
<path d="M52.832 26.2579H59.2741" stroke="white" stroke-width="2" stroke-miterlimit="8"/>
<path d="M52.0259 61.6895C56.8897 61.6895 60.8838 57.4699 60.8838 52.3001V48.5476C60.8838 43.3778 56.8897 39.1582 52.0259 39.1582C47.1621 39.1582 43.168 43.3939 43.168 48.5476V52.3001C43.168 57.4699 47.146 61.6895 52.0259 61.6895Z" stroke="white" stroke-width="2" stroke-miterlimit="8"/>
<path d="M72.1577 90.679V77.6659C72.1577 70.2253 58.887 66.5211 52.0261 66.5211C45.1653 66.5211 31.8945 70.2414 31.8945 77.6659V90.679" stroke="white" stroke-width="2" stroke-miterlimit="8"/>
<path d="M62.4941 90.679V82.6263" stroke="white" stroke-width="2" stroke-miterlimit="8"/>
<path d="M41.5586 82.6263V90.679" stroke="white" stroke-width="2" stroke-miterlimit="8"/>
<path d="M27.0625 90.679H76.9888" stroke="white" stroke-width="2" stroke-miterlimit="8"/>
<path d="M23.8421 90.679H20.6211" stroke="white" stroke-width="2" stroke-miterlimit="8"/>
<path d="M15.7894 90.679H12.5684" stroke="white" stroke-width="2" stroke-miterlimit="8"/>
<path d="M83.432 90.679H80.2109" stroke="white" stroke-width="2" stroke-miterlimit="8"/>
</g>
<defs>
<clipPath id="clip0_10461_418218">
<rect width="76.5" height="87.7737" fill="white" transform="translate(9.75 4.11316)"/>
</clipPath>
</defs>
</svg>
