<svg width="96" height="96" viewBox="0 0 96 96" fill="none" xmlns="http://www.w3.org/2000/svg">
<path d="M56.1602 69.1324V36.4909L68.4164 23.8928C71.4764 20.6254 71.4764 15.5048 68.8535 12.2374L54.4116 26.2336C53.1002 27.6316 50.9145 28.103 49.1659 28.103H45.6687C43.9202 28.103 41.7345 27.6316 40.423 26.2336L25.5278 12.2374C22.9049 15.5048 23.3421 20.6254 25.9649 23.8928L38.6583 36.4909V69.1324" stroke="white" stroke-width="2" stroke-miterlimit="8"/>
<path d="M47.1914 51.2511V69.1324" stroke="white" stroke-width="2" stroke-miterlimit="8"/>
<path d="M32.6191 91.8904V72.3835H61.762V91.8904" stroke="white" stroke-width="2" stroke-miterlimit="8"/>
<path d="M61.7617 91.8903V80.5114H89.2855V91.8903" stroke="white" stroke-width="2" stroke-miterlimit="8"/>
<path d="M6.71484 91.8903V85.3881H32.6196V91.8903" stroke="white" stroke-width="2" stroke-miterlimit="8"/>
<path d="M48.0006 20.3653C52.5501 20.3653 55.2863 17.2117 55.2863 13.5867V11.3272C55.2863 7.26323 52.5501 4.10962 48.0006 4.10962C43.451 4.10962 40.7148 7.26323 40.7148 11.3272V13.5867C40.7148 17.1955 43.451 20.3653 48.0006 20.3653Z" stroke="white" stroke-width="2" stroke-miterlimit="8"/>
</svg>
