<svg width="13" height="17" viewBox="0 0 13 17" fill="none" xmlns="http://www.w3.org/2000/svg">
<path d="M6.5 16.3749C5.39482 15.4322 4.37042 14.3987 3.4375 13.2853C2.0375 11.6131 0.375001 9.1229 0.375001 6.7499C0.374394 5.53799 0.73332 4.35314 1.40636 3.34529C2.07939 2.33745 3.03629 1.55192 4.15594 1.08812C5.27558 0.624317 6.50766 0.503089 7.69623 0.739778C8.8848 0.976466 9.97644 1.56043 10.833 2.41777C11.4033 2.98552 11.8553 3.66074 12.1629 4.40435C12.4705 5.14796 12.6276 5.94519 12.625 6.7499C12.625 9.1229 10.9625 11.6131 9.5625 13.2853C8.62958 14.3987 7.60518 15.4322 6.5 16.3749ZM6.5 4.1249C5.80381 4.1249 5.13613 4.40146 4.64385 4.89374C4.15156 5.38602 3.875 6.0537 3.875 6.7499C3.875 7.44609 4.15156 8.11377 4.64385 8.60605C5.13613 9.09834 5.80381 9.3749 6.5 9.3749C7.19619 9.3749 7.86387 9.09834 8.35616 8.60605C8.84844 8.11377 9.125 7.44609 9.125 6.7499C9.125 6.0537 8.84844 5.38602 8.35616 4.89374C7.86387 4.40146 7.19619 4.1249 6.5 4.1249Z" fill="#AA73E6"/>
</svg>
