<svg width="144" height="144" viewBox="0 0 144 144" fill="none" xmlns="http://www.w3.org/2000/svg">
<path d="M72 96.545C85.5561 96.545 96.5455 85.5556 96.5455 71.9996C96.5455 58.4435 85.5561 47.4541 72 47.4541C58.444 47.4541 47.4546 58.4435 47.4546 71.9996C47.4546 85.5556 58.444 96.545 72 96.545Z" stroke="white" stroke-width="2" stroke-miterlimit="10" stroke-dasharray="4 4"/>
<path d="M72 25.9774C77.0835 25.9774 81.2045 21.8564 81.2045 16.7729C81.2045 11.6894 77.0835 7.56836 72 7.56836C66.9164 7.56836 62.7954 11.6894 62.7954 16.7729C62.7954 21.8564 66.9164 25.9774 72 25.9774Z" stroke="white" stroke-width="2" stroke-miterlimit="10"/>
<path d="M72 136.432C77.0835 136.432 81.2045 132.311 81.2045 127.227C81.2045 122.143 77.0835 118.022 72 118.022C66.9164 118.022 62.7954 122.143 62.7954 127.227C62.7954 132.311 66.9164 136.432 72 136.432Z" stroke="white" stroke-width="2" stroke-miterlimit="10"/>
<path d="M130.295 25.977C130.295 31.0702 126.184 35.1816 121.091 35.1816C115.998 35.1816 111.886 31.0702 111.886 25.977C111.886 20.8838 115.998 16.7725 121.091 16.7725C126.184 16.7725 130.295 20.8838 130.295 25.977Z" stroke="white" stroke-width="2" stroke-miterlimit="10"/>
<path d="M136.432 72.0004C136.432 77.0936 132.321 81.205 127.227 81.205C122.134 81.205 118.023 77.0936 118.023 72.0004C118.023 66.9073 122.134 62.7959 127.227 62.7959C132.321 62.7959 136.432 66.9073 136.432 72.0004Z" stroke="white" stroke-width="2" stroke-miterlimit="10"/>
<path d="M25.9774 72.0004C25.9774 77.0936 21.8661 81.205 16.7729 81.205C11.6797 81.205 7.56836 77.0936 7.56836 72.0004C7.56836 66.9073 11.6797 62.7959 16.7729 62.7959C21.8661 62.7959 25.9774 66.9073 25.9774 72.0004Z" stroke="white" stroke-width="2" stroke-miterlimit="10"/>
<path d="M32.1137 25.977C32.1137 31.0702 28.0023 35.1816 22.9091 35.1816C17.816 35.1816 13.7046 31.0702 13.7046 25.977C13.7046 20.8838 17.816 16.7725 22.9091 16.7725C28.0023 16.7725 32.1137 20.8838 32.1137 25.977Z" stroke="white" stroke-width="2" stroke-miterlimit="10"/>
<path d="M130.295 118.023C130.295 123.116 126.184 127.227 121.091 127.227C115.998 127.227 111.886 123.116 111.886 118.023C111.886 112.93 115.998 108.818 121.091 108.818C126.184 108.818 130.295 112.93 130.295 118.023Z" stroke="white" stroke-width="2" stroke-miterlimit="10"/>
<path d="M32.1137 118.023C32.1137 123.116 28.0023 127.227 22.9091 127.227C17.816 127.227 13.7046 123.116 13.7046 118.023C13.7046 112.93 17.816 108.818 22.9091 108.818C28.0023 108.818 32.1137 112.93 32.1137 118.023Z" stroke="white" stroke-width="2" stroke-miterlimit="10"/>
<path d="M72 25.9775V41.3184" stroke="white" stroke-width="2" stroke-miterlimit="10"/>
<path d="M72 102.682V118.023" stroke="white" stroke-width="2" stroke-miterlimit="10"/>
<path d="M29.0454 32.1133L47.4545 50.5224" stroke="white" stroke-width="2" stroke-miterlimit="10"/>
<path d="M114.955 32.1133L96.5454 50.5224" stroke="white" stroke-width="2" stroke-miterlimit="10"/>
<path d="M29.0454 111.887L47.4545 93.4775" stroke="white" stroke-width="2" stroke-miterlimit="10"/>
<path d="M114.955 111.887L96.5454 93.4775" stroke="white" stroke-width="2" stroke-miterlimit="10"/>
<path d="M25.9771 72H41.318" stroke="white" stroke-width="2" stroke-miterlimit="10"/>
<path d="M102.682 72H118.023" stroke="white" stroke-width="2" stroke-miterlimit="10"/>
</svg>
