<svg width="144" height="144" viewBox="0 0 144 144" fill="none" xmlns="http://www.w3.org/2000/svg">
<g clip-path="url(#clip0_12_16321)">
<path d="M85.6093 69.5833L93.6139 64.7459L90.0292 56.0918L80.9482 58.3311L80.7843 58.3991C78.7398 55.4237 76.1912 52.9122 73.3085 50.9327L73.3797 50.7626L75.619 41.6816L66.9649 38.0969L62.1275 46.1015L62.0563 46.2716C58.62 45.6344 55.0445 45.6066 51.4907 46.2654L51.4227 46.0984L46.5853 38.0938L37.9311 41.6785L40.1704 50.7595L40.2385 50.9265C37.263 52.971 34.7515 55.5196 32.772 58.3991L32.6019 58.328L23.5209 56.0887L19.9362 64.7428L27.9408 69.5803L28.1109 69.6514C27.4738 73.0877 27.4459 76.6631 28.1047 80.217L27.9377 80.285L19.9331 85.1224L23.5179 93.7766L32.5988 91.5373L32.7658 91.4692C34.8103 94.4447 37.3589 96.9562 40.2385 98.9357L40.1673 99.1058L37.928 108.187L46.5822 111.771L51.4196 103.767L51.4907 103.597C54.927 104.234 58.5025 104.262 62.0563 103.603L62.1244 103.767L66.9618 111.771L75.6159 108.187L73.3766 99.1058L73.3085 98.9418C76.284 96.8974 78.7955 94.3488 80.775 91.4692L80.9451 91.5403L90.0261 93.7797L93.6108 85.1255L85.6062 80.2881L85.4361 80.217C86.0732 76.7807 86.1011 73.2021 85.4423 69.6514L85.6093 69.5833Z" stroke="white" stroke-width="2"/>
<path d="M61.1309 85.2789C66.8361 82.9157 69.5453 76.3749 67.1821 70.6697C64.8189 64.9645 58.2781 62.2552 52.5729 64.6185C46.8677 66.9817 44.1585 73.5225 46.5217 79.2277C48.8849 84.9329 55.4257 87.6421 61.1309 85.2789Z" stroke="white" stroke-width="2"/>
<path d="M14.4824 128.78H103.786V137.883L119.628 123.274L103.786 108.679V117.769" stroke="white" stroke-width="2"/>
<path d="M105.002 83.5231H126.155V92.635L142 78.0269L126.155 63.4219V72.5214" stroke="white" stroke-width="2"/>
<path d="M24.0093 14.2156H93.5022V5.11914L109.354 19.7242L93.5022 34.3292V25.2204" stroke="white" stroke-width="2"/>
<path d="M-2.31592 42.9336H25.4126" stroke="white" stroke-width="2" stroke-dasharray="4 4"/>
<path d="M25.7195 109.776H-6.46289" stroke="white" stroke-width="2" stroke-dasharray="4 4"/>
<path d="M103.785 117.769H85.8398" stroke="white" stroke-width="2" stroke-dasharray="4 4"/>
<path d="M126.155 72.5205H105.002" stroke="white" stroke-width="2" stroke-dasharray="4 4"/>
<path d="M93.5024 25.2207H47.7759" stroke="white" stroke-width="2" stroke-dasharray="4 4"/>
</g>
<defs>
<clipPath id="clip0_12_16321">
<rect width="144" height="144" fill="white"/>
</clipPath>
</defs>
</svg>
