<svg width="144" height="144" viewBox="0 0 144 144" fill="none" xmlns="http://www.w3.org/2000/svg">
<path d="M25.6772 69.9877V78.0438L38.7281 79.9068C39.5672 83.4514 40.9636 86.8417 42.8702 89.9466L34.9719 100.483L43.5147 109.026L54.0648 101.114C57.1664 103.024 60.5499 104.424 64.0912 105.267L65.9542 118.317H78.0383L79.9013 105.267C83.4459 104.427 86.8362 103.031 89.9411 101.124L100.478 109.023L109.021 100.48L101.109 89.9298C103.019 86.8283 104.419 83.4447 105.261 79.9034L118.312 78.0404V69.9844" stroke="white" stroke-width="2" stroke-linecap="round" stroke-linejoin="round"/>
<path d="M91.2208 78.0406C88.6562 86.2141 81.0198 92.142 72.0003 92.142C62.9809 92.142 55.2471 86.1369 52.7329 77.8828" stroke="white" stroke-width="2" stroke-linecap="round" stroke-linejoin="round"/>
<path d="M33.784 90.1279H25.7279V97.3549C24.3416 97.9155 23.0392 98.6674 21.861 99.5837L15.6075 95.9719L9.56543 106.435L15.8324 110.053C15.7216 110.792 15.6645 111.534 15.6578 112.279C15.6645 113.024 15.7216 113.769 15.8324 114.504L9.56543 118.123L15.6075 128.586L21.8744 124.967C23.0493 125.887 24.3483 126.639 25.7279 127.203V134.433H37.812V127.206C39.1983 126.645 40.5007 125.894 41.6789 124.977L47.9324 128.589L53.9745 118.126L47.7075 114.508" stroke="white" stroke-width="2" stroke-linecap="round" stroke-linejoin="round"/>
<path d="M38.7457 116.32C37.3527 118.724 34.7512 120.338 31.7738 120.338C27.3262 120.338 23.7178 116.73 23.7178 112.282C23.7178 109.305 25.3323 106.704 27.7357 105.311" stroke="white" stroke-width="2" stroke-linecap="round" stroke-linejoin="round"/>
<path d="M110.216 90.1279H118.272V97.3549C119.658 97.9155 120.961 98.6674 122.139 99.5837L128.392 95.9719L134.434 106.435L128.167 110.053C128.278 110.792 128.335 111.534 128.342 112.279C128.335 113.024 128.278 113.769 128.167 114.504L134.434 118.123L128.392 128.586L122.125 124.967C120.951 125.887 119.652 126.639 118.272 127.203V134.433H106.188V127.206C104.802 126.645 103.499 125.894 102.321 124.977L96.0674 128.589L90.0254 118.126L96.2923 114.508" stroke="white" stroke-width="2" stroke-linecap="round" stroke-linejoin="round"/>
<path d="M105.254 116.32C106.647 118.724 109.249 120.338 112.226 120.338C116.674 120.338 120.282 116.73 120.282 112.282C120.282 109.305 118.668 106.704 116.264 105.311" stroke="white" stroke-width="2" stroke-linecap="round" stroke-linejoin="round"/>
<path d="M55.8877 55.8895V41.7914C55.8877 37.327 59.4794 33.7354 63.9438 33.7354" stroke="white" stroke-width="2" stroke-linecap="round" stroke-linejoin="round"/>
<path d="M80.0562 33.7354C84.5206 33.7354 88.1122 37.327 88.1122 41.7914V55.8895" stroke="white" stroke-width="2" stroke-linecap="round" stroke-linejoin="round"/>
<path d="M72.0005 39.7777V37.7637" stroke="white" stroke-width="2" stroke-linecap="round" stroke-linejoin="round"/>
<path d="M72.0005 55.8891V47.833" stroke="white" stroke-width="2" stroke-linecap="round" stroke-linejoin="round"/>
<path d="M71.9999 9.56738C76.4643 9.56738 80.056 13.159 80.056 17.6234V21.6515C80.056 26.1159 76.4643 29.7075 71.9999 29.7075C67.5355 29.7075 63.9438 26.1159 63.9438 21.6515V17.6234C63.9438 13.159 67.5355 9.56738 71.9999 9.56738Z" stroke="white" stroke-width="2" stroke-linecap="round" stroke-linejoin="round"/>
<path d="M9.56543 69.9876V47.8334C9.56543 43.369 13.1571 39.7773 17.6215 39.7773" stroke="white" stroke-width="2" stroke-linecap="round" stroke-linejoin="round"/>
<path d="M33.7334 39.7773C38.1978 39.7773 41.7895 43.369 41.7895 47.8334V61.9315" stroke="white" stroke-width="2" stroke-linecap="round" stroke-linejoin="round"/>
<path d="M25.6772 45.8197V43.8057" stroke="white" stroke-width="2" stroke-linecap="round" stroke-linejoin="round"/>
<path d="M25.6772 61.932V53.876" stroke="white" stroke-width="2" stroke-linecap="round" stroke-linejoin="round"/>
<path d="M25.6781 15.6094C30.1425 15.6094 33.7342 19.201 33.7342 23.6654V27.6935C33.7342 32.1579 30.1425 35.7495 25.6781 35.7495C21.2137 35.7495 17.6221 32.1579 17.6221 27.6935V23.6654C17.6221 19.201 21.2137 15.6094 25.6781 15.6094Z" stroke="white" stroke-width="2" stroke-linecap="round" stroke-linejoin="round"/>
<path d="M102.21 61.9315V47.8334C102.21 43.369 105.802 39.7773 110.267 39.7773" stroke="white" stroke-width="2" stroke-linecap="round" stroke-linejoin="round"/>
<path d="M126.378 39.7773C130.843 39.7773 134.434 43.369 134.434 47.8334V69.9876" stroke="white" stroke-width="2" stroke-linecap="round" stroke-linejoin="round"/>
<path d="M118.322 45.8197V43.8057" stroke="white" stroke-width="2" stroke-linecap="round" stroke-linejoin="round"/>
<path d="M118.322 61.932V53.876" stroke="white" stroke-width="2" stroke-linecap="round" stroke-linejoin="round"/>
<path d="M118.323 15.6094C122.787 15.6094 126.379 19.201 126.379 23.6654V27.6935C126.379 32.1579 122.787 35.7495 118.323 35.7495C113.858 35.7495 110.267 32.1579 110.267 27.6935V23.6654C110.267 19.201 113.858 15.6094 118.323 15.6094Z" stroke="white" stroke-width="2" stroke-linecap="round" stroke-linejoin="round"/>
<path d="M35.7476 69.9873H108.252" stroke="white" stroke-width="2" stroke-linecap="round" stroke-linejoin="round"/>
<path d="M55.8877 69.9874V63.9453" stroke="white" stroke-width="2" stroke-linecap="round" stroke-linejoin="round"/>
<path d="M9.56543 78.0439V82.072" stroke="white" stroke-width="2" stroke-linecap="round" stroke-linejoin="round"/>
<path d="M134.435 78.0439V82.072" stroke="white" stroke-width="2" stroke-linecap="round" stroke-linejoin="round"/>
<path d="M88.1118 69.9874V63.9453" stroke="white" stroke-width="2" stroke-linecap="round" stroke-linejoin="round"/>
</svg>
