<svg width="144" height="144" viewBox="0 0 144 144" fill="none" xmlns="http://www.w3.org/2000/svg">
<path d="M97.0612 106.41C89.7203 102.767 81.1449 100.675 71.9976 100.675C57.0572 100.675 43.6923 106.237 34.688 115.013" stroke="white" stroke-width="2" stroke-dasharray="4 4"/>
<path d="M109.277 28.9834C100.3 37.7595 86.9072 43.3216 71.9669 43.3216C62.5035 43.3216 53.6421 41.0836 46.1582 37.2124" stroke="white" stroke-width="2" stroke-dasharray="4 4"/>
<path d="M71.9701 129.351C54.8495 129.351 39.4501 121.837 28.9556 109.938" stroke="white" stroke-width="2"/>
<path d="M71.9985 14.6455V129.354" stroke="white" stroke-width="2"/>
<path d="M57.6606 71.998H71.9989" stroke="white" stroke-width="2" stroke-dasharray="4 4"/>
<path d="M45.1006 92.0713C49.1725 113.838 59.6698 129.351 71.9706 129.351" stroke="white" stroke-width="2"/>
<path d="M71.9709 14.6455C56.1397 14.6455 40.4269 40.3113 40.4269 71.9983H51.8974L28.9563 100.675L6.01514 71.9983H14.618C14.6153 38.7331 38.7057 14.6455 71.9709 14.6455Z" stroke="white" stroke-width="2"/>
<path d="M72.0278 14.6455C89.1484 14.6455 104.548 22.1597 115.042 34.0591" stroke="white" stroke-width="2"/>
<path d="M86.3367 71.998H71.9985" stroke="white" stroke-width="2" stroke-dasharray="4 4"/>
<path d="M98.8979 51.9248C94.826 30.1577 84.3315 14.6455 72.0278 14.6455" stroke="white" stroke-width="2"/>
<path d="M72.0278 129.351C87.8562 129.351 103.572 103.686 103.572 71.9986H92.1013L115.042 43.3223L137.984 71.9986H129.381C129.381 105.264 105.293 129.351 72.0278 129.351Z" stroke="white" stroke-width="2"/>
</svg>
