<svg width="93" height="86" viewBox="0 0 93 86" fill="none" xmlns="http://www.w3.org/2000/svg">
<g clip-path="url(#clip0_22_6705)">
<path d="M13.5637 7.81816H62.0012V1.95453L71.6887 11.7273L62.0012 21.5V15.6363H27.1262" stroke="white" stroke-width="2" stroke-linejoin="round"/>
<path d="M67.8137 43H81.3762V37.1364L91.0637 46.9091L81.3762 56.6818V50.8182H69.7512" stroke="white" stroke-width="2" stroke-linejoin="round"/>
<path d="M58.1262 70.3636H67.8137V64.5L77.5012 74.2727L67.8137 84.0455V78.1818H29.0637" stroke="white" stroke-width="2" stroke-linejoin="round"/>
<path d="M0.0012207 66.4545H23.2512" stroke="white" stroke-width="2" stroke-linejoin="round"/>
<path d="M40.6887 52.7727C43.8989 52.7727 46.5012 50.1475 46.5012 46.9091C46.5012 43.6707 43.8989 41.0455 40.6887 41.0455C37.4786 41.0455 34.8762 43.6707 34.8762 46.9091C34.8762 50.1475 37.4786 52.7727 40.6887 52.7727Z" stroke="white" stroke-width="2" stroke-miterlimit="10"/>
<path d="M63.6093 41.6904L61.1875 35.3186L55.1618 37.1168C54.0575 35.4554 52.6818 34.0091 51.1318 32.8559L53.2243 26.875L47.0437 24.0995L44.0406 29.67C42.1418 29.2986 40.1656 29.2204 38.2087 29.5136L35.4962 23.8063L29.18 26.2495L30.9625 32.3282C29.3156 33.4422 27.8818 34.83 26.7193 36.3936L20.7906 34.2827L18.0393 40.5177L23.5612 43.5472C23.1931 45.4627 23.1156 47.4563 23.4062 49.4304L17.7487 52.1668L20.1706 58.5386L26.1962 56.7404C27.3006 58.4018 28.6762 59.8482 30.2262 61.0013L28.1337 66.9822L34.3143 69.7577L37.3175 64.1872C39.2162 64.5586 41.1925 64.6368 43.1493 64.3436L45.8618 70.0509L52.1781 67.6077L50.3956 61.5291C52.0425 60.415 53.4762 59.0272 54.6193 57.4636L60.5481 59.5745L63.2993 53.3395L57.7775 50.31C58.1456 48.3945 58.2231 46.4009 57.9325 44.4268L63.59 41.6904H63.6093Z" stroke="white" stroke-width="2" stroke-linejoin="round"/>
<path d="M23.2512 25.4091H5.81372" stroke="white" stroke-width="2" stroke-linejoin="round"/>
</g>
<defs>
<clipPath id="clip0_22_6705">
<rect width="93" height="86" fill="white" transform="translate(0.0012207)"/>
</clipPath>
</defs>
</svg>
