<svg width="96" height="96" viewBox="0 0 96 96" fill="none" xmlns="http://www.w3.org/2000/svg">
<path d="M85.8192 38.6442L60.6361 63.5693L51.1055 54.1364L43.1671 61.9712L52.7201 71.4264L60.6361 79.2612L93.7576 46.5012L85.8192 38.6442Z" stroke="white" stroke-width="2" stroke-linejoin="round"/>
<path d="M74.5169 37.5122V13.0975L65.547 4.21948H7.24243V90.7805H74.5169V77.4634" stroke="white" stroke-width="2" stroke-linecap="round" stroke-linejoin="round"/>
<path d="M61.0621 10.8781V17.5366H67.7896" stroke="white" stroke-width="2" stroke-linecap="round" stroke-linejoin="round"/>
<path d="M31.9098 19.7561C38.0991 19.7561 43.1222 24.7278 43.1222 30.8537C43.1222 36.9795 38.0991 41.9512 31.9098 41.9512C25.7206 41.9512 20.6974 36.9795 20.6974 30.8537" stroke="white" stroke-width="2" stroke-linejoin="round"/>
<path d="M16.2124 26.4146C16.2124 20.2888 21.2356 15.3171 27.4248 15.3171V26.4146H16.2124Z" stroke="white" stroke-width="2" stroke-linejoin="round"/>
<path d="M52.0922 28.6342H65.5471" stroke="white" stroke-width="2" stroke-linecap="round" stroke-linejoin="round"/>
<path d="M52.0922 37.5122H58.8196" stroke="white" stroke-width="2" stroke-linecap="round" stroke-linejoin="round"/>
<path d="M18.455 70.8049V73.0244C18.455 75.4659 20.4732 77.4634 22.9399 77.4634H27.4249C29.8916 77.4634 31.9099 75.4659 31.9099 73.0244V71.7815C31.9099 69.8727 30.6765 68.1637 28.8377 67.5644L21.5272 65.1451C19.6883 64.5459 18.455 62.8368 18.455 60.928V59.6851C18.455 57.2437 20.4732 55.2461 22.9399 55.2461H27.4249C29.8916 55.2461 31.9099 57.2437 31.9099 59.6851V61.9046" stroke="white" stroke-width="2" stroke-miterlimit="10"/>
<path d="M25.1824 55.2683V48.6097" stroke="white" stroke-width="2" stroke-miterlimit="10"/>
<path d="M25.1824 77.4634V84.122" stroke="white" stroke-width="2" stroke-miterlimit="10"/>
</svg>
