<svg width="96" height="96" viewBox="0 0 96 96" fill="none" xmlns="http://www.w3.org/2000/svg">
<g clip-path="url(#clip0_22_6683)">
<path d="M18.1215 68.356V78.4084H78.5241V2.0105H26.1752L18.1215 10.0524V22.1152" stroke="white" stroke-width="2" stroke-linecap="round" stroke-linejoin="round"/>
<path d="M25.2893 84.7815L24.9671 88.0385L86.2356 93.9895L93.9872 14.4553L85.0678 13.5908" stroke="white" stroke-width="2" stroke-linecap="round" stroke-linejoin="round"/>
<path d="M30.3429 7.94135L30.3228 13.9728L24.2825 13.9527" stroke="white" stroke-width="2" stroke-linecap="round" stroke-linejoin="round"/>
<path d="M25.1685 62.3246C34.6203 62.3246 42.2826 54.6736 42.2826 45.2356C42.2826 35.7976 34.6203 28.1466 25.1685 28.1466C15.7166 28.1466 8.05438 35.7976 8.05438 45.2356C8.05438 54.6736 15.7166 62.3246 25.1685 62.3246Z" stroke="white" stroke-width="2" stroke-linecap="round" stroke-linejoin="round"/>
<path d="M14.0946 58.3036L2.0141 70.3665" stroke="white" stroke-width="2" stroke-linecap="round" stroke-linejoin="round"/>
<path d="M66.4436 24.1257H40.2691" stroke="white" stroke-width="2" stroke-linecap="round" stroke-linejoin="round"/>
<path d="M66.4436 32.1675H46.3094" stroke="white" stroke-width="2" stroke-linecap="round" stroke-linejoin="round"/>
<path d="M66.4436 40.2094H50.3362" stroke="white" stroke-width="2" stroke-linecap="round" stroke-linejoin="round"/>
<path d="M48.3228 58.3036V66.3455" stroke="white" stroke-width="2" stroke-linecap="round" stroke-linejoin="round"/>
<path d="M56.3765 52.2723V66.3456" stroke="white" stroke-width="2" stroke-linecap="round" stroke-linejoin="round"/>
<path d="M64.4302 62.3246V66.3455" stroke="white" stroke-width="2" stroke-linecap="round" stroke-linejoin="round"/>
</g>
<defs>
<clipPath id="clip0_22_6683">
<rect width="96" height="96" fill="white" transform="translate(0.000671387)"/>
</clipPath>
</defs>
</svg>
