<svg width="96" height="96" viewBox="0 0 96 96" fill="none" xmlns="http://www.w3.org/2000/svg">
<g clip-path="url(#clip0_22_6827)">
<path d="M58.0007 11L49.5007 2L41.0007 11" stroke="white" stroke-width="2" stroke-miterlimit="10"/>
<path d="M49.0007 2V39" stroke="white" stroke-width="2" stroke-miterlimit="10"/>
<path d="M58.0007 87L49.5007 96L41.0007 87" stroke="white" stroke-width="2" stroke-miterlimit="10"/>
<path d="M49.0007 96V60" stroke="white" stroke-width="2" stroke-miterlimit="10"/>
<path d="M87.0007 58L96.0007 49.5L87.0007 41" stroke="white" stroke-width="2" stroke-miterlimit="10"/>
<path d="M96.0007 49H60.0007" stroke="white" stroke-width="2" stroke-miterlimit="10"/>
<path d="M11.0007 58L2.00067 49.5L11.0007 41" stroke="white" stroke-width="2" stroke-miterlimit="10"/>
<path d="M2.00067 49H39.0007" stroke="white" stroke-width="2" stroke-miterlimit="10"/>
<path d="M58.0007 41L53.0007 45" stroke="white" stroke-width="2" stroke-miterlimit="10"/>
<path d="M70.0007 39V28H60.0007" stroke="white" stroke-width="2" stroke-miterlimit="10"/>
<path d="M70.0007 28L62.0007 36" stroke="white" stroke-width="2" stroke-miterlimit="10"/>
<path d="M41.0007 41L45.0007 45" stroke="white" stroke-width="2" stroke-miterlimit="10"/>
<path d="M28.0007 39V28H39.0007" stroke="white" stroke-width="2" stroke-miterlimit="10"/>
<path d="M28.0007 28L36.0007 36" stroke="white" stroke-width="2" stroke-miterlimit="10"/>
<path d="M58.0007 58L53.0007 53" stroke="white" stroke-width="2" stroke-miterlimit="10"/>
<path d="M70.0007 60V70H60.0007" stroke="white" stroke-width="2" stroke-miterlimit="10"/>
<path d="M70.0007 70L62.0007 62" stroke="white" stroke-width="2" stroke-miterlimit="10"/>
<path d="M41.0007 58L45.0007 53" stroke="white" stroke-width="2" stroke-miterlimit="10"/>
<path d="M28.0007 60V70H39.0007" stroke="white" stroke-width="2" stroke-miterlimit="10"/>
<path d="M28.0007 70L36.0007 62" stroke="white" stroke-width="2" stroke-miterlimit="10"/>
</g>
<defs>
<clipPath id="clip0_22_6827">
<rect width="96" height="96" fill="white" transform="translate(0.000671387)"/>
</clipPath>
</defs>
</svg>
