<svg width="96" height="96" viewBox="0 0 96 96" fill="none" xmlns="http://www.w3.org/2000/svg">
<g clip-path="url(#clip0_8435_558726)">
<path d="M31.4789 7.39941C19.7989 15.8994 16.5389 31.9194 23.9589 44.3194C23.9589 44.3194 25.2589 46.3194 25.7789 46.9994L29.7589 52.6994C33.0589 57.2194 34.8189 59.9594 34.8189 65.5394C34.8189 69.0994 37.6989 71.9794 41.2589 71.9794H47.9989" stroke="white" stroke-width="2" stroke-miterlimit="10" stroke-linecap="round"/>
<path d="M56.2372 71.9998C58.9772 71.9198 61.1372 69.6598 61.0972 66.9198L61.1772 65.5598C61.1772 59.9798 62.9572 57.2198 66.2372 52.7198L70.1972 47.0198C70.7172 46.3398 72.0372 44.3198 72.0372 44.3198C74.9772 39.4198 76.3372 33.7398 75.9372 28.0398C74.8572 12.5998 61.4572 0.979815 46.0172 2.05981C43.1372 2.25981 40.2972 2.91981 37.6172 3.97981" stroke="white" stroke-width="2" stroke-miterlimit="10" stroke-linecap="round"/>
<path d="M53.9387 72H62.2787V76.82C62.2787 78.58 60.8587 80 59.0987 80H36.8988C35.1388 80 33.7188 78.58 33.7188 76.82V72H47.9987" stroke="white" stroke-width="2" stroke-miterlimit="10" stroke-linecap="round"/>
<path d="M47.9987 88H37.7188C35.5187 88 33.7188 86.2 33.7188 84C33.7188 81.8 35.5187 80 37.7188 80H52.7587" stroke="white" stroke-width="2" stroke-miterlimit="10" stroke-linecap="round"/>
<path d="M55.94 80H58.28C60.48 80 62.28 81.8 62.28 84C62.28 86.2 60.48 88 58.28 88H55.94L51.18 94H44.84L38.5 87.66" stroke="white" stroke-width="2" stroke-miterlimit="10"/>
<path d="M75.998 30C75.998 43.96 65.718 55.78 51.918 57.72" stroke="white" stroke-width="2" stroke-miterlimit="10" stroke-linecap="round"/>
<path d="M46 60C47.1046 60 48 59.1046 48 58C48 56.8954 47.1046 56 46 56C44.8954 56 44 56.8954 44 58C44 59.1046 44.8954 60 46 60Z" fill="white"/>
<path d="M62 40L48 46L34 40V20L48 14L62 20V40Z" stroke="white" stroke-width="2" stroke-linecap="round" stroke-linejoin="round" stroke-dasharray="4 4"/>
<path d="M62 20L48 26L34 20" stroke="white" stroke-width="2" stroke-linecap="round" stroke-linejoin="round" stroke-dasharray="4 4"/>
<path d="M2 30H14" stroke="white" stroke-width="2" stroke-linecap="round" stroke-linejoin="round"/>
<path d="M82 30H94" stroke="white" stroke-width="2" stroke-linecap="round" stroke-linejoin="round"/>
<path d="M8.16016 53L18.5602 47" stroke="white" stroke-width="2" stroke-linecap="round" stroke-linejoin="round"/>
<path d="M77.4414 13L87.8414 7" stroke="white" stroke-width="2" stroke-linecap="round" stroke-linejoin="round"/>
<path d="M87.8414 53L77.4414 47" stroke="white" stroke-width="2" stroke-linecap="round" stroke-linejoin="round"/>
<path d="M18.5602 13L8.16016 7" stroke="white" stroke-width="2" stroke-linecap="round" stroke-linejoin="round"/>
</g>
<defs>
<clipPath id="clip0_8435_558726">
<rect width="96" height="96" fill="white"/>
</clipPath>
</defs>
</svg>
