<svg width="96" height="96" viewBox="0 0 96 96" fill="none" xmlns="http://www.w3.org/2000/svg">
<g clip-path="url(#clip0_8435_558723)">
<path d="M93.9588 22.4678H44.9375V59.2337H93.9588V22.4678Z" stroke="white" stroke-width="2" stroke-linejoin="round"/>
<path d="M44.9375 53.1061L61.2779 36.7656L75.5758 51.0635" stroke="white" stroke-width="2" stroke-linejoin="round"/>
<path d="M69.4453 44.9363L75.573 38.8086L93.956 57.1916" stroke="white" stroke-width="2" stroke-linejoin="round"/>
<path d="M79.6602 32.6807H83.7453" stroke="white" stroke-width="2" stroke-linejoin="round"/>
<path d="M55.1494 63.3194V87.83H2.04297V49.0215H40.8515" stroke="white" stroke-width="2" stroke-linejoin="round" stroke-dasharray="4 4"/>
<path d="M57.1905 18.3834V2.04297H14.2969V44.9366" stroke="white" stroke-width="2" stroke-linejoin="round"/>
<path d="M20.4241 75.5747L12.2539 69.447L20.4241 63.3193" stroke="white" stroke-width="2" stroke-linejoin="round"/>
<path d="M36.7656 75.5747L44.9358 69.447L36.7656 63.3193" stroke="white" stroke-width="2" stroke-linejoin="round"/>
<path d="M32.6819 59.2344L24.5117 79.6599" stroke="white" stroke-width="2" stroke-linejoin="round"/>
<path d="M24.5117 14.2979H46.9798" stroke="white" stroke-width="2" stroke-linejoin="round"/>
<path d="M24.5117 22.4678H38.8096" stroke="white" stroke-width="2" stroke-linejoin="round"/>
<path d="M24.5117 30.6387H38.8096" stroke="white" stroke-width="2" stroke-linejoin="round"/>
<path d="M24.5117 38.8086H38.8096" stroke="white" stroke-width="2" stroke-linejoin="round"/>
</g>
<defs>
<clipPath id="clip0_8435_558723">
<rect width="96" height="96" fill="white"/>
</clipPath>
</defs>
</svg>
