<svg width="96" height="96" viewBox="0 0 96 96" fill="none" xmlns="http://www.w3.org/2000/svg">
<path d="M10.999 33.0427C12.9819 28.0651 15.9586 23.5438 19.7473 19.7551C23.5361 15.9664 28.0573 12.9897 33.0349 11.0068" stroke="white" stroke-width="2" stroke-miterlimit="10"/>
<path d="M47.4916 92.9338C50.9133 92.9338 53.6872 90.1599 53.6872 86.7381C53.6872 83.3164 50.9133 80.5425 47.4916 80.5425C44.0698 80.5425 41.2959 83.3164 41.2959 86.7381C41.2959 90.1599 44.0698 92.9338 47.4916 92.9338Z" stroke="white" stroke-width="2" stroke-miterlimit="10" stroke-dasharray="4 4"/>
<path d="M47.4916 14.4558C50.9133 14.4558 53.6872 11.6819 53.6872 8.26011C53.6872 4.83834 50.9133 2.06445 47.4916 2.06445C44.0698 2.06445 41.2959 4.83834 41.2959 8.26011C41.2959 11.6819 44.0698 14.4558 47.4916 14.4558Z" stroke="white" stroke-width="2" stroke-miterlimit="10" stroke-dasharray="4 4"/>
<path d="M86.7308 53.695C90.1526 53.695 92.9265 50.9211 92.9265 47.4994C92.9265 44.0776 90.1526 41.3037 86.7308 41.3037C83.309 41.3037 80.5352 44.0776 80.5352 47.4994C80.5352 50.9211 83.309 53.695 86.7308 53.695Z" stroke="white" stroke-width="2" stroke-miterlimit="10" stroke-dasharray="4 4"/>
<path d="M8.25229 53.695C11.6741 53.695 14.4479 50.9211 14.4479 47.4994C14.4479 44.0776 11.6741 41.3037 8.25229 41.3037C4.83053 41.3037 2.05664 44.0776 2.05664 47.4994C2.05664 50.9211 4.83053 53.695 8.25229 53.695Z" stroke="white" stroke-width="2" stroke-miterlimit="10" stroke-dasharray="4 4"/>
<path d="M22.6055 8.75586L33.0348 11.0069L30.7631 21.4363" stroke="white" stroke-width="2" stroke-miterlimit="10"/>
<path d="M84.6648 62.4307C82.6915 67.4139 79.7182 71.9401 75.9283 75.73C72.1384 79.5199 67.6122 82.4932 62.6289 84.4665" stroke="white" stroke-width="2" stroke-miterlimit="10"/>
<path d="M73.0583 86.7382L62.6289 84.4665L64.9006 74.0371" stroke="white" stroke-width="2" stroke-miterlimit="10"/>
<path d="M33.1384 84.6726C28.1589 82.6929 23.636 79.7173 19.8469 75.9282C16.0578 72.1391 13.0822 67.6162 11.1025 62.6367" stroke="white" stroke-width="2" stroke-miterlimit="10"/>
<path d="M8.83008 72.963L11.1018 62.5337L21.5312 64.8054" stroke="white" stroke-width="2" stroke-miterlimit="10"/>
<path d="M62.5264 10.9033C67.5348 12.8828 72.0837 15.8689 75.8918 19.677C79.6999 23.4851 82.686 28.034 84.6655 33.0425" stroke="white" stroke-width="2" stroke-miterlimit="10"/>
<path d="M86.8339 22.5098L84.5622 32.9391L74.1328 30.688" stroke="white" stroke-width="2" stroke-miterlimit="10"/>
<path d="M53.7897 47.4994C53.7897 48.7247 53.4264 49.9226 52.7456 50.9415C52.0648 51.9604 51.0972 52.7545 49.9651 53.2234C48.833 53.6923 47.5872 53.815 46.3854 53.576C45.1835 53.3369 44.0796 52.7468 43.2131 51.8804C42.3466 51.0139 41.7565 49.9099 41.5175 48.7081C41.2784 47.5062 41.4011 46.2605 41.8701 45.1284C42.339 43.9963 43.1331 43.0286 44.152 42.3479C45.1709 41.6671 46.3687 41.3037 47.5941 41.3037C49.2373 41.3037 50.8132 41.9565 51.9751 43.1184C53.137 44.2803 53.7897 45.8562 53.7897 47.4994Z" stroke="white" stroke-width="2" stroke-linejoin="round"/>
<path d="M61.9481 47.4991C61.9465 46.3793 61.8149 45.2635 61.5557 44.1741L65.6862 41.8197L61.5557 34.6741L57.4253 37.0078C55.7719 35.4331 53.7691 34.2724 51.5808 33.6208V28.9121H43.3199V33.6208C41.1499 34.2726 39.1672 35.4339 37.5372 37.0078L33.4068 34.6328L29.2764 41.7784L33.4068 44.1741C33.1531 45.264 33.0284 46.38 33.0351 47.4991C33.0451 48.6264 33.1837 49.7488 33.4481 50.8447L29.3177 53.261L33.4481 60.4067L37.5786 58.011C39.2028 59.5467 41.1609 60.6848 43.2992 61.336V66.086H51.5601V61.3154C53.7242 60.6816 55.7063 59.5419 57.3427 57.9904L61.4731 60.3654L65.6035 53.2197L61.4731 50.8654C61.7652 49.7663 61.9247 48.6361 61.9481 47.4991V47.4991Z" stroke="white" stroke-width="2" stroke-linejoin="round"/>
</svg>
