<svg width="96" height="96" viewBox="0 0 96 96" fill="none" xmlns="http://www.w3.org/2000/svg">
<path d="M73.1382 23.5774L57.0635 14.062" stroke="white" stroke-width="2" stroke-linejoin="round" stroke-dasharray="4 4"/>
<path d="M81.2832 57.7702V38.2314" stroke="white" stroke-width="2" stroke-linejoin="round" stroke-dasharray="4 4"/>
<path d="M14.7139 38.2314V57.7702" stroke="white" stroke-width="2" stroke-linejoin="round" stroke-dasharray="4 4"/>
<path d="M38.9341 14.062L22.8594 23.5774" stroke="white" stroke-width="2" stroke-linejoin="round" stroke-dasharray="4 4"/>
<path d="M73.1382 72.6782L57.0635 82.1936" stroke="white" stroke-width="2" stroke-linejoin="round" stroke-dasharray="4 4"/>
<path d="M38.9341 82.1936L22.8594 72.6782" stroke="white" stroke-width="2" stroke-linejoin="round" stroke-dasharray="4 4"/>
<path d="M53.8727 8.92316C53.8727 10.0825 53.5282 11.2158 52.8827 12.1797C52.2373 13.1437 51.32 13.895 50.2467 14.3386C49.1734 14.7823 47.9923 14.8983 46.8529 14.6722C45.7135 14.446 44.6669 13.8877 43.8454 13.068C43.0239 12.2482 42.4645 11.2037 42.2379 10.0667C42.0112 8.92965 42.1275 7.75107 42.5721 6.68C43.0167 5.60892 43.7695 4.69346 44.7355 4.04937C45.7014 3.40529 46.8371 3.06152 47.9988 3.06152C49.5567 3.06152 51.0507 3.67908 52.1523 4.77835C53.2538 5.87762 53.8727 7.36856 53.8727 8.92316V8.92316Z" stroke="white" stroke-width="2" stroke-linejoin="round"/>
<path d="M47.881 92.9397C47.1144 92.9426 46.3549 92.792 45.6475 92.4969C44.9401 92.2019 44.2992 91.7683 43.7625 91.2219C43.2259 90.6754 42.8045 90.0272 42.5232 89.3155C42.2419 88.6038 42.1064 87.843 42.1247 87.0781C42.1554 85.5128 42.8002 84.022 43.9205 82.926C45.0408 81.83 46.5471 81.2162 48.116 81.2165C48.8834 81.2109 49.6441 81.3596 50.3528 81.6537C51.0614 81.9478 51.7034 82.3813 52.2406 82.9283C52.7778 83.4753 53.1991 84.1246 53.4794 84.8376C53.7598 85.5505 53.8934 86.3125 53.8723 87.0781C53.8416 88.6434 53.1968 90.1342 52.0765 91.2302C50.9563 92.3262 49.4499 92.94 47.881 92.9397Z" stroke="white" stroke-width="2" stroke-linejoin="round"/>
<path d="M87.1578 67.5399C87.1578 68.6992 86.8133 69.8325 86.1679 70.7964C85.5225 71.7604 84.6051 72.5117 83.5318 72.9553C82.4585 73.399 81.2775 73.515 80.1381 73.2889C78.9987 73.0627 77.952 72.5044 77.1306 71.6847C76.3091 70.8649 75.7497 69.8204 75.523 68.6834C75.2964 67.5464 75.4127 66.3678 75.8573 65.2967C76.3019 64.2256 77.0547 63.3102 78.0206 62.6661C78.9866 62.022 80.1222 61.6782 81.284 61.6782C82.8418 61.6782 84.3359 62.2958 85.4374 63.3951C86.539 64.4943 87.1578 65.9853 87.1578 67.5399V67.5399Z" stroke="white" stroke-width="2" stroke-linejoin="round"/>
<path d="M20.5875 67.5399C20.5875 69.0945 19.9687 70.5854 18.8671 71.6847C17.7655 72.7839 16.2715 73.4015 14.7137 73.4015C13.1558 73.4015 11.6618 72.7839 10.5602 71.6847C9.45869 70.5854 8.83984 69.0945 8.83984 67.5399C8.83984 65.9853 9.45869 64.4943 10.5602 63.3951C11.6618 62.2958 13.1558 61.6782 14.7137 61.6782C16.2715 61.6782 17.7655 62.2958 18.8671 63.3951C19.9687 64.4943 20.5875 65.9853 20.5875 67.5399V67.5399Z" stroke="white" stroke-width="2" stroke-linejoin="round"/>
<path d="M20.5875 28.4617C20.5875 29.6211 20.243 30.7544 19.5976 31.7183C18.9522 32.6822 18.0348 33.4335 16.9615 33.8772C15.8882 34.3208 14.7072 34.4369 13.5678 34.2107C12.4283 33.9846 11.3817 33.4263 10.5602 32.6065C9.73877 31.7868 9.17935 30.7423 8.95271 29.6053C8.72607 28.4682 8.84239 27.2896 9.28696 26.2186C9.73154 25.1475 10.4844 24.232 11.4503 23.5879C12.4163 22.9439 13.5519 22.6001 14.7137 22.6001C16.2715 22.6001 17.7655 23.2177 18.8671 24.3169C19.9687 25.4162 20.5875 26.9071 20.5875 28.4617V28.4617Z" stroke="white" stroke-width="2" stroke-linejoin="round"/>
<path d="M47.9982 71.4473C52.6452 71.4473 57.1878 70.0722 61.0515 67.4958C64.9153 64.9195 67.9268 61.2577 69.7051 56.9734C71.4834 52.6891 71.9487 47.9748 71.0421 43.4266C70.1355 38.8784 67.8978 34.7006 64.6119 31.4216C61.326 28.1425 57.1396 25.9094 52.5819 25.0047C48.0243 24.1 43.3002 24.5644 39.007 26.339C34.7138 28.1136 31.0443 31.1188 28.4626 34.9746C25.8809 38.8303 24.5029 43.3635 24.5029 48.0008C24.5029 54.2192 26.9783 60.1829 31.3846 64.58C35.7908 68.977 41.7669 71.4473 47.9982 71.4473Z" stroke="white" stroke-width="2" stroke-linejoin="round"/>
<path d="M47.9977 24.5542C41.5169 24.5542 36.25 35.0465 36.25 48.0008C36.25 60.955 41.5169 71.4473 47.9977 71.4473C54.4784 71.4473 59.7453 60.955 59.7453 48.0008C59.7453 35.0465 54.4784 24.5542 47.9977 24.5542Z" stroke="white" stroke-width="2" stroke-linejoin="round"/>
<path d="M69.5367 40.1851H26.4619" stroke="white" stroke-width="2" stroke-linejoin="round"/>
<path d="M69.5367 55.8164H26.4619" stroke="white" stroke-width="2" stroke-linejoin="round"/>
<path d="M47.998 24.5542V71.4473" stroke="white" stroke-width="2" stroke-linejoin="round"/>
<path d="M24.3459 61.2866L19.8818 64.237" stroke="white" stroke-width="2" stroke-linejoin="round"/>
<path d="M71.6113 61.2866L76.095 64.237" stroke="white" stroke-width="2" stroke-linejoin="round"/>
<path d="M71.6113 34.7145L76.095 31.7642" stroke="white" stroke-width="2" stroke-linejoin="round"/>
<path d="M24.3459 34.7145L19.8818 31.7642" stroke="white" stroke-width="2" stroke-linejoin="round"/>
<path d="M87.1578 28.4617C87.1578 29.6211 86.8133 30.7544 86.1679 31.7183C85.5225 32.6822 84.6051 33.4335 83.5318 33.8772C82.4585 34.3208 81.2775 34.4369 80.1381 34.2107C78.9987 33.9846 77.952 33.4263 77.1306 32.6065C76.3091 31.7868 75.7497 30.7423 75.523 29.6053C75.2964 28.4682 75.4127 27.2896 75.8573 26.2186C76.3019 25.1475 77.0547 24.232 78.0206 23.5879C78.9866 22.9439 80.1222 22.6001 81.284 22.6001C82.8418 22.6001 84.3359 23.2177 85.4374 24.3169C86.539 25.4162 87.1578 26.9071 87.1578 28.4617Z" stroke="white" stroke-width="2" stroke-linejoin="round"/>
<path d="M47.998 14.7847V20.6463" stroke="white" stroke-width="2" stroke-linejoin="round"/>
<path d="M47.998 81.2166V75.355" stroke="white" stroke-width="2" stroke-linejoin="round"/>
</svg>
