<svg width="96" height="96" viewBox="0 0 96 96" fill="none" xmlns="http://www.w3.org/2000/svg">
<path d="M50.0817 16.7518C50.0817 12.74 50.4452 4.6543 39.9992 4.6543C31.6925 4.6543 24.1093 13.5456 23.8681 18.7686C17.5965 19.5962 11.6482 25.7253 12.4758 33.5479C6.50743 36.4709 2.19241 52.0576 9.97483 59.4582C8.56267 65.8102 12.9197 80.3885 25.905 79.2395C29.071 96.2384 50.1018 95.7342 50.1018 83.2713V78.01" stroke="white" stroke-width="2"/>
<path d="M37.9835 30.868C30.6432 30.868 23.8691 29.7189 23.8691 18.7705" stroke="white" stroke-width="2"/>
<path d="M24.5947 44.7391C27.9817 46.9569 33.7291 46.0909 36.8146 42.8428C39.0927 40.4441 41.5334 36.6534 44.0325 36.9347H73.4029" stroke="white" stroke-width="2"/>
<path d="M40.001 77.411C41.4935 73.9436 45.0412 73.0356 50.0834 73.0356H64.7275" stroke="white" stroke-width="2"/>
<path d="M25.8867 79.2595C25.8867 71.5173 30.2822 61.4951 41.5539 61.4951" stroke="white" stroke-width="2"/>
<path d="M18.2236 38.731C21.733 38.731 24.5756 41.2118 24.5756 44.7395C24.5756 47.5017 22.8017 50.2237 20.341 51.0915" stroke="white" stroke-width="2"/>
<path d="M56.3978 20.7852H50.0841C44.5999 20.7852 39.2162 19.9576 37.2998 15.2607" stroke="white" stroke-width="2"/>
<path d="M50.1025 24.8169V33.0597" stroke="white" stroke-width="2"/>
<path d="M50.084 42.9653V68.0371" stroke="white" stroke-width="2"/>
<path d="M50.084 51.1187H58.3268" stroke="white" stroke-width="2"/>
<path d="M84.0886 45.6034C88.886 44.6406 91.9953 39.9694 91.0325 35.172C90.0698 30.3747 85.3985 27.2653 80.6012 28.2281C75.8038 29.1909 72.6945 33.8622 73.6573 38.6595C74.6201 43.4568 79.2913 46.568 84.0886 45.6034Z" stroke="white" stroke-width="2" stroke-dasharray="4 4"/>
<path d="M74.8069 81.7952C79.6463 81.0645 82.9766 76.5502 82.2459 71.7109C81.5151 66.8715 77.001 63.5412 72.1616 64.2719C67.3223 65.0027 63.9919 69.5168 64.7226 74.3562C65.4534 79.1955 69.9694 82.5259 74.8069 81.7952Z" stroke="white" stroke-width="2" stroke-dasharray="4 4"/>
<path d="M65.5538 25.9757C68.4201 24.2585 69.3518 20.5445 67.6364 17.6782C65.9191 14.8118 62.2051 13.8801 59.3388 15.5956C56.4725 17.3128 55.5408 21.0268 57.2562 23.8931C58.9735 26.7595 62.6874 27.6911 65.5538 25.9757Z" stroke="white" stroke-width="2" stroke-dasharray="4 4"/>
<path d="M67.9427 56.0037C70.641 54.0325 71.2292 50.2491 69.2581 47.5508C67.2869 44.8526 63.5035 44.2643 60.8052 46.2355C58.1069 48.2067 57.5187 51.9901 59.4899 54.6883C61.4611 57.3848 65.2445 57.9748 67.9427 56.0037Z" stroke="white" stroke-width="2" stroke-dasharray="4 4"/>
</svg>
