<svg width="96" height="96" viewBox="0 0 96 96" fill="none" xmlns="http://www.w3.org/2000/svg">
<g clip-path="url(#clip0_8447_564275)">
<g clip-path="url(#clip1_8447_564275)">
<path d="M77.1223 79.7178C79.4477 84.7416 81.9713 90.1916 81.9713 90.1916L76.057 88.6447L73.432 94.2017C73.432 94.2017 71.7612 90.5923 69.8828 86.5391" stroke="white" stroke-width="2" stroke-linecap="round" stroke-linejoin="round"/>
<path d="M58.4636 79.6924C56.135 84.7242 53.6035 90.1917 53.6035 90.1917L59.5178 88.6449L62.1444 94.2018C62.1444 94.2018 65.31 87.3646 67.8193 81.9449" stroke="white" stroke-width="2" stroke-linecap="round" stroke-linejoin="round"/>
<path d="M80.1366 66.3034L79.1174 67.5055C78.5483 68.176 78.1441 69.4323 78.2122 70.3103L78.3343 71.8859C78.4025 72.7655 77.7684 73.6436 76.9172 73.8495L75.3891 74.2183C74.5378 74.4242 73.4773 75.2 73.0208 75.9519L72.2013 77.3024C71.7448 78.0543 70.7191 78.3896 69.9107 78.0527L68.4587 77.4445C67.6503 77.1061 66.3393 77.1061 65.5309 77.4445L64.0789 78.0527C63.2704 78.3912 62.2448 78.0559 61.7883 77.3024L60.9688 75.9519C60.5122 75.2 59.4518 74.4226 58.6005 74.2183L57.0724 73.8495C56.2212 73.6436 55.5871 72.7655 55.6553 71.8859L55.7774 70.3103C55.8455 69.4307 55.4413 68.176 54.8722 67.5055L53.8545 66.3034C53.2855 65.6329 53.2855 64.5458 53.8545 63.8753L54.8722 62.6733C55.4413 62.0028 55.8455 60.7464 55.7774 59.8668L55.6553 58.2912C55.5871 57.4116 56.2212 56.5336 57.0724 56.3277L58.6005 55.9589C59.4518 55.753 60.5122 54.9771 60.9688 54.2253L61.7883 52.8763C62.2448 52.1244 63.2704 51.7892 64.0789 52.126L65.5309 52.7342C66.3393 53.0727 67.6503 53.0727 68.4587 52.7342L69.9107 52.126C70.7191 51.7876 71.7448 52.1228 72.2013 52.8763L73.0208 54.2253C73.4773 54.9771 74.5378 55.7546 75.3891 55.9589L76.9172 56.3277C77.7684 56.5336 78.4025 57.4116 78.3343 58.2912L78.2122 59.8668C78.1441 60.7464 78.5483 62.0012 79.1174 62.6717L80.1366 63.8737C80.7057 64.5442 80.7057 65.6313 80.1366 66.3018V66.3034Z" stroke="white" stroke-width="2" stroke-linecap="round" stroke-linejoin="round"/>
<path d="M73.5916 65.3894C73.7578 61.7193 70.9382 58.6085 67.2939 58.4412C63.6496 58.2739 60.5607 61.1135 60.3945 64.7835C60.2284 68.4536 63.048 71.5643 66.6923 71.7316C70.3366 71.8989 73.4255 69.0594 73.5916 65.3894Z" stroke="white" stroke-width="2" stroke-linecap="round" stroke-linejoin="round"/>
<path d="M52.1633 77.1187H11.0977V2.79785H85.931V49.9468" stroke="white" stroke-width="2" stroke-linecap="round" stroke-linejoin="round"/>
<path d="M74.4785 46.8894V17.034C69.3657 17.034 65.2197 13.447 65.2197 9.02344H29.4873C29.4873 13.447 25.3413 17.034 20.2285 17.034V62.8803C25.3413 62.8803 29.4873 66.4674 29.4873 70.8909H49.2448" stroke="white" stroke-width="2" stroke-linecap="round" stroke-linejoin="round" stroke-dasharray="4 4"/>
<path d="M42.541 24.2217H54.4916" stroke="white" stroke-width="2" stroke-linecap="round" stroke-linejoin="round"/>
<path d="M34.4961 31.4365H62.5361" stroke="white" stroke-width="2" stroke-linecap="round" stroke-linejoin="round"/>
<path d="M34.4961 38.6523H62.5361" stroke="white" stroke-width="2" stroke-linecap="round" stroke-linejoin="round"/>
<path d="M34.4961 45.8662H51.4669" stroke="white" stroke-width="2" stroke-linecap="round" stroke-linejoin="round"/>
</g>
</g>
<defs>
<clipPath id="clip0_8447_564275">
<rect width="96" height="96" fill="white"/>
</clipPath>
<clipPath id="clip1_8447_564275">
<rect width="93" height="93" fill="white" transform="translate(4 2)"/>
</clipPath>
</defs>
</svg>
