<svg width="96" height="96" viewBox="0 0 96 96" fill="none" xmlns="http://www.w3.org/2000/svg">
<g clip-path="url(#clip0_8447_564277)">
<path d="M56.5363 46.7604L61.7124 43.6324L59.3943 38.0364L53.5224 39.4844L53.4164 39.5284C52.0944 37.6044 50.4464 35.9804 48.5824 34.7004L48.6284 34.5905L50.0764 28.7184L44.4803 26.4005L41.3524 31.5764L41.3064 31.6864C39.0844 31.2744 36.7724 31.2564 34.4743 31.6824L34.4304 31.5744L31.3024 26.3984L25.7064 28.7165L27.1544 34.5884L27.1983 34.6964C25.2743 36.0184 23.6503 37.6664 22.3703 39.5284L22.2603 39.4825L16.3884 38.0345L14.0704 43.6304L19.2464 46.7585L19.3564 46.8044C18.9444 49.0264 18.9264 51.3384 19.3524 53.6364L19.2444 53.6805L14.0684 56.8084L16.3864 62.4044L22.2583 60.9565L22.3663 60.9124C23.6883 62.8364 25.3363 64.4604 27.1983 65.7404L27.1524 65.8504L25.7043 71.7224L31.3004 74.0404L34.4284 68.8644L34.4743 68.7545C36.6963 69.1665 39.0084 69.1845 41.3064 68.7585L41.3504 68.8644L44.4783 74.0404L50.0744 71.7224L48.6264 65.8504L48.5824 65.7444C50.5064 64.4224 52.1304 62.7744 53.4104 60.9124L53.5204 60.9584L59.3923 62.4064L61.7104 56.8105L56.5343 53.6824L56.4243 53.6364C56.8363 51.4144 56.8544 49.1004 56.4284 46.8044L56.5363 46.7604Z" stroke="white" stroke-width="2"/>
<path d="M40.7078 56.9091C44.3969 55.3809 46.1488 51.1515 44.6207 47.4624C43.0925 43.7732 38.8631 42.0214 35.1739 43.5495C31.4848 45.0776 29.7329 49.3071 31.2611 52.9962C32.7892 56.6854 37.0186 58.4372 40.7078 56.9091Z" stroke="white" stroke-width="2"/>
<path d="M10.5449 85.0381H68.2909V90.924L78.5349 81.4781L68.2909 72.04V77.9181" stroke="white" stroke-width="2"/>
<path d="M69.0762 55.7744H82.7542V61.6664L93.0002 52.2204L82.7542 42.7764V48.6604" stroke="white" stroke-width="2"/>
<path d="M16.7031 10.9582H61.6391V5.07617L71.8891 14.5202L61.6391 23.9642V18.0742" stroke="white" stroke-width="2"/>
<path d="M-0.318359 29.5283H17.6116" stroke="white" stroke-width="2" stroke-dasharray="4 4"/>
<path d="M17.81 72.75H-3" stroke="white" stroke-width="2" stroke-dasharray="4 4"/>
<path d="M68.2896 77.918H56.6855" stroke="white" stroke-width="2" stroke-dasharray="4 4"/>
<path d="M82.7542 48.6602H69.0762" stroke="white" stroke-width="2" stroke-dasharray="4 4"/>
<path d="M61.6403 18.0742H32.0723" stroke="white" stroke-width="2" stroke-dasharray="4 4"/>
</g>
<defs>
<clipPath id="clip0_8447_564277">
<rect width="96" height="96" fill="white"/>
</clipPath>
</defs>
</svg>
