<svg width="144" height="144" viewBox="0 0 144 144" fill="none" xmlns="http://www.w3.org/2000/svg">
<g clip-path="url(#clip0_9041_567696)">
<path d="M89.9569 71.1262L78.2569 60.4312H69.7144C69.7144 60.4312 64.1494 64.3252 59.6584 65.8582C55.1659 67.3927 49.9773 67.0867 45.1758 62.2852C49.8753 57.3157 54.5673 52.5652 54.5673 52.5652L63.6619 43.3657C65.3914 41.8792 66.5884 41.6482 68.8699 41.6482H84.5224C87.6575 41.6482 93.9845 41.0572 97.157 37.8832L99.254 35.7861" stroke="white" stroke-width="2"/>
<path d="M111.176 92.508C125.721 79.149 119.373 75.9749 125.721 69.6239L129.404 65.9414" stroke="white" stroke-width="2"/>
<path d="M89.9586 71.127C89.9586 71.127 106.421 88.407 111.179 92.508C115.937 96.6091 109.391 107.519 101.729 101.508C97.1586 97.5991 82.4766 83.535 82.4766 83.535" stroke="white" stroke-width="2"/>
<path d="M103.912 102.796C102.511 106.119 96.8608 113.922 89.6578 108.478C85.0873 104.574 75.5938 95.584 75.5938 95.584" stroke="white" stroke-width="2"/>
<path d="M92.3971 110.019C89.1256 116.621 83.3926 119.285 78.192 115.188C74.553 112.323 69.0195 106.665 69.0195 106.665" stroke="white" stroke-width="2"/>
<path d="M79.8932 116.266C77.9252 121.153 72.2867 124.319 67.7237 121.478C65.0866 119.834 60.6602 116.669 60.6602 116.669" stroke="white" stroke-width="2"/>
<path d="M44.8164 36.082C51.5784 42.8441 54.3219 40.0495 60.6685 46.3976" stroke="white" stroke-width="2"/>
<path d="M24.747 88.0056C16.662 79.9206 24.9 75.0455 15.375 65.5205" stroke="white" stroke-width="2"/>
<path d="M31.1214 89.3499L31.09 89.3154C28.8864 87.0309 25.2444 86.9679 22.9659 89.1789L19.7214 92.29C17.4399 94.501 17.3769 98.1445 19.5849 100.433C21.8079 102.739 25.4784 102.801 27.775 100.57L30.988 97.495C33.2575 95.2915 33.3205 91.63 31.1245 89.3515H31.1214V89.3499Z" stroke="white" stroke-width="2"/>
<path d="M44.6205 92.2386L44.589 92.2041C42.3855 89.9196 38.7435 89.8566 36.465 92.0676L27.03 101.275C24.7485 103.486 24.6855 107.129 26.8935 109.418C29.1165 111.724 32.787 111.785 35.0835 109.555L44.4825 100.382C46.7535 98.1786 46.8165 94.5171 44.6205 92.2386Z" stroke="white" stroke-width="2"/>
<path d="M53.4609 99.7875L53.4294 99.753C51.2424 97.452 47.6034 97.362 45.3054 99.5535L36.6534 108.006C34.3524 110.201 34.2624 113.841 36.4539 116.145C38.6574 118.466 42.3279 118.556 44.6439 116.349L53.2644 107.928C55.5534 105.744 55.6434 102.081 53.4639 99.789H53.4609V99.7875Z" stroke="white" stroke-width="2"/>
<path d="M59.0873 110.337L59.0558 110.306C56.8373 108.032 53.1984 107.993 50.9318 110.216L48.7088 112.368C46.4393 114.594 46.4003 118.233 48.6188 120.512C50.8538 122.805 54.5244 122.844 56.8089 120.606L58.9959 118.485C61.2534 116.27 61.2969 112.608 59.0859 110.342V110.337H59.0873Z" stroke="white" stroke-width="2"/>
<path d="M103.472 74.0284C95.9195 75.5824 93.998 73.6609 89.957 71.1289" stroke="white" stroke-width="2"/>
<path d="M47.9557 32.9443L36.4582 21.4482L-0.00390625 57.9119L11.4921 69.4079L47.9557 32.9443Z" stroke="white" stroke-width="2" stroke-dasharray="4 4"/>
<path d="M132.503 69.0358L143.999 57.5383L108.266 21.8066L96.7695 33.3027L132.503 69.0358Z" stroke="white" stroke-width="2" stroke-dasharray="4 4"/>
</g>
<defs>
<clipPath id="clip0_9041_567696">
<rect width="144" height="144" fill="white"/>
</clipPath>
</defs>
</svg>
