<svg width="96" height="96" viewBox="0 0 96 96" fill="none" xmlns="http://www.w3.org/2000/svg">
<path d="M93.9794 26.25H45.4688V62.6591H93.9794V26.25Z" stroke="white" stroke-width="2" stroke-linejoin="round"/>
<path d="M45.4688 56.591L61.639 40.4092L75.7879 54.5683" stroke="white" stroke-width="2" stroke-linejoin="round"/>
<path d="M69.7227 48.4998L75.7865 42.4316L93.978 60.6362" stroke="white" stroke-width="2" stroke-linejoin="round"/>
<path d="M79.8301 36.3638H83.8726" stroke="white" stroke-width="2" stroke-linejoin="round"/>
<path d="M55.5747 66.7045V90.9772H3.02148V52.5454H41.4257" stroke="white" stroke-width="2" stroke-linejoin="round"/>
<path d="M57.5952 22.2048V6.02295H15.1484V48.5002" stroke="white" stroke-width="2" stroke-linejoin="round"/>
<path d="M21.2121 78.841L13.127 72.7728L21.2121 66.7046" stroke="white" stroke-width="2" stroke-linejoin="round"/>
<path d="M37.3828 78.841L45.4679 72.7728L37.3828 66.7046" stroke="white" stroke-width="2" stroke-linejoin="round"/>
<path d="M33.341 62.6592L25.2559 82.8865" stroke="white" stroke-width="2" stroke-linejoin="round"/>
<path d="M25.2559 18.1592H47.4899" stroke="white" stroke-width="2" stroke-linejoin="round"/>
<path d="M25.2559 26.25H39.4048" stroke="white" stroke-width="2" stroke-linejoin="round"/>
<path d="M25.2559 34.3408H39.4048" stroke="white" stroke-width="2" stroke-linejoin="round"/>
<path d="M25.2559 42.4316H39.4048" stroke="white" stroke-width="2" stroke-linejoin="round"/>
</svg>
