<svg width="96" height="96" viewBox="0 0 96 96" fill="none" xmlns="http://www.w3.org/2000/svg">
<path d="M90 61.871L62 75.8419L48 65.8627V63.8669L76 49.896L90 59.8752V61.871Z" stroke="white" stroke-width="2" stroke-miterlimit="10"/>
<path d="M60 41.9125L76 49.8959L90 39.9167V37.9208L60 21.9541" stroke="white" stroke-width="2" stroke-miterlimit="10"/>
<path d="M18 67.8584V79.8335L48 93.8043L78 79.8335V67.8584" stroke="white" stroke-width="2" stroke-miterlimit="10"/>
<path d="M6 61.871L34 75.8419L48 65.8627V63.8669L20 49.896L6 59.8752V61.871Z" stroke="white" stroke-width="2" stroke-miterlimit="10"/>
<path d="M36 41.9125L20 49.8959L6 39.9167V37.9208L36 21.9541" stroke="white" stroke-width="2" stroke-miterlimit="10"/>
<path d="M48 63.8672V93.8048" stroke="white" stroke-width="2" stroke-miterlimit="10"/>
<path d="M52 1.99561V53.8875" stroke="white" stroke-width="2" stroke-miterlimit="10"/>
<path d="M44 23.9502V53.8878" stroke="white" stroke-width="2" stroke-miterlimit="10"/>
<path d="M24 7.98313C24 4.67003 26.68 1.99561 30 1.99561C33.32 1.99561 36 4.67003 36 7.98313V49.8958" stroke="white" stroke-width="2" stroke-miterlimit="10"/>
<path d="M72 15.9665C72 12.6534 69.32 9.979 66 9.979C62.68 9.979 60 12.6534 60 15.9665V49.8958" stroke="white" stroke-width="2" stroke-miterlimit="10"/>
<path d="M44 19.9585V15.9668" stroke="white" stroke-width="2" stroke-miterlimit="10"/>
<path d="M44 11.9751V7.9834" stroke="white" stroke-width="2" stroke-miterlimit="10"/>
</svg>
