<svg width="96" height="96" viewBox="0 0 96 96" fill="none" xmlns="http://www.w3.org/2000/svg">
<path d="M91.6048 71.3976C91.6048 75.5343 88.2113 78.8848 84.0215 78.8848H21.459V22.731H80.2298" stroke="white" stroke-width="2" stroke-linejoin="round"/>
<path d="M80.2285 65.7818C81.0248 64.4529 82.6362 63.91 84.0202 63.91C88.21 63.91 91.6035 67.2606 91.6035 71.3972V20.8588C91.6035 16.7221 88.21 13.3716 84.0202 13.3716C82.6362 13.3716 80.8731 13.6898 80.2285 15.2434V65.7818Z" stroke="white" stroke-width="2" stroke-linejoin="round"/>
<path d="M9.13607 17.1152C6.51982 17.1152 4.39648 18.7998 4.39648 20.8588V73.2691L9.13607 82.6281L13.8757 73.2691V20.8588C13.8757 18.7998 11.7523 17.1152 9.13607 17.1152Z" stroke="white" stroke-width="2" stroke-linejoin="round"/>
<path d="M4.39648 28.3462H13.8757" stroke="white" stroke-width="2" stroke-linejoin="round"/>
<path d="M46.1035 32.0898H34.7285V39.577H46.1035V32.0898Z" stroke="white" stroke-width="2" stroke-miterlimit="10"/>
<path d="M66.959 32.0898H55.584V39.577H66.959V32.0898Z" stroke="white" stroke-width="2" stroke-miterlimit="10"/>
<path d="M55.5827 35.8335H46.1035" stroke="white" stroke-width="2" stroke-miterlimit="10"/>
<path d="M46.1035 47.064H34.7285V54.5511H46.1035V47.064Z" stroke="white" stroke-width="2" stroke-miterlimit="10"/>
<path d="M66.959 47.064H55.584V54.5511H66.959V47.064Z" stroke="white" stroke-width="2" stroke-miterlimit="10"/>
<path d="M55.5827 50.8076H46.1035" stroke="white" stroke-width="2" stroke-miterlimit="10"/>
<path d="M46.1035 62.0386H34.7285V69.5258H46.1035V62.0386Z" stroke="white" stroke-width="2" stroke-miterlimit="10"/>
<path d="M61.2715 39.5771V47.0643" stroke="white" stroke-width="2" stroke-miterlimit="10"/>
<path d="M40.416 54.5513V62.0384" stroke="white" stroke-width="2" stroke-miterlimit="10"/>
</svg>
