<svg width="96" height="96" viewBox="0 0 96 96" fill="none" xmlns="http://www.w3.org/2000/svg">
<path d="M70.498 12.2554C81.3285 18.2605 89.0528 28.5549 90.9124 40.5856" stroke="white" stroke-width="2" stroke-miterlimit="10"/>
<path d="M25.5218 12.2554C14.6913 18.2605 6.96699 28.5549 5.10742 40.5856" stroke="white" stroke-width="2" stroke-miterlimit="10"/>
<path d="M67.189 89.1982C61.4264 92.2416 54.9077 93.9574 48.0008 93.9574C41.0938 93.9574 34.5751 92.2416 28.8125 89.1982" stroke="white" stroke-width="2" stroke-miterlimit="10"/>
<path d="M17.3473 63.3193C23.7843 63.3193 31.6517 67.6291 31.6517 70.5908V77.6172C26.7678 80.9057 22.4764 81.7023 17.3473 81.7023C12.2182 81.7023 7.92688 80.9057 3.04297 77.6172V70.5908C3.04297 67.6496 10.9104 63.3193 17.3473 63.3193V63.3193Z" stroke="white" stroke-width="2" stroke-miterlimit="10"/>
<path d="M17.3477 42.8936C21.5777 42.8936 25.5217 46.1821 25.5217 50.2467V55.9659C25.5217 60.0306 21.5777 63.3191 17.3477 63.3191C13.1177 63.3191 9.17383 60.0306 9.17383 55.9659V50.2467C9.17383 46.1821 13.1177 42.8936 17.3477 42.8936Z" stroke="white" stroke-width="2" stroke-miterlimit="10"/>
<path d="M47.9997 22.4683C54.4366 22.4683 62.304 26.778 62.304 29.7398V36.7661C58.2171 40.0546 53.1288 40.8512 47.9997 40.8512C42.8705 40.8512 37.7823 40.0546 33.6953 36.7661V29.7398C33.6953 26.7985 41.5627 22.4683 47.9997 22.4683Z" stroke="white" stroke-width="2" stroke-miterlimit="10"/>
<path d="M48.0001 2.04248C52.2301 2.04248 56.174 5.33099 56.174 9.39567V15.1148C56.174 19.1795 52.2301 22.468 48.0001 22.468C43.7701 22.468 39.8262 19.1795 39.8262 15.1148V9.39567C39.8262 5.33099 43.7701 2.04248 48.0001 2.04248V2.04248Z" stroke="white" stroke-width="2" stroke-miterlimit="10"/>
<path d="M78.652 63.3193C85.089 63.3193 92.9564 67.6291 92.9564 70.5908V77.6172C88.0724 80.9057 83.7811 81.7023 78.652 81.7023C73.5229 81.7023 69.2316 80.9057 64.3477 77.6172V70.5908C64.3477 67.6496 72.215 63.3193 78.652 63.3193V63.3193Z" stroke="white" stroke-width="2" stroke-miterlimit="10"/>
<path d="M78.6524 42.8936C82.8824 42.8936 86.8263 46.1821 86.8263 50.2467V55.9659C86.8263 60.0306 82.8824 63.3191 78.6524 63.3191C74.4224 63.3191 70.4785 60.0306 70.4785 55.9659V50.2467C70.4785 46.1821 74.4224 42.8936 78.6524 42.8936Z" stroke="white" stroke-width="2" stroke-miterlimit="10"/>
</svg>
