<svg width="144" height="144" viewBox="0 0 144 144" fill="none" xmlns="http://www.w3.org/2000/svg">
<g clip-path="url(#clip0_9041_567698)">
<path d="M99.3445 109.547C91.3344 105.572 81.9772 103.289 71.996 103.289C55.6937 103.289 41.1104 109.358 31.2852 118.934" stroke="white" stroke-width="2" stroke-dasharray="4 4"/>
<path d="M112.673 25.0625C102.878 34.6387 88.2647 40.7079 71.9623 40.7079C61.6361 40.7079 51.9669 38.2658 43.8008 34.0417" stroke="white" stroke-width="2" stroke-dasharray="4 4"/>
<path d="M71.9672 134.58C53.2858 134.58 36.4825 126.381 25.0312 113.396" stroke="white" stroke-width="2"/>
<path d="M72 9.41699V134.583" stroke="white" stroke-width="2"/>
<path d="M56.3555 71.998H72.0009" stroke="white" stroke-width="2" stroke-dasharray="4 4"/>
<path d="M42.6484 93.9014C47.0915 117.653 58.5458 134.579 71.9681 134.579" stroke="white" stroke-width="2"/>
<path d="M71.9685 9.41699C54.6942 9.41699 37.5488 37.4226 37.5488 71.9983H50.0651L25.0326 103.289L0 71.9983H9.38718C9.38418 35.7005 35.6708 9.41699 71.9685 9.41699Z" stroke="white" stroke-width="2"/>
<path d="M72.0312 9.41699C90.7126 9.41699 107.516 17.6162 118.967 30.6004" stroke="white" stroke-width="2"/>
<path d="M87.6453 71.998H72" stroke="white" stroke-width="2" stroke-dasharray="4 4"/>
<path d="M101.351 50.0948C96.9078 26.3434 85.4565 9.41699 72.0312 9.41699" stroke="white" stroke-width="2"/>
<path d="M72.0312 134.58C89.3026 134.58 106.451 106.574 106.451 71.9986H93.9347L118.967 40.708L144 71.9986H134.612C134.612 108.296 108.329 134.58 72.0312 134.58Z" stroke="white" stroke-width="2"/>
</g>
<defs>
<clipPath id="clip0_9041_567698">
<rect width="144" height="144" fill="white"/>
</clipPath>
</defs>
</svg>
