<svg width="96" height="96" viewBox="0 0 96 96" fill="none" xmlns="http://www.w3.org/2000/svg">
<path d="M53.2232 15.6222V5.17773H36.5121V14.6195C33.4623 15.4133 30.5796 16.604 27.9058 18.1706L21.2214 11.4862L9.39829 23.3093L16.0827 29.9937C14.5161 32.6466 13.3045 35.5293 12.5316 38.6H3.08984V55.3111H12.5316C13.3254 58.3608 14.5161 61.2644 16.0827 63.9173L9.39829 70.6017L21.2214 82.4248L27.9058 75.7404C30.5587 77.3071 33.4414 78.5186 36.5121 79.2915V88.7333H53.2232V78.2888" stroke="white" stroke-width="2" stroke-linejoin="round"/>
<path d="M57.4004 23.9776H59.4893L69.9337 13.5332" stroke="white" stroke-width="2" stroke-linejoin="round"/>
<path d="M69.9331 82.4664L57.3998 69.9331H44.8664C32.166 69.9331 21.8887 59.6558 21.8887 46.9553C21.8887 34.2549 32.166 23.9775 44.8664 23.9775" stroke="white" stroke-width="2" stroke-linejoin="round"/>
<path d="M46.9552 57.4002H44.8663C39.101 57.4002 34.4219 52.7211 34.4219 46.9558C34.4219 41.1904 39.101 36.5113 44.8663 36.5113H61.5774L69.933 28.1558H80.3774" stroke="white" stroke-width="2" stroke-linejoin="round"/>
<path d="M80.3772 67.8443H72.0216L61.5772 57.3999H59.4883" stroke="white" stroke-width="2" stroke-linejoin="round"/>
<path d="M74.1104 15.6222C77.5714 15.6222 80.3771 12.8165 80.3771 9.35553C80.3771 5.89455 77.5714 3.08887 74.1104 3.08887C70.6494 3.08887 67.8438 5.89455 67.8438 9.35553C67.8438 12.8165 70.6494 15.6222 74.1104 15.6222Z" stroke="white" stroke-width="2" stroke-linejoin="round"/>
<path d="M86.6436 34.422C90.1046 34.422 92.9103 31.6163 92.9103 28.1553C92.9103 24.6944 90.1046 21.8887 86.6436 21.8887C83.1826 21.8887 80.377 24.6944 80.377 28.1553C80.377 31.6163 83.1826 34.422 86.6436 34.422Z" stroke="white" stroke-width="2" stroke-linejoin="round"/>
<path d="M86.6436 53.2223C90.1046 53.2223 92.9103 50.4166 92.9103 46.9556C92.9103 43.4946 90.1046 40.689 86.6436 40.689C83.1826 40.689 80.377 43.4946 80.377 46.9556C80.377 50.4166 83.1826 53.2223 86.6436 53.2223Z" stroke="white" stroke-width="2" stroke-linejoin="round"/>
<path d="M86.6436 74.111C90.1046 74.111 92.9103 71.3053 92.9103 67.8443C92.9103 64.3833 90.1046 61.5776 86.6436 61.5776C83.1826 61.5776 80.377 64.3833 80.377 67.8443C80.377 71.3053 83.1826 74.111 86.6436 74.111Z" stroke="white" stroke-width="2" stroke-linejoin="round"/>
<path d="M74.1104 92.9113C77.5714 92.9113 80.3771 90.1056 80.3771 86.6446C80.3771 83.1836 77.5714 80.3779 74.1104 80.3779C70.6494 80.3779 67.8438 83.1836 67.8438 86.6446C67.8438 90.1056 70.6494 92.9113 74.1104 92.9113Z" stroke="white" stroke-width="2" stroke-linejoin="round"/>
<path d="M59.4883 46.9556H78.2883" stroke="white" stroke-width="2" stroke-linejoin="round"/>
<path d="M42.7773 46.9556H46.9551" stroke="white" stroke-width="2" stroke-linejoin="round"/>
<path d="M51.1328 46.9556H55.3106" stroke="white" stroke-width="2" stroke-linejoin="round"/>
<path d="M51.1328 57.3999H55.3106" stroke="white" stroke-width="2" stroke-linejoin="round"/>
<path d="M49.0449 23.9775H53.2227" stroke="white" stroke-width="2" stroke-linejoin="round"/>
</svg>
