<svg width="96" height="96" viewBox="0 0 96 96" fill="none" xmlns="http://www.w3.org/2000/svg">
<g clip-path="url(#clip0_7408_538247)">
<path d="M22.541 53.8696V71.4783" stroke="white" stroke-width="2" stroke-linejoin="round"/>
<path d="M46.041 53.8696V71.4783" stroke="white" stroke-width="2" stroke-linejoin="round"/>
<path d="M34.291 65.6086C40.7804 65.6086 46.041 60.3528 46.041 53.8695C46.041 47.3862 40.7804 42.1304 34.291 42.1304C27.8017 42.1304 22.541 47.3862 22.541 53.8695C22.541 60.3528 27.8017 65.6086 34.291 65.6086Z" stroke="white" stroke-width="2" stroke-linejoin="round"/>
<path d="M65.625 22.5654V32.348H77.375V22.5654" stroke="white" stroke-width="2" stroke-miterlimit="10"/>
<path d="M71.5007 24.5218C76.9084 24.5218 81.2923 20.1419 81.2923 14.7392C81.2923 9.33637 76.9084 4.95654 71.5007 4.95654C66.0929 4.95654 61.709 9.33637 61.709 14.7392C61.709 20.1419 66.0929 24.5218 71.5007 24.5218Z" stroke="white" stroke-width="2" stroke-miterlimit="10"/>
<path d="M77.375 32.3477H79.3333L85.2083 38.2172L79.3333 46.0433" stroke="white" stroke-width="2" stroke-miterlimit="10"/>
<path d="M65.6243 32.3477H63.666L57.791 38.2172L63.666 46.0433" stroke="white" stroke-width="2" stroke-miterlimit="10"/>
<path d="M20.5827 30.3914C25.9905 30.3914 30.3743 26.0116 30.3743 20.6088C30.3743 15.206 25.9905 10.8262 20.5827 10.8262C15.1749 10.8262 10.791 15.206 10.791 20.6088C10.791 26.0116 15.1749 30.3914 20.5827 30.3914Z" stroke="white" stroke-width="2" stroke-linejoin="round"/>
<path d="M57.7923 8.86963L26.459 12.7827" stroke="white" stroke-width="2" stroke-linejoin="round"/>
<path d="M57.791 20.6089L28.416 26.4785" stroke="white" stroke-width="2" stroke-linejoin="round"/>
<path d="M16.666 34.3042L24.4993 46.0433" stroke="white" stroke-width="2" stroke-linejoin="round"/>
<path d="M28.416 32.3477L36.2493 42.1303" stroke="white" stroke-width="2" stroke-linejoin="round"/>
<path d="M61.7077 75.3911H81.291V55.8259H61.7077V75.3911Z" stroke="white" stroke-width="2" stroke-linejoin="round"/>
<path d="M85.2077 83.2173H81.291" stroke="white" stroke-width="2" stroke-linejoin="round"/>
<path d="M14.7077 83.2173H10.791" stroke="white" stroke-width="2" stroke-linejoin="round"/>
<path d="M26.4577 83.2173H22.541" stroke="white" stroke-width="2" stroke-linejoin="round"/>
<path d="M38.2077 83.2173H34.291" stroke="white" stroke-width="2" stroke-linejoin="round"/>
<path d="M49.9577 83.2173H46.041" stroke="white" stroke-width="2" stroke-linejoin="round"/>
<path d="M61.7077 83.2173H57.791" stroke="white" stroke-width="2" stroke-linejoin="round"/>
<path d="M73.4577 83.2173H69.541" stroke="white" stroke-width="2" stroke-linejoin="round"/>
<path d="M93.0423 83.2172C93.0423 78.8933 89.5369 75.3911 85.209 75.3911H10.7923C6.4644 75.3911 2.95898 78.8933 2.95898 83.2172C2.95898 87.5411 6.4644 91.0433 10.7923 91.0433H85.209C89.5369 91.0433 93.0423 87.5411 93.0423 83.2172Z" stroke="white" stroke-width="2" stroke-linejoin="round"/>
</g>
<defs>
<clipPath id="clip0_7408_538247">
<rect width="94" height="90" fill="white" transform="translate(1 3)"/>
</clipPath>
</defs>
</svg>
