<svg width="96" height="96" viewBox="0 0 96 96" fill="none" xmlns="http://www.w3.org/2000/svg">
<g clip-path="url(#clip0_7408_538246)">
<path d="M35.8613 29.1178L39.6386 19.9873L45.1866 21.841C46.7211 19.6718 48.5901 17.8378 50.6755 16.3391L48.8262 10.778L57.935 6.9917L60.5516 12.2373C63.0895 11.8034 65.706 11.8034 68.3226 12.2373L70.9392 6.9917L80.048 10.778L78.1987 16.3391C80.3628 17.8773 82.1924 19.7507 83.6876 21.841L89.2355 19.9873L93.0129 29.1178L87.7797 31.7406C88.2125 34.2845 88.2125 36.9073 87.7797 39.5301L93.0129 42.1529L89.2355 51.2834L83.6876 49.4297C82.1531 51.5989 80.2841 53.4329 78.1987 54.9316L80.048 60.4927L70.9392 64.279L68.3226 59.0334C65.7847 59.4673 63.1682 59.4673 60.5516 59.0334L57.935 64.279L48.8262 60.4927L50.6755 54.9316C48.5114 53.3934 46.6818 51.52 45.1866 49.4297L39.6386 51.2834L35.8613 42.1529L41.0945 39.5301C40.6617 36.9862 40.6617 34.3634 41.0945 31.7406L35.8613 29.1178V29.1178Z" stroke="white" stroke-width="2" stroke-linejoin="round"/>
<path d="M55.713 39.254C57.7197 44.1052 63.2479 46.3927 68.0876 44.3812C72.9273 42.3698 75.2094 36.8284 73.2224 31.9772C71.2157 27.126 65.6874 24.8385 60.8477 26.8499C56.0081 28.8614 53.7259 34.4028 55.713 39.254V39.254Z" stroke="white" stroke-width="2" stroke-linejoin="round"/>
<path d="M28.4449 33.3772C27.0677 30.0445 23.2511 28.4669 19.9066 29.8473C16.5621 31.2277 14.9882 35.0534 16.3653 38.3862C16.9359 39.7666 17.9196 40.8512 19.1393 41.5414" stroke="white" stroke-width="2" stroke-linejoin="round"/>
<path d="M4.08789 64.9692L6.66512 58.7179L11.4851 60.7293C12.4491 59.3686 13.6295 58.2051 14.9477 57.2586L12.941 52.4271L19.1775 49.8438L21.1842 54.6752C22.7777 54.3991 24.4303 54.3991 26.0829 54.6752L28.0896 49.8438L34.3261 52.4271L32.3194 57.2586C33.6768 58.2249 34.8376 59.4081 35.7819 60.7293L40.6019 58.7179L43.1791 64.9692L38.3591 66.9806C38.6346 68.578 38.6346 70.2345 38.3591 71.891L43.1791 73.9024L40.6019 80.1538L35.7819 78.1423C34.8179 79.503 33.6375 80.6665 32.3194 81.6131L34.3261 86.4445L28.0896 89.0279L26.0829 84.1964C24.4893 84.4725 22.8367 84.4725 21.1842 84.1964L19.1775 89.0279L12.941 86.4445L14.9477 81.6131C13.5902 80.6468 12.4295 79.4636 11.4851 78.1423L6.66512 80.1538L4.08789 73.9024L8.9079 71.891C8.63247 70.2936 8.63247 68.6371 8.9079 66.9806L4.08789 64.9692V64.9692Z" stroke="white" stroke-width="2" stroke-linejoin="round"/>
<path d="M11.0134 44.9925L6.39013 47.2407L3.47845 41.2654L8.10172 39.0173C7.7476 37.4594 7.62956 35.8424 7.80662 34.2056L2.94727 32.5293L5.11135 26.2386L9.97071 27.9148C10.8363 26.5147 11.9381 25.3117 13.1775 24.306L10.9347 19.6717L16.8958 16.7531L19.1386 21.3874C20.6928 21.0324 22.306 20.9141 23.9389 21.0916L25.6111 16.2207L31.887 18.3899L30.2147 23.2608" stroke="white" stroke-width="2" stroke-linejoin="round"/>
<path d="M17.5841 66.902C16.2069 70.2545 17.7808 74.0999 21.1253 75.4803C24.4698 76.8607 28.3062 75.2831 29.6833 71.9307C31.0604 68.5782 29.4866 64.7328 26.1421 63.3524C22.7976 61.972 18.9612 63.5496 17.5841 66.902V66.902Z" stroke="white" stroke-width="2" stroke-linejoin="round"/>
</g>
<defs>
<clipPath id="clip0_7408_538246">
<rect width="94" height="86" fill="white" transform="translate(1 5)"/>
</clipPath>
</defs>
</svg>
