<svg width="144" height="144" viewBox="0 0 144 144" fill="none" xmlns="http://www.w3.org/2000/svg">
<path d="M26.7969 70.0355V77.8976L39.5335 79.7158C40.3525 83.1751 41.7153 86.4837 43.576 89.5139L35.8678 99.797L44.205 108.134L54.5011 100.413C57.528 102.277 60.8301 103.643 64.2862 104.465L66.1043 117.202H77.8975L79.7156 104.465C83.175 103.646 86.4836 102.283 89.5138 100.423L99.7968 108.131L108.134 99.7937L100.413 89.4976C102.277 86.4706 103.643 83.1685 104.465 79.7125L117.202 77.8944V70.0322" stroke="white" stroke-width="2" stroke-linecap="round" stroke-linejoin="round"/>
<path d="M90.7606 77.8942C88.2578 85.871 80.8051 91.6562 72.0028 91.6562C63.2005 91.6562 55.6529 85.7956 53.1992 77.7402" stroke="white" stroke-width="2" stroke-linecap="round" stroke-linejoin="round"/>
<path d="M34.7059 89.6904H26.8437V96.7434C25.4908 97.2905 24.2197 98.0243 23.0699 98.9186L16.9669 95.3938L11.0703 105.605L17.1864 109.136C17.0783 109.857 17.0226 110.581 17.0161 111.308C17.0226 112.035 17.0783 112.763 17.1864 113.48L11.0703 117.011L16.9669 127.222L23.083 123.691C24.2296 124.588 25.4973 125.322 26.8437 125.873V132.929H38.6369V125.876C39.9899 125.329 41.2609 124.595 42.4108 123.701L48.5137 127.226L54.4104 117.015L48.2943 113.483" stroke="white" stroke-width="2" stroke-linecap="round" stroke-linejoin="round"/>
<path d="M39.549 115.253C38.1895 117.598 35.6507 119.174 32.745 119.174C28.4044 119.174 24.8828 115.652 24.8828 111.312C24.8828 108.406 26.4585 105.867 28.8041 104.508" stroke="white" stroke-width="2" stroke-linecap="round" stroke-linejoin="round"/>
<path d="M109.298 89.6904H117.16V96.7434C118.513 97.2905 119.784 98.0243 120.934 98.9186L127.037 95.3938L132.934 105.605L126.818 109.136C126.926 109.857 126.981 110.581 126.988 111.308C126.981 112.035 126.926 112.763 126.818 113.48L132.934 117.011L127.037 127.222L120.921 123.691C119.775 124.588 118.507 125.322 117.16 125.873V132.929H105.367V125.876C104.014 125.329 102.743 124.595 101.593 123.701L95.4904 127.226L89.5938 117.015L95.7098 113.483" stroke="white" stroke-width="2" stroke-linecap="round" stroke-linejoin="round"/>
<path d="M104.457 115.253C105.817 117.598 108.355 119.174 111.261 119.174C115.602 119.174 119.123 115.652 119.123 111.312C119.123 108.406 117.547 105.867 115.202 104.508" stroke="white" stroke-width="2" stroke-linecap="round" stroke-linejoin="round"/>
<path d="M56.2812 56.2771V42.5184C56.2812 38.1615 59.7865 34.6562 64.1434 34.6562" stroke="white" stroke-width="2" stroke-linecap="round" stroke-linejoin="round"/>
<path d="M79.8672 34.6562C84.2241 34.6562 87.7293 38.1615 87.7293 42.5184V56.2771" stroke="white" stroke-width="2" stroke-linecap="round" stroke-linejoin="round"/>
<path d="M72.0078 40.5524V38.5869" stroke="white" stroke-width="2" stroke-linecap="round" stroke-linejoin="round"/>
<path d="M72.0078 56.2762V48.4141" stroke="white" stroke-width="2" stroke-linecap="round" stroke-linejoin="round"/>
<path d="M72.0067 11.0693C76.3636 11.0693 79.8688 14.5745 79.8688 18.9315V22.8625C79.8688 27.2195 76.3636 30.7247 72.0067 30.7247C67.6497 30.7247 64.1445 27.2195 64.1445 22.8625V18.9315C64.1445 14.5745 67.6497 11.0693 72.0067 11.0693Z" stroke="white" stroke-width="2" stroke-linecap="round" stroke-linejoin="round"/>
<path d="M11.0703 70.0367V48.4158C11.0703 44.0589 14.5755 40.5537 18.9325 40.5537" stroke="white" stroke-width="2" stroke-linecap="round" stroke-linejoin="round"/>
<path d="M34.6562 40.5537C39.0132 40.5537 42.5184 44.0589 42.5184 48.4158V62.1746" stroke="white" stroke-width="2" stroke-linecap="round" stroke-linejoin="round"/>
<path d="M26.7969 46.4499V44.4844" stroke="white" stroke-width="2" stroke-linecap="round" stroke-linejoin="round"/>
<path d="M26.7969 62.1737V54.3115" stroke="white" stroke-width="2" stroke-linecap="round" stroke-linejoin="round"/>
<path d="M26.7957 16.9668C31.1527 16.9668 34.6579 20.472 34.6579 24.8289V28.76C34.6579 33.1169 31.1527 36.6221 26.7957 36.6221C22.4388 36.6221 18.9336 33.1169 18.9336 28.76V24.8289C18.9336 20.472 22.4388 16.9668 26.7957 16.9668Z" stroke="white" stroke-width="2" stroke-linecap="round" stroke-linejoin="round"/>
<path d="M101.484 62.1746V48.4158C101.484 44.0589 104.99 40.5537 109.347 40.5537" stroke="white" stroke-width="2" stroke-linecap="round" stroke-linejoin="round"/>
<path d="M125.07 40.5537C129.427 40.5537 132.932 44.0589 132.932 48.4158V70.0367" stroke="white" stroke-width="2" stroke-linecap="round" stroke-linejoin="round"/>
<path d="M117.211 46.4499V44.4844" stroke="white" stroke-width="2" stroke-linecap="round" stroke-linejoin="round"/>
<path d="M117.211 62.1737V54.3115" stroke="white" stroke-width="2" stroke-linecap="round" stroke-linejoin="round"/>
<path d="M117.21 16.9668C121.567 16.9668 125.072 20.472 125.072 24.8289V28.76C125.072 33.1169 121.567 36.6221 117.21 36.6221C112.853 36.6221 109.348 33.1169 109.348 28.76V24.8289C109.348 20.472 112.853 16.9668 117.21 16.9668Z" stroke="white" stroke-width="2" stroke-linecap="round" stroke-linejoin="round"/>
<path d="M36.6211 70.0352H107.38" stroke="white" stroke-width="2" stroke-linecap="round" stroke-linejoin="round"/>
<path d="M56.2773 70.0353V64.1387" stroke="white" stroke-width="2" stroke-linecap="round" stroke-linejoin="round"/>
<path d="M11.0703 77.8984V81.8295" stroke="white" stroke-width="2" stroke-linecap="round" stroke-linejoin="round"/>
<path d="M132.934 77.8984V81.8295" stroke="white" stroke-width="2" stroke-linecap="round" stroke-linejoin="round"/>
<path d="M87.7266 70.0353V64.1387" stroke="white" stroke-width="2" stroke-linecap="round" stroke-linejoin="round"/>
</svg>
