<svg width="144" height="144" viewBox="0 0 144 144" fill="none" xmlns="http://www.w3.org/2000/svg">
<path d="M112.648 120.666C116.198 128.337 120.051 136.658 120.051 136.658L111.021 134.296L107.013 142.781C107.013 142.781 104.462 137.27 101.594 131.081" stroke="white" stroke-width="2" stroke-linecap="round" stroke-linejoin="round"/>
<path d="M84.1591 120.627C80.6036 128.31 76.7383 136.658 76.7383 136.658L85.7687 134.296L89.7792 142.781C89.7792 142.781 94.6127 132.341 98.4441 124.066" stroke="white" stroke-width="2" stroke-linecap="round" stroke-linejoin="round"/>
<path d="M117.25 100.184L115.694 102.019C114.825 103.043 114.208 104.961 114.312 106.302L114.498 108.707C114.602 110.05 113.634 111.391 112.334 111.705L110.001 112.269C108.701 112.583 107.082 113.768 106.385 114.916L105.134 116.978C104.437 118.126 102.871 118.638 101.636 118.123L99.4192 117.195C98.1849 116.678 96.1832 116.678 94.9488 117.195L92.7318 118.123C91.4974 118.64 89.9314 118.128 89.2344 116.978L87.983 114.916C87.286 113.768 85.6667 112.581 84.367 112.269L82.0338 111.705C80.734 111.391 79.7659 110.05 79.87 108.707L80.0563 106.302C80.1604 104.959 79.5432 103.043 78.6743 102.019L77.1204 100.184C76.2515 99.1598 76.2515 97.4999 77.1204 96.4761L78.6743 94.6407C79.5432 93.617 80.1604 91.6987 80.0563 90.3556L79.87 87.9499C79.7659 86.6068 80.734 85.2662 82.0338 84.9518L84.367 84.3887C85.6667 84.0743 87.286 82.8897 87.983 81.7416L89.2344 79.6819C89.9314 78.5339 91.4974 78.022 92.7318 78.5363L94.9488 79.465C96.1832 79.9817 98.1849 79.9817 99.4192 79.465L101.636 78.5363C102.871 78.0196 104.437 78.5315 105.134 79.6819L106.385 81.7416C107.082 82.8897 108.701 84.0767 110.001 84.3887L112.334 84.9518C113.634 85.2662 114.602 86.6068 114.498 87.9499L114.312 90.3556C114.208 91.6987 114.825 93.6145 115.694 94.6383L117.25 96.4737C118.119 97.4974 118.119 99.1574 117.25 100.181V100.184Z" stroke="white" stroke-width="2" stroke-linecap="round" stroke-linejoin="round"/>
<path d="M107.258 98.7874C107.512 93.1837 103.207 88.4339 97.6422 88.1785C92.0778 87.923 87.3614 92.2586 87.1077 97.8624C86.8541 103.466 91.1593 108.216 96.7236 108.471C102.288 108.727 107.004 104.391 107.258 98.7874Z" stroke="white" stroke-width="2" stroke-linecap="round" stroke-linejoin="round"/>
<path d="M74.5383 116.698H11.8359V3.21875H126.098V75.2096" stroke="white" stroke-width="2" stroke-linecap="round" stroke-linejoin="round"/>
<path d="M108.611 70.5415V24.9559C100.804 24.9559 94.4736 19.4789 94.4736 12.7246H39.9144C39.9144 19.4789 33.584 24.9559 25.7773 24.9559V94.9577C33.584 94.9577 39.9144 100.435 39.9144 107.189H70.0817" stroke="white" stroke-width="2" stroke-linecap="round" stroke-linejoin="round" stroke-dasharray="4 4"/>
<path d="M59.8438 35.9297H78.0909" stroke="white" stroke-width="2" stroke-linecap="round" stroke-linejoin="round"/>
<path d="M47.5625 46.9473H90.3763" stroke="white" stroke-width="2" stroke-linecap="round" stroke-linejoin="round"/>
<path d="M47.5625 57.9648H90.3763" stroke="white" stroke-width="2" stroke-linecap="round" stroke-linejoin="round"/>
<path d="M47.5625 68.9795H73.4749" stroke="white" stroke-width="2" stroke-linecap="round" stroke-linejoin="round"/>
</svg>
