<svg width="144" height="144" viewBox="0 0 144 144" fill="none" xmlns="http://www.w3.org/2000/svg">
<path d="M117.307 72.0061C117.307 71.9084 117.307 71.8386 117.307 71.7409H110.412L124.705 50.4551L138.998 71.7409H132.089C132.089 71.8247 132.089 71.9224 132.089 72.0061C132.089 74.7558 131.907 77.4637 131.544 80.1157C127.58 109.525 102.4 132.193 71.9022 132.193C50.7419 132.193 32.122 121.264 21.4023 104.752" stroke="white" stroke-width="2" stroke-linecap="square"/>
<path d="M122.277 39.0506C111.529 22.6361 92.9789 11.8047 71.9024 11.8047C41.6416 11.8047 16.615 34.1234 12.3578 63.1978C11.953 65.9336 11.7436 68.7252 11.7157 71.5726H5.00195L19.2949 92.8585L27.3765 80.8267L33.5878 71.5726H26.5112" stroke="white" stroke-width="2" stroke-linecap="square"/>
<path d="M27.377 80.8401V80.8262" stroke="white" stroke-width="2"/>
<path d="M71.9023 117.395C96.9708 117.395 117.308 97.0724 117.308 72.0039" stroke="white" stroke-width="2" stroke-dasharray="4 4"/>
<path d="M26.5117 71.5721C26.749 46.6851 46.9601 26.5996 71.9029 26.5996" stroke="white" stroke-width="2" stroke-dasharray="4 4"/>
<path d="M54.4824 73.3228L67.0766 87.2263L89.5183 56.7715" stroke="white" stroke-width="2" stroke-linecap="square"/>
</svg>
