<svg width="144" height="144" viewBox="0 0 144 144" fill="none" xmlns="http://www.w3.org/2000/svg">
<g clip-path="url(#clip0_7881_542253)">
<path d="M20.6465 2.52148H2.52148V20.6465H20.6465V2.52148Z" stroke="white" stroke-width="2" stroke-linecap="round" stroke-linejoin="round"/>
<path d="M20.6465 123.354H2.52148V141.479H20.6465V123.354Z" stroke="white" stroke-width="2" stroke-linecap="round" stroke-linejoin="round"/>
<path d="M141.479 2.52148H123.354V20.6465H141.479V2.52148Z" stroke="white" stroke-width="2" stroke-linecap="round" stroke-linejoin="round"/>
<path d="M141.479 123.354H123.354V141.479H141.479V123.354Z" stroke="white" stroke-width="2" stroke-linecap="round" stroke-linejoin="round"/>
<path d="M102.208 93.387L71.9994 106.226L41.791 93.387V50.612L71.9994 37.7734L102.208 50.612V93.387Z" stroke="white" stroke-width="2" stroke-linecap="round" stroke-linejoin="round"/>
<path d="M102.208 50.6113L71.9994 63.4499L41.791 50.6113" stroke="white" stroke-width="2" stroke-linecap="round" stroke-linejoin="round"/>
<path d="M53.8743 14.6042C55.5427 14.6042 56.8952 13.2517 56.8952 11.5833C56.8952 9.91497 55.5427 8.5625 53.8743 8.5625C52.206 8.5625 50.8535 9.91497 50.8535 11.5833C50.8535 13.2517 52.206 14.6042 53.8743 14.6042Z" fill="white"/>
<path d="M41.7923 14.6042C43.4607 14.6042 44.8132 13.2517 44.8132 11.5833C44.8132 9.91497 43.4607 8.5625 41.7923 8.5625C40.124 8.5625 38.7715 9.91497 38.7715 11.5833C38.7715 13.2517 40.124 14.6042 41.7923 14.6042Z" fill="white"/>
<path d="M29.7083 14.6042C31.3767 14.6042 32.7292 13.2517 32.7292 11.5833C32.7292 9.91497 31.3767 8.5625 29.7083 8.5625C28.04 8.5625 26.6875 9.91497 26.6875 11.5833C26.6875 13.2517 28.04 14.6042 29.7083 14.6042Z" fill="white"/>
<path d="M90.1243 14.6042C91.7927 14.6042 93.1452 13.2517 93.1452 11.5833C93.1452 9.91497 91.7927 8.5625 90.1243 8.5625C88.456 8.5625 87.1035 9.91497 87.1035 11.5833C87.1035 13.2517 88.456 14.6042 90.1243 14.6042Z" fill="white"/>
<path d="M114.292 14.6042C115.961 14.6042 117.313 13.2517 117.313 11.5833C117.313 9.91497 115.961 8.5625 114.292 8.5625C112.624 8.5625 111.271 9.91497 111.271 11.5833C111.271 13.2517 112.624 14.6042 114.292 14.6042Z" fill="white"/>
<path d="M102.208 14.6042C103.877 14.6042 105.229 13.2517 105.229 11.5833C105.229 9.91497 103.877 8.5625 102.208 8.5625C100.54 8.5625 99.1875 9.91497 99.1875 11.5833C99.1875 13.2517 100.54 14.6042 102.208 14.6042Z" fill="white"/>
<path d="M53.8743 135.438C55.5427 135.438 56.8952 134.086 56.8952 132.417C56.8952 130.749 55.5427 129.396 53.8743 129.396C52.206 129.396 50.8535 130.749 50.8535 132.417C50.8535 134.086 52.206 135.438 53.8743 135.438Z" fill="white"/>
<path d="M41.7923 135.438C43.4607 135.438 44.8132 134.086 44.8132 132.417C44.8132 130.749 43.4607 129.396 41.7923 129.396C40.124 129.396 38.7715 130.749 38.7715 132.417C38.7715 134.086 40.124 135.438 41.7923 135.438Z" fill="white"/>
<path d="M29.7083 135.438C31.3767 135.438 32.7292 134.086 32.7292 132.417C32.7292 130.749 31.3767 129.396 29.7083 129.396C28.04 129.396 26.6875 130.749 26.6875 132.417C26.6875 134.086 28.04 135.438 29.7083 135.438Z" fill="white"/>
<path d="M90.1243 135.438C91.7927 135.438 93.1452 134.086 93.1452 132.417C93.1452 130.749 91.7927 129.396 90.1243 129.396C88.456 129.396 87.1035 130.749 87.1035 132.417C87.1035 134.086 88.456 135.438 90.1243 135.438Z" fill="white"/>
<path d="M114.292 135.438C115.961 135.438 117.313 134.086 117.313 132.417C117.313 130.749 115.961 129.396 114.292 129.396C112.624 129.396 111.271 130.749 111.271 132.417C111.271 134.086 112.624 135.438 114.292 135.438Z" fill="white"/>
<path d="M102.208 135.438C103.877 135.438 105.229 134.086 105.229 132.417C105.229 130.749 103.877 129.396 102.208 129.396C100.54 129.396 99.1875 130.749 99.1875 132.417C99.1875 134.086 100.54 135.438 102.208 135.438Z" fill="white"/>
<path d="M132.417 56.8952C134.086 56.8952 135.438 55.5427 135.438 53.8743C135.438 52.206 134.086 50.8535 132.417 50.8535C130.749 50.8535 129.396 52.206 129.396 53.8743C129.396 55.5427 130.749 56.8952 132.417 56.8952Z" fill="white"/>
<path d="M132.417 44.8132C134.086 44.8132 135.438 43.4607 135.438 41.7923C135.438 40.124 134.086 38.7715 132.417 38.7715C130.749 38.7715 129.396 40.124 129.396 41.7923C129.396 43.4607 130.749 44.8132 132.417 44.8132Z" fill="white"/>
<path d="M132.417 32.7292C134.086 32.7292 135.438 31.3767 135.438 29.7083C135.438 28.04 134.086 26.6875 132.417 26.6875C130.749 26.6875 129.396 28.04 129.396 29.7083C129.396 31.3767 130.749 32.7292 132.417 32.7292Z" fill="white"/>
<path d="M132.417 93.1452C134.086 93.1452 135.438 91.7927 135.438 90.1243C135.438 88.456 134.086 87.1035 132.417 87.1035C130.749 87.1035 129.396 88.456 129.396 90.1243C129.396 91.7927 130.749 93.1452 132.417 93.1452Z" fill="white"/>
<path d="M132.417 117.313C134.086 117.313 135.438 115.961 135.438 114.292C135.438 112.624 134.086 111.271 132.417 111.271C130.749 111.271 129.396 112.624 129.396 114.292C129.396 115.961 130.749 117.313 132.417 117.313Z" fill="white"/>
<path d="M132.417 105.229C134.086 105.229 135.438 103.877 135.438 102.208C135.438 100.54 134.086 99.1875 132.417 99.1875C130.749 99.1875 129.396 100.54 129.396 102.208C129.396 103.877 130.749 105.229 132.417 105.229Z" fill="white"/>
<path d="M11.5833 56.8952C13.2517 56.8952 14.6042 55.5427 14.6042 53.8743C14.6042 52.206 13.2517 50.8535 11.5833 50.8535C9.91497 50.8535 8.5625 52.206 8.5625 53.8743C8.5625 55.5427 9.91497 56.8952 11.5833 56.8952Z" fill="white"/>
<path d="M11.5833 44.8132C13.2517 44.8132 14.6042 43.4607 14.6042 41.7923C14.6042 40.124 13.2517 38.7715 11.5833 38.7715C9.91497 38.7715 8.5625 40.124 8.5625 41.7923C8.5625 43.4607 9.91497 44.8132 11.5833 44.8132Z" fill="white"/>
<path d="M11.5833 32.7292C13.2517 32.7292 14.6042 31.3767 14.6042 29.7083C14.6042 28.04 13.2517 26.6875 11.5833 26.6875C9.91497 26.6875 8.5625 28.04 8.5625 29.7083C8.5625 31.3767 9.91497 32.7292 11.5833 32.7292Z" fill="white"/>
<path d="M11.5833 93.1452C13.2517 93.1452 14.6042 91.7927 14.6042 90.1243C14.6042 88.456 13.2517 87.1035 11.5833 87.1035C9.91497 87.1035 8.5625 88.456 8.5625 90.1243C8.5625 91.7927 9.91497 93.1452 11.5833 93.1452Z" fill="white"/>
<path d="M11.5833 117.313C13.2517 117.313 14.6042 115.961 14.6042 114.292C14.6042 112.624 13.2517 111.271 11.5833 111.271C9.91497 111.271 8.5625 112.624 8.5625 114.292C8.5625 115.961 9.91497 117.313 11.5833 117.313Z" fill="white"/>
<path d="M11.5833 105.229C13.2517 105.229 14.6042 103.877 14.6042 102.208C14.6042 100.54 13.2517 99.1875 11.5833 99.1875C9.91497 99.1875 8.5625 100.54 8.5625 102.208C8.5625 103.877 9.91497 105.229 11.5833 105.229Z" fill="white"/>
<path d="M29.7083 75.0202C31.3767 75.0202 32.7292 73.6677 32.7292 71.9993C32.7292 70.331 31.3767 68.9785 29.7083 68.9785C28.04 68.9785 26.6875 70.331 26.6875 71.9993C26.6875 73.6677 28.04 75.0202 29.7083 75.0202Z" fill="white"/>
<path d="M114.292 75.0202C115.961 75.0202 117.313 73.6677 117.313 71.9993C117.313 70.331 115.961 68.9785 114.292 68.9785C112.624 68.9785 111.271 70.331 111.271 71.9993C111.271 73.6677 112.624 75.0202 114.292 75.0202Z" fill="white"/>
<path d="M71.9993 29.7077C73.6677 29.7077 75.0202 28.3552 75.0202 26.6868C75.0202 25.0185 73.6677 23.666 71.9993 23.666C70.331 23.666 68.9785 25.0185 68.9785 26.6868C68.9785 28.3552 70.331 29.7077 71.9993 29.7077Z" fill="white"/>
<path d="M71.9993 120.333C73.6677 120.333 75.0202 118.98 75.0202 117.312C75.0202 115.643 73.6677 114.291 71.9993 114.291C70.331 114.291 68.9785 115.643 68.9785 117.312C68.9785 118.98 70.331 120.333 71.9993 120.333Z" fill="white"/>
<path d="M72.0007 17.6243C75.3374 17.6243 78.0423 14.9194 78.0423 11.5827C78.0423 8.24596 75.3374 5.54102 72.0007 5.54102C68.6639 5.54102 65.959 8.24596 65.959 11.5827C65.959 14.9194 68.6639 17.6243 72.0007 17.6243Z" stroke="white" stroke-width="2" stroke-linecap="round" stroke-linejoin="round"/>
<path d="M72.0007 138.458C75.3374 138.458 78.0423 135.753 78.0423 132.417C78.0423 129.08 75.3374 126.375 72.0007 126.375C68.6639 126.375 65.959 129.08 65.959 132.417C65.959 135.753 68.6639 138.458 72.0007 138.458Z" stroke="white" stroke-width="2" stroke-linecap="round" stroke-linejoin="round"/>
<path d="M132.417 78.0423C135.753 78.0423 138.458 75.3374 138.458 72.0007C138.458 68.6639 135.753 65.959 132.417 65.959C129.08 65.959 126.375 68.6639 126.375 72.0007C126.375 75.3374 129.08 78.0423 132.417 78.0423Z" stroke="white" stroke-width="2" stroke-linecap="round" stroke-linejoin="round"/>
<path d="M11.5827 78.0423C14.9194 78.0423 17.6243 75.3374 17.6243 72.0007C17.6243 68.6639 14.9194 65.959 11.5827 65.959C8.24596 65.959 5.54102 68.6639 5.54102 72.0007C5.54102 75.3374 8.24596 78.0423 11.5827 78.0423Z" stroke="white" stroke-width="2" stroke-linecap="round" stroke-linejoin="round"/>
</g>
<defs>
<clipPath id="clip0_7881_542253">
<rect width="144" height="144" fill="white"/>
</clipPath>
</defs>
</svg>
