<svg width="144" height="144" viewBox="0 0 144 144" fill="none" xmlns="http://www.w3.org/2000/svg">
<path d="M124.318 115.813V81.8242" stroke="white" stroke-width="2"/>
<path d="M19.6836 115.814V48.0584C19.6836 45.49 21.7634 43.4102 24.3318 43.4102H38.1229" stroke="white" stroke-width="2"/>
<path d="M5 116.857C5 124.384 11.8872 130.485 20.3811 130.485H123.62C132.116 130.485 139.001 124.384 139.001 116.857H5V116.857Z" stroke="white" stroke-width="2"/>
<path d="M64.6925 107.394V62.2439H74.8391C80.9683 62.2439 82.9561 58.6314 82.9561 54.127H46.4277C42.6128 54.127 36.2812 57.1909 36.2812 66.3031V80.5088C36.2812 84.8723 40.0346 88.6257 44.3981 88.6257" stroke="white" stroke-width="2"/>
<path d="M44.4004 66.3008V107.392" stroke="white" stroke-width="2"/>
<path d="M54.5467 29.7734H52.5172C49.1545 29.7734 46.4297 32.4995 46.4297 35.8608V41.9481C46.4297 45.3108 49.1559 48.0355 52.5172 48.0355H54.5467C57.9094 48.0355 60.634 45.3094 60.634 41.9481V35.8608C60.634 32.4995 57.9094 29.7734 54.5467 29.7734Z" stroke="white" stroke-width="2"/>
<path d="M54.5469 82.5371V107.393" stroke="white" stroke-width="2"/>
<path d="M54.9434 21.4104V13.5098H129.664V73.4481H124.318H73.0616" stroke="white" stroke-width="2" stroke-dasharray="4 4"/>
</svg>
