<svg width="144" height="144" viewBox="0 0 144 144" fill="none" xmlns="http://www.w3.org/2000/svg">
<g clip-path="url(#clip0_7881_542255)">
<path d="M86.3039 70.1389L94.068 65.4469L90.5909 57.0528L81.7829 59.2248L81.6239 59.2908C79.6409 56.4048 77.1689 53.9688 74.3729 52.0488L74.4419 51.8838L76.6139 43.0757L68.2198 39.5987L63.5278 47.3628L63.4588 47.5277C60.1258 46.9097 56.6577 46.8827 53.2107 47.5217L53.1447 47.3597L48.4527 39.5957L40.0587 43.0728L42.2307 51.8808L42.2967 52.0428C39.4106 54.0258 36.9746 56.4978 35.0546 59.2908L34.8896 59.2218L26.0816 57.0498L22.6046 65.4438L30.3686 70.1359L30.5336 70.2049C29.9156 73.5379 29.8886 77.0059 30.5276 80.453L30.3656 80.519L22.6016 85.211L26.0786 93.605L34.8866 91.433L35.0486 91.367C37.0316 94.253 39.5036 96.6891 42.2967 98.6091L42.2277 98.774L40.0556 107.582L48.4497 111.059L53.1417 103.295L53.2107 103.13C56.5437 103.748 60.0118 103.775 63.4588 103.136L63.5248 103.295L68.2168 111.059L76.6109 107.582L74.4389 98.774L74.3729 98.6151C77.2589 96.6321 79.6949 94.16 81.6149 91.367L81.7799 91.436L90.5879 93.608L94.065 85.214L86.3009 80.5219L86.1359 80.453C86.7539 77.1199 86.7809 73.6489 86.1419 70.2049L86.3039 70.1389Z" stroke="white" stroke-width="2"/>
<path d="M62.5608 85.3618C68.0945 83.0695 70.7224 76.7254 68.4301 71.1916C66.1379 65.6579 59.7937 63.03 54.26 65.3223C48.7262 67.6145 46.0984 73.9587 48.3906 79.4924C50.6829 85.0262 57.027 87.654 62.5608 85.3618Z" stroke="white" stroke-width="2"/>
<path d="M17.3164 127.556H103.936V136.385L119.302 122.216L103.936 108.059V116.876" stroke="white" stroke-width="2"/>
<path d="M105.115 83.6592H125.632V92.4973L141.001 78.3282L125.632 64.1621V72.9882" stroke="white" stroke-width="2"/>
<path d="M26.5566 16.4363H93.961V7.61328L109.336 21.7794L93.961 35.9455V27.1104" stroke="white" stroke-width="2"/>
<path d="M1.02148 44.293H27.9166" stroke="white" stroke-width="2" stroke-dasharray="4 4"/>
<path d="M28.2152 109.125H-3" stroke="white" stroke-width="2" stroke-dasharray="4 4"/>
<path d="M103.935 116.877H86.5293" stroke="white" stroke-width="2" stroke-dasharray="4 4"/>
<path d="M125.632 72.9902H105.115" stroke="white" stroke-width="2" stroke-dasharray="4 4"/>
<path d="M93.9616 27.1094H49.6094" stroke="white" stroke-width="2" stroke-dasharray="4 4"/>
</g>
<defs>
<clipPath id="clip0_7881_542255">
<rect width="144" height="144" fill="white"/>
</clipPath>
</defs>
</svg>
