<svg width="150" height="151" viewBox="0 0 150 151" fill="none" xmlns="http://www.w3.org/2000/svg">
<path d="M86.7974 137.016V45.4688H111.938V67.5625" stroke="white" stroke-width="2"/>
<path d="M49.8286 136.547V7.12501H74.9692V136.547" stroke="white" stroke-width="2"/>
<path d="M9.95361 136.438V70.6406H37.063V136.438" stroke="white" stroke-width="2" stroke-dasharray="3.62 3.62"/>
<path d="M1.92236 143.328H143.36" stroke="white" stroke-width="2"/>
<path d="M95.8442 77.8594C100.657 75.2969 106.126 73.875 111.938 73.875C131.047 73.875 146.516 89.4062 146.516 108.594C146.516 119.266 141.735 128.797 134.204 135.172" stroke="white" stroke-width="2" stroke-dasharray="3.62 3.62"/>
<path d="M102.501 114.922V118.078C102.501 121.203 105.391 124.391 108.844 124.391H115.063C118.516 124.391 121.344 121.203 121.344 118.078V117.125C121.344 114.703 119.641 112.516 117.063 111.734L106.782 108.641C104.204 107.844 102.469 105.703 102.469 103.25V102.297C102.469 99.1719 105.297 95.9844 108.751 95.9844H115.032C118.485 95.9844 121.313 99.1719 121.313 102.297V105.453" stroke="white" stroke-width="2"/>
<path d="M111.938 95.9844V86.5156" stroke="white" stroke-width="2"/>
<path d="M111.938 124.391V133.859" stroke="white" stroke-width="2"/>
</svg>
