<svg width="150" height="151" viewBox="0 0 150 151" fill="none" xmlns="http://www.w3.org/2000/svg">
<path d="M49.4366 34.8125C49.4991 34.7656 49.5462 34.7344 49.6087 34.7031C50.3118 34.2187 51.0307 33.75 51.7495 33.2969" stroke="white" stroke-width="2"/>
<path d="M56.593 30.5625C64.6867 26.4844 73.8273 24.1875 83.5148 24.1875C116.687 24.1875 143.593 51.1406 143.593 84.3594C143.593 117.578 116.702 144.531 83.5148 144.531C50.3273 144.531 23.4368 117.578 23.4368 84.3594C23.4368 73.8125 26.1399 63.9219 30.9056 55.2969" stroke="white" stroke-width="2" stroke-dasharray="3.94 3.94"/>
<path d="M32.2804 52.9219C32.7648 52.125 33.2651 51.3594 33.7807 50.5938" stroke="white" stroke-width="2"/>
<path d="M59.2491 49.3125C59.5304 49.1094 59.843 48.9063 60.1398 48.7188C66.843 44.2813 74.8898 41.7188 83.5148 41.7188C107.015 41.7188 126.093 60.7969 126.093 84.3594C126.093 107.922 107.03 127 83.5148 127C59.9835 127 40.921 107.922 40.921 84.3594C40.921 75.7031 43.4991 67.6562 47.9366 60.9375" stroke="white" stroke-width="2"/>
<path d="M72.7337 61.125C75.9994 59.5937 79.6555 58.7344 83.5148 58.7344C97.6398 58.7344 109.093 70.2031 109.093 84.3437C109.093 98.5 97.6242 109.953 83.5148 109.953C69.3742 109.953 57.9213 98.4844 57.9213 84.3437C57.9213 80.4844 58.7651 76.8281 60.3276 73.5469" stroke="white" stroke-width="2"/>
<path d="M83.4991 93.2344C88.3898 93.2344 92.3588 89.2656 92.3588 84.3594C92.3588 79.4531 88.3898 75.4844 83.4991 75.4844C78.6085 75.4844 74.6399 79.4531 74.6399 84.3594C74.6555 89.2656 78.6241 93.2344 83.4991 93.2344Z" stroke="white" stroke-width="2"/>
<path d="M40.968 41.7656L41.0775 23.4063L24.6086 6.92188V25.3906L83.5148 84.375" stroke="white" stroke-width="2"/>
<path d="M39.1243 39.875L41.0774 41.8438L38.3118 41.8906" stroke="white" stroke-width="2"/>
<path d="M33.9367 41.9687L27.3899 42.0937" stroke="white" stroke-width="2"/>
<path d="M25.2022 42.125L22.4369 42.1719L20.4681 40.2031" stroke="white" stroke-width="2"/>
<path d="M16.296 36.0313L10.0304 29.75" stroke="white" stroke-width="2"/>
<path d="M7.9369 27.6563L5.96814 25.6875L8.7338 25.6563" stroke="white" stroke-width="2"/>
<path d="M13.1398 25.5937L19.7335 25.5" stroke="white" stroke-width="2"/>
<path d="M21.9369 25.4844L24.7025 25.4531L26.6713 27.4219" stroke="white" stroke-width="2"/>
<path d="M30.8274 31.5625L37.0461 37.7969" stroke="white" stroke-width="2"/>
</svg>
