<?xml version="1.0" encoding="utf-8"?>
<!-- Generator: Adobe Illustrator 28.0.0, SVG Export Plug-In . SVG Version: 6.00 Build 0)  -->
<svg version="1.1" id="Layer_1" xmlns="http://www.w3.org/2000/svg" xmlns:xlink="http://www.w3.org/1999/xlink" x="0px" y="0px"
	 viewBox="0 0 96 96" style="enable-background:new 0 0 96 96;" xml:space="preserve">
<style type="text/css">
	.st0{fill:none;stroke:#FFFFFF;stroke-width:1.5;stroke-miterlimit:8;}
</style>
<g>
	<g transform="translate(-1718 -1695)">
		<g>
			<g>
				<g>
					<g>
						<g>
							<g>
								<path class="st0" d="M1774.2,1764v-32.2l12.1-12.4c3-3.2,3-8.3,0.4-11.5l-14.2,13.8c-1.3,1.4-3.4,1.8-5.2,1.8h-3.4
									c-1.7,0-3.9-0.5-5.2-1.8l-14.7-13.8c-2.6,3.2-2.2,8.3,0.4,11.5l12.5,12.4v32.2"/>
								<path class="st0" d="M1765.3,1746.4v17.6"/>
								<path class="st0" d="M1751,1786.4v-19.2h28.7v19.2"/>
								<path class="st0" d="M1779.7,1786.4v-11.2h27.1v11.2"/>
								<path class="st0" d="M1725.5,1786.4v-6.4h25.5v6.4"/>
								<path class="st0" d="M1766.1,1715.9c4.5,0,7.2-3.1,7.2-6.7v-2.2c0-4-2.7-7.1-7.2-7.1s-7.2,3.1-7.2,7.1v2.2
									C1759,1712.8,1761.7,1715.9,1766.1,1715.9z"/>
							</g>
						</g>
					</g>
				</g>
			</g>
		</g>
	</g>
</g>
</svg>
