<svg width="96" height="96" viewBox="0 0 96 96" fill="none" xmlns="http://www.w3.org/2000/svg">
<path d="M32.6599 15.11L48.1399 26.72" stroke="white" stroke-width="1.5" stroke-dasharray="3.9 3.9"/>
<path d="M32.6599 65.41L48.1399 53.8L63.6201 65.41V80.89L48.1399 92.5L32.6599 80.89V65.41Z" stroke="white" stroke-width="1.5"/>
<path d="M26.8601 53.8L37.48 61.77" stroke="white" stroke-width="1.5"/>
<path d="M32.6599 65.41L48.1399 77.02L63.6201 65.41" stroke="white" stroke-width="1.5" stroke-dasharray="3.9 3.9"/>
<path d="M26.8601 61.54L19.1201 67.34L3.63989 55.73V40.25L19.1201 28.64L34.6001 40.25V51.86" stroke="white" stroke-width="1.5"/>
<path d="M3.6499 40.26L19.1299 51.87L34.6101 40.26" stroke="white" stroke-width="1.5" stroke-dasharray="3.9 3.9"/>
<path d="M29.76 36.65L40.3999 28.66" stroke="white" stroke-width="1.5"/>
<path d="M55.8799 36.39L48.1399 42.1899L40.3999 36.39" stroke="white" stroke-width="1.5"/>
<path d="M63.6201 26.72V15.11L48.1399 3.5L32.6599 15.11V26.72" stroke="white" stroke-width="1.5"/>
<path d="M63.6201 15.11L48.1399 26.72" stroke="white" stroke-width="1.5" stroke-dasharray="3.9 3.9"/>
<path d="M69.4199 53.8L58.78 61.77" stroke="white" stroke-width="1.5"/>
<path d="M69.4199 61.54L77.1599 67.34L92.6399 55.73V40.25L77.1599 28.64L61.6799 40.25V51.86" stroke="white" stroke-width="1.5"/>
<path d="M92.6399 40.26L77.1599 51.87L61.6799 40.26" stroke="white" stroke-width="1.5" stroke-dasharray="3.9 3.9"/>
<path d="M66.52 36.65L55.8799 28.66" stroke="white" stroke-width="1.5"/>
<path d="M48.1399 26.72V42.2" stroke="white" stroke-width="1.5" stroke-dasharray="3.9 3.9"/>
<path d="M19.1201 51.87V67.35" stroke="white" stroke-width="1.5" stroke-dasharray="3.9 3.9"/>
<path d="M48.1399 92.5V77.02" stroke="white" stroke-width="1.5" stroke-dasharray="3.9 3.9"/>
<path d="M77.1599 51.87V67.35" stroke="white" stroke-width="1.5" stroke-dasharray="3.9 3.9"/>
</svg>
