<svg width="96" height="96" viewBox="0 0 96 96" fill="none" xmlns="http://www.w3.org/2000/svg">
<path d="M84.6799 78.6V54.86" stroke="white" stroke-width="1.5"/>
<path d="M11.6001 78.6V31.28C11.6001 29.49 13.0501 28.04 14.8501 28.04H24.48" stroke="white" stroke-width="1.5"/>
<path d="M1.3501 79.33C1.3501 84.59 6.16009 88.85 12.0901 88.85H84.1899C90.1199 88.85 94.9299 84.59 94.9299 79.33H1.3501Z" stroke="white" stroke-width="1.5"/>
<path d="M43.03 72.72V41.1899H50.1201C54.4001 41.1899 55.79 38.67 55.79 35.52H30.28C27.61 35.52 23.1899 37.66 23.1899 44.02V53.9399C23.1899 56.9899 25.8101 59.61 28.8601 59.61" stroke="white" stroke-width="1.5"/>
<path d="M28.8601 44.02V72.72" stroke="white" stroke-width="1.5"/>
<path d="M35.95 18.51H34.53C32.18 18.51 30.28 20.41 30.28 22.76V27.01C30.28 29.36 32.18 31.26 34.53 31.26H35.95C38.3 31.26 40.2 29.36 40.2 27.01V22.76C40.2 20.42 38.3 18.51 35.95 18.51Z" stroke="white" stroke-width="1.5"/>
<path d="M35.95 55.36V72.72" stroke="white" stroke-width="1.5"/>
<path d="M36.23 12.67V7.15002H88.4099V49.01H84.6799H48.8899" stroke="white" stroke-width="1.5" stroke-dasharray="3.9 3.9"/>
</svg>
