<svg width="96" height="96" viewBox="0 0 96 96" fill="none" xmlns="http://www.w3.org/2000/svg">
<path d="M76.39 78.78C78.66 83.68 81.12 88.99 81.12 88.99L75.35 87.48L72.79 92.8999C72.79 92.8999 71.16 89.3799 69.33 85.4299" stroke="white" stroke-width="1.5" stroke-linecap="round" stroke-linejoin="round"/>
<path d="M58.2 78.75C55.93 83.66 53.46 88.98 53.46 88.98L59.23 87.47L61.79 92.8899C61.79 92.8899 64.8799 86.2299 67.3199 80.9399" stroke="white" stroke-width="1.5" stroke-linecap="round" stroke-linejoin="round"/>
<path d="M79.33 65.6999L78.34 66.8701C77.78 67.5201 77.39 68.75 77.46 69.6L77.58 71.1398C77.65 71.9998 77.03 72.85 76.2 73.05L74.71 73.4098C73.88 73.6098 72.85 74.37 72.4 75.1L71.6 76.4199C71.15 77.1499 70.16 77.4798 69.37 77.1498L67.95 76.56C67.16 76.23 65.88 76.23 65.09 76.56L63.6701 77.1498C62.8801 77.4798 61.88 77.1499 61.44 76.4199L60.64 75.1C60.19 74.37 59.16 73.6098 58.33 73.4098L56.84 73.05C56.01 72.85 55.39 71.9898 55.46 71.1398L55.58 69.6C55.65 68.74 55.25 67.5201 54.7 66.8701L53.71 65.6999C53.16 65.0399 53.16 63.99 53.71 63.33L54.7 62.1598C55.26 61.4998 55.65 60.2799 55.58 59.4199L55.46 57.8898C55.39 57.0298 56.01 56.1699 56.84 55.9799L58.33 55.6201C59.16 55.4201 60.19 54.6599 60.64 53.9299L61.44 52.61C61.89 51.88 62.8801 51.5498 63.6701 51.8798L65.09 52.4699C65.88 52.7999 67.16 52.7999 67.95 52.4699L69.37 51.8798C70.16 51.5498 71.16 51.88 71.6 52.61L72.4 53.9299C72.85 54.6599 73.88 55.4201 74.71 55.6201L76.2 55.9799C77.03 56.1799 77.65 57.0398 77.58 57.8898L77.46 59.4199C77.39 60.2799 77.79 61.4998 78.34 62.1498L79.33 63.32C79.88 63.99 79.88 65.0499 79.33 65.6999Z" stroke="white" stroke-width="1.5" stroke-linecap="round" stroke-linejoin="round"/>
<path d="M72.95 64.8101C73.11 61.2301 70.3601 58.2 66.8101 58.04C63.2601 57.88 60.25 60.65 60.09 64.22C59.93 67.8 62.68 70.83 66.23 70.99C69.77 71.15 72.79 68.3901 72.95 64.8101Z" stroke="white" stroke-width="1.5" stroke-linecap="round" stroke-linejoin="round"/>
<path d="M52.0601 76.24H12.03V3.79004H84.98V49.75" stroke="white" stroke-width="1.5" stroke-linecap="round" stroke-linejoin="round"/>
<path d="M73.8101 46.77V17.6699C68.8201 17.6699 64.78 14.1701 64.78 9.86011H29.95C29.95 14.1701 25.9101 17.6699 20.9301 17.6699V62.3601C25.9101 62.3601 29.95 65.8599 29.95 70.1699H49.21" stroke="white" stroke-width="1.5" stroke-linecap="round" stroke-linejoin="round" stroke-dasharray="3.9 3.9"/>
<path d="M42.6801 24.6799H54.33" stroke="white" stroke-width="1.5" stroke-linecap="round" stroke-linejoin="round"/>
<path d="M34.84 31.71H62.17" stroke="white" stroke-width="1.5" stroke-linecap="round" stroke-linejoin="round"/>
<path d="M34.84 38.75H62.17" stroke="white" stroke-width="1.5" stroke-linecap="round" stroke-linejoin="round"/>
<path d="M34.84 45.78H51.38" stroke="white" stroke-width="1.5" stroke-linecap="round" stroke-linejoin="round"/>
</svg>
