<svg width="64" height="64" viewBox="0 0 64 64" fill="none" xmlns="http://www.w3.org/2000/svg">
<g clip-path="url(#clip0_18122_16074)">
<path d="M50.344 54.4922C51.8707 57.79 53.527 61.3672 53.527 61.3672L49.645 60.3519L47.9217 63.9999C47.9217 63.9999 46.8249 61.6305 45.5917 58.9698" stroke="#AA73E6" stroke-linecap="round" stroke-linejoin="round"/>
<path d="M38.0942 54.4756C36.5656 57.7785 34.9039 61.3676 34.9039 61.3676L38.7861 60.3522L40.5103 63.9998C40.5103 63.9998 42.5883 59.5116 44.2354 55.9543" stroke="#AA73E6" stroke-linecap="round" stroke-linejoin="round"/>
<path d="M52.3205 45.6864L51.6515 46.4756C51.2776 46.9157 51.0126 47.7402 51.0571 48.3168L51.1373 49.3508C51.1822 49.9282 50.7659 50.5047 50.2071 50.64L49.2041 50.8821C48.6453 51.0173 47.9492 51.5264 47.6495 52.0199L47.1115 52.9064C46.8118 53.3998 46.1386 53.6199 45.6078 53.399L44.6547 52.9996C44.124 52.7775 43.2635 52.7775 42.7328 52.9996L41.7797 53.399C41.249 53.6211 40.5758 53.4011 40.2761 52.9064L39.7381 52.0199C39.4385 51.5264 38.7423 51.016 38.1836 50.8821L37.1805 50.64C36.6217 50.5047 36.2055 49.9282 36.2502 49.3508L36.3304 48.3168C36.3751 47.7394 36.1098 46.9157 35.7362 46.4756L35.0682 45.6864C34.6946 45.2463 34.6946 44.5327 35.0682 44.0926L35.7362 43.3035C36.1098 42.8634 36.3751 42.0387 36.3304 41.4613L36.2502 40.427C36.2055 39.8496 36.6217 39.2733 37.1805 39.1381L38.1836 38.896C38.7423 38.7609 39.4385 38.2516 39.7381 37.758L40.2761 36.8726C40.5758 36.379 41.249 36.1589 41.7797 36.38L42.7328 36.7793C43.2635 37.0014 44.124 37.0014 44.6547 36.7793L45.6078 36.38C46.1386 36.1579 46.8118 36.3779 47.1115 36.8726L47.6495 37.758C47.9492 38.2516 48.6453 38.7619 49.2041 38.896L50.2071 39.1381C50.7659 39.2733 51.1822 39.8496 51.1373 40.427L51.0571 41.4613C51.0126 42.0387 51.2776 42.8623 51.6515 43.3025L52.3205 44.0915C52.694 44.5316 52.694 45.2453 52.3205 45.6854V45.6864Z" stroke="#AA73E6" stroke-linecap="round" stroke-linejoin="round"/>
<path d="M48.0234 45.0865C48.1327 42.6774 46.2818 40.6354 43.8895 40.5256C41.4973 40.4158 39.4696 42.2797 39.3606 44.6888C39.2516 47.0978 41.1024 49.14 43.4946 49.2498C45.8867 49.3596 47.9144 47.4955 48.0234 45.0865Z" stroke="#AA73E6" stroke-linecap="round" stroke-linejoin="round"/>
<path d="M33.9565 52.7861H7V4H56.1223V34.9497" stroke="#AA73E6" stroke-linecap="round" stroke-linejoin="round"/>
<path d="M48.6059 32.9431V13.3453C45.2495 13.3453 42.5281 10.9907 42.5281 8.08691H19.0725C19.0725 10.9907 16.3509 13.3453 12.9948 13.3453V43.4399C16.3509 43.4399 19.0725 45.7945 19.0725 48.6983H32.0417" stroke="#AA73E6" stroke-linecap="round" stroke-linejoin="round"/>
<path d="M27.6406 18.063H35.4853" stroke="#AA73E6" stroke-linecap="round" stroke-linejoin="round"/>
<path d="M22.3579 22.7993H40.7641" stroke="#AA73E6" stroke-linecap="round" stroke-linejoin="round"/>
<path d="M22.3579 27.5361H40.7641" stroke="#AA73E6" stroke-linecap="round" stroke-linejoin="round"/>
<path d="M22.3579 32.2715H33.4979" stroke="#AA73E6" stroke-linecap="round" stroke-linejoin="round"/>
</g>
<defs>
<clipPath id="clip0_18122_16074">
<rect width="64" height="64" fill="white"/>
</clipPath>
</defs>
</svg>
