<svg width="64" height="64" viewBox="0 0 64 64" fill="none" xmlns="http://www.w3.org/2000/svg">
<path d="M40.5117 30.5661L43.6863 28.6476L42.2646 25.2155L38.6632 26.1035L38.5982 26.1306C37.7874 24.9505 36.7766 23.9545 35.6334 23.1694L35.6616 23.102L36.5497 19.5006L33.1175 18.0789L31.1991 21.2534L31.1709 21.3209C29.8081 21.0682 28.3901 21.0571 26.9806 21.3184L26.9537 21.2522L25.0352 18.0776L21.603 19.4993L22.4911 23.1007L22.5181 23.167C21.3381 23.9778 20.3421 24.9886 19.557 26.1306L19.4895 26.1023L15.8881 25.2143L14.4665 28.6464L17.641 30.5649L17.7085 30.5931C17.4558 31.9559 17.4447 33.3739 17.706 34.7833L17.6397 34.8103L14.4652 36.7287L15.8869 40.1609L19.4883 39.2728L19.5545 39.2458C20.3653 40.4259 21.3761 41.4219 22.5181 42.2069L22.4899 42.2744L21.6018 45.8757L25.034 47.2975L26.9525 44.1228L26.9806 44.0557C28.3434 44.3081 29.7614 44.3192 31.1709 44.0579L31.1978 44.1228L33.1163 47.2975L36.5485 45.8757L35.6604 42.2744L35.6334 42.2094C36.8134 41.3986 37.8094 40.3878 38.5945 39.2458L38.662 39.274L42.2634 40.1621L43.6851 36.73L40.5105 34.8115L40.443 34.7833C40.6957 33.4205 40.7068 32.0013 40.4455 30.5931L40.5117 30.5661Z" stroke="#AA73E6"/>
<path d="M30.8033 36.7902C33.066 35.853 34.1405 33.259 33.2032 30.9964C32.266 28.7337 29.672 27.6593 27.4093 28.5965C25.1467 29.5337 24.0723 32.1278 25.0095 34.3904C25.9467 36.653 28.5407 37.7275 30.8033 36.7902Z" stroke="#AA73E6"/>
<path d="M12.3055 54.0423H47.7225V57.6521L54.0051 51.8588L47.7225 46.0703V49.6752" stroke="#AA73E6"/>
<path d="M48.2083 36.094H56.5971V39.7077L62.8816 33.9143L56.5971 28.1221V31.7309" stroke="#AA73E6"/>
<path d="M16.0868 8.60756H43.647V5L49.9335 10.7922L43.647 16.5844V12.972" stroke="#AA73E6"/>
<path d="M5.64575 19.9966H16.6426" stroke="#AA73E6" stroke-dasharray="4 4"/>
<path d="M16.7632 46.5059H4" stroke="#AA73E6" stroke-dasharray="4 4"/>
<path d="M47.7246 49.6753H40.6075" stroke="#AA73E6" stroke-dasharray="4 4"/>
<path d="M56.5971 31.7305H48.2083" stroke="#AA73E6" stroke-dasharray="4 4"/>
<path d="M43.645 12.9717H25.5104" stroke="#AA73E6" stroke-dasharray="4 4"/>
</svg>
