<svg width="96" height="96" viewBox="0 0 96 96" fill="none" xmlns="http://www.w3.org/2000/svg">
<path d="M27.8365 70.2217H15.6719V64.041H48.1109V70.2217H37.9737" stroke="white" stroke-width="2" stroke-linecap="round" stroke-linejoin="round"/>
<path d="M50.1408 39.3184L46.0859 43.4388" stroke="white" stroke-width="2" stroke-linecap="round" stroke-linejoin="round"/>
<path d="M50.1378 47.559L44.0555 53.7396L27.8359 37.2578L33.9183 31.0771L42.028 39.3181" stroke="white" stroke-width="2" stroke-linecap="round" stroke-linejoin="round"/>
<path d="M68.3832 16.6556L64.3283 20.7761L60.2734 16.6556L64.3283 12.5352" stroke="white" stroke-width="2" stroke-linecap="round" stroke-linejoin="round"/>
<path d="M66.3599 4.29326L62.3047 8.41406L72.4423 18.7156L76.4975 14.5948L66.3599 4.29326Z" stroke="white" stroke-width="2" stroke-linecap="round" stroke-linejoin="round"/>
<path d="M66.3533 84.6426V92.8835H29.8594V84.6426H52.1612" stroke="white" stroke-width="2" stroke-linecap="round" stroke-linejoin="round"/>
<path d="M39.9975 84.6424C33.9151 84.6424 26.2163 77.8807 23.0156 71.3457" stroke="white" stroke-width="2" stroke-linecap="round" stroke-linejoin="round"/>
<path d="M64.3323 35.1973C74.4695 41.3779 76.497 51.6791 76.497 57.8597C76.497 70 68.6994 80.3863 58.25 84.6427" stroke="white" stroke-width="2" stroke-linecap="round" stroke-linejoin="round" stroke-dasharray="4 4"/>
<path d="M60.2748 41.3779C63.7336 44.1949 68.3845 49.6188 68.3845 57.8597C68.3845 68.1609 60.2748 78.462 48.1101 78.462C41.475 78.462 35.1007 74.9706 31.8906 70.2211" stroke="white" stroke-width="2" stroke-linecap="round" stroke-linejoin="round"/>
<path d="M29.8622 39.3184L25.8073 43.4388C25.8073 43.4388 23.7799 45.499 25.8073 47.5593C27.8348 49.6195 29.8622 47.5593 29.8622 47.5593L31.8897 45.499" stroke="white" stroke-width="2" stroke-linecap="round" stroke-linejoin="round"/>
<path d="M37.9716 47.5586L33.9167 51.679C33.9167 51.679 31.8893 53.7393 33.9167 55.7995C35.9441 57.8597 37.9716 55.7995 37.9716 55.7995L39.999 53.7393" stroke="white" stroke-width="2" stroke-linecap="round" stroke-linejoin="round"/>
<path d="M56.2191 41.3783C60.698 41.3783 64.3289 37.6887 64.3289 33.1374C64.3289 28.5861 60.698 24.8965 56.2191 24.8965C51.7402 24.8965 48.1094 28.5861 48.1094 33.1374C48.1094 37.6887 51.7402 41.3783 56.2191 41.3783Z" stroke="white" stroke-width="2" stroke-linecap="round" stroke-linejoin="round"/>
<path d="M62.3058 26.9571L66.3607 22.8366L58.251 14.5957L37.9766 35.198L42.0314 39.3184" stroke="white" stroke-width="2" stroke-linecap="round" stroke-linejoin="round"/>
</svg>
