<svg width="96" height="96" viewBox="0 0 96 96" fill="none" xmlns="http://www.w3.org/2000/svg">
<path d="M36.0391 93.835H71.3918" stroke="white" stroke-width="2" stroke-linecap="round" stroke-linejoin="round"/>
<path d="M47.8265 84.0361L43.8984 93.8347" stroke="white" stroke-width="2" stroke-linecap="round" stroke-linejoin="round"/>
<path d="M59.6094 84.0361L63.5375 93.8347" stroke="white" stroke-width="2" stroke-linecap="round" stroke-linejoin="round"/>
<path d="M73.2266 29.1641H89.0699C91.6729 29.1641 92.998 30.4862 92.998 33.0835V80.1167C92.998 82.7035 91.6624 84.0361 89.0699 84.0361H53.0625" stroke="white" stroke-width="2" stroke-linecap="round" stroke-linejoin="round" stroke-dasharray="4 4"/>
<path d="M55.6823 84.0363H18.3656C15.773 84.0363 14.4375 82.7037 14.4375 80.1168V67.8359" stroke="white" stroke-width="2" stroke-linecap="round" stroke-linejoin="round" stroke-dasharray="4 4"/>
<path d="M23.5234 56.7237V61.4492C23.5234 69.2789 29.8843 75.6271 37.7326 75.6271H44.0477C51.8946 75.6271 58.2568 69.2803 58.2568 61.4492V48.3818" stroke="white" stroke-width="2" stroke-linecap="round" stroke-linejoin="round"/>
<path d="M58.2532 47.4754C63.4843 47.4754 67.7251 43.244 67.7251 38.0243C67.7251 32.8046 63.4843 28.5732 58.2532 28.5732C53.022 28.5732 48.7812 32.8046 48.7812 38.0243C48.7812 43.244 53.022 47.4754 58.2532 47.4754Z" stroke="white" stroke-width="2" stroke-linecap="round" stroke-linejoin="round"/>
<path d="M53.5156 38.0244C53.5156 35.414 55.6355 33.2988 58.2516 33.2988" stroke="white" stroke-width="2" stroke-linecap="round" stroke-linejoin="round"/>
<path d="M25.0998 56.724C25.9719 56.724 26.6789 56.0185 26.6789 55.1483V53.2762C26.6789 52.3172 27.1084 51.417 27.86 50.82C30.738 48.535 38.1136 42.2743 41.3621 35.7458C42.0181 34.4276 41.7719 32.7592 40.6014 31.8643C39.1558 30.7603 37.1119 31.2071 36.2045 32.7436C31.7278 40.329 24.9336 45.6973 23.5194 45.6973C22.1053 45.6973 15.3779 40.3825 10.9011 32.8572C10.1496 31.5925 8.62548 30.9053 7.24542 31.4201C5.4948 32.0733 4.83096 34.0082 5.59431 35.576C8.79701 42.1606 16.2656 48.5049 19.1737 50.8148C19.9279 51.4131 20.3626 52.3159 20.3626 53.2775V55.1496C20.3626 56.0198 21.0696 56.7253 21.9417 56.7253H25.0985L25.0998 56.724Z" stroke="white" stroke-width="2" stroke-linecap="round" stroke-linejoin="round"/>
<path d="M40.6077 31.8637C40.6077 31.8637 44.05 23.6433 44.05 15.7679C44.05 10.8203 41.3436 4.74121 34.5781 4.74121" stroke="white" stroke-width="2" stroke-linecap="round" stroke-linejoin="round"/>
<path d="M34.5781 1.16504V9.49992" stroke="white" stroke-width="2" stroke-linecap="round" stroke-linejoin="round"/>
<path d="M6.42921 31.8755C6.42921 31.8755 3 23.6433 3 15.7679C3 10.8203 5.70645 4.74121 12.4719 4.74121" stroke="white" stroke-width="2" stroke-linecap="round" stroke-linejoin="round"/>
<path d="M12.4688 1.16504V9.49992" stroke="white" stroke-width="2" stroke-linecap="round" stroke-linejoin="round"/>
<path d="M13.2109 36.3C13.2109 36.3 19.4225 37.8207 23.5274 37.8207C27.6322 37.8207 33.8844 36.2451 33.8844 36.2451" stroke="white" stroke-width="2" stroke-linecap="round" stroke-linejoin="round"/>
</svg>
