<svg width="96" height="96" viewBox="0 0 96 96" fill="none" xmlns="http://www.w3.org/2000/svg">
<path d="M13.0312 43.5234H24.6614" stroke="white" stroke-width="2" stroke-linecap="round" stroke-linejoin="round" stroke-dasharray="4 4"/>
<path d="M13.0312 33.7959V62.977C13.0312 66.8678 15.8483 68.8132 18.8463 68.8132C21.8443 68.8132 24.6614 66.8678 24.6614 62.5879V33.7959" stroke="white" stroke-width="2" stroke-linecap="round" stroke-linejoin="round"/>
<path d="M24.6553 26.0141V22.1233C26.7965 22.1233 28.532 20.3815 28.532 18.2325V16.2871H9.14844V18.2325C9.14844 20.3815 10.8839 22.1233 13.0251 22.1233V26.0141" stroke="white" stroke-width="2" stroke-linecap="round" stroke-linejoin="round"/>
<path d="M67.3029 33.7959V37.6867C59.1695 40.252 53.7344 46.227 53.7344 55.1953C53.7344 66.8678 63.4262 74.6494 73.1179 74.6494C82.8097 74.6494 92.5015 66.8678 92.5015 55.1953C92.5015 46.751 86.5223 40.086 78.933 37.6867V33.7959" stroke="white" stroke-width="2" stroke-linecap="round" stroke-linejoin="round"/>
<path d="M78.9296 26.0141V22.1233H80.8679C83.0092 22.1233 84.7446 20.3815 84.7446 18.2325V16.2871H61.4844V18.2325C61.4844 20.3815 63.2198 22.1233 65.3611 22.1233H67.2994V26.0141" stroke="white" stroke-width="2" stroke-linecap="round" stroke-linejoin="round"/>
<path d="M53.7344 57.1409C53.7344 57.1409 55.6727 51.3047 63.4262 51.3047C73.1179 51.3047 75.0563 61.0317 84.7481 61.0317C90.5631 61.0317 92.5015 55.1955 92.5015 55.1955" stroke="white" stroke-width="2" stroke-linejoin="round" stroke-dasharray="4 4"/>
<path d="M47.9175 22.1236V10.4512H40.1641V22.1236" stroke="white" stroke-width="2" stroke-linecap="round" stroke-linejoin="round"/>
<path d="M47.9141 78.54V37.6865" stroke="white" stroke-width="2" stroke-linecap="round" stroke-linejoin="round"/>
<path d="M40.1641 37.6865V78.54" stroke="white" stroke-width="2" stroke-linecap="round" stroke-linejoin="round"/>
<path d="M82.8047 29.9053H86.6814" stroke="white" stroke-width="2" stroke-linecap="round" stroke-linejoin="round"/>
<path d="M51.7969 29.9053H63.427" stroke="white" stroke-width="2" stroke-linecap="round" stroke-linejoin="round"/>
<path d="M51.7958 78.54H69.241V86.3217H18.8438V78.54H44.0424" stroke="white" stroke-width="2" stroke-linecap="round" stroke-linejoin="round"/>
<path d="M28.5312 29.9053H36.2847" stroke="white" stroke-width="2" stroke-linecap="round" stroke-linejoin="round"/>
<path d="M5.27344 29.9053H9.15015" stroke="white" stroke-width="2" stroke-linecap="round" stroke-linejoin="round"/>
<path d="M51.7959 22.124H36.2891V37.6873H51.7959V22.124Z" stroke="white" stroke-width="2" stroke-linecap="round" stroke-linejoin="round"/>
<path d="M82.8073 26.0146H76.9922V33.7963H82.8073V26.0146Z" stroke="white" stroke-width="2" stroke-linecap="round" stroke-linejoin="round"/>
<path d="M69.2369 26.0146H63.4219V33.7963H69.2369V26.0146Z" stroke="white" stroke-width="2" stroke-linecap="round" stroke-linejoin="round"/>
<path d="M28.5338 26.0146H22.7188V33.7963H28.5338V26.0146Z" stroke="white" stroke-width="2" stroke-linecap="round" stroke-linejoin="round"/>
<path d="M14.9635 26.0146H9.14844V33.7963H14.9635V26.0146Z" stroke="white" stroke-width="2" stroke-linecap="round" stroke-linejoin="round"/>
</svg>
