<svg width="97" height="96" viewBox="0 0 97 96" fill="none" xmlns="http://www.w3.org/2000/svg">
<path d="M40.137 82.38C43.487 82.38 45.707 79.53 45.707 76.01V73.89C45.707 70.37 43.487 67.52 40.137 67.52C36.787 67.52 34.567 70.37 34.567 73.89V76.01C34.567 79.53 36.787 82.38 40.137 82.38Z" stroke="white" stroke-width="1.5" stroke-linecap="round" stroke-linejoin="round"/>
<path d="M19.6971 86.09C23.0471 86.09 25.2671 83.24 25.2671 79.72V77.6C25.2671 74.08 23.0471 71.23 19.6971 71.23C16.3471 71.23 14.1271 74.08 14.1271 77.6V79.72C14.1271 83.24 16.3471 86.09 19.6971 86.09Z" stroke="white" stroke-width="1.5" stroke-linecap="round" stroke-linejoin="round"/>
<path d="M51.2871 91.67V87.95C51.2871 83.35 44.0071 82.38 40.1371 82.38C36.2671 82.38 28.9871 83.35 28.9871 87.95V91.67" stroke="white" stroke-width="1.5" stroke-linecap="round" stroke-linejoin="round"/>
<path d="M28.9871 88.3C26.5671 86.55 22.3371 86.1 19.6971 86.1C15.8271 86.1 8.54712 87.07 8.54712 91.67" stroke="white" stroke-width="1.5" stroke-linecap="round" stroke-linejoin="round"/>
<path d="M60.5771 86.09C57.2271 86.09 55.0071 83.24 55.0071 79.72V77.6C55.0071 74.08 57.2271 71.23 60.5771 71.23C63.9271 71.23 66.1471 74.08 66.1471 77.6V79.72C66.1471 83.24 63.9271 86.09 60.5771 86.09Z" stroke="white" stroke-width="1.5" stroke-linecap="round" stroke-linejoin="round"/>
<path d="M51.2871 88.3C53.7071 86.55 57.9371 86.1 60.5771 86.1C64.4471 86.1 71.7271 87.07 71.7271 91.67" stroke="white" stroke-width="1.5" stroke-linecap="round" stroke-linejoin="round"/>
<path d="M15.9771 4.32996H62.4371C65.5171 4.32996 68.0071 6.82996 68.0071 9.89996V45.21C68.0071 49.31 64.6771 52.64 60.5771 52.64H30.8471L23.0471 63.05C21.9771 64.48 19.7071 63.72 19.7071 61.94V52.65H15.9871C12.9071 52.65 10.4171 50.15 10.4171 47.08V9.90996C10.4171 6.82996 12.9171 4.33996 15.9871 4.33996L15.9771 4.32996Z" stroke="white" stroke-width="1.5" stroke-linecap="round" stroke-linejoin="round"/>
<path d="M45.707 56.36C45.707 59.44 48.207 61.93 51.277 61.93H67.997L75.877 71.12C76.997 72.43 79.147 71.64 79.147 69.91V61.93H82.867C85.947 61.93 88.437 59.43 88.437 56.36V22.91C88.437 19.83 85.937 17.34 82.867 17.34H71.717" stroke="white" stroke-width="1.5" stroke-linecap="round" stroke-linejoin="round"/>
<path d="M45.7971 28.45C45.7971 31.55 43.2871 34.07 40.1771 34.07C37.0671 34.07 34.5571 31.56 34.5571 28.45C34.5571 25.34 37.0671 22.83 40.1771 22.83C43.2871 22.83 45.7971 25.34 45.7971 28.45Z" stroke="white" stroke-width="1.5" stroke-linecap="round" stroke-linejoin="round"/>
<path d="M53.1871 28.45C53.1871 27.42 53.0571 26.42 52.8271 25.46L56.4771 23.35L52.7571 16.91L49.1171 19.01C47.6471 17.61 45.8471 16.56 43.8571 15.97V11.76H36.4271V15.99C34.4471 16.59 32.6771 17.65 31.2171 19.04L27.5171 16.91L23.7971 23.35L27.5271 25.5C27.3071 26.45 27.1771 27.43 27.1771 28.45C27.1771 29.47 27.3171 30.5 27.5471 31.47L23.8071 33.63L27.5271 40.07L31.2771 37.9C32.7271 39.26 34.4771 40.31 36.4271 40.89V45.21H43.8571V40.92C45.8271 40.34 47.5971 39.3 49.0671 37.93L52.7671 40.07L56.4871 33.63L52.8171 31.51C53.0571 30.52 53.1971 29.5 53.1971 28.44L53.1871 28.45Z" stroke="white" stroke-width="1.5" stroke-linecap="round" stroke-linejoin="round"/>
</svg>
