<svg width="96" height="96" viewBox="0 0 96 96" fill="none" xmlns="http://www.w3.org/2000/svg">
<path d="M40.57 73.88L51.45 82.6001C52.42 83.3901 53.17 83.8701 54.14 83.5001L84.84 71.57C86.49 70.93 87.19 70.23 87.41 68.71L92.18 36.5401C92.32 35.5801 91.85 34.14 90.96 33.43L65.59 13.0901C64.8 12.4601 63.45 12.1601 62.29 12.5801L32.38 24.2301C31.03 24.5001 29.92 25.5601 29.71 27.0001L29.03 31.6101M26.18 50.8301L25.03 58.6C24.83 60.01 25.07 61.46 26.09 62.28L33.4 68.14M28.18 37.39L27.04 45.0801" stroke="white" stroke-width="1.5" stroke-linecap="round" stroke-linejoin="round"/>
<path d="M61.6601 22.03L57.4101 47.51L35.5601 55.48" stroke="white" stroke-width="1.5" stroke-linecap="round" stroke-linejoin="round"/>
<path d="M57.41 47.51L78.43 64.16" stroke="white" stroke-width="1.5" stroke-linecap="round" stroke-linejoin="round"/>
<path d="M11.48 31.73H38.39" stroke="white" stroke-width="1.5" stroke-linecap="round" stroke-linejoin="round"/>
<path d="M3.79004 45.1899H32.62" stroke="white" stroke-width="1.5" stroke-linecap="round" stroke-linejoin="round"/>
<path d="M13.4 68.25H46.08" stroke="white" stroke-width="1.5" stroke-linecap="round" stroke-linejoin="round"/>
</svg>
