<svg width="96" height="96" viewBox="0 0 96 96" fill="none" xmlns="http://www.w3.org/2000/svg">
<path d="M29.21 31.5601C31.54 28.9101 34.41 26.79 37.62 25.35C40.83 23.9 44.32 23.15 47.85 23.15H52V27.29L70.64 14.86L52 2.43994V6.57996H47.86C37.01 6.56996 26.6 10.82 18.86 18.42" stroke="white" stroke-width="1.5" stroke-miterlimit="10"/>
<path d="M31.41 66.64C28.76 64.31 26.64 61.44 25.19 58.23C23.74 55.02 22.99 51.53 23 48V43.86H27.14L14.71 25.22L2.28003 43.86H6.41998V48C6.40998 58.85 10.66 69.26 18.26 77" stroke="white" stroke-width="1.5" stroke-miterlimit="10"/>
<path d="M66.5001 64.4399C64.1701 67.0899 61.3001 69.21 58.0901 70.66C54.8801 72.11 51.39 72.86 47.86 72.85H43.72V68.71L25.0801 81.14L43.72 93.5601V89.42H47.86C58.7 89.44 69.12 85.19 76.86 77.59" stroke="white" stroke-width="1.5" stroke-miterlimit="10"/>
<path d="M64.3 29.36C66.95 31.69 69.0701 34.56 70.5201 37.77C71.9701 40.98 72.7201 44.47 72.7101 48V52.14H68.5701L81.0001 70.78L93.42 52.14H89.29V48C89.3 37.15 85.0501 26.74 77.4501 19" stroke="white" stroke-width="1.5" stroke-miterlimit="10"/>
<path d="M54.73 37.64C52.69 36.29 50.3 35.5699 47.86 35.5699C45.42 35.5599 43.02 36.28 40.99 37.64" stroke="white" stroke-width="1.5" stroke-miterlimit="10"/>
<path d="M37.0901 54.21C36.0001 52.32 35.4201 50.18 35.4301 48C35.4301 45.82 36.0001 43.67 37.0901 41.79" stroke="white" stroke-width="1.5" stroke-miterlimit="10"/>
<path d="M58.62 54.21C59.71 52.32 60.29 50.18 60.28 48C60.28 45.82 59.71 43.67 58.62 41.79" stroke="white" stroke-width="1.5" stroke-miterlimit="10"/>
<path d="M54.73 58.36C52.69 59.71 50.3 60.4301 47.86 60.4301C45.42 60.4301 43.02 59.71 40.99 58.36" stroke="white" stroke-width="1.5" stroke-miterlimit="10"/>
</svg>
